<svg xmlns="http://www.w3.org/2000/svg" width="128" height="128" viewBox="0 0 128 128"><circle cx="64" cy="64" r="64" fill="#004987"/><circle cx="64" cy="64" r="53.25" fill="#fff"/><path d="M97.9,78.3a3,3,0,0,0,.08-.67v-19a2.88,2.88,0,1,0-5.75,0V69.1l-1.78,0V37.58a2.88,2.88,0,1,0-5.75,0V63.16H82.93V32.93a2.88,2.88,0,0,0-5.76,0V63.16H75.51V37.58a2.88,2.88,0,0,0-5.76,0V63.16H68V43.67a2.88,2.88,0,0,0-5.76,0V78.31A14.45,14.45,0,0,0,62,80.78c0,8.72,8.09,15.79,18.06,15.79S98.12,89.5,98.12,80.78a14.39,14.39,0,0,0-.22-2.48" fill="#00aeef"/><path d="M26.24,70.51A13.39,13.39,0,0,0,39.63,83.9,13.11,13.11,0,0,0,53,70.51c0-9.75-13.51-28.24-13.51-28.24S26.24,61.09,26.24,70.51" fill="#821518"/></svg>