<svg xmlns="http://www.w3.org/2000/svg" xmlns:xlink="http://www.w3.org/1999/xlink" viewBox="0 0 128 128"><defs><clipPath id="a"><path d="M64.18,4a60,60,0,1,0,60,60A60,60,0,0,0,64.18,4Z" fill="none"/></clipPath><linearGradient id="b" x1="37.69" y1="16.28" x2="84.96" y2="33.49" gradientUnits="userSpaceOnUse"><stop offset="0.36" stop-color="#e1c3b5"/><stop offset="0.47" stop-color="#ddbdae"/><stop offset="0.63" stop-color="#d1ab9c"/><stop offset="0.81" stop-color="#bd8d7e"/><stop offset="1" stop-color="#a56959"/></linearGradient><linearGradient id="c" x1="95.58" y1="-703.95" x2="125.07" y2="-661.83" gradientTransform="translate(-371.01 569.93) rotate(34.62)" gradientUnits="userSpaceOnUse"><stop offset="0.36" stop-color="#e1c3b5"/><stop offset="0.45" stop-color="#ddbdae"/><stop offset="0.58" stop-color="#d1ab9c"/><stop offset="0.73" stop-color="#bd8d7e"/><stop offset="0.88" stop-color="#a56959"/></linearGradient><linearGradient id="d" x1="24.05" y1="83.44" x2="159.2" y2="5.42" gradientUnits="userSpaceOnUse"><stop offset="0.02" stop-color="#9e1f63"/><stop offset="0.09" stop-color="#ab1f54" stop-opacity="0.76"/><stop offset="0.2" stop-color="#c21f3b" stop-opacity="0.35"/><stop offset="0.29" stop-color="#d01f2c" stop-opacity="0.1"/><stop offset="0.33" stop-color="#d51f26" stop-opacity="0"/></linearGradient></defs><path d="M63.79,4a60,60,0,1,0,60,60A60,60,0,0,0,63.79,4Z" fill="#fff"/><g clip-path="url(#a)"><path d="M104.48-37.62a88.3,88.3,0,0,1-3.39,22.81c-2.71,8.75-8.17,13.64-9.91,20s-1.9,18.45-8.1,33.12C77.2,52.27,65,59.05,62.24,64.56S49.42,96.11,39.13,94.73c-7-.94-20.54-10.46-18.32-28.38,2.06-16.7,15.73-21.43,17.44-28.95,5.48-24,10.6-24.26,12.34-31s-.85-21,4.61-38.19C58.72-42.9,104.48-37.62,104.48-37.62Z" fill="url(#b)"/><path d="M21.25,76.25c2.5,10.86,10.48,17.62,22.91,20.1C55.34,98.59,63.89,91,73,90c21.45-2.26,33.24-6.61,42.75-7.51,5.73-.54,12-1.29,13.54-.4a23.47,23.47,0,0,0,5.4,2.66c3.35,1.25,22.83,2.5,26,2.09a14.12,14.12,0,0,1,9,2c2.79,1.62,4.59,4.69,6.42,4.89s4-.77,2.21-3.65-2.83-4.85-4-5.8-8.61-4.12-8.07-5.12,7.62.54,9.8,1.74,3.86,3.58,6.08,4.51,5.66-1.19,2.49-4.69c-3.34-3.68-3.9-5.28-5.4-6.16s-8.84-1.38-9.29-2.91,7.75-.75,10-.55,7.9,3.17,11.8,3.42c1.68.11,5.3-2.43,1.51-4.59S184,65.57,182,64.5,169,63.11,168.59,62.1s10.18.32,12.17.93,7.72,3.66,9.72,3.82,4.29-2.07,1.33-4.11-7.23-3.93-9.2-5.44-6-2-9.71-2.74-5.39-1.59-7-1.64-7.57.72-7.84.23c-.37-.69.9-1.52,3.56-1.66s8.25,0,10.32-3.39c1.11-1.83-1-3-4.05-2.64-5.09.51-9.29-1.39-11.13-.68-2.15.82-6.57,3.39-10,4.22s-4.88,2.27-7.61,4-7.84,4.77-10.74,4.63c-5.69-.27-20.15,3-32.36.82s-29.72-9.66-48.78-6.64C28.76,54.78,17.56,60.25,21.25,76.25Z" fill="url(#c)"/><path d="M193.35,69.9c-3.78-2.16-9.36-4.33-11.34-5.4S169,63.11,168.59,62.1s10.18.32,12.17.93,7.72,3.66,9.72,3.82,4.29-2.07,1.33-4.11-7.23-3.93-9.2-5.44-6-2-9.71-2.74-5.39-1.59-7-1.64-7.57.72-7.84.23c-.37-.69.9-1.52,3.56-1.66s8.25,0,10.32-3.39c1.11-1.83-1-3-4.05-2.64-5.09.51-9.29-1.39-11.13-.68-2.15.82-6.57,3.39-10,4.22s-4.88,2.27-7.61,4-7.84,4.77-10.74,4.63c-5.69-.27-20.15,3-32.36.82-6.38-1.14-14.22-3.73-23-5.51a48.67,48.67,0,0,0,10-14.63c6.2-14.67,6.36-26.73,8.1-33.12s7.2-11.29,9.91-20a88.3,88.3,0,0,0,3.39-22.81S58.72-42.9,55.2-31.82C49.74-14.64,52.32-.4,50.59,6.37s-6.86,7-12.34,31c-1.71,7.52-15.38,12.25-17.44,28.95a29.89,29.89,0,0,0-.24,3.58,21.89,21.89,0,0,0,.24,3.95c0,.29.08.58.13.87v0A25.09,25.09,0,0,0,22.39,80l.15.38c.11.26.22.52.34.78a24.9,24.9,0,0,0,14,13.07,39.59,39.59,0,0,0,7.24,2.14C55.34,98.59,63.89,91,73,90c21.45-2.26,33.24-6.61,42.75-7.51,5.73-.54,12-1.29,13.54-.4a23.47,23.47,0,0,0,5.4,2.66c3.35,1.25,22.83,2.5,26,2.09a14.12,14.12,0,0,1,9,2c2.79,1.62,4.59,4.69,6.42,4.89s4-.77,2.21-3.65-2.83-4.85-4-5.8-8.61-4.12-8.07-5.12,7.62.54,9.8,1.74,3.86,3.58,6.08,4.51,5.66-1.19,2.49-4.69c-3.34-3.68-3.9-5.28-5.4-6.16s-8.84-1.38-9.29-2.91,7.75-.75,10-.55,7.9,3.17,11.8,3.42C193.52,74.6,197.14,72.06,193.35,69.9Z" opacity="0.8" fill="url(#d)"/></g><path d="M64,0a64,64,0,1,0,64,64A64,64,0,0,0,64,0Zm0,119a55,55,0,1,1,55-55A55,55,0,0,1,64,119Z" fill="#004987"/></svg>