<svg xmlns="http://www.w3.org/2000/svg" xmlns:xlink="http://www.w3.org/1999/xlink" viewBox="0 0 128 128"><defs><clipPath id="a"><path d="M63.79,4a60,60,0,1,0,60,60A60,60,0,0,0,63.79,4Z" fill="none"/></clipPath><radialGradient id="b" cx="44.25" cy="292.94" r="11.07" gradientTransform="translate(45.89 -305.6) scale(0.83 1.19)" gradientUnits="userSpaceOnUse"><stop offset="0.22" stop-color="#d51f26"/><stop offset="0.24" stop-color="#d51f26" stop-opacity="0.96"/><stop offset="0.44" stop-color="#d51f26" stop-opacity="0.62"/><stop offset="0.62" stop-color="#d51f26" stop-opacity="0.35"/><stop offset="0.78" stop-color="#d51f26" stop-opacity="0.16"/><stop offset="0.9" stop-color="#d51f26" stop-opacity="0.04"/><stop offset="0.97" stop-color="#d51f26" stop-opacity="0"/></radialGradient><linearGradient id="c" x1="89.44" y1="86.09" x2="89.44" y2="35.78" gradientUnits="userSpaceOnUse"><stop offset="0.03" stop-color="#aa3636" stop-opacity="0"/><stop offset="0.67" stop-color="#aa3636" stop-opacity="0.98"/><stop offset="1" stop-color="#aa3636"/></linearGradient></defs><path d="M63.79,4a60,60,0,1,0,60,60A60,60,0,0,0,63.79,4Z" fill="#fff"/><g clip-path="url(#a)"><path d="M36.3,74.63s-1.53,1.21-5.62.26c-3.89-.9-4.52-3.27-4.52-3.27a6.44,6.44,0,0,1-4.68-1.11c-3-2-2.65-3.94-2.65-3.94s-3.32,0-5.21-4.91c-1.73-4.44.17-6.79.17-6.79s-1.64-1.76-.89-6S16.36,44,16.36,44a6.49,6.49,0,0,1,1.44-5.46c2.32-2.85,4.74-2.44,4.74-2.44a3.4,3.4,0,0,1,1.77-3.43,4.08,4.08,0,0,1,3.85-.47s-.08-2.38,3.06-3.95,5.21-.61,5.21-.61.24-2.05,3.74-2.58,4.19.58,4.19.58.67-1.87,5.52-2.44,5.68,1.39,5.68,1.39.77-1.91,3.91-2,3.61,1.49,3.61,1.49.92-1.64,4.52-1.38c3.26.24,4.23,2,4.23,2A3.5,3.5,0,0,1,75.1,24c2.15.47,2.35,2,2.35,2s1.42-1.6,5.5-.4,4.2,3,4.2,3,2.19-1.06,5.56.46c3.6,1.63,4,3.44,4,3.44a5.2,5.2,0,0,1,4.47.86c2.09,1.62,1.62,3.33,1.62,3.33s2.68-.54,4.83,3.06c2,3.31.88,4.93.88,4.93s2.08-.12,3.42,4c1.28,4-.09,5.5-.09,5.5s2.7.24,2.7,6-1.85,5.75-1.85,5.75,2.73,1.81,2.55,7.5c-.19,6.28-3.12,8.77-3.12,8.77s.22,3.9-5,6.4c-4.44,2.15-7.61.18-7.61.18S102,96.9,91,102.14c-10.57,5.06-15.1.88-15.1.88l11,27.93-6.19,1.87L62.22,94.55a5.19,5.19,0,0,1-2.66-1.13,4.28,4.28,0,0,1-1.81-2.49s-1,1.41-4.13,1.63-4.43-1.44-4.43-1.44a7,7,0,0,1-5-1.18C41.53,88.22,42,86,42,86a3.06,3.06,0,0,1-2.86-1.67A2.59,2.59,0,0,1,39,81.23s-2.1.51-3.51-2.22A3.79,3.79,0,0,1,36.3,74.63Z" fill="#cebcab"/><ellipse cx="82.59" cy="43.78" rx="9.18" ry="13.2" transform="translate(-10.3 33.36) rotate(-21.52)" opacity="0.76" fill="url(#b)"/><path d="M76.55,86.09h2.76S93.1,70.62,94.51,61.23c1-6.53-1.34-8,.36-14,1.64-5.78,7.46-10.08,7.46-10.08a21.37,21.37,0,0,0-4.22,3.07,4.33,4.33,0,0,1-.57-1.8,14.38,14.38,0,0,1,.12-2.63,7.36,7.36,0,0,0-.45,2.54,17.1,17.1,0,0,0,.38,2.47,16.27,16.27,0,0,0-3.78,6.1A12.47,12.47,0,0,0,93,52.54a5.38,5.38,0,0,0-3-2.45c-1.58-.66-4.56-1.28-5.74-2.63s-1-3.41-1.56-5c-1.11-3.07-2.47-3.91-2.46-3.81a9.68,9.68,0,0,1,2,4c.47,1.74.13,3.77,1.39,5.33s4.19,2,5.9,2.86a7.1,7.1,0,0,1,3.74,3.89,25.51,25.51,0,0,1-.25,6.44C91.82,68.74,76.55,86.09,76.55,86.09Z" fill="url(#c)"/></g><path d="M64,0a64,64,0,1,0,64,64A64,64,0,0,0,64,0Zm0,119a55,55,0,1,1,55-55A55,55,0,0,1,64,119Z" fill="#004987"/></svg>