<svg xmlns="http://www.w3.org/2000/svg" width="128" height="128" viewBox="0 0 128 128"><circle cx="64" cy="64" r="64" fill="#004987"/><circle cx="64" cy="64" r="53.25" fill="#fff"/><polygon points="73.62 80.11 73.62 84.02 69.71 84.02 69.71 87.48 73.62 87.48 73.62 91.39 77.08 91.39 77.08 87.48 80.99 87.48 80.99 84.02 77.08 84.02 77.08 80.11 73.62 80.11" fill="#821518" fill-rule="evenodd"/><path d="M64.16,24.29A40.52,40.52,0,0,0,39.24,96.77c-4.87-16.56-2.37-25.32,15.21-27,4.94,8.3,14.35,8.44,19.66.29,17.1,1.71,19.41,7.52,15.58,26.23a40.52,40.52,0,0,0-25.53-72ZM52.08,57.9l3.53,1.57c-.61,1.79.29,4.73,1.29,6.24l-1.72.87A27.65,27.65,0,0,1,52.08,57.9ZM72.39,69.78c-5.55,6.31-10.91,6-16.54-.33V67.61l1.81-.92c3.49,3.87,10.18,4,13.25-.44l1.41.62A18,18,0,0,1,72.39,69.78ZM73,65.9a8.6,8.6,0,0,0-1.49-.72c.71-1.43,1.36-4.3.75-5.86l3.42-1.73A25.85,25.85,0,0,1,73,65.9Zm2.92-9.81-4.32,2.18c-1.63-1.79-13.76-1.87-15.41.12l-4.44-2c-.78-3.84-1.45-7.28-.28-11.17-.29-.46-.13-6.06-.13-7,0-.62.83-.9,1.69-1.14a38.65,38.65,0,0,1,20.77,0c.86.24,1.7.52,1.7,1.14V44.3C76.93,48.25,76.54,52.06,75.94,56.09Z" fill="#00aeef" fill-rule="evenodd"/></svg>