<svg xmlns="http://www.w3.org/2000/svg" xmlns:xlink="http://www.w3.org/1999/xlink" width="128" height="128" viewBox="0 0 128 128"><defs><clipPath id="a"><circle cx="64" cy="64" r="55" fill="none"/></clipPath><linearGradient id="b" x1="78.25" y1="120.56" x2="78.25" y2="74.93" gradientUnits="userSpaceOnUse"><stop offset="0.14" stop-color="#d86a6a"/><stop offset="0.69" stop-color="#e5b5b3"/></linearGradient><linearGradient id="c" x1="63.68" y1="108.86" x2="63.68" y2="74.93" gradientUnits="userSpaceOnUse"><stop offset="0.03" stop-color="#821518"/><stop offset="0.21" stop-color="#a2191d"/><stop offset="0.4" stop-color="#be1c22"/><stop offset="0.56" stop-color="#cf1e25"/><stop offset="0.69" stop-color="#d51f26"/></linearGradient><linearGradient id="d" x1="78.25" y1="43.37" x2="78.25" y2="8.23" gradientUnits="userSpaceOnUse"><stop offset="0.27" stop-color="#d86a6a"/><stop offset="0.81" stop-color="#e5b5b3"/></linearGradient><linearGradient id="e" x1="-111.43" y1="144.99" x2="-91.02" y2="144.99" gradientTransform="translate(75 -123.32) rotate(-15.44)" gradientUnits="userSpaceOnUse"><stop offset="0" stop-color="#cebcab"/><stop offset="0.31" stop-color="#d7c6b7"/><stop offset="0.69" stop-color="#e5d8ca"/></linearGradient><linearGradient id="f" x1="23.51" y1="42.01" x2="47.22" y2="42.01" gradientUnits="userSpaceOnUse"><stop offset="0.01" stop-color="#cebcab"/><stop offset="0.06" stop-color="#d9cabb"/><stop offset="0.13" stop-color="#e3d7ca"/><stop offset="0.22" stop-color="#e8dfd2"/><stop offset="0.36" stop-color="#eae1d5"/><stop offset="0.65" stop-color="#eae1d5"/><stop offset="0.76" stop-color="#e8ded2"/><stop offset="0.86" stop-color="#e1d5c7"/><stop offset="0.96" stop-color="#d5c5b5"/><stop offset="1" stop-color="#cebcab"/></linearGradient><linearGradient id="g" x1="11.99" y1="78.94" x2="32.27" y2="78.94" gradientUnits="userSpaceOnUse"><stop offset="0" stop-color="#cebcab"/><stop offset="0.25" stop-color="#d6c6b7"/><stop offset="0.69" stop-color="#eae1d5"/></linearGradient><linearGradient id="h" x1="30.6" y1="81.13" x2="55.03" y2="81.13" gradientUnits="userSpaceOnUse"><stop offset="0.01" stop-color="#cebcab"/><stop offset="0.05" stop-color="#d9cabb"/><stop offset="0.11" stop-color="#e3d7ca"/><stop offset="0.18" stop-color="#e8dfd2"/><stop offset="0.29" stop-color="#eae1d5"/><stop offset="0.76" stop-color="#eae1d5"/><stop offset="0.84" stop-color="#e8ded2"/><stop offset="0.91" stop-color="#e1d5c7"/><stop offset="0.97" stop-color="#d5c5b5"/><stop offset="1" stop-color="#cebcab"/></linearGradient><linearGradient id="i" x1="-645.19" y1="42.01" x2="-621.48" y2="42.01" gradientTransform="matrix(-1, 0, 0, 1, -512.42, 0)" xlink:href="#f"/><linearGradient id="j" x1="-656.7" y1="78.94" x2="-636.43" y2="78.94" gradientTransform="matrix(-1, 0, 0, 1, -512.42, 0)" xlink:href="#g"/><linearGradient id="k" x1="-638.1" y1="81.13" x2="-613.67" y2="81.13" gradientTransform="matrix(-1, 0, 0, 1, -512.42, 0)" xlink:href="#h"/></defs><circle cx="64" cy="64" r="64" fill="#004987"/><g clip-path="url(#a)"><rect x="3.36" y="39.8" width="149.78" height="43.7" fill="#911a1d"/><rect x="3.36" y="74.93" width="149.78" height="45.64" fill="url(#b)"/><path d="M31.45,89s.23,14.47,4.91,14.47,6.31-7.38,7.73-10.37c2.19-4.61,4.92-5.67,7.26-4.5s1.95,7.58,3.12,9.92,2.72-.16,5.06,2.18,3.35,8.31,6.93,8.19c5.85-.19,8.94-5.66,10.14-12.68.56-3.23.23-5.76,1.5-5.76s.16,7.08,4.85,11.76,10,1.49,12.33-2.08c4.13-6.4-13.51-25.17-13.51-25.17H46.66Z" fill="url(#c)"/><rect x="3.36" y="8.23" width="149.78" height="35.15" fill="url(#d)"/><path d="M16.53,36.65c-2.78-3.83-4.37-10.38-8.12-9.76S2.3,38.52,4.15,50.14s3.38,14.2,5.78,14.31,5.85-2.2,8-3.33,3.56-5.78,3.42-9.58.34-6.77-1.52-9.93A36.28,36.28,0,0,0,16.53,36.65Z" fill="#9b887b"/><path d="M20.77,34.5C17.42,31,13.71,24.61,9.46,25.67S4.61,38,7.26,49.49s4.52,13.88,7.26,13.72,6.59-2.89,9-4.27,3.81-6.23,3.46-10,.08-6.84-2.19-9.8A33.68,33.68,0,0,0,20.77,34.5Z" fill="url(#e)"/><path d="M42.59,34.15c-2.66-4.3-4.84-11.41-9.91-11.53s-8.42,8.07-9,19.83S23.91,60.21,27,60.78s12.22.93,15.33.23,5.07-.8,4.84-4.49.23-14.3-1.38-17.76S44.09,36.57,42.59,34.15Z" fill="url(#f)"/><path d="M51.12,61.13c3.8.81,18,1.15,22.94.23,3.63-.67,5.07-8.76,3.92-21s-9-23-17.29-22.72S45.47,29,45.35,41.65,46.49,60.15,51.12,61.13Z" fill="#eae1d5"/><path d="M19.22,75s0-2.44-2-6.39c-1.08-2.05-1.33-5-2.34-5.08C13.29,63.39,10,67,7.58,73.31S3.24,87,5.11,87.32s3.68-3.21,6.94-6.86S17.91,75.44,19.22,75Z" fill="#9b887b"/><path d="M25.43,75.68s-.13-3-3-7.76c-1.49-2.46-2-6.05-3.29-6.12-1.95-.1-5.7,4.58-8.26,12.64S6.56,91.78,8.89,92s4.32-4.26,8.08-9S23.84,76.28,25.43,75.68Z" fill="#b4a090"/><path d="M32.27,76.81s-.58-3.57-4.27-9c-1.91-2.82-2.76-7-4.26-7-2.31,0-6.46,5.77-9,15.45S10.71,97,13.48,97.1s4.84-5.3,9-11.18S30.43,77.62,32.27,76.81Z" fill="url(#g)"/><path d="M36.54,100.45c-3.62.16-5.48-14-5.85-21.68s.37-16.95,4.23-16.95,14.2.35,16.32.35,4.11,2,3.74,6.69.13,11.52-1.62,13.83-7.72,4.84-10.22,8.76S39.16,100.33,36.54,100.45Z" fill="url(#h)"/><path d="M77.83,81.65C77,93.93,74,102.75,66.58,103S54.07,87,53.93,82.23a146.79,146.79,0,0,1,.42-15c.28-1.84.56-4.9,3.09-5s15.33-.11,17.16-.11S79.1,63.78,77.83,81.65Z" fill="#eae1d5"/><path d="M113.69,34.15c2.66-4.3,4.84-11.41,9.91-11.53s8.42,8.07,9,19.83-.23,17.76-3.35,18.33-12.22.93-15.33.23-5.07-.8-4.84-4.49-.23-14.3,1.38-17.76S112.19,36.57,113.69,34.15Z" fill="url(#i)"/><path d="M105.16,61.13c-3.8.81-18,1.15-22.94.23-3.63-.67-5.07-8.76-3.92-21s9-23,17.29-22.72,15.22,11.3,15.34,24S109.79,60.15,105.16,61.13Z" fill="#eae1d5"/><path d="M124,76.81s.58-3.57,4.27-9c1.91-2.82,2.76-7,4.26-7,2.31,0,6.46,5.77,9,15.45s4,20.76,1.27,20.87-4.84-5.3-9-11.18S125.85,77.62,124,76.81Z" fill="url(#j)"/><path d="M119.74,100.45c3.62.16,5.48-14,5.85-21.68s-.37-16.95-4.23-16.95-14.21.35-16.32.35-4.11,2-3.74,6.69-.13,11.52,1.62,13.83,7.72,4.84,10.22,8.76S117.12,100.33,119.74,100.45Z" fill="url(#k)"/><path d="M78.45,81.65c.87,12.28,3.8,21.1,11.25,21.33s12.51-16,12.65-20.75a146.79,146.79,0,0,0-.42-15c-.28-1.84-.56-4.9-3.09-5s-15.33-.11-17.16-.11S77.18,63.78,78.45,81.65Z" fill="#eae1d5"/></g></svg>