<svg xmlns="http://www.w3.org/2000/svg" viewBox="0 0 128 128"><path d="M45.78,38c-4.52,2-6.11,7.17-6.11,7.17s-1.15-2.42.69-6.44,2.51-6.19-.83-8.2-6.2.5-7.37,2.51A30.09,30.09,0,0,0,29,40.86a35.84,35.84,0,0,0-.5,14.23c.81,3.77,2.85,7.54,8,8.21S47,55.43,47,55.43a35.45,35.45,0,0,1,.34,5.35c0,3.35-1.68,11.72-1.68,11.72-7.86,2-14.39,12.56-14.23,17.92.1,3,2,8.2,4.36,12.72s8.53,8.37,9.54,10,.67,7.53.67,10.71,3.52,3.52,6.86,4,4.19-1.5,5-3.68.16-10.55-.84-14.9-2.85-4.52-5-8-1.68-5.86-1.68-5.86a17.28,17.28,0,0,0,4.19-1,12.19,12.19,0,0,0,4.69-2.85c3.85.84,10.21-.67,11.21-1.17s2.35,1.17,3.18,2.18-3.85,8.7-5.52,9.87-2.18,6.2-2.34,13.4,2.84,7.7,6.69,8.2,4.36-2.18,4.86-5.36.17-7.2.84-9.71-2.7,3.16,8.2-7.53c8.87-8.71,9.54-17.92,6.36-22.94a25.93,25.93,0,0,0-10.21-8.71c.33-1-.67-10.88-1-15.23s.51-3.52.51-3.52c7.2,5.53,14.9,3.85,16.74-.16,1.18-2.59,2.18-5,0-12.56-1.34-4.64-5.94-11.27-8-13s-3.85-2.34-6.2-.83a4,4,0,0,0-2,4.68c.33,1.18,1.38,2.42,2.95,4.91a13.86,13.86,0,0,1,2.32,6.7A12.54,12.54,0,0,0,80.69,35c-4.92-1.69-6.68-.75-8.54-.33-1.51.33-1-.84,0-1.18s4.15-1.28,4.65-3.62-.63-6.76-.8-8.1,1.51-1.34,1.17-3-1.34-1.51-3-3,.16-3.19-.48-5.53C70.8-.27,59.49-1.67,49.71,1.49c-7.87,2.54-11.55,9.9-10,18.61S51.89,33,51.72,35.67Z" fill="#004e7d"/></svg>