<svg xmlns="http://www.w3.org/2000/svg" width="128" height="128" viewBox="0 0 128 128"><path d="M118.82,105a15.19,15.19,0,0,0-.45-2.23c-2.35-8.11-5.46-13.23-8.55-16.52A19.28,19.28,0,0,0,98.18,80c-.29-.06-.58-.13-.87-.18a9.56,9.56,0,0,1-2.26-3.54c-1.44-3.63-1.87-8.81-1.83-14a126.77,126.77,0,0,1,1.71-18.42h0c0-1.28,0-2.51-.08-3.71l-.06-1.12c-.05-.81-.09-1.61-.16-2.38l-.12-1.21c-.07-.72-.15-1.41-.25-2.1l-.15-1.13c-.11-.7-.23-1.38-.35-2.05-.06-.3-.11-.62-.17-.92q-.28-1.36-.6-2.64a.29.29,0,0,1,0-.1c-.23-.89-.48-1.73-.74-2.54-.09-.24-.17-.47-.25-.71-.19-.56-.39-1.11-.6-1.64l-.31-.78c-.2-.48-.41-.94-.62-1.4-.12-.24-.23-.49-.34-.73l-.7-1.32-.33-.59c-.32-.55-.66-1.08-1-1.58a1.29,1.29,0,0,0-.09-.16c-.38-.56-.76-1.08-1.15-1.58l-.35-.42c-.28-.34-.56-.68-.85-1l-.45-.47c-.26-.28-.53-.55-.8-.82l-.45-.43c-.29-.26-.57-.5-.86-.74l-.42-.35c-.37-.28-.73-.56-1.11-.82a1.92,1.92,0,0,0-.17-.13c-.43-.3-.87-.58-1.31-.84L79.7,7.3l-.92-.51-.48-.24-.83-.38L77,6l-.84-.33-.43-.16c-.33-.12-.66-.23-1-.32l-.27-.09L73.3,4.74l-.37-.08-.78-.17-.43-.08-.66-.11-.43-.06L70,4.16l-.39,0-.62,0-.31,0-.8,0h-.71c-.63,0-1.13,0-1.48.06h-.12l-.31,0h-.19L64,4.06l-1.08.05h-.19l-.31,0H62.3c-.35,0-.85,0-1.48,0h-.71L59.3,4l-.26,0-.67.06-.36,0-.65.08-.4,0-.71.13-.39.06L55,4.67l-.3.07c-.4.09-.8.2-1.21.32l-.2.06-1,.34-.4.15L51,6l-.44.19-.88.41-.44.22-1,.54-.32.19q-.66.39-1.32.84l-.12.09c-.4.27-.78.56-1.17.87l-.39.32c-.3.24-.59.5-.89.77l-.43.41c-.29.27-.56.55-.84.84l-.42.45c-.29.33-.59.68-.87,1l-.33.39c-.39.5-.78,1-1.15,1.59l-.08.12c-.35.52-.67,1.06-1,1.62-.11.18-.21.38-.32.58-.23.43-.47.88-.7,1.34-.12.24-.23.47-.34.72l-.63,1.41c-.1.26-.21.51-.31.77-.21.54-.41,1.1-.6,1.67-.07.23-.16.45-.23.68-.27.82-.52,1.67-.76,2.55a.36.36,0,0,1,0,.11c-.21.84-.42,1.72-.6,2.63-.06.3-.11.61-.17.91-.12.67-.24,1.35-.35,2.05-.06.37-.1.76-.15,1.14-.1.68-.18,1.38-.25,2.1,0,.4-.08.79-.11,1.21-.07.77-.12,1.57-.17,2.38,0,.37,0,.73-.06,1.12-.05,1.2-.08,2.43-.08,3.71h0a128.41,128.41,0,0,1,1.71,18.42c.05,5.14-.38,10.31-1.83,14a9.6,9.6,0,0,1-2.26,3.53c-.3,0-.59.12-.87.18a19.3,19.3,0,0,0-11.64,6.2c-3.09,3.29-6.2,8.43-8.55,16.52A10.6,10.6,0,0,0,9.19,105a11.59,11.59,0,0,0,1.24,6.44C15.53,121,42.33,124,64,124s48.48-3,53.57-12.6A11.7,11.7,0,0,0,118.82,105ZM84.26,78.38a4.7,4.7,0,0,1-1,2.32C80.53,84.16,72.93,89.15,64,89.15s-16.56-5-19.26-8.45a4.81,4.81,0,0,1-1-2.32h0c.13-.05.44-.15.85-.34a5.43,5.43,0,0,0,.54-.27c1.64-.86,4-2.65,4-5.8h0a25.94,25.94,0,0,0,8.52,5.8,16.91,16.91,0,0,0,12.86,0A25.7,25.7,0,0,0,79,72l.06,0c.06,4.06,4.14,5.84,5.24,6.25A.23.23,0,0,1,84.26,78.38ZM89,48.27a9.15,9.15,0,0,1-2.24,5,1.41,1.41,0,0,1-1.14.4,1,1,0,0,1-.58-.3c-2.1,6.53-6.1,13-11.16,16.93A16,16,0,0,1,64.1,74a16,16,0,0,1-9.81-3.72c-5-3.9-9-10.38-11.11-16.88a1.06,1.06,0,0,1-.57.3,1.55,1.55,0,0,1-1.32-.57,9.72,9.72,0,0,1-2.08-4.82c-.5-2.82-.1-5.31.89-6a1.13,1.13,0,0,1,.44-.19,1.39,1.39,0,0,1,1.09.37.45.45,0,0,1,0-.08c.12-1.22,1.75-15,12-14L85.12,44.53l2.55-2.46a.73.73,0,0,1,.25.08C89,42.67,89.52,45.29,89,48.27Z" fill="#004e7d"/></svg>