<svg xmlns="http://www.w3.org/2000/svg" xmlns:xlink="http://www.w3.org/1999/xlink" width="128" height="128" viewBox="0 0 128 128"><defs><clipPath id="a"><circle cx="64" cy="64" r="55" fill="none"/></clipPath><linearGradient id="b" x1="34.09" y1="55.02" x2="64.73" y2="98.79" gradientUnits="userSpaceOnUse"><stop offset="0.36" stop-color="#e1c3b5"/><stop offset="0.45" stop-color="#ddbdae"/><stop offset="0.58" stop-color="#d1ab9c"/><stop offset="0.73" stop-color="#bd8d7e"/><stop offset="0.88" stop-color="#a56959"/></linearGradient><clipPath id="c"><path d="M-22.92,134c7.36,6.57,33.57,0,51.43-15.16S54.23,91.37,62.22,84.74c4.81-4,10-8.53,11.91-8.66a26,26,0,0,0,6.5-1c3.78-.95,22.06-11.77,24.63-14.07a15.49,15.49,0,0,1,9.34-3.79c3.52-.28,7,1.35,8.8.4s3.1-3.12-.27-4.6-5.55-2.57-7.18-2.71-10.28,1.63-10.42.41,7.17-4.2,9.88-4.47,5.69.81,8.26.27,4.34-4.52-.68-5.68c-5.28-1.22-6.77-2.3-8.66-2.17s-8.8,4.2-10.15,3.12,6.49-5.42,8.66-6.64,9.07-2,12.72-4.19c1.59-.94,3.25-5.42-1.49-5s-11.1,1.89-13.53,2.16S98,34.93,97,34.26s9.34-6,11.51-6.64,9.2-1.49,11.1-2.57,2.57-4.47-1.36-4.47-8.93,1-11.64.82S100,23.29,96.19,24.92s-5.82,1.89-7.31,2.84-6.36,5.28-6.9,5c-.77-.39-.14-1.9,2.16-3.66s7.45-5,7.18-9.34c-.15-2.3-2.71-2-5.28.14-4.25,3.58-9.2,4.46-10.42,6.22-1.42,2.05-3.79,7-6.36,9.88s-3,5-4.34,8.26-4.08,9-6.76,10.69C52.88,58.21,41.91,70,29.6,75.54s-33.71,9.88-46.43,26.53C-29.36,118.46-26.71,130.63-22.92,134Z" fill="none"/></clipPath><radialGradient id="d" cx="-54.48" cy="160.29" r="20.08" gradientTransform="translate(117.32 -52.45) scale(1.29 0.77)" gradientUnits="userSpaceOnUse"><stop offset="0.05" stop-color="#d51f26"/><stop offset="0.73" stop-color="#d51f26" stop-opacity="0.22"/><stop offset="0.92" stop-color="#d51f26" stop-opacity="0"/></radialGradient><radialGradient id="e" cx="-56.98" cy="165" r="12.95" gradientTransform="translate(118.82 -51.54) scale(1.29 0.77)" gradientUnits="userSpaceOnUse"><stop offset="0.05" stop-color="#92278f"/><stop offset="0.16" stop-color="#92278f" stop-opacity="0.95"/><stop offset="0.32" stop-color="#92278f" stop-opacity="0.83"/><stop offset="0.51" stop-color="#92278f" stop-opacity="0.62"/><stop offset="0.71" stop-color="#92278f" stop-opacity="0.33"/><stop offset="0.92" stop-color="#92278f" stop-opacity="0"/></radialGradient></defs><circle cx="64" cy="64" r="64" fill="#004987"/><g clip-path="url(#a)"><rect x="-9.72" y="7.83" width="149.78" height="112.34" fill="#fff"/><path d="M-22.92,134c7.36,6.57,33.57,0,51.43-15.16S54.23,91.37,62.22,84.74c4.81-4,10-8.53,11.91-8.66a26,26,0,0,0,6.5-1c3.78-.95,22.06-11.77,24.63-14.07a15.49,15.49,0,0,1,9.34-3.79c3.52-.28,7,1.35,8.8.4s3.1-3.12-.27-4.6-5.55-2.57-7.18-2.71-10.28,1.63-10.42.41,7.17-4.2,9.88-4.47,5.69.81,8.26.27,4.34-4.52-.68-5.68c-5.28-1.22-6.77-2.3-8.66-2.17s-8.8,4.2-10.15,3.12,6.49-5.42,8.66-6.64,9.07-2,12.72-4.19c1.59-.94,3.25-5.42-1.49-5s-11.1,1.89-13.53,2.16S98,34.93,97,34.26s9.34-6,11.51-6.64,9.2-1.49,11.1-2.57,2.57-4.47-1.36-4.47-8.93,1-11.64.82S100,23.29,96.19,24.92s-5.82,1.89-7.31,2.84-6.36,5.28-6.9,5c-.77-.39-.14-1.9,2.16-3.66s7.45-5,7.18-9.34c-.15-2.3-2.71-2-5.28.14-4.25,3.58-9.2,4.46-10.42,6.22-1.42,2.05-3.79,7-6.36,9.88s-3,5-4.34,8.26-4.08,9-6.76,10.69C52.88,58.21,41.91,70,29.6,75.54s-33.71,9.88-46.43,26.53C-29.36,118.46-26.71,130.63-22.92,134Z" fill="url(#b)"/><g clip-path="url(#c)"><ellipse cx="46.88" cy="71.32" rx="25.96" ry="15.5" transform="translate(-22.22 21.22) rotate(-20.74)" fill="url(#d)"/><ellipse cx="45.14" cy="75.87" rx="16.74" ry="10" transform="translate(-23.94 20.9) rotate(-20.74)" opacity="0.57" fill="url(#e)"/></g></g></svg>