<svg xmlns="http://www.w3.org/2000/svg" xmlns:xlink="http://www.w3.org/1999/xlink" width="128" height="128" viewBox="0 0 128 128"><defs><clipPath id="a"><circle cx="64" cy="64" r="55" fill="none"/></clipPath><linearGradient id="b" x1="32.17" y1="40.15" x2="69.62" y2="18.53" gradientUnits="userSpaceOnUse"><stop offset="0.02" stop-color="#bb8876"/><stop offset="0.05" stop-color="#bb8876" stop-opacity="0.86"/><stop offset="0.11" stop-color="#bb8876" stop-opacity="0.63"/><stop offset="0.17" stop-color="#bb8876" stop-opacity="0.44"/><stop offset="0.23" stop-color="#bb8876" stop-opacity="0.28"/><stop offset="0.3" stop-color="#bb8876" stop-opacity="0.15"/><stop offset="0.37" stop-color="#bb8876" stop-opacity="0.07"/><stop offset="0.45" stop-color="#bb8876" stop-opacity="0.02"/><stop offset="0.55" stop-color="#bb8876" stop-opacity="0"/></linearGradient><linearGradient id="c" x1="50.72" y1="51.52" x2="50.72" y2="43.49" gradientUnits="userSpaceOnUse"><stop offset="0" stop-color="#844c42" stop-opacity="0"/><stop offset="0.15" stop-color="#844c42" stop-opacity="0.12"/><stop offset="0.43" stop-color="#844c42" stop-opacity="0.44"/><stop offset="0.83" stop-color="#844c42" stop-opacity="0.95"/><stop offset="0.86" stop-color="#844c42"/></linearGradient><linearGradient id="d" x1="-202.89" y1="40.15" x2="-165.44" y2="18.53" gradientTransform="matrix(-1, 0, 0, 1, -107.52, 0)" xlink:href="#b"/><linearGradient id="e" x1="-184.34" y1="51.52" x2="-184.34" y2="43.49" gradientTransform="matrix(-1, 0, 0, 1, -107.52, 0)" xlink:href="#c"/><linearGradient id="f" x1="63.8" y1="52.34" x2="63.8" y2="31.49" xlink:href="#b"/><linearGradient id="g" x1="63.77" y1="112.37" x2="63.77" y2="90.98" gradientUnits="userSpaceOnUse"><stop offset="0.06" stop-color="#aa3636" stop-opacity="0.7"/><stop offset="0.15" stop-color="#b44b4b" stop-opacity="0.7"/><stop offset="0.42" stop-color="#cf8583" stop-opacity="0.7"/><stop offset="0.63" stop-color="#dfa8a6" stop-opacity="0.7"/><stop offset="0.76" stop-color="#e5b5b3" stop-opacity="0.7"/><stop offset="1" stop-color="#edd3d2"/></linearGradient><linearGradient id="h" x1="63.77" y1="92.96" x2="63.77" y2="76.46" gradientUnits="userSpaceOnUse"><stop offset="0" stop-color="#aa3636"/><stop offset="0.08" stop-color="#b34a49" stop-opacity="0.95"/><stop offset="0.35" stop-color="#ce8483" stop-opacity="0.82"/><stop offset="0.58" stop-color="#dfa8a6" stop-opacity="0.73"/><stop offset="0.73" stop-color="#e5b5b3" stop-opacity="0.7"/><stop offset="1" stop-color="#edd3d2"/></linearGradient><linearGradient id="i" x1="69.81" y1="75.2" x2="57.92" y2="54.61" gradientUnits="userSpaceOnUse"><stop offset="0.06" stop-color="#edd3d2" stop-opacity="0.7"/><stop offset="0.21" stop-color="#edd3d2" stop-opacity="0.55"/><stop offset="0.48" stop-color="#edd3d2" stop-opacity="0.31"/><stop offset="0.71" stop-color="#edd3d2" stop-opacity="0.14"/><stop offset="0.89" stop-color="#edd3d2" stop-opacity="0.04"/><stop offset="1" stop-color="#edd3d2" stop-opacity="0"/></linearGradient><linearGradient id="j" x1="72.72" y1="56.82" x2="79.94" y2="56.82" gradientUnits="userSpaceOnUse"><stop offset="0.06" stop-color="#d51f26"/><stop offset="0.33" stop-color="#c11d23"/><stop offset="0.89" stop-color="#8d161a"/><stop offset="1" stop-color="#821518"/></linearGradient></defs><circle cx="64" cy="64" r="64" fill="#004987"/><g clip-path="url(#a)"><rect x="-11.17" y="8.44" width="149.66" height="112.07" fill="#e1c3b5"/><path d="M46.58,8.23a44.78,44.78,0,0,1-5.89,12.09c-4,5.64-9.45,13.83-7.72,20.4S41,49.14,44.5,49s19.18-3.45,19.18-3.45V8.23Z" fill="url(#b)"/><path d="M58.51,51.52s-4.45-8-11-8-5.19,3.23-1.15,3.57,5.88-.92,8.18.58A16.87,16.87,0,0,1,58.51,51.52Z" fill="url(#c)"/><path d="M81,8.23a44.57,44.57,0,0,0,5.88,12.09c4,5.64,9.45,13.83,7.72,20.4S86.5,49.14,83,49s-19.18-3.45-19.18-3.45V8.23Z" fill="url(#d)"/><path d="M69,51.52s4.45-8,11-8,5.19,3.23,1.15,3.57-5.88-.92-8.18.58A16.87,16.87,0,0,0,69,51.52Z" fill="url(#e)"/><ellipse cx="63.8" cy="41.92" rx="10.61" ry="10.43" fill="url(#f)"/><path d="M101.28,92.48c-5.85,0-16.38-2.34-24.57-1.17a102.23,102.23,0,0,1-13,1.17,101.3,101.3,0,0,1-12.87-1.17c-8.2-1.17-18.73,1.17-24.58,1.17s-9.36-2.34-9.36-1.17,5.39,7.8,18.72,15.21c10.54,5.85,28.09,5.85,28.09,5.85s17.69,0,28.22-5.85c13.34-7.41,18.73-14,18.73-15.21S107.14,92.48,101.28,92.48Z" fill="url(#g)"/><path d="M98.8,86.63c-7-3.51-8.19-7-17.55-9.36s-15.1,1.1-17.48,1.16S55.56,75,46.29,77.27s-10.53,5.85-17.56,9.36c-6.61,3.31-12.87,3.51-11.7,4.68s7,2.34,15.22,1.17c7.82-1.12,29.5-.1,31.45,0h.14c2-.09,23.63-1.11,31.45,0,8.19,1.17,14,0,15.21-1.17S105.42,89.94,98.8,86.63Z" fill="url(#h)"/><ellipse cx="63.86" cy="64.9" rx="8.97" ry="12.71" fill="url(#i)"/><path d="M76.69,51.79c.11,5.42,4.42,12.84,2.94,16.14a3.53,3.53,0,0,1-6.46,0c-1.64-3.15,1.67-10.37,1.67-16,0-4.1-1.26-5.65-1.26-5.65a6.91,6.91,0,0,1,2.19-1.56,9.71,9.71,0,0,1,3.11-1.09S76.54,44.76,76.69,51.79Z" fill="url(#j)"/></g></svg>