<?xml version="1.0" encoding="utf-8"?>
<!-- Generator: Adobe Illustrator 25.0.0, SVG Export Plug-In . SVG Version: 6.00 Build 0)  -->
<svg version="1.1" id="Layer_1" xmlns="http://www.w3.org/2000/svg" xmlns:xlink="http://www.w3.org/1999/xlink" x="0px" y="0px"
	 viewBox="0 0 376.7 243.6" style="enable-background:new 0 0 376.7 243.6;" xml:space="preserve">
<style type="text/css">
	.st0{fill:url(#SVGID_1_);}
	.st1{fill:#F297A2;}
	.st2{fill:#EA5964;}
	.st3{fill:#88BAE2;}
	.st4{fill:#D51F26;}
	.st5{fill:#A71F23;}
	.st6{fill:#FFDE17;}
	.st7{fill:#004987;}
	.st8{fill:#FFFFFF;}
	.st9{fill:none;stroke:#231F20;stroke-width:0.5;stroke-miterlimit:10;}
	.st10{fill:none;stroke:#000000;stroke-width:0.5;stroke-miterlimit:10;}
	.st11{fill:#636363;}
</style>
<linearGradient id="SVGID_1_" gradientUnits="userSpaceOnUse" x1="-527.3" y1="2158.54" x2="-527.3" y2="2064.9399" gradientTransform="matrix(1 0 0 -1 727.7 2217.0801)">
	<stop  offset="0" style="stop-color:#E5B5B3"/>
	<stop  offset="0.17" style="stop-color:#E5B5B3"/>
	<stop  offset="0.3" style="stop-color:#E3B0AE"/>
	<stop  offset="0.45" style="stop-color:#DCA2A0"/>
	<stop  offset="0.62" style="stop-color:#D18A89"/>
	<stop  offset="0.79" style="stop-color:#C26968"/>
	<stop  offset="0.97" style="stop-color:#AE3F3F"/>
	<stop  offset="1" style="stop-color:#AA3636"/>
</linearGradient>
<polygon class="st0" points="60,103.7 91.6,103.7 123.4,108.1 141.4,105.5 201.2,107.4 235.6,103.7 255,107.2 296.8,103.7 
	340.8,103.7 340.8,197.3 60,197.3 "/>
<polygon class="st1" points="78.8,102.4 122.7,108.4 141.4,105.9 200.4,109.8 236,106.1 255.5,109.1 310.3,103.7 292.3,92.3 
	255,96.7 236.2,94.5 200.4,99 142,94.5 120.6,97.4 86.1,91.2 "/>
<rect x="60" y="190.1" class="st2" width="280.8" height="14.4"/>
<path class="st3" d="M180.1,142.1c0.3,0,0.5,0,0.8,0.1c0.3,0,0.5,0.1,0.8,0.2c0.3,0.1,0.5,0.2,0.7,0.4s0.4,0.3,0.6,0.5
	c0.2,0.2,0.4,0.4,0.5,0.6c0.1,0.2,0.3,0.5,0.4,0.7c0.1,0.3,0.2,0.5,0.2,0.8c0.1,0.3,0.1,0.5,0.1,0.8s0,0.5-0.1,0.8s-0.1,0.5-0.2,0.8
	c-0.1,0.3-0.2,0.5-0.4,0.7s-0.3,0.4-0.5,0.6c-0.2,0.2-0.4,0.4-0.6,0.5c-0.2,0.2-0.5,0.3-0.7,0.4c-0.2,0.1-0.5,0.2-0.8,0.2
	c-0.5,0.1-1.1,0.1-1.6,0c-0.3,0-0.5-0.1-0.8-0.2c-0.3-0.1-0.5-0.2-0.7-0.4s-0.4-0.3-0.6-0.5c-0.2-0.2-0.4-0.4-0.5-0.6
	c-0.1-0.2-0.3-0.5-0.4-0.7c-0.1-0.3-0.2-0.5-0.2-0.8c-0.1-0.3-0.1-0.5-0.1-0.8s0-0.5,0.1-0.8s0.1-0.5,0.2-0.8
	c0.1-0.3,0.2-0.5,0.4-0.7s0.3-0.4,0.5-0.6c0.2-0.2,0.4-0.4,0.6-0.5c0.2-0.2,0.5-0.3,0.7-0.4c0.2-0.1,0.5-0.2,0.8-0.2
	C179.6,142.1,179.8,142.1,180.1,142.1z"/>
<path class="st3" d="M301,118.6c0.3,0,0.5,0,0.8,0.1c0.5,0.1,1,0.3,1.5,0.6c0.5,0.3,0.8,0.7,1.1,1.2c0.2,0.2,0.3,0.5,0.4,0.7
	c0.1,0.3,0.2,0.5,0.2,0.8c0.1,0.5,0.1,1.1,0,1.6c-0.1,0.3-0.1,0.5-0.2,0.8s-0.2,0.5-0.4,0.7c-0.3,0.5-0.7,0.8-1.1,1.2
	c-0.2,0.2-0.5,0.3-0.7,0.4c-0.3,0.1-0.5,0.2-0.8,0.2c-0.5,0.1-1.1,0.1-1.6,0s-1-0.3-1.5-0.6c-0.5-0.3-0.8-0.7-1.1-1.2
	c-0.1-0.2-0.3-0.5-0.4-0.7c-0.1-0.3-0.2-0.5-0.2-0.8c-0.1-0.5-0.1-1.1,0-1.6c0.1-0.3,0.1-0.5,0.2-0.8s0.2-0.5,0.4-0.7
	c0.3-0.5,0.7-0.8,1.1-1.2c0.2-0.1,0.5-0.3,0.7-0.4c0.3-0.1,0.5-0.2,0.8-0.2C300.4,118.7,300.7,118.6,301,118.6z"/>
<path class="st3" d="M323,173.4c0.3,0,0.5,0,0.8,0.1s0.5,0.1,0.8,0.2c0.3,0.1,0.5,0.2,0.7,0.4s0.4,0.3,0.6,0.5s0.4,0.4,0.5,0.6
	c0.2,0.2,0.3,0.5,0.4,0.7c0.1,0.3,0.2,0.5,0.2,0.8c0.1,0.3,0.1,0.5,0.1,0.8s0,0.5-0.1,0.8c0,0.3-0.1,0.5-0.2,0.8s-0.2,0.5-0.4,0.7
	c-0.2,0.2-0.3,0.4-0.5,0.6c-0.2,0.2-0.4,0.4-0.6,0.5c-0.2,0.2-0.5,0.3-0.7,0.4c-0.3,0.1-0.5,0.2-0.8,0.2c-0.5,0.1-1.1,0.1-1.6,0
	s-1-0.3-1.5-0.6c-0.2-0.2-0.4-0.3-0.6-0.5s-0.4-0.4-0.5-0.6c-0.2-0.2-0.3-0.5-0.4-0.7c-0.1-0.3-0.2-0.5-0.2-0.8
	c-0.1-0.3-0.1-0.5-0.1-0.8s0-0.5,0.1-0.8s0.1-0.5,0.2-0.8s0.2-0.5,0.4-0.7c0.2-0.2,0.3-0.4,0.5-0.6c0.2-0.2,0.4-0.4,0.6-0.5
	c0.5-0.3,1-0.5,1.5-0.6C322.5,173.5,322.7,173.4,323,173.4z"/>
<path class="st4" d="M136.5,147.6c0.2-0.4,0.5-0.7,0.8-1.1c0.3-0.3,0.6-0.6,1-0.9c0.4-0.3,0.8-0.5,1.2-0.8c0.4-0.2,0.9-0.5,1.3-0.6
	c0.5-0.2,1-0.4,1.5-0.5c1.1-0.3,2.2-0.4,3.4-0.5c0.6,0,1.2,0,1.9,0s1.3,0.1,1.9,0.2s1.3,0.2,2,0.4s1.4,0.3,2.1,0.5s1.4,0.4,2.1,0.7
	s1.4,0.5,2.1,0.8s1.4,0.6,2.1,0.9s1.4,0.7,2.1,1.1s1.3,0.8,2,1.2s1.3,0.9,1.9,1.3s1.2,0.9,1.8,1.4s1.2,1,1.7,1.5s1.1,1,1.6,1.6
	s1,1.1,1.5,1.6s0.9,1.1,1.3,1.6s0.8,1.1,1.1,1.7s0.7,1.1,1,1.7s0.6,1.1,0.8,1.7s0.4,1.1,0.6,1.6s0.3,1.1,0.4,1.6
	c0.1,0.5,0.2,1,0.2,1.6c0,0.5,0,1,0,1.5s-0.1,0.9-0.2,1.4c-0.1,0.4-0.2,0.9-0.4,1.3c-0.2,0.4-0.4,0.8-0.6,1.2
	c-0.2,0.4-0.5,0.7-0.8,1.1c-0.3,0.3-0.6,0.6-1,0.9c-0.4,0.3-0.8,0.5-1.2,0.8c-0.4,0.2-0.9,0.5-1.3,0.6c-0.5,0.2-1,0.4-1.5,0.5
	s-1.1,0.2-1.6,0.3c-0.6,0.1-1.2,0.1-1.8,0.1s-1.2,0-1.9,0s-1.3-0.1-1.9-0.2s-1.3-0.2-2-0.3s-1.4-0.3-2.1-0.5s-1.4-0.4-2.1-0.7
	s-1.4-0.5-2.1-0.8s-1.4-0.6-2.1-0.9s-1.4-0.7-2-1.1s-1.4-0.8-2-1.2s-1.3-0.9-1.9-1.3s-1.2-0.9-1.8-1.4s-1.2-1-1.7-1.5
	s-1.1-1-1.6-1.6s-1-1.1-1.5-1.6s-0.9-1.1-1.3-1.7s-0.8-1.1-1.1-1.7s-0.7-1.1-1-1.7s-0.6-1.1-0.8-1.7c-0.2-0.5-0.4-1.1-0.6-1.6
	c-0.3-1-0.5-2.1-0.6-3.2c0-0.5,0-1,0-1.5s0.1-0.9,0.2-1.4c0.1-0.4,0.3-0.9,0.4-1.3C136.1,148.3,136.3,147.9,136.5,147.6z"/>
<path class="st1" d="M157.4,159c-4.5-2.9-7.6-6.6-8.1-9.3c0,0.1-0.1,0.1-0.1,0.2c-1.5,2.4,1.7,7.2,7.3,10.7s11.2,4.5,12.8,2.1
	c0-0.1,0.1-0.1,0.1-0.2C166.6,163.2,161.9,161.9,157.4,159L157.4,159z"/>
<path class="st5" d="M161.1,153.3c4.5,2.9,7.6,6.6,8.1,9.3l0.1-0.2c1.5-2.4-1.7-7.2-7.3-10.7s-11.2-4.5-12.8-2.1
	c0,0.1-0.1,0.1-0.1,0.2C151.9,149.1,156.6,150.4,161.1,153.3z"/>
<path class="st5" d="M151,169c-10.2-6.6-15.8-16.3-13.4-22.7c-0.4,0.4-0.8,0.8-1.1,1.3c-4,6.3,1.6,17.2,12.7,24.3s23.3,7.7,27.4,1.4
	c0.3-0.5,0.6-1,0.8-1.5C172.4,176.6,161.2,175.6,151,169z"/>
<path class="st4" d="M295.1,149.7c0.7-0.4,1.4-0.7,2.1-1s1.4-0.6,2.2-0.8s1.5-0.5,2.2-0.7s1.5-0.4,2.2-0.6s1.4-0.3,2.1-0.4
	s1.4-0.2,2.1-0.3s1.4-0.1,2-0.1s1.3,0,2,0s1.2,0.1,1.8,0.2s1.2,0.2,1.7,0.4s1.1,0.3,1.6,0.5s1,0.4,1.4,0.6c0.4,0.2,0.9,0.5,1.3,0.8
	s0.7,0.6,1.1,0.9c0.3,0.3,0.6,0.6,0.9,1s0.5,0.7,0.7,1.1c0.2,0.4,0.4,0.8,0.5,1.2s0.2,0.9,0.3,1.3c0.1,0.5,0.1,0.9,0.1,1.4
	s-0.1,1-0.1,1.5c-0.1,0.5-0.2,1-0.4,1.5c-0.2,0.5-0.3,1.1-0.6,1.6c-0.2,0.5-0.5,1.1-0.8,1.6s-0.6,1.1-1,1.6s-0.7,1-1.2,1.6
	s-0.9,1-1.3,1.5s-1,1-1.5,1.5s-1.1,1-1.6,1.4s-1.2,0.9-1.8,1.4s-1.2,0.9-1.9,1.3s-1.3,0.8-2,1.2s-1.4,0.7-2.1,1.1s-1.4,0.7-2.1,1
	s-1.4,0.6-2.2,0.9s-1.5,0.5-2.2,0.7s-1.5,0.4-2.2,0.6s-1.4,0.3-2.1,0.4s-1.4,0.2-2.1,0.3s-1.4,0.1-2,0.1s-1.3,0-2-0.1
	s-1.2-0.1-1.8-0.2c-0.6-0.1-1.2-0.2-1.7-0.4c-0.5-0.1-1.1-0.3-1.6-0.5s-1-0.4-1.4-0.6c-0.4-0.2-0.9-0.5-1.3-0.8s-0.7-0.6-1.1-0.9
	c-0.3-0.3-0.6-0.6-0.9-1s-0.5-0.7-0.7-1.1c-0.2-0.4-0.4-0.8-0.5-1.2s-0.2-0.9-0.3-1.3c-0.1-0.5-0.1-0.9-0.1-1.4c0-1,0.2-2,0.5-3
	c0.2-0.5,0.4-1,0.6-1.6s0.5-1,0.8-1.6s0.6-1.1,1-1.6s0.7-1.1,1.2-1.6s0.9-1,1.3-1.5s1-1,1.5-1.5s1.1-1,1.6-1.4s1.2-0.9,1.8-1.4
	s1.2-0.9,1.9-1.3s1.3-0.8,2-1.2S294.4,150.1,295.1,149.7z"/>
<path class="st1" d="M301.8,163.4c4.8-2.4,9.6-3.1,12.2-2.1c0-0.1,0-0.1-0.1-0.2c-1.2-2.5-7-2.2-12.9,0.7s-9.7,7.3-8.4,9.8
	c0,0.1,0.1,0.1,0.1,0.2C293.5,169.1,297,165.8,301.8,163.4L301.8,163.4z"/>
<path class="st5" d="M304.9,169.5c-4.8,2.4-9.6,3.1-12.2,2.1l0.1,0.2c1.2,2.5,7,2.2,12.9-0.7s9.7-7.3,8.4-9.8l-0.1-0.2
	C313.1,163.8,309.6,167.1,304.9,169.5z"/>
<path class="st5" d="M296.6,152.8c10.9-5.4,22.1-5.1,26.4,0.3c-0.1-0.6-0.3-1.1-0.6-1.6c-3.3-6.7-15.5-7.5-27.3-1.7
	s-18.7,15.9-15.4,22.7c0.2,0.5,0.6,1,0.9,1.4C279,167.2,285.7,158.1,296.6,152.8L296.6,152.8z"/>
<path class="st4" d="M92.7,120.6c0.7-0.3,1.4-0.7,2.1-1s1.4-0.6,2.2-0.8s1.4-0.5,2.2-0.7s1.4-0.4,2.2-0.6s1.4-0.3,2.2-0.4
	s1.4-0.2,2.1-0.3s1.4-0.1,2-0.1s1.3,0,2,0.1s1.2,0.1,1.8,0.2c0.6,0.1,1.2,0.2,1.7,0.3c0.5,0.1,1.1,0.3,1.6,0.5s1,0.4,1.4,0.6
	s0.9,0.5,1.3,0.8s0.7,0.6,1.1,0.9c0.3,0.3,0.6,0.6,0.9,1s0.5,0.7,0.7,1.1s0.4,0.8,0.5,1.2c0.1,0.4,0.2,0.9,0.3,1.3
	c0.1,0.5,0.1,0.9,0.1,1.4c0,1-0.2,2-0.5,3c-0.2,0.5-0.3,1-0.6,1.6s-0.5,1-0.8,1.6s-0.6,1-1,1.6s-0.7,1.1-1.2,1.6s-0.9,1-1.3,1.5
	s-1,1-1.5,1.5s-1.1,1-1.6,1.4s-1.2,0.9-1.8,1.4s-1.2,0.9-1.9,1.3s-1.3,0.8-2,1.2s-1.4,0.7-2.1,1.1s-1.4,0.7-2.1,1s-1.4,0.6-2.2,0.8
	s-1.4,0.5-2.2,0.7s-1.4,0.4-2.2,0.6s-1.4,0.3-2.1,0.4s-1.4,0.2-2.1,0.3s-1.4,0.1-2,0.1s-1.3,0-2,0s-1.2-0.1-1.8-0.2
	s-1.2-0.2-1.7-0.4c-0.5-0.1-1.1-0.3-1.6-0.5s-1-0.4-1.4-0.6c-0.4-0.2-0.9-0.5-1.3-0.8s-0.7-0.6-1.1-0.9c-0.3-0.3-0.6-0.6-0.9-1
	s-0.5-0.7-0.7-1.1c-0.2-0.4-0.4-0.8-0.5-1.2s-0.2-0.9-0.3-1.3c-0.1-0.5-0.1-0.9-0.1-1.4s0.1-1,0.2-1.5s0.2-1,0.4-1.5
	c0.2-0.5,0.3-1.1,0.6-1.6c0.2-0.5,0.5-1.1,0.8-1.6s0.6-1.1,1-1.6c0.3-0.5,0.7-1.1,1.2-1.6s0.9-1,1.3-1.5c0.5-0.5,1-1,1.5-1.5
	s1.1-1,1.7-1.4s1.2-0.9,1.8-1.4s1.2-0.9,1.9-1.3s1.3-0.8,2-1.2S92,120.9,92.7,120.6z"/>
<path class="st1" d="M99.4,134.3c4.8-2.4,9.6-3.1,12.2-2.1c0-0.1,0-0.1-0.1-0.2c-1.2-2.5-7-2.2-12.9,0.7s-9.7,7.3-8.4,9.9
	c0,0.1,0.1,0.1,0.1,0.2C91,140,94.5,136.6,99.4,134.3z"/>
<path class="st5" d="M102.4,140.4c-4.8,2.4-9.6,3.1-12.2,2.1c0,0.1,0,0.1,0.1,0.2c1.2,2.5,7,2.2,12.9-0.7s9.7-7.3,8.4-9.8l-0.1-0.2
	C110.7,134.7,107.2,138,102.4,140.4L102.4,140.4z"/>
<path class="st5" d="M94.1,123.6c10.9-5.4,22.2-5.1,26.4,0.3c-0.1-0.6-0.3-1.1-0.6-1.6c-3.3-6.7-15.5-7.5-27.3-1.7
	S74,136.5,77.3,143.3c0.2,0.5,0.6,1,0.9,1.4C76.6,138,83.2,129,94.1,123.6L94.1,123.6z"/>
<path class="st4" d="M143.1,64.2c0.2-0.8,0.5-1.5,0.8-2.2s0.6-1.5,0.9-2.2s0.6-1.4,1-2.1s0.7-1.3,1.1-2s0.8-1.2,1.2-1.8
	s0.8-1.2,1.2-1.7s0.9-1.1,1.3-1.6s0.9-1,1.4-1.4s0.9-0.8,1.4-1.2s0.9-0.7,1.4-1s0.9-0.6,1.4-0.8s1-0.4,1.4-0.6
	c0.5-0.2,0.9-0.3,1.4-0.4c0.5-0.1,0.9-0.1,1.4-0.2c0.5,0,0.9,0,1.4,0.1c0.4,0.1,0.9,0.2,1.3,0.3c0.4,0.1,0.8,0.3,1.2,0.5
	s0.8,0.4,1.2,0.7s0.7,0.6,1.1,0.9c0.4,0.3,0.7,0.7,1,1.1c0.3,0.4,0.6,0.9,0.9,1.3c0.3,0.5,0.5,1,0.7,1.5s0.4,1.1,0.6,1.6
	c0.2,0.6,0.4,1.2,0.5,1.8s0.3,1.3,0.4,1.9s0.2,1.3,0.2,2s0.1,1.4,0.1,2.1s0,1.5-0.1,2.2s-0.1,1.5-0.2,2.2s-0.2,1.5-0.4,2.2
	s-0.3,1.5-0.5,2.3s-0.4,1.5-0.6,2.2s-0.5,1.5-0.7,2.2s-0.6,1.4-0.9,2.2s-0.6,1.4-1,2.1s-0.7,1.3-1.1,2s-0.8,1.3-1.2,1.8
	s-0.8,1.2-1.2,1.7s-0.9,1.1-1.3,1.6s-0.9,1-1.4,1.4s-0.9,0.8-1.4,1.2s-0.9,0.7-1.4,1s-1,0.6-1.4,0.8c-0.5,0.2-1,0.4-1.4,0.6
	c-0.5,0.2-0.9,0.3-1.4,0.4s-0.9,0.1-1.4,0.2c-0.5,0-0.9,0-1.4-0.1c-0.4-0.1-0.9-0.1-1.3-0.3c-0.9-0.3-1.7-0.7-2.4-1.2
	c-0.4-0.3-0.7-0.6-1.1-0.9c-0.4-0.3-0.7-0.7-1-1.1s-0.6-0.8-0.9-1.3c-0.3-0.5-0.5-1-0.7-1.5s-0.4-1.1-0.6-1.6s-0.3-1.2-0.5-1.8
	s-0.3-1.3-0.4-1.9s-0.2-1.3-0.2-2s-0.1-1.4-0.1-2.1s0-1.4,0.1-2.2s0.1-1.5,0.2-2.2s0.2-1.5,0.4-2.3s0.3-1.5,0.5-2.3
	S142.9,64.9,143.1,64.2z"/>
<path class="st1" d="M157.7,68.7c1.6-5.2,4.3-9.1,6.8-10.3l-0.2-0.1c-2.7-0.8-6.4,3.6-8.4,9.8s-1.3,12,1.4,12.9h0.2
	C156.1,78.6,156.1,73.8,157.7,68.7L157.7,68.7z"/>
<path class="st5" d="M164.2,70.7c-1.6,5.1-4.3,9.1-6.8,10.3l0.2,0.1c2.7,0.8,6.4-3.6,8.4-9.8s1.3-12-1.4-12.9h-0.2
	C165.8,60.7,165.8,65.6,164.2,70.7z"/>
<path class="st5" d="M146.4,65.2c3.6-11.6,11.5-19.6,18.3-19.1c-0.5-0.3-1-0.5-1.6-0.7c-7.2-2.2-16.1,6.2-20,18.8s-1.1,24.5,6,26.8
	c0.5,0.2,1.1,0.3,1.7,0.3C144.8,87.9,142.8,76.8,146.4,65.2z"/>
<path class="st4" d="M203.3,47.7c0.7-0.4,1.4-0.8,2.1-1.1s1.4-0.7,2.1-1s1.4-0.6,2.1-0.8s1.4-0.5,2.1-0.7s1.4-0.4,2.1-0.6
	s1.4-0.3,2.1-0.4s1.4-0.2,2-0.2s1.3-0.1,1.9-0.1c0.6,0,1.2,0,1.9,0.1c0.6,0,1.2,0.1,1.7,0.2c0.5,0.1,1.1,0.2,1.6,0.4s1,0.3,1.5,0.5
	s0.9,0.4,1.3,0.7c0.8,0.5,1.5,1.1,2.1,1.8c0.3,0.3,0.5,0.7,0.8,1.1c0.2,0.4,0.4,0.8,0.6,1.2c0.2,0.4,0.3,0.9,0.4,1.3
	c0.1,0.5,0.1,0.9,0.2,1.4c0,0.5,0,1-0.1,1.5s-0.1,1-0.3,1.5c-0.1,0.5-0.3,1.1-0.5,1.6s-0.4,1.1-0.7,1.6s-0.6,1.1-0.9,1.6
	s-0.7,1.1-1.1,1.6s-0.8,1.1-1.2,1.6s-0.9,1.1-1.4,1.6c-0.5,0.5-1,1-1.5,1.6s-1.1,1-1.7,1.5s-1.2,1-1.8,1.4s-1.2,0.9-1.9,1.3
	s-1.3,0.8-2,1.2s-1.4,0.8-2.1,1.1s-1.4,0.7-2.1,1s-1.4,0.6-2.1,0.8s-1.4,0.5-2.1,0.7s-1.4,0.4-2.1,0.6s-1.4,0.3-2.1,0.4
	s-1.4,0.2-2,0.2s-1.3,0.1-1.9,0.1s-1.2,0-1.9-0.1s-1.2-0.1-1.7-0.2s-1.1-0.2-1.6-0.4c-0.5-0.2-1-0.3-1.5-0.6
	c-0.5-0.2-0.9-0.4-1.3-0.7c-0.4-0.2-0.8-0.5-1.1-0.8c-0.4-0.3-0.7-0.6-1-1c-0.3-0.3-0.5-0.7-0.8-1.1c-0.2-0.4-0.4-0.8-0.6-1.2
	c-0.2-0.4-0.3-0.9-0.4-1.3c-0.1-0.5-0.1-0.9-0.2-1.4c0-0.5,0-1,0.1-1.5s0.1-1,0.3-1.6c0.1-0.5,0.3-1,0.5-1.6s0.4-1.1,0.7-1.6
	s0.6-1.1,0.9-1.6s0.7-1.1,1-1.6s0.8-1.1,1.2-1.6s0.9-1.1,1.4-1.6s1-1,1.6-1.5s1.1-1,1.7-1.5s1.2-1,1.8-1.4s1.2-0.9,1.9-1.3
	S202.6,48.1,203.3,47.7z"/>
<path class="st1" d="M209.3,58c-4.7,2.7-9.4,3.7-12,3c0,0.1,0,0.1,0.1,0.2c1.4,2.4,7.1,1.8,12.8-1.5s9.2-7.9,7.8-10.4
	c0-0.1-0.1-0.1-0.1-0.2C217.2,51.9,213.9,55.4,209.3,58L209.3,58z"/>
<path class="st5" d="M205.9,52.1c4.7-2.7,9.4-3.8,12-3c0-0.1-0.1-0.1-0.1-0.2c-1.4-2.4-7.1-1.8-12.8,1.5s-9.2,7.9-7.8,10.4l0.1,0.2
	C198,58.3,201.2,54.8,205.9,52.1L205.9,52.1z"/>
<path class="st5" d="M215.2,68.3c-10.5,6.1-21.8,6.6-26.4,1.5c0.2,0.5,0.4,1.1,0.7,1.6c3.8,6.5,16,6.4,27.4-0.1s17.6-17.2,13.8-23.7
	c-0.3-0.5-0.6-1-1-1.4C231.8,52.8,225.7,62.2,215.2,68.3z"/>
<path class="st4" d="M258.8,132.4c0.3-0.4,0.6-0.7,0.9-1s0.6-0.6,1-0.9c0.4-0.3,0.8-0.5,1.2-0.7c0.4-0.2,0.9-0.4,1.4-0.6
	c0.5-0.2,1-0.3,1.5-0.4c0.5-0.1,1.1-0.2,1.6-0.2c0.6-0.1,1.2-0.1,1.8-0.1c0.6,0,1.2,0,1.9,0.1s1.3,0.2,1.9,0.3s1.3,0.3,2,0.4
	s1.4,0.4,2,0.6s1.4,0.5,2,0.8s1.4,0.6,2,0.9s1.4,0.7,2,1.1s1.3,0.8,2,1.2s1.3,0.8,1.9,1.3s1.2,0.9,1.9,1.4s1.2,1,1.8,1.5
	s1.1,1,1.7,1.6s1,1.1,1.5,1.6s1,1.1,1.4,1.7s0.9,1.1,1.2,1.7s0.7,1.2,1.1,1.7s0.6,1.2,0.9,1.7s0.5,1.1,0.7,1.7s0.4,1.1,0.5,1.7
	c0.1,0.5,0.2,1.1,0.3,1.6c0.1,0.5,0.1,1,0.1,1.6c0,0.5,0,1-0.1,1.5s-0.2,0.9-0.3,1.4c-0.1,0.4-0.3,0.9-0.5,1.3
	c-0.2,0.4-0.4,0.8-0.7,1.1c-0.3,0.4-0.6,0.7-0.9,1s-0.6,0.6-1,0.9c-0.4,0.3-0.8,0.5-1.2,0.7c-0.4,0.2-0.9,0.4-1.4,0.6
	c-0.5,0.2-1,0.3-1.5,0.4c-0.5,0.1-1.1,0.2-1.6,0.2c-0.6,0.1-1.2,0.1-1.8,0.1c-0.6,0-1.2,0-1.9-0.1s-1.3-0.1-1.9-0.3s-1.3-0.3-2-0.4
	s-1.4-0.4-2-0.6s-1.4-0.5-2-0.8s-1.4-0.6-2-0.9s-1.4-0.7-2-1.1s-1.3-0.8-2-1.2s-1.3-0.9-1.9-1.3s-1.2-0.9-1.9-1.4s-1.2-1-1.8-1.5
	s-1.1-1-1.6-1.6s-1-1.1-1.5-1.6s-1-1.1-1.4-1.7s-0.9-1.1-1.2-1.7s-0.7-1.2-1.1-1.7s-0.6-1.2-0.9-1.7c-0.3-0.6-0.5-1.1-0.7-1.7
	c-0.2-0.5-0.4-1.1-0.5-1.7c-0.1-0.5-0.2-1.1-0.3-1.6c-0.1-0.5-0.1-1-0.1-1.6c0-0.5,0-1,0.1-1.5s0.1-0.9,0.3-1.4
	c0.1-0.4,0.3-0.9,0.5-1.3C258.4,133.2,258.6,132.8,258.8,132.4z"/>
<path class="st1" d="M279.2,144.9c-4.4-3.1-7.3-6.9-7.7-9.7c-0.1,0-0.1,0.1-0.1,0.2c-1.6,2.3,1.4,7.2,6.7,11.1s11,5,12.6,2.8
	l0.1-0.2C288.2,149.5,283.6,148,279.2,144.9L279.2,144.9z"/>
<path class="st5" d="M283.1,139.3c4.4,3.1,7.3,6.9,7.7,9.7c0-0.1,0.1-0.1,0.1-0.2c1.6-2.3-1.4-7.2-6.7-11.1s-11-5-12.6-2.8
	c0,0.1-0.1,0.1-0.1,0.2C274.2,134.7,278.8,136.3,283.1,139.3z"/>
<path class="st5" d="M272.3,154.5c-9.9-7-15-17.1-12.3-23.4c-0.4,0.4-0.8,0.8-1.1,1.3c-4.4,6.1,0.8,17.2,11.5,24.9
	s22.9,8.8,27.3,2.7c0.3-0.5,0.6-1,0.8-1.5C293.4,163.1,282.2,161.6,272.3,154.5L272.3,154.5z"/>
<path class="st4" d="M210.8,130.3c0.6-0.4,1.3-0.9,1.9-1.3s1.3-0.8,2-1.2s1.4-0.7,2-1s1.4-0.6,2.1-0.9s1.4-0.5,2.1-0.8
	s1.4-0.4,2-0.6s1.3-0.3,2-0.4s1.3-0.2,1.9-0.3s1.2-0.1,1.9-0.1c0.6,0,1.2,0,1.8,0.1c0.6,0,1.1,0.1,1.6,0.2s1,0.2,1.5,0.4
	c0.5,0.2,0.9,0.4,1.4,0.6c0.4,0.2,0.8,0.5,1.2,0.7c0.4,0.3,0.7,0.6,1,0.9s0.6,0.6,0.9,1c0.3,0.4,0.5,0.7,0.7,1.2
	c0.2,0.4,0.4,0.8,0.5,1.3s0.2,0.9,0.3,1.4s0.1,1,0.1,1.5s0,1-0.1,1.6c-0.1,0.5-0.2,1.1-0.3,1.6c-0.1,0.6-0.3,1.1-0.5,1.7
	s-0.4,1.1-0.7,1.7s-0.6,1.1-0.9,1.7s-0.7,1.2-1.1,1.7s-0.8,1.1-1.2,1.7s-0.9,1.1-1.4,1.7s-1,1.1-1.5,1.6s-1.1,1.1-1.7,1.6
	s-1.2,1-1.8,1.5s-1.2,1-1.9,1.4s-1.3,0.9-1.9,1.3s-1.3,0.8-2,1.2s-1.4,0.7-2,1s-1.4,0.6-2.1,0.9s-1.4,0.5-2.1,0.8s-1.4,0.4-2,0.6
	s-1.3,0.3-2,0.4s-1.3,0.2-1.9,0.3s-1.2,0.1-1.9,0.1s-1.2,0-1.8-0.1s-1.1-0.1-1.6-0.2c-0.5-0.1-1-0.2-1.5-0.4s-0.9-0.3-1.4-0.6
	c-0.4-0.2-0.8-0.5-1.2-0.7c-0.4-0.3-0.7-0.6-1-0.9c-0.6-0.6-1.2-1.4-1.5-2.2c-0.2-0.4-0.4-0.8-0.5-1.3s-0.2-0.9-0.3-1.4
	s-0.1-1-0.1-1.5s0.1-1,0.1-1.6c0.1-0.5,0.2-1.1,0.3-1.6c0.1-0.6,0.3-1.1,0.5-1.7c0.2-0.6,0.4-1.1,0.7-1.7s0.6-1.1,0.9-1.7
	s0.7-1.1,1.1-1.7s0.8-1.1,1.2-1.7s0.9-1.1,1.4-1.7s1-1.1,1.5-1.6s1.1-1.1,1.7-1.6s1.2-1,1.8-1.5S210.1,130.8,210.8,130.3z"/>
<path class="st1" d="M217.7,140c-4.4,3.1-8.9,4.6-11.6,4c0,0.1,0.1,0.1,0.1,0.2c1.6,2.3,7.3,1.1,12.7-2.7s8.4-8.7,6.8-11l-0.1-0.2
	C225,133.1,222.1,136.9,217.7,140z"/>
<path class="st5" d="M213.8,134.5c4.4-3.1,8.9-4.6,11.7-4c0-0.1-0.1-0.1-0.1-0.2c-1.6-2.3-7.3-1.1-12.6,2.7s-8.4,8.7-6.8,11
	c0,0.1,0.1,0.1,0.1,0.2C206.4,141.4,209.3,137.6,213.8,134.5L213.8,134.5z"/>
<path class="st5" d="M224.5,149.7c-9.9,7-21.1,8.5-26.1,3.9c0.2,0.5,0.5,1,0.8,1.5c4.3,6.1,16.5,5,27.3-2.6s15.9-18.7,11.6-24.8
	c-0.3-0.5-0.7-0.9-1.1-1.3C239.6,132.7,234.4,142.7,224.5,149.7z"/>
<path class="st4" d="M157.1,26.5c0.1-0.4,0.3-0.9,0.4-1.3c0.2-0.4,0.4-0.8,0.7-1.2c0.3-0.4,0.6-0.8,0.9-1.1c0.3-0.4,0.7-0.7,1.1-1
	c0.4-0.3,0.8-0.6,1.3-0.9s1-0.6,1.4-0.8c0.5-0.3,1.1-0.5,1.6-0.7c0.6-0.2,1.2-0.4,1.8-0.5c0.6-0.2,1.2-0.3,1.9-0.4s1.3-0.2,2-0.3
	s1.4-0.1,2.1-0.1s1.4,0,2.2,0s1.5,0.1,2.2,0.1s1.5,0.2,2.3,0.3s1.5,0.2,2.3,0.4s1.5,0.3,2.3,0.5s1.5,0.4,2.2,0.7s1.5,0.5,2.2,0.8
	s1.4,0.6,2.1,0.9s1.4,0.6,2,1s1.3,0.7,1.9,1.1s1.2,0.8,1.8,1.2s1.1,0.8,1.6,1.2s1,0.9,1.4,1.3s0.9,0.9,1.3,1.4s0.7,0.9,1.1,1.4
	s0.6,0.9,0.9,1.4c0.2,0.5,0.5,0.9,0.6,1.4c0.2,0.5,0.3,0.9,0.4,1.4c0.1,0.5,0.2,0.9,0.2,1.4s0,0.9,0,1.4c0,0.4-0.1,0.9-0.2,1.3
	c-0.1,0.4-0.3,0.9-0.4,1.3c-0.2,0.4-0.4,0.8-0.7,1.2s-0.6,0.8-0.9,1.1c-0.3,0.4-0.7,0.7-1.1,1c-0.4,0.3-0.8,0.6-1.3,0.9
	c-0.5,0.3-0.9,0.5-1.5,0.8s-1.1,0.5-1.6,0.7s-1.2,0.4-1.8,0.5s-1.2,0.3-1.9,0.4s-1.3,0.2-2,0.3s-1.4,0.1-2.1,0.2s-1.4,0-2.2,0
	s-1.5-0.1-2.2-0.1s-1.5-0.2-2.3-0.3s-1.5-0.2-2.3-0.4s-1.5-0.3-2.3-0.5s-1.5-0.4-2.2-0.7s-1.5-0.5-2.2-0.8s-1.4-0.6-2.1-0.9
	s-1.4-0.6-2-1s-1.3-0.7-1.9-1.1s-1.2-0.8-1.8-1.2s-1.1-0.8-1.6-1.2s-1-0.9-1.4-1.3s-0.9-0.9-1.3-1.4c-0.4-0.4-0.7-0.9-1.1-1.4
	c-0.3-0.5-0.6-0.9-0.9-1.4c-0.3-0.5-0.5-0.9-0.7-1.4s-0.3-0.9-0.4-1.4c-0.1-0.5-0.2-0.9-0.2-1.4s0-0.9,0-1.4
	C156.9,27.4,157,27,157.1,26.5z"/>
<path class="st1" d="M180.5,31c-5.2-1.4-9.3-3.9-10.6-6.4c0,0.1-0.1,0.1-0.1,0.2c-0.7,2.7,3.9,6.3,10.2,8s12.1,0.8,12.8-1.9v-0.3
	C190.6,32.2,185.8,32.4,180.5,31z"/>
<path class="st5" d="M182.3,24.4c5.2,1.4,9.3,3.9,10.6,6.4c0-0.1,0.1-0.1,0.1-0.2c0.7-2.7-3.8-6.3-10.2-8s-12.1-0.8-12.8,1.9v0.2
	C172.3,23.2,177.1,23,182.3,24.4L182.3,24.4z"/>
<path class="st5" d="M177.5,42.5c-11.7-3.1-20.1-10.7-19.8-17.5c-0.3,0.5-0.5,1-0.6,1.6c-1.9,7.3,6.8,15.9,19.5,19.2
	s24.6,0.2,26.5-7.1c0.1-0.6,0.2-1.1,0.2-1.7C200.2,43.1,189.2,45.6,177.5,42.5z"/>
<path class="st4" d="M207.6,89.3c0-0.8,0-1.6,0.1-2.3s0.1-1.5,0.2-2.3s0.2-1.5,0.3-2.3s0.3-1.5,0.4-2.2s0.4-1.4,0.6-2.1
	s0.4-1.4,0.7-2s0.5-1.3,0.8-1.9s0.6-1.2,0.9-1.7s0.6-1.1,1-1.6c0.3-0.5,0.7-0.9,1.1-1.4c0.4-0.4,0.7-0.8,1.1-1.2
	c0.4-0.4,0.8-0.7,1.2-1s0.8-0.6,1.3-0.8c0.4-0.2,0.8-0.4,1.3-0.6c0.4-0.2,0.9-0.3,1.3-0.3c0.4-0.1,0.9-0.1,1.3-0.1
	c0.4,0,0.9,0,1.3,0.1c0.4,0.1,0.9,0.2,1.3,0.3c0.4,0.2,0.9,0.3,1.3,0.6c0.4,0.2,0.9,0.5,1.2,0.8c0.4,0.3,0.8,0.6,1.2,1
	s0.8,0.8,1.1,1.2c0.4,0.4,0.7,0.9,1.1,1.4s0.7,1,1,1.6s0.6,1.1,0.9,1.7s0.5,1.2,0.8,1.9s0.5,1.3,0.7,2s0.4,1.4,0.6,2.1
	s0.3,1.5,0.4,2.2s0.2,1.5,0.3,2.3s0.1,1.5,0.2,2.3s0.1,1.6,0.1,2.3s0,1.6-0.1,2.3s-0.1,1.5-0.2,2.3s-0.2,1.5-0.3,2.3
	s-0.3,1.5-0.4,2.2s-0.4,1.4-0.6,2.1s-0.4,1.3-0.7,2s-0.5,1.3-0.8,1.9s-0.6,1.2-0.9,1.7s-0.6,1.1-1,1.6c-0.3,0.5-0.7,0.9-1.1,1.4
	c-0.4,0.4-0.7,0.8-1.1,1.2c-0.4,0.4-0.8,0.7-1.2,1s-0.8,0.5-1.2,0.8c-0.4,0.2-0.9,0.4-1.3,0.6c-0.4,0.1-0.9,0.3-1.3,0.3
	c-0.4,0.1-0.9,0.1-1.3,0.1c-0.4,0-0.9,0-1.3-0.1c-0.4-0.1-0.9-0.2-1.3-0.3c-0.9-0.3-1.8-0.8-2.6-1.4c-0.4-0.3-0.8-0.6-1.2-1
	s-0.8-0.8-1.1-1.2c-0.4-0.4-0.7-0.9-1.1-1.4s-0.7-1-1-1.6s-0.6-1.1-0.9-1.7s-0.6-1.2-0.8-1.9s-0.5-1.3-0.7-2s-0.4-1.4-0.6-2.1
	s-0.3-1.5-0.4-2.2s-0.2-1.5-0.3-2.3s-0.1-1.5-0.2-2.3S207.6,90.1,207.6,89.3z"/>
<path class="st1" d="M219.5,89.4c0,5.4-1.4,10-3.5,11.9h0.2c2.8,0,5.1-5.3,5.1-11.9s-2.3-11.9-5.1-11.9H216
	C218.1,79.4,219.5,84,219.5,89.4L219.5,89.4z"/>
<path class="st5" d="M212.7,89.4c0-5.4,1.4-10,3.5-11.9c-0.1,0-0.1,0-0.2,0c-2.8,0-5.1,5.3-5.1,11.9s2.3,11.9,5.1,11.9h0.2
	C214.1,99.3,212.7,94.7,212.7,89.4L212.7,89.4z"/>
<path class="st5" d="M231.4,89.4c0,12.1-5.2,22.1-11.9,23.6c0.6,0.1,1.1,0.2,1.7,0.2c7.5,0,13.6-10.6,13.6-23.8s-6.1-23.8-13.6-23.8
	c-0.6,0-1.1,0.1-1.7,0.2C226.2,67.2,231.4,77.3,231.4,89.4z"/>
<path class="st4" d="M159.2,99.7c0.2-0.4,0.5-0.8,0.7-1.1c0.3-0.4,0.6-0.7,0.9-1c0.3-0.3,0.7-0.6,1.1-0.9c0.4-0.3,0.8-0.5,1.3-0.7
	s1-0.4,1.4-0.6c0.5-0.2,1.1-0.3,1.6-0.4c0.6-0.1,1.1-0.2,1.7-0.3s1.2-0.1,1.9-0.1s1.3,0,2,0s1.3,0.1,2,0.2s1.4,0.2,2.1,0.3
	s1.4,0.3,2.1,0.5s1.4,0.4,2.1,0.7s1.4,0.5,2.1,0.8s1.4,0.6,2.1,0.9s1.4,0.7,2.1,1.1s1.4,0.8,2,1.2s1.3,0.8,1.9,1.3s1.2,0.9,1.8,1.4
	s1.2,1,1.7,1.4s1.1,1,1.6,1.5s1,1,1.4,1.6s0.9,1,1.3,1.6s0.8,1.1,1.1,1.6s0.6,1.1,0.9,1.6s0.5,1.1,0.7,1.6s0.4,1,0.5,1.6
	c0.1,0.5,0.2,1,0.3,1.5s0.1,1,0.1,1.5s0,0.9-0.1,1.4c-0.1,0.4-0.2,0.9-0.3,1.3c-0.2,0.4-0.3,0.8-0.5,1.2c-0.2,0.4-0.5,0.8-0.7,1.1
	c-0.3,0.4-0.6,0.7-0.9,1c-0.3,0.3-0.7,0.6-1.1,0.9c-0.4,0.3-0.8,0.5-1.3,0.8c-0.5,0.2-1,0.4-1.4,0.6c-0.5,0.2-1.1,0.3-1.6,0.4
	c-0.6,0.1-1.1,0.2-1.7,0.3s-1.2,0.1-1.9,0.1s-1.3,0-1.9,0s-1.3-0.1-2-0.2s-1.4-0.2-2.1-0.3s-1.4-0.3-2.1-0.5s-1.4-0.4-2.1-0.6
	s-1.4-0.5-2.1-0.8s-1.4-0.6-2.1-0.9s-1.4-0.7-2.1-1.1s-1.4-0.8-2-1.2s-1.3-0.8-1.9-1.3s-1.2-0.9-1.8-1.4s-1.2-1-1.7-1.4
	s-1.1-1-1.6-1.5s-1-1-1.4-1.6s-0.9-1-1.3-1.6s-0.8-1.1-1.1-1.6s-0.6-1.1-0.9-1.6s-0.5-1.1-0.7-1.6s-0.4-1.1-0.5-1.6
	c-0.3-1-0.4-2-0.4-3c0-0.5,0-0.9,0.1-1.4s0.2-0.9,0.3-1.3C158.9,100.5,159,100.1,159.2,99.7z"/>
<path class="st1" d="M179.3,112.5c4.7,2.6,8.1,6,8.8,8.7c0.1-0.1,0.1-0.1,0.1-0.2c1.3-2.5-2.3-7-8.1-10.1s-11.6-3.6-12.9-1.2
	c0,0.1,0,0.1-0.1,0.2C169.9,109,174.6,109.9,179.3,112.5z"/>
<path class="st5" d="M176.1,118.4c-4.7-2.6-8.1-6-8.8-8.7c0,0.1-0.1,0.1-0.1,0.2c-1.3,2.5,2.3,7,8.1,10.1s11.5,3.6,12.9,1.2
	c0-0.1,0-0.1,0.1-0.2C185.6,121.9,180.8,121,176.1,118.4L176.1,118.4z"/>
<path class="st5" d="M185,102c10.7,5.8,17,15.1,15.1,21.7c0.4-0.4,0.7-0.9,1-1.4c3.6-6.6-2.9-17-14.5-23.3s-23.8-6-27.4,0.7
	c-0.3,0.5-0.5,1-0.6,1.6C163.1,96,174.3,96.2,185,102L185,102z"/>
<path class="st2" d="M125.7,83.3c0,0-13,6-35.8,6H60v14.4h38.9c21.7,0,36.3-6,36.3-6l-9.5-4.2l4.5-4.7l-3.4-1.2L125.7,83.3z"/>
<path class="st2" d="M258.7,82.8l9,6.7l-5.4,3.1l2.6,4.1c0,0-6.9,1.9-8.5,1.9s18,5.2,37.2,5.2h47.2V89.3H301
	C278.9,89.3,258.8,82.8,258.7,82.8L258.7,82.8z"/>
<path class="st6" d="M134.3,118.2c0.5,0.4,1.2,0.4,1.8,0l1.6-1.3c0.5-0.4,0.8-0.2,0.7,0.4l-0.3,2c-0.1,0.6,0.3,1.3,0.9,1.5l1.9,0.8
	c0.6,0.2,0.6,0.6,0,0.8l-1.9,0.8c-0.6,0.2-1,0.9-0.9,1.5l0.3,2c0.1,0.6-0.2,0.8-0.7,0.4l-1.6-1.3c-0.5-0.4-1.2-0.4-1.8,0l-1.6,1.3
	c-0.5,0.4-0.8,0.2-0.7-0.4l0.3-2c0.1-0.6-0.3-1.3-0.9-1.5l-1.9-0.8c-0.6-0.2-0.6-0.6,0-0.8l1.9-0.8c0.6-0.2,1-0.9,0.9-1.5l-0.3-2
	c-0.1-0.6,0.2-0.8,0.7-0.4L134.3,118.2z"/>
<path class="st6" d="M244.8,161.7c0.5,0.4,1.3,0.4,1.8,0l1.6-1.3c0.5-0.4,0.8-0.2,0.7,0.4l-0.3,2c-0.1,0.6,0.3,1.3,0.9,1.5l1.9,0.8
	c0.6,0.2,0.6,0.6,0,0.8l-1.9,0.8c-0.6,0.3-1,0.9-0.9,1.5l0.3,2c0.1,0.6-0.2,0.8-0.7,0.4l-1.7-1.3c-0.5-0.4-1.3-0.4-1.8,0l-1.6,1.3
	c-0.5,0.4-0.8,0.2-0.7-0.4l0.3-2.1c0.1-0.6-0.3-1.3-0.9-1.5l-1.9-0.8c-0.6-0.2-0.6-0.6,0-0.8l1.9-0.8c0.6-0.3,1-0.9,0.9-1.5l-0.3-2
	c-0.1-0.6,0.2-0.8,0.7-0.4L244.8,161.7z"/>
<path class="st7" d="M180.3,141.2c0.4,0,0.8,0,1.1,0.1c0.4,0.1,0.7,0.2,1.1,0.3c0.4,0.1,0.7,0.3,1,0.5s0.6,0.5,0.9,0.7
	c0.3,0.3,0.5,0.6,0.7,0.9c0.2,0.3,0.4,0.7,0.5,1c0.1,0.4,0.3,0.7,0.3,1.1c0.1,0.8,0.1,1.5,0,2.3c-0.1,0.4-0.2,0.7-0.3,1.1
	c-0.2,0.3-0.3,0.7-0.5,1s-0.5,0.6-0.7,0.9c-0.3,0.3-0.6,0.5-0.9,0.7c-0.3,0.2-0.7,0.4-1,0.5c-0.3,0.2-0.7,0.3-1.1,0.3
	c-0.7,0.1-1.5,0.1-2.3,0c-0.4-0.1-0.7-0.2-1.1-0.3c-0.3-0.1-0.7-0.3-1-0.5s-0.6-0.5-0.9-0.7c-0.3-0.3-0.5-0.6-0.7-0.9
	c-0.2-0.3-0.4-0.7-0.5-1c-0.1-0.4-0.2-0.7-0.3-1.1c-0.1-0.8-0.1-1.5,0-2.3c0.1-0.4,0.2-0.7,0.3-1.1c0.2-0.3,0.3-0.7,0.5-1
	s0.5-0.6,0.7-0.9c0.3-0.3,0.6-0.5,0.9-0.7c0.3-0.2,0.6-0.4,1-0.5c0.3-0.2,0.7-0.3,1.1-0.3C179.5,141.2,179.9,141.2,180.3,141.2z"/>
<polygon class="st8" points="179.8,144.6 179.8,145.4 177.8,145.4 177.8,146.5 179.6,146.5 179.6,147.2 177.8,147.2 177.8,149.1 
	176.9,149.1 176.9,144.6 "/>
<polygon class="st8" points="180,144.6 181.1,144.6 181.9,146 182.8,144.6 183.9,144.6 182.5,146.8 184,149.1 182.9,149.1 
	182,147.6 181,149.1 180,149.1 181.5,146.8 "/>
<path class="st7" d="M301.1,117.7c0.4,0,0.8,0,1.1,0.1c0.4,0.1,0.7,0.2,1.1,0.3c0.4,0.1,0.7,0.3,1,0.5c0.6,0.4,1.2,1,1.6,1.6
	c0.2,0.3,0.4,0.6,0.5,1s0.3,0.7,0.3,1.1c0.2,0.8,0.2,1.5,0,2.3c-0.1,0.4-0.2,0.7-0.3,1.1c-0.1,0.4-0.3,0.7-0.5,1
	c-0.4,0.6-1,1.2-1.6,1.6c-0.3,0.2-0.7,0.4-1,0.5c-0.4,0.1-0.7,0.3-1.1,0.3c-1.1,0.2-2.3,0.1-3.4-0.3c-0.3-0.2-0.7-0.3-1-0.5
	c-0.6-0.4-1.2-1-1.6-1.6c-0.2-0.3-0.4-0.7-0.5-1c-0.4-1.1-0.6-2.2-0.3-3.4c0.1-0.4,0.2-0.7,0.3-1.1c0.2-0.3,0.3-0.7,0.5-1
	c0.4-0.6,1-1.2,1.6-1.6c0.3-0.2,0.6-0.4,1-0.5s0.7-0.3,1.1-0.3C300.3,117.8,300.7,117.7,301.1,117.7z"/>
<polygon class="st8" points="300.8,121.2 300.8,122.1 298.7,122.1 298.7,123.1 300.5,123.1 300.5,123.9 298.7,123.9 298.7,125.8 
	297.8,125.8 297.8,121.2 "/>
<polygon class="st8" points="301,121.2 302.1,121.2 302.9,122.7 303.8,121.2 304.8,121.2 303.4,123.4 304.9,125.8 303.8,125.8 
	302.9,124.2 302,125.8 300.9,125.8 302.4,123.4 "/>
<path class="st7" d="M323,171.8c0.4,0,0.8,0,1.1,0.1c0.4,0.1,0.7,0.2,1.1,0.3s0.7,0.3,1,0.5s0.6,0.5,0.9,0.7
	c0.3,0.3,0.5,0.6,0.7,0.9c0.2,0.3,0.4,0.6,0.5,1s0.3,0.7,0.3,1.1c0.2,0.8,0.2,1.5,0,2.3c-0.1,0.4-0.2,0.7-0.3,1.1
	c-0.1,0.4-0.3,0.7-0.5,1s-0.5,0.6-0.7,0.9c-0.3,0.3-0.6,0.5-0.9,0.7s-0.7,0.4-1,0.5c-0.4,0.1-0.7,0.3-1.1,0.3
	c-0.4,0.1-0.8,0.1-1.1,0.1c-0.8,0-1.5-0.1-2.2-0.4c-0.3-0.1-0.7-0.3-1-0.5s-0.6-0.5-0.9-0.7c-0.3-0.3-0.5-0.6-0.7-0.9
	c-0.2-0.3-0.4-0.7-0.5-1c-0.4-1.1-0.6-2.2-0.3-3.4c0.1-0.4,0.2-0.7,0.3-1.1c0.2-0.3,0.3-0.7,0.5-1s0.5-0.6,0.7-0.9
	c0.3-0.3,0.6-0.5,0.9-0.7s0.6-0.4,1-0.5C321.5,171.9,322.2,171.8,323,171.8z"/>
<polygon class="st8" points="322.8,175.3 322.8,176.1 320.8,176.1 320.8,177.2 322.6,177.2 322.6,178 320.8,178 320.8,179.9 
	319.9,179.9 319.9,175.3 "/>
<polygon class="st8" points="323,175.3 324.1,175.3 325,176.8 325.8,175.3 326.9,175.3 325.4,177.5 326.9,179.9 325.8,179.9 
	324.9,178.3 324,179.9 322.9,179.9 324.4,177.5 "/>
<line class="st9" x1="143.2" y1="62" x2="118.1" y2="36.6"/>
<line class="st9" x1="190.4" y1="210.9" x2="246" y2="166.9"/>
<line class="st9" x1="300" y1="117.8" x2="290.9" y2="58.4"/>
<polyline class="st10" points="52.6,80.4 46.1,80.4 46.1,210.9 52.6,210.9 "/>
<path class="st11" d="M80.2,31.1c0,0.6-0.3,1.2-0.8,1.6s-1.1,0.6-1.7,0.5c-0.7,0-1.4-0.3-1.8-0.8c-0.5-0.6-0.7-1.4-0.7-2.2v-0.6
	c0-0.5,0.1-1.1,0.3-1.6c0.2-0.4,0.5-0.8,0.9-1s0.9-0.4,1.3-0.4c0.6,0,1.2,0.2,1.6,0.6s0.7,1,0.7,1.6h-0.8c0-0.4-0.2-0.8-0.5-1.1
	c-0.3-0.2-0.6-0.4-1-0.3c-0.5,0-1,0.2-1.3,0.6c-0.3,0.5-0.5,1.1-0.5,1.7v0.6c0,0.6,0.1,1.2,0.4,1.6s0.7,0.6,1.2,0.6
	c0.4,0,0.8-0.1,1.1-0.3c0.3-0.3,0.5-0.7,0.5-1.1L80.2,31.1z"/>
<path class="st11" d="M83.2,33.2c-0.6,0-1.2-0.2-1.6-0.6c-0.4-0.5-0.6-1.1-0.6-1.7v-0.1c0-0.4,0.1-0.9,0.3-1.3
	c0.2-0.4,0.4-0.7,0.7-0.9c0.3-0.2,0.7-0.3,1.1-0.3c0.5,0,1.1,0.2,1.4,0.6c0.4,0.5,0.5,1.1,0.5,1.7V31h-3.2c0,0.4,0.1,0.8,0.4,1.1
	s0.6,0.4,1,0.4c0.3,0,0.5-0.1,0.7-0.2c0.2-0.1,0.4-0.3,0.5-0.5l0.5,0.4C84.6,32.9,83.9,33.3,83.2,33.2z M83.1,29
	c-0.3,0-0.6,0.1-0.8,0.4c-0.2,0.3-0.4,0.6-0.4,1h2.4v-0.1c0-0.4-0.1-0.7-0.3-1C83.7,29.1,83.4,29,83.1,29z M83.5,26.4h1l-1.2,1.3
	h-0.7L83.5,26.4z"/>
<path class="st11" d="M86.9,33.1H86v-6.8h0.8L86.9,33.1z"/>
<path class="st11" d="M91.1,32.7c-0.4,0.4-0.9,0.6-1.4,0.6c-0.4,0-0.9-0.1-1.2-0.4c-0.3-0.4-0.4-0.8-0.4-1.3v-3.1H89v3.1
	c0,0.7,0.3,1.1,0.9,1.1c0.5,0.1,1-0.2,1.2-0.7v-3.5h0.8v4.7h-0.8V32.7z"/>
<path class="st11" d="M94,33.1h-0.8v-6.8H94V33.1z"/>
<path class="st11" d="M98.2,33.1c-0.1-0.2-0.1-0.3-0.1-0.5c-0.3,0.4-0.8,0.6-1.3,0.6c-0.4,0-0.8-0.1-1.2-0.4c-0.3-0.2-0.5-0.6-0.4-1
	c0-0.5,0.2-0.9,0.6-1.1c0.5-0.3,1-0.4,1.6-0.4h0.8v-0.4c0-0.3-0.1-0.5-0.3-0.7c-0.2-0.2-0.5-0.3-0.8-0.3s-0.5,0.1-0.7,0.2
	s-0.3,0.3-0.3,0.5h-0.8c0-0.3,0.1-0.5,0.2-0.7c0.2-0.2,0.4-0.4,0.7-0.5c0.3-0.1,0.7-0.2,1-0.2c0.5,0,0.9,0.1,1.3,0.4
	c0.3,0.3,0.5,0.7,0.5,1.1V32c0,0.3,0.1,0.7,0.2,1v0.1H98.2z M96.9,32.5c0.3,0,0.5-0.1,0.7-0.2c0.2-0.1,0.4-0.3,0.5-0.5v-1h-0.6
	c-1,0-1.5,0.3-1.5,0.9c0,0.2,0.1,0.4,0.2,0.6C96.4,32.4,96.6,32.5,96.9,32.5z"/>
<path class="st11" d="M105.2,31.9c0-0.2-0.1-0.4-0.2-0.5c-0.3-0.2-0.6-0.3-0.9-0.3c-0.3-0.1-0.7-0.2-1-0.3c-0.2-0.1-0.4-0.3-0.5-0.4
	c-0.1-0.2-0.2-0.4-0.2-0.6c0-0.4,0.2-0.8,0.5-1c0.4-0.3,0.8-0.4,1.3-0.4s0.9,0.1,1.3,0.4c0.3,0.3,0.5,0.7,0.5,1.1h-0.8
	c0-0.2-0.1-0.4-0.3-0.6c-0.2-0.2-0.5-0.3-0.7-0.2c-0.2,0-0.5,0.1-0.7,0.2s-0.3,0.3-0.2,0.5c0,0.2,0.1,0.3,0.2,0.4
	c0.3,0.1,0.5,0.2,0.8,0.3c0.3,0.1,0.7,0.2,1,0.3c0.2,0.1,0.4,0.3,0.6,0.5c0.1,0.2,0.2,0.4,0.2,0.6c0,0.4-0.2,0.8-0.5,1
	c-0.4,0.3-0.9,0.4-1.3,0.4c-0.3,0-0.7-0.1-1-0.2c-0.3-0.1-0.5-0.3-0.7-0.6c-0.2-0.2-0.3-0.5-0.2-0.8h0.8c0,0.3,0.1,0.5,0.3,0.6
	c0.2,0.2,0.5,0.3,0.8,0.2c0.3,0,0.5-0.1,0.7-0.2C105.1,32.2,105.2,32.1,105.2,31.9z"/>
<path class="st11" d="M110,33.1c-0.1-0.2-0.1-0.3-0.1-0.5c-0.3,0.4-0.8,0.6-1.4,0.6c-0.4,0-0.8-0.1-1.2-0.4c-0.3-0.2-0.5-0.6-0.4-1
	c0-0.5,0.2-0.9,0.6-1.1c0.5-0.3,1-0.4,1.6-0.4h0.8v-0.4c0-0.3-0.1-0.5-0.3-0.7c-0.2-0.2-0.5-0.3-0.8-0.3s-0.5,0.1-0.7,0.2
	s-0.3,0.3-0.3,0.5H107c0-0.3,0.1-0.5,0.2-0.7c0.2-0.2,0.4-0.4,0.7-0.5c0.3-0.1,0.7-0.2,1-0.2c0.5,0,0.9,0.1,1.3,0.4
	c0.3,0.3,0.5,0.7,0.5,1.1V32c0,0.3,0,0.7,0.2,1v0.1H110z M108.7,32.5c0.3,0,0.5-0.1,0.7-0.2c0.2-0.1,0.4-0.3,0.5-0.5v-1h-0.6
	c-1,0-1.5,0.3-1.5,0.9c0,0.2,0.1,0.4,0.3,0.6C108.2,32.4,108.4,32.5,108.7,32.5z"/>
<path class="st11" d="M112.7,28.4V29c0.3-0.4,0.9-0.7,1.4-0.7c1,0,1.5,0.6,1.5,1.7v3.1h-0.8V30c0-0.3-0.1-0.6-0.2-0.8
	c-0.2-0.2-0.5-0.3-0.7-0.2c-0.2,0-0.5,0.1-0.7,0.2s-0.4,0.3-0.5,0.5v3.4H112v-4.8L112.7,28.4L112.7,28.4z"/>
<g>
	<path class="st11" d="M29.6,126.9l1.7,1.5v0.8l-1.7-1.1V126.9z"/>
</g>
<path class="st11" d="M116.7,30.7c0-0.6,0.2-1.3,0.5-1.8c0.3-0.4,0.8-0.7,1.4-0.7c0.5,0,1,0.2,1.4,0.6v-0.5h0.7V33
	c0,0.5-0.2,1.1-0.6,1.5s-0.9,0.6-1.5,0.5c-0.3,0-0.7-0.1-1-0.2c-0.3-0.1-0.6-0.3-0.8-0.6l0.4-0.5c0.3,0.4,0.8,0.6,1.3,0.6
	c0.3,0,0.7-0.1,0.9-0.3c0.2-0.3,0.3-0.6,0.3-0.9v-0.4c-0.3,0.4-0.8,0.6-1.3,0.6s-1-0.2-1.3-0.7C116.9,32,116.7,31.4,116.7,30.7z
	 M117.6,30.8c0,0.4,0.1,0.9,0.3,1.3c0.2,0.3,0.6,0.5,0.9,0.5c0.5,0,0.9-0.3,1.1-0.7v-2.2c-0.2-0.4-0.6-0.7-1.1-0.7
	c-0.4,0-0.7,0.2-0.9,0.5C117.6,29.8,117.5,30.3,117.6,30.8z"/>
<path class="st11" d="M124.9,32.7c-0.4,0.4-0.9,0.6-1.4,0.6c-0.4,0-0.9-0.1-1.2-0.4c-0.3-0.4-0.4-0.8-0.4-1.3v-3.1h0.8v3.1
	c0,0.7,0.3,1.1,0.9,1.1c0.5,0.1,1-0.2,1.2-0.7v-3.5h0.8v4.7h-0.8L124.9,32.7z"/>
<path class="st11" d="M127.8,33.1H127v-4.7h0.8V33.1z"/>
<path class="st11" d="M129.9,28.4V29c0.3-0.4,0.9-0.7,1.4-0.7c1,0,1.5,0.6,1.5,1.7v3.1H132V30c0-0.3-0.1-0.6-0.2-0.8
	c-0.2-0.2-0.5-0.3-0.7-0.2c-0.2,0-0.5,0.1-0.7,0.2s-0.4,0.3-0.5,0.5v3.4h-0.8v-4.8L129.9,28.4L129.9,28.4z"/>
<path class="st11" d="M136.1,33.2c-0.6,0-1.2-0.2-1.6-0.6c-0.4-0.5-0.6-1.1-0.6-1.7v-0.1c0-0.4,0.1-0.9,0.3-1.3s0.4-0.7,0.8-0.9
	c0.3-0.2,0.7-0.3,1.1-0.3c0.5,0,1.1,0.2,1.4,0.6c0.4,0.5,0.6,1.1,0.5,1.8V31h-3.2c0,0.4,0.1,0.8,0.4,1.1c0.3,0.3,0.6,0.5,1,0.4
	c0.3,0,0.5-0.1,0.7-0.2c0.2-0.1,0.4-0.3,0.5-0.5l0.5,0.4C137.5,32.9,136.8,33.3,136.1,33.2z M136,29c-0.3,0-0.6,0.1-0.8,0.4
	s-0.4,0.6-0.4,1h2.4v-0.1c0-0.4-0.1-0.7-0.3-1C136.6,29.1,136.3,29,136,29z"/>
<path class="st11" d="M141.8,33.1c-0.1-0.2-0.1-0.3-0.1-0.5c-0.3,0.4-0.8,0.6-1.4,0.6c-0.4,0-0.8-0.1-1.1-0.4
	c-0.3-0.2-0.5-0.6-0.4-1c0-0.5,0.2-0.9,0.6-1.1c0.5-0.3,1-0.4,1.6-0.4h0.8v-0.4c0-0.3-0.1-0.5-0.3-0.7s-0.5-0.3-0.8-0.3
	s-0.5,0.1-0.7,0.2s-0.3,0.3-0.3,0.5h-0.8c0-0.3,0.1-0.5,0.2-0.7c0.2-0.2,0.4-0.4,0.7-0.5s0.7-0.2,1-0.2c0.5,0,0.9,0.1,1.3,0.4
	c0.3,0.3,0.5,0.7,0.5,1.1V32c0,0.3,0,0.7,0.2,1v0.1H141.8z M140.4,32.5c0.3,0,0.5-0.1,0.7-0.2c0.2-0.1,0.4-0.3,0.5-0.5v-1H141
	c-1,0-1.5,0.3-1.5,0.9c0,0.2,0.1,0.4,0.3,0.6C139.9,32.4,140.2,32.5,140.4,32.5L140.4,32.5z"/>
<path class="st11" d="M167.9,216.6v2.5H167v-6.4h2.4c0.6,0,1.2,0.2,1.6,0.5c0.8,0.8,0.8,2,0,2.8l0,0c-0.5,0.4-1.1,0.5-1.7,0.5
	L167.9,216.6L167.9,216.6z M167.9,215.9h1.5c0.4,0,0.7-0.1,1-0.3s0.4-0.6,0.4-0.9c0-0.3-0.1-0.7-0.4-0.9c-0.3-0.2-0.6-0.4-1-0.4
	h-1.6L167.9,215.9z"/>
<path class="st11" d="M173.4,219.1h-0.8v-6.8h0.8V219.1z"/>
<path class="st11" d="M177.7,219.1c-0.1-0.2-0.1-0.3-0.1-0.5c-0.3,0.4-0.8,0.6-1.4,0.6c-0.4,0-0.8-0.1-1.2-0.4
	c-0.3-0.2-0.5-0.6-0.4-1c0-0.5,0.2-0.9,0.6-1.2c0.5-0.3,1-0.4,1.6-0.4h0.8v-0.4c0-0.3-0.1-0.5-0.3-0.7s-0.5-0.3-0.8-0.2
	c-0.3,0-0.5,0.1-0.7,0.2c-0.2,0.1-0.3,0.3-0.3,0.5h-0.8c0-0.3,0.1-0.5,0.2-0.7c0.2-0.2,0.4-0.4,0.7-0.5s0.7-0.2,1-0.2
	c0.5,0,0.9,0.1,1.3,0.4c0.3,0.3,0.5,0.7,0.5,1.1v2.2c0,0.3,0,0.7,0.2,1v0.1L177.7,219.1z M176.3,218.4c0.3,0,0.5-0.1,0.7-0.2
	c0.2-0.1,0.4-0.3,0.5-0.5v-1h-0.6c-1,0-1.5,0.3-1.5,0.9c0,0.2,0.1,0.4,0.2,0.6C175.9,218.3,176.1,218.4,176.3,218.4L176.3,218.4z"/>
<path class="st11" d="M179.4,216.6c0-0.6,0.1-1.3,0.5-1.8c0.3-0.4,0.8-0.7,1.4-0.6c0.5,0,1,0.2,1.3,0.6v-0.5h0.7v6.6h-0.8v-2.3
	c-0.3,0.4-0.8,0.6-1.3,0.5c-0.5,0-1.1-0.2-1.4-0.7C179.5,217.9,179.4,217.3,179.4,216.6L179.4,216.6z M180.2,216.7
	c0,0.5,0.1,0.9,0.3,1.3c0.2,0.3,0.6,0.5,0.9,0.5c0.5,0,0.9-0.2,1.1-0.6v-2.3c-0.2-0.4-0.6-0.6-1.1-0.6c-0.4,0-0.7,0.2-0.9,0.5
	C180.3,215.8,180.2,216.2,180.2,216.7z"/>
<path class="st11" d="M187.7,218.6c-0.4,0.4-0.9,0.6-1.4,0.6c-0.4,0-0.9-0.1-1.2-0.4c-0.3-0.4-0.4-0.8-0.4-1.3v-3.1h0.8v3.1
	c0,0.7,0.3,1.1,0.9,1.1c0.5,0.1,1-0.2,1.2-0.7v-3.5h0.8v4.8h-0.8L187.7,218.6z"/>
<path class="st11" d="M191.7,219.1c-0.6,0-1.2-0.2-1.6-0.6c-0.4-0.5-0.6-1.1-0.6-1.7v-0.1c0-0.4,0.1-0.9,0.3-1.3
	c0.2-0.4,0.4-0.7,0.8-0.9c0.3-0.2,0.7-0.3,1.1-0.3c0.5,0,1.1,0.2,1.4,0.6c0.4,0.5,0.6,1.1,0.5,1.8v0.3h-3.2c0,0.4,0.1,0.8,0.4,1.1
	c0.3,0.3,0.6,0.5,1,0.4c0.3,0,0.5-0.1,0.7-0.2c0.2-0.1,0.4-0.3,0.5-0.5l0.5,0.4C193.1,218.8,192.4,219.2,191.7,219.1z M191.6,214.9
	c-0.3,0-0.6,0.1-0.8,0.4c-0.2,0.3-0.4,0.6-0.4,1h2.4v-0.1c0-0.4-0.1-0.7-0.3-1C192.2,215,191.9,214.9,191.6,214.9L191.6,214.9z"/>
<path class="st11" d="M195.6,213.1v1.1h0.9v0.6h-0.9v2.9c0,0.2,0,0.3,0.1,0.4c0.1,0.1,0.3,0.2,0.4,0.1c0.1,0,0.3,0,0.4,0v0.6
	c-0.2,0.1-0.4,0.1-0.6,0.1c-0.3,0-0.6-0.1-0.8-0.3c-0.2-0.3-0.3-0.6-0.3-0.9V215h-0.9v-0.6h0.9v-1.1L195.6,213.1z"/>
<path class="st11" d="M200.4,219.1c-0.1-0.2-0.1-0.3-0.1-0.5c-0.3,0.4-0.8,0.6-1.4,0.6c-0.4,0-0.8-0.1-1.2-0.4
	c-0.3-0.2-0.5-0.6-0.4-1c0-0.5,0.2-0.9,0.6-1.2c0.5-0.3,1-0.4,1.6-0.4h0.8v-0.4c0-0.3-0.1-0.5-0.3-0.7s-0.5-0.3-0.8-0.2
	c-0.3,0-0.5,0.1-0.7,0.2c-0.2,0.1-0.3,0.3-0.3,0.5h-0.8c0-0.3,0.1-0.5,0.2-0.7c0.2-0.2,0.4-0.4,0.7-0.5s0.7-0.2,1-0.2
	c0.5,0,0.9,0.1,1.3,0.4c0.3,0.3,0.5,0.7,0.5,1.1v2.2c0,0.3,0,0.7,0.2,1v0.1L200.4,219.1z M199,218.4c0.3,0,0.5-0.1,0.7-0.2
	c0.2-0.1,0.4-0.3,0.5-0.5v-1h-0.6c-1,0-1.5,0.3-1.5,0.9c0,0.2,0.1,0.5,0.3,0.6C198.5,218.3,198.8,218.4,199,218.4L199,218.4z"/>
<path class="st11" d="M35.6,173.9l-5.3-1.9v-0.9l6.4,2.4v0.8l-6.4,2.4v-0.9L35.6,173.9z"/>
<path class="st11" d="M36.7,167.6c-0.2,0.1-0.3,0.1-0.5,0.1c0.4,0.3,0.6,0.8,0.6,1.4c0,0.4-0.1,0.8-0.4,1.1c-0.2,0.3-0.6,0.5-1,0.4
	c-0.5,0-0.9-0.2-1.2-0.6c-0.3-0.5-0.4-1-0.4-1.6v-0.8h-0.4c-0.3,0-0.5,0.1-0.7,0.3s-0.3,0.5-0.3,0.8s0.1,0.5,0.2,0.7
	c0.1,0.2,0.3,0.3,0.5,0.3v0.8c-0.3,0-0.5-0.1-0.7-0.2c-0.2-0.2-0.4-0.4-0.5-0.7s-0.2-0.6-0.2-0.9c0-0.5,0.1-0.9,0.4-1.3
	c0.3-0.3,0.7-0.5,1.1-0.5h2.2c0.3,0,0.7,0,1-0.2h0.1L36.7,167.6z M36.1,169c0-0.3-0.1-0.5-0.2-0.7c-0.1-0.2-0.3-0.4-0.5-0.5h-1v0.6
	c0,1,0.3,1.5,0.9,1.5c0.2,0,0.4-0.1,0.6-0.3C36,169.5,36.1,169.2,36.1,169z"/>
<path class="st11" d="M35.5,162.9c-0.2,0-0.4,0.1-0.5,0.2c-0.2,0.3-0.3,0.6-0.3,0.9c-0.1,0.3-0.2,0.7-0.3,1
	c-0.1,0.2-0.2,0.4-0.4,0.5s-0.4,0.2-0.6,0.2c-0.4,0-0.8-0.2-1-0.5c-0.3-0.4-0.4-0.8-0.4-1.3s0.1-0.9,0.4-1.3
	c0.3-0.3,0.6-0.5,1.1-0.5v0.8c-0.2,0-0.4,0.1-0.6,0.3c-0.2,0.2-0.2,0.5-0.2,0.7s0.1,0.5,0.2,0.7c0.1,0.2,0.3,0.3,0.5,0.2
	c0.2,0,0.3-0.1,0.4-0.2c0.1-0.3,0.2-0.5,0.3-0.8s0.2-0.7,0.3-1c0.1-0.2,0.3-0.4,0.5-0.6c0.2-0.1,0.4-0.2,0.6-0.2
	c0.4,0,0.8,0.2,1,0.5c0.3,0.4,0.4,0.9,0.4,1.3c0,0.3-0.1,0.7-0.2,1c-0.1,0.3-0.3,0.5-0.6,0.7c-0.2,0.2-0.5,0.2-0.8,0.2v-0.8
	c0.3,0,0.5-0.1,0.7-0.3s0.3-0.5,0.2-0.8c0-0.3-0.1-0.5-0.2-0.7C35.8,163,35.6,162.9,35.5,162.9z"/>
<path class="st11" d="M34.3,161.2c-0.4,0-0.9-0.1-1.3-0.2c-0.7-0.3-1.2-1.1-1.2-1.9c0-0.6,0.2-1.2,0.7-1.6c0.5-0.4,1.1-0.6,1.8-0.6
	h0.1c0.4,0,0.9,0.1,1.2,0.3c0.4,0.2,0.7,0.4,0.9,0.8c0.2,0.3,0.3,0.7,0.3,1.1c0,0.6-0.2,1.2-0.7,1.6C35.6,161.1,35,161.3,34.3,161.2
	L34.3,161.2z M34.4,160.4c0.5,0,0.9-0.1,1.3-0.4c0.3-0.2,0.5-0.6,0.5-1s-0.2-0.8-0.5-1c-0.4-0.3-0.9-0.4-1.4-0.4s-0.9,0.1-1.3,0.4
	c-0.3,0.2-0.5,0.6-0.5,1s0.2,0.8,0.5,1C33.4,160.3,33.9,160.5,34.4,160.4z"/>
<path class="st11" d="M35.5,150.9c-0.2,0-0.4,0.1-0.5,0.2c-0.2,0.3-0.3,0.6-0.3,0.9c-0.1,0.3-0.2,0.7-0.3,1
	c-0.1,0.2-0.3,0.4-0.4,0.5c-0.2,0.1-0.4,0.2-0.6,0.2c-0.4,0-0.8-0.2-1-0.5c-0.3-0.4-0.4-0.8-0.4-1.3s0.1-0.9,0.4-1.3
	c0.3-0.3,0.6-0.5,1.1-0.5v0.8c-0.2,0-0.4,0.1-0.6,0.3c-0.2,0.2-0.2,0.5-0.2,0.7s0.1,0.5,0.2,0.7c0.1,0.2,0.3,0.3,0.5,0.2
	c0.2,0,0.3-0.1,0.4-0.2c0.1-0.3,0.2-0.6,0.3-0.9c0.1-0.3,0.2-0.7,0.3-1c0.1-0.2,0.3-0.4,0.5-0.6c0.2-0.1,0.4-0.2,0.6-0.2
	c0.4,0,0.8,0.2,1,0.5c0.3,0.4,0.4,0.9,0.4,1.3c0,0.3-0.1,0.7-0.2,1c-0.1,0.3-0.3,0.5-0.6,0.7c-0.2,0.2-0.5,0.2-0.8,0.2v-0.8
	c0.3,0,0.5-0.1,0.7-0.3s0.3-0.5,0.2-0.8c0-0.3-0.1-0.5-0.2-0.7C35.8,151,35.6,150.9,35.5,150.9z"/>
<path class="st11" d="M36.7,146.1c-0.2,0.1-0.3,0.1-0.5,0.1c0.4,0.3,0.6,0.8,0.6,1.4c0,0.4-0.1,0.8-0.4,1.1c-0.2,0.3-0.6,0.5-1,0.4
	c-0.5,0-0.9-0.2-1.2-0.6c-0.3-0.5-0.4-1-0.4-1.6v-0.8h-0.4c-0.3,0-0.5,0.1-0.7,0.2c-0.2,0.2-0.3,0.5-0.3,0.8s0.1,0.5,0.2,0.7
	c0.1,0.2,0.3,0.3,0.5,0.3v0.8c-0.3,0-0.5-0.1-0.7-0.2c-0.2-0.2-0.4-0.4-0.5-0.7s-0.2-0.6-0.2-0.9c0-0.5,0.1-0.9,0.4-1.3
	c0.3-0.3,0.7-0.5,1.1-0.5h2.2c0.3,0,0.7,0,1-0.2h0.1L36.7,146.1z M36.1,147.5c0-0.3-0.1-0.5-0.2-0.7c-0.1-0.2-0.3-0.4-0.5-0.5h-1
	v0.6c0,1,0.3,1.5,0.9,1.5c0.2,0,0.4-0.1,0.6-0.3C36,147.9,36.1,147.7,36.1,147.5L36.1,147.5z"/>
<path class="st11" d="M32,143.4h0.6c-0.4-0.3-0.7-0.9-0.7-1.4c0-1,0.6-1.5,1.7-1.5h3.1v0.8h-3.2c-0.3,0-0.5,0.1-0.8,0.2
	c-0.2,0.2-0.3,0.5-0.2,0.7c0,0.2,0.1,0.5,0.2,0.7c0.1,0.2,0.3,0.4,0.5,0.5h3.4v0.8H32V143.4z"/>
<path class="st11" d="M34.3,139.4c-0.6,0-1.3-0.1-1.8-0.5c-0.8-0.6-0.9-1.7-0.3-2.5c0.1-0.1,0.1-0.2,0.2-0.2H32v-0.7h4.6
	c0.5,0,1.1,0.2,1.5,0.6c0.4,0.4,0.6,0.9,0.5,1.5c0,0.3-0.1,0.7-0.2,1c-0.1,0.3-0.3,0.6-0.6,0.8l-0.5-0.4c0.4-0.3,0.7-0.8,0.7-1.3
	c0-0.3-0.1-0.7-0.3-0.9c-0.3-0.2-0.6-0.3-0.9-0.3h-0.4c0.4,0.3,0.6,0.8,0.6,1.3s-0.2,1-0.7,1.4C35.6,139.2,34.9,139.4,34.3,139.4z
	 M34.4,138.5c0.4,0,0.9-0.1,1.3-0.3c0.3-0.2,0.5-0.6,0.5-0.9c0-0.5-0.3-0.9-0.7-1.1h-2.2c-0.4,0.2-0.7,0.6-0.7,1.1
	c0,0.4,0.2,0.7,0.5,0.9C33.4,138.5,33.9,138.6,34.4,138.5L34.4,138.5z"/>
<path class="st11" d="M36.2,131.2c0.4,0.4,0.6,0.9,0.6,1.4c0,0.4-0.1,0.9-0.4,1.2c-0.4,0.3-0.8,0.4-1.3,0.4H32v-0.8h3
	c0.7,0,1.1-0.3,1.1-0.9c0.1-0.5-0.2-1-0.7-1.2H32v-0.8h4.8v0.8L36.2,131.2z"/>
<path class="st11" d="M36.7,128.3v0.8H32v-0.8H36.7z"/>
<path class="st11" d="M32,126.2h0.6c-0.4-0.3-0.7-0.9-0.7-1.4c0-1,0.6-1.5,1.7-1.5h3.1v0.8h-3.2c-0.3,0-0.5,0.1-0.8,0.2
	c-0.2,0.2-0.3,0.5-0.2,0.7c0,0.2,0.1,0.5,0.2,0.7c0.1,0.2,0.3,0.4,0.5,0.5h3.4v0.8H32V126.2z"/>
<path class="st11" d="M36.8,120c0,0.6-0.2,1.2-0.6,1.6c-0.5,0.4-1.1,0.6-1.7,0.6h-0.2c-0.4,0-0.9-0.1-1.3-0.3
	c-0.4-0.2-0.7-0.4-0.9-0.8c-0.2-0.3-0.3-0.7-0.3-1.1c0-0.5,0.2-1.1,0.6-1.4c0.5-0.4,1.1-0.6,1.8-0.5h0.3v3.2c0.4,0,0.8-0.1,1.1-0.4
	s0.4-0.6,0.4-1c0-0.3-0.1-0.5-0.2-0.7c-0.1-0.2-0.3-0.4-0.5-0.5l0.4-0.5C36.5,118.6,36.8,119.3,36.8,120z M32.5,120.1
	c0,0.3,0.1,0.6,0.4,0.8c0.3,0.2,0.6,0.4,1,0.4V119h-0.1c-0.4,0-0.7,0.1-1,0.3C32.6,119.5,32.5,119.8,32.5,120.1L32.5,120.1z"/>
<path class="st11" d="M34.3,117.5c-0.4,0-0.9-0.1-1.3-0.3c-0.4-0.2-0.6-0.4-0.9-0.8c-0.2-0.3-0.3-0.7-0.3-1.1c0-0.6,0.2-1.2,0.7-1.6
	s1.1-0.6,1.8-0.6h0.1c0.4,0,0.9,0.1,1.2,0.3c0.4,0.2,0.7,0.4,0.9,0.8c0.2,0.3,0.3,0.7,0.3,1.1c0,0.6-0.2,1.2-0.7,1.6
	S35,117.5,34.3,117.5L34.3,117.5z M34.4,116.6c0.5,0,0.9-0.1,1.3-0.4c0.3-0.2,0.5-0.6,0.5-1s-0.2-0.8-0.5-1
	c-0.4-0.3-0.9-0.4-1.4-0.4s-0.9,0.1-1.3,0.4c-0.3,0.2-0.5,0.6-0.5,1s0.2,0.8,0.5,1C33.4,116.6,33.9,116.7,34.4,116.6z"/>
<path class="st11" d="M243.3,42.8h-0.8l-3.2-4.9v4.9h-0.9v-6.4h0.9l3.2,5v-5h0.8V42.8z"/>
<path class="st11" d="M244.5,40.3c0-0.4,0.1-0.9,0.3-1.2c0.2-0.4,0.4-0.7,0.8-0.9c0.3-0.2,0.7-0.3,1.1-0.3c0.6,0,1.2,0.2,1.6,0.7
	c0.4,0.5,0.6,1.1,0.6,1.8v0.1c0,0.4-0.1,0.9-0.3,1.2c-0.2,0.4-0.4,0.7-0.8,0.9c-0.3,0.2-0.7,0.3-1.1,0.3c-0.6,0-1.2-0.2-1.6-0.7
	C244.7,41.7,244.4,41,244.5,40.3L244.5,40.3z M245.3,40.4c0,0.5,0.1,0.9,0.4,1.3c0.2,0.3,0.6,0.5,1,0.5s0.8-0.2,1-0.5
	c0.3-0.4,0.4-0.9,0.4-1.4s-0.1-0.9-0.4-1.3c-0.4-0.6-1.2-0.7-1.7-0.3c-0.1,0.1-0.2,0.2-0.3,0.3C245.4,39.5,245.3,40,245.3,40.4z"/>
<path class="st11" d="M252.9,38.6c0.3-0.4,0.9-0.7,1.4-0.7c1,0,1.5,0.6,1.5,1.7v3.1H255v-3.1c0-0.3-0.1-0.5-0.2-0.8
	c-0.2-0.2-0.5-0.3-0.7-0.2c-0.2,0-0.5,0.1-0.7,0.2c-0.2,0.1-0.4,0.3-0.5,0.6v3.4h-0.8V36h0.8L252.9,38.6z"/>
<path class="st11" d="M260,42.8c-0.1-0.2-0.1-0.3-0.1-0.5c-0.3,0.4-0.8,0.6-1.4,0.6c-0.4,0-0.8-0.1-1.1-0.4c-0.3-0.2-0.5-0.6-0.5-1
	c0-0.5,0.2-0.9,0.6-1.2c0.5-0.3,1-0.4,1.6-0.4h0.8v-0.4c0-0.3-0.1-0.5-0.2-0.7c-0.2-0.2-0.5-0.3-0.8-0.2c-0.3,0-0.5,0.1-0.7,0.2
	c-0.2,0.1-0.3,0.3-0.3,0.5H257c0-0.3,0.1-0.5,0.3-0.7c0.2-0.2,0.4-0.4,0.7-0.5c0.3-0.1,0.6-0.2,1-0.2c0.5,0,0.9,0.1,1.3,0.4
	c0.3,0.3,0.5,0.7,0.5,1.1v2.2c0,0.3,0,0.7,0.2,1v0.1L260,42.8z M258.6,42.1c0.3,0,0.5-0.1,0.7-0.2c0.2-0.1,0.4-0.3,0.5-0.5v-1h-0.6
	c-1,0-1.5,0.3-1.5,0.9c0,0.2,0.1,0.5,0.3,0.6C258.2,42,258.4,42.1,258.6,42.1L258.6,42.1z"/>
<path class="st11" d="M263.4,41.6l1.1-3.6h0.9l-1.9,5.5c-0.3,0.8-0.8,1.2-1.4,1.2H262l-0.3-0.1V44h0.2c0.2,0,0.5,0,0.6-0.2
	c0.2-0.2,0.3-0.4,0.4-0.6l0.2-0.5l-1.7-4.7h0.9L263.4,41.6z"/>
<path class="st11" d="M271.1,41.5c0-0.2-0.1-0.4-0.2-0.5c-0.3-0.2-0.6-0.3-0.9-0.3c-0.3-0.1-0.7-0.2-1-0.3c-0.2-0.1-0.4-0.2-0.5-0.4
	s-0.2-0.4-0.2-0.6c0-0.4,0.2-0.8,0.5-1c0.8-0.5,1.8-0.5,2.6,0c0.3,0.3,0.5,0.7,0.5,1.1H271c0-0.2-0.1-0.4-0.3-0.6
	c-0.4-0.3-1-0.3-1.4,0c-0.2,0.1-0.3,0.3-0.2,0.5c0,0.2,0.1,0.3,0.2,0.4c0.3,0.1,0.5,0.2,0.8,0.3s0.7,0.2,1,0.3
	c0.2,0.1,0.4,0.3,0.6,0.5c0.1,0.2,0.2,0.4,0.2,0.7c0,0.4-0.2,0.8-0.5,1c-0.4,0.3-0.9,0.4-1.3,0.4c-0.3,0-0.7-0.1-1-0.2
	c-0.3-0.1-0.5-0.3-0.7-0.6c-0.2-0.2-0.3-0.5-0.2-0.8h0.8c0,0.3,0.1,0.5,0.3,0.7c0.5,0.3,1.1,0.3,1.5,0
	C271,41.9,271.1,41.7,271.1,41.5z"/>
<path class="st11" d="M275.9,42.3c-0.4,0.4-0.9,0.6-1.4,0.6c-0.4,0-0.9-0.1-1.2-0.4c-0.3-0.4-0.4-0.8-0.4-1.3V38h0.8v3.1
	c0,0.7,0.3,1.1,0.9,1.1c0.5,0.1,1-0.2,1.2-0.7V38h0.8v4.8h-0.8L275.9,42.3z"/>
<path class="st11" d="M278.3,42.8v-4.1h-0.8V38h0.8v-0.5c0-0.4,0.1-0.9,0.4-1.2s0.7-0.4,1.2-0.4c0.2,0,0.4,0,0.5,0.1v0.7
	c-0.1,0-0.3,0-0.4,0c-0.2,0-0.4,0.1-0.6,0.2c-0.2,0.2-0.2,0.4-0.2,0.7V38h1v0.6h-1v4.1L278.3,42.8z"/>
<path class="st11" d="M281.1,36.7c0-0.1,0-0.2,0.1-0.3c0.2-0.2,0.5-0.2,0.7,0c0.1,0.1,0.1,0.2,0.1,0.3s0,0.2-0.1,0.3
	c-0.2,0.2-0.5,0.2-0.7,0C281.1,37,281.1,36.9,281.1,36.7z M281.9,42.7h-0.8V38h0.8V42.7z"/>
<path class="st11" d="M285.1,42.2c0.3,0,0.5-0.1,0.8-0.3c0.2-0.2,0.3-0.4,0.4-0.7h0.7c0,0.3-0.1,0.6-0.3,0.8
	c-0.2,0.3-0.4,0.5-0.7,0.6c-0.3,0.1-0.6,0.2-0.9,0.2c-0.6,0-1.2-0.2-1.5-0.7c-0.4-0.5-0.6-1.1-0.6-1.8v-0.1c0-0.4,0.1-0.8,0.2-1.2
	c0.2-0.3,0.4-0.6,0.7-0.8c0.3-0.2,0.7-0.3,1.1-0.3c0.5,0,1,0.2,1.3,0.5c0.4,0.3,0.6,0.8,0.6,1.2h-0.8c0-0.3-0.1-0.6-0.4-0.8
	c-0.2-0.2-0.5-0.3-0.8-0.3c-0.4,0-0.8,0.1-1,0.4c-0.2,0.4-0.4,0.8-0.3,1.3v0.2c0,0.4,0.1,0.9,0.3,1.3
	C284.3,42.1,284.7,42.2,285.1,42.2z"/>
<path class="st11" d="M288,36.7c0-0.1,0-0.2,0.1-0.3s0.2-0.1,0.4-0.1c0.1,0,0.3,0,0.4,0.1s0.1,0.2,0.1,0.3s0,0.2-0.1,0.3
	s-0.2,0.1-0.4,0.1C288.2,37.2,288,37.1,288,36.7C288,36.8,288,36.8,288,36.7z M288.9,42.7H288V38h0.8L288.9,42.7z"/>
<path class="st11" d="M292,42.2c0.3,0,0.5-0.1,0.8-0.3c0.2-0.2,0.3-0.4,0.4-0.7h0.8c0,0.3-0.1,0.6-0.3,0.8c-0.2,0.3-0.4,0.5-0.7,0.6
	c-0.3,0.1-0.6,0.2-0.9,0.2c-0.6,0-1.2-0.2-1.5-0.7c-0.4-0.5-0.6-1.1-0.6-1.8v-0.1c0-0.4,0.1-0.8,0.3-1.2c0.2-0.3,0.4-0.6,0.7-0.8
	c0.3-0.2,0.7-0.3,1.1-0.3c0.5,0,1,0.2,1.3,0.5c0.4,0.3,0.6,0.8,0.6,1.2h-0.8c0-0.3-0.1-0.6-0.4-0.8c-0.2-0.2-0.5-0.3-0.8-0.3
	c-0.4,0-0.8,0.1-1,0.4c-0.3,0.4-0.4,0.8-0.3,1.3v0.2c0,0.4,0.1,0.9,0.3,1.3C291.2,42.1,291.6,42.2,292,42.2z"/>
<path class="st11" d="M294.9,36.7c0-0.1,0-0.2,0.1-0.3c0.2-0.2,0.5-0.2,0.7,0c0.1,0.1,0.1,0.2,0.1,0.3s0,0.2-0.1,0.3
	c-0.2,0.2-0.5,0.2-0.7,0C294.9,37,294.8,36.9,294.9,36.7z M295.7,42.7h-0.8V38h0.8V42.7z"/>
<path class="st11" d="M299,42.8c-0.6,0-1.2-0.2-1.6-0.6c-0.4-0.5-0.6-1.1-0.6-1.7v-0.2c0-0.4,0.1-0.9,0.3-1.3
	c0.2-0.4,0.4-0.7,0.8-0.9c0.3-0.2,0.6-0.3,1-0.3c0.5,0,1.1,0.2,1.4,0.6c0.4,0.5,0.6,1.1,0.5,1.8v0.3h-3.2c0,0.4,0.1,0.8,0.4,1.1
	s0.6,0.5,1,0.4c0.3,0,0.5-0.1,0.7-0.2c0.2-0.1,0.4-0.3,0.5-0.5l0.5,0.4C300.4,42.5,299.7,42.9,299,42.8z M298.9,38.6
	c-0.3,0-0.6,0.1-0.8,0.4c-0.2,0.3-0.4,0.6-0.4,1h2.3v-0.1c0-0.4-0.1-0.7-0.3-1C299.5,38.7,299.2,38.6,298.9,38.6z"/>
<path class="st11" d="M302.6,38v0.6c0.3-0.4,0.9-0.7,1.4-0.7c1,0,1.5,0.6,1.5,1.7v3.1h-0.8v-3.1c0-0.3-0.1-0.5-0.2-0.8
	c-0.2-0.2-0.5-0.3-0.7-0.2c-0.2,0-0.5,0.1-0.7,0.2c-0.2,0.1-0.4,0.3-0.5,0.6v3.4h-0.8V38H302.6z"/>
<path class="st11" d="M307.9,36.9V38h0.9v0.6h-0.9v3c0,0.1,0.1,0.3,0.1,0.4c0.1,0.1,0.3,0.2,0.4,0.1c0.1,0,0.3,0,0.4,0v0.7
	c-0.2,0.1-0.4,0.1-0.6,0.1c-0.3,0-0.6-0.1-0.8-0.3c-0.2-0.3-0.3-0.6-0.3-0.9v-3h-0.9V38h0.9v-1.1H307.9z"/>
<path class="st11" d="M311.7,42.8c-0.6,0-1.2-0.2-1.6-0.6c-0.4-0.5-0.6-1.1-0.6-1.7v-0.2c0-0.4,0.1-0.9,0.3-1.3
	c0.2-0.4,0.4-0.7,0.8-0.9c0.3-0.2,0.7-0.3,1.1-0.3c0.5,0,1.1,0.2,1.4,0.6c0.4,0.5,0.6,1.1,0.5,1.8v0.3h-3.2c0,0.4,0.1,0.8,0.4,1.1
	s0.6,0.4,1,0.4c0.3,0,0.5-0.1,0.7-0.2c0.2-0.1,0.4-0.3,0.5-0.5l0.5,0.4C313.1,42.5,312.4,42.9,311.7,42.8z M311.6,38.6
	c-0.3,0-0.6,0.1-0.8,0.4c-0.2,0.3-0.4,0.6-0.4,1h2.4v-0.1c0-0.4-0.1-0.7-0.3-1C312.2,38.7,311.9,38.6,311.6,38.6z"/>
<path class="st11" d="M317.1,42.8v-4.1h-0.8V38h0.8v-0.5c0-0.4,0.1-0.9,0.4-1.2s0.7-0.4,1.1-0.4c0.2,0,0.4,0,0.6,0.1v0.7
	c-0.1,0-0.3,0-0.4,0c-0.2,0-0.4,0.1-0.6,0.2c-0.2,0.2-0.2,0.4-0.2,0.7V38h1v0.6h-1v4.1L317.1,42.8z"/>
<path class="st11" d="M322.8,42.8c-0.1-0.2-0.1-0.3-0.1-0.5c-0.3,0.4-0.8,0.6-1.4,0.6c-0.4,0-0.8-0.1-1.1-0.4
	c-0.3-0.2-0.5-0.6-0.5-1c0-0.5,0.2-0.9,0.6-1.2c0.5-0.3,1-0.4,1.6-0.4h0.8v-0.4c0-0.3-0.1-0.5-0.2-0.7c-0.2-0.2-0.5-0.3-0.8-0.2
	c-0.3,0-0.5,0.1-0.7,0.2c-0.2,0.1-0.3,0.3-0.3,0.5h-0.8c0-0.3,0.1-0.5,0.2-0.7c0.2-0.2,0.4-0.4,0.7-0.5c0.3-0.1,0.6-0.2,1-0.2
	c0.5,0,0.9,0.1,1.3,0.4c0.3,0.3,0.5,0.7,0.5,1.1v2.2c0,0.3,0,0.7,0.2,1v0.1L322.8,42.8z M321.4,42.1c0.3,0,0.5-0.1,0.7-0.2
	c0.2-0.1,0.4-0.3,0.5-0.5v-1H322c-1,0-1.5,0.3-1.5,0.9c0,0.2,0.1,0.5,0.3,0.6C320.9,42.1,321.2,42.1,321.4,42.1z"/>
<path class="st11" d="M326.6,42.2c0.3,0,0.5-0.1,0.8-0.3c0.2-0.2,0.3-0.4,0.4-0.7h0.8c0,0.3-0.1,0.6-0.3,0.8
	c-0.2,0.3-0.4,0.5-0.7,0.6c-0.3,0.1-0.6,0.2-0.9,0.2c-0.6,0-1.2-0.2-1.5-0.7c-0.4-0.5-0.6-1.1-0.6-1.8v-0.1c0-0.4,0.1-0.8,0.2-1.2
	c0.2-0.3,0.4-0.6,0.7-0.8c0.3-0.2,0.7-0.3,1.1-0.3c0.5,0,1,0.2,1.3,0.5s0.6,0.8,0.6,1.2h-0.8c0-0.3-0.1-0.6-0.4-0.8
	c-0.2-0.2-0.5-0.3-0.8-0.3c-0.4,0-0.8,0.1-1,0.4c-0.2,0.4-0.4,0.8-0.3,1.3v0.2c0,0.4,0.1,0.9,0.3,1.3
	C325.9,42.1,326.2,42.2,326.6,42.2z"/>
<path class="st11" d="M330.5,36.9V38h0.9v0.6h-0.9v3c0,0.2,0,0.3,0.1,0.4c0.1,0.1,0.3,0.2,0.4,0.1c0.1,0,0.3,0,0.4,0v0.7
	c-0.2,0.1-0.4,0.1-0.6,0.1c-0.3,0-0.6-0.1-0.8-0.3c-0.2-0.3-0.3-0.6-0.3-0.9v-3h-0.9V38h0.9v-1.1H330.5z"/>
<path class="st11" d="M332.1,40.3c0-0.4,0.1-0.9,0.3-1.2c0.2-0.4,0.4-0.7,0.8-0.9c0.3-0.2,0.7-0.3,1.1-0.3c0.6,0,1.2,0.2,1.6,0.7
	s0.6,1.1,0.6,1.8v0.1c0,0.4-0.1,0.9-0.3,1.2c-0.2,0.4-0.4,0.7-0.8,0.9c-0.3,0.2-0.7,0.3-1.1,0.3c-0.6,0-1.2-0.2-1.6-0.7
	C332.3,41.7,332,41,332.1,40.3L332.1,40.3z M332.9,40.4c0,0.5,0.1,0.9,0.4,1.3c0.2,0.3,0.6,0.5,1,0.5s0.8-0.2,1-0.5
	c0.3-0.4,0.4-0.9,0.4-1.4s-0.1-0.9-0.4-1.3c-0.2-0.3-0.6-0.5-1-0.5s-0.8,0.2-1,0.5C333,39.5,332.9,40,332.9,40.4z"/>
<path class="st11" d="M339.7,38.7c-0.1,0-0.3,0-0.4,0c-0.5,0-0.9,0.2-1.1,0.7v3.4h-0.8V38h0.8v0.5c0.2-0.4,0.7-0.7,1.1-0.6
	c0.1,0,0.3,0,0.4,0.1V38.7z"/>
<path class="st11" d="M344.9,38.8l1.5-2.5h1l-2,3.2l2.1,3.2h-1l-1.6-2.5l-1.6,2.5h-1l2.1-3.2l-2-3.2h1L344.9,38.8z"/>
<path class="st11" d="M247.7,51.2c0,0.6-0.1,1.2-0.5,1.8c-0.3,0.4-0.8,0.7-1.3,0.7s-1-0.2-1.4-0.5v2.3h-0.8v-6.6h0.7v0.5
	c0.3-0.4,0.8-0.6,1.4-0.6c0.5,0,1,0.2,1.4,0.7C247.5,49.9,247.7,50.5,247.7,51.2L247.7,51.2z M246.9,51.1c0-0.4-0.1-0.9-0.3-1.3
	c-0.2-0.3-0.6-0.5-0.9-0.5c-0.5,0-0.9,0.2-1.1,0.7v2.3c0.2,0.4,0.7,0.7,1.1,0.7c0.4,0,0.7-0.2,0.9-0.5
	C246.8,52.1,246.9,51.6,246.9,51.1z"/>
<path class="st11" d="M251.7,53.6c-0.1-0.2-0.1-0.3-0.1-0.5c-0.3,0.4-0.8,0.6-1.4,0.6c-0.4,0-0.8-0.1-1.1-0.4
	c-0.3-0.2-0.5-0.6-0.4-1c0-0.5,0.2-0.9,0.6-1.2c0.5-0.3,1-0.4,1.6-0.4h0.8v-0.4c0-0.3-0.1-0.5-0.2-0.7c-0.2-0.2-0.5-0.3-0.8-0.2
	c-0.3,0-0.5,0.1-0.7,0.2c-0.2,0.1-0.3,0.3-0.3,0.5h-0.8c0-0.3,0.1-0.5,0.2-0.7c0.2-0.2,0.4-0.4,0.7-0.5s0.6-0.2,0.9-0.2
	c0.5,0,0.9,0.1,1.3,0.4c0.3,0.3,0.5,0.7,0.5,1.1v2.2c0,0.3,0,0.7,0.2,1v0.1L251.7,53.6z M250.3,52.9c0.3,0,0.5-0.1,0.7-0.2
	c0.2-0.1,0.4-0.3,0.5-0.5v-1h-0.6c-1,0-1.5,0.3-1.5,0.9c0,0.2,0.1,0.5,0.3,0.6C249.9,52.9,250.1,52.9,250.3,52.9z"/>
<path class="st11" d="M256,49.5c-0.1,0-0.3,0-0.4,0c-0.5,0-0.9,0.2-1.1,0.7v3.4h-0.8v-4.8h0.8v0.5c0.2-0.4,0.7-0.7,1.1-0.6
	c0.1,0,0.2,0,0.4,0.1V49.5z"/>
<path class="st11" d="M259.5,53.6c-0.1-0.2-0.1-0.3-0.1-0.5c-0.3,0.4-0.8,0.6-1.4,0.6c-0.4,0-0.8-0.1-1.2-0.4
	c-0.3-0.2-0.5-0.6-0.5-1c0-0.5,0.2-0.9,0.6-1.2c0.5-0.3,1-0.4,1.6-0.4h0.8v-0.4c0-0.3-0.1-0.5-0.3-0.7c-0.2-0.2-0.5-0.3-0.8-0.2
	c-0.3,0-0.5,0.1-0.7,0.2c-0.2,0.1-0.3,0.3-0.3,0.5h-0.8c0-0.3,0.1-0.5,0.2-0.7c0.2-0.2,0.4-0.4,0.7-0.5c0.3-0.1,0.6-0.2,1-0.2
	c0.5,0,0.9,0.1,1.3,0.4c0.3,0.3,0.5,0.7,0.5,1.1v2.2c0,0.3,0,0.7,0.2,1v0.1L259.5,53.6z M258.1,52.9c0.3,0,0.5-0.1,0.7-0.2
	c0.2-0.1,0.4-0.3,0.5-0.5v-1h-0.6c-1,0-1.5,0.3-1.5,0.9c0,0.2,0.1,0.4,0.2,0.6C257.6,52.9,257.9,52.9,258.1,52.9z"/>
<path class="st11" d="M263.5,51.1c0-0.6,0.1-1.2,0.5-1.8c0.6-0.8,1.7-0.9,2.5-0.3c0.1,0.1,0.1,0.1,0.2,0.2v-2.5h0.8v6.8h-0.8V53
	c-0.3,0.4-0.8,0.6-1.4,0.6c-0.5,0-1-0.2-1.4-0.7C263.6,52.5,263.4,51.9,263.5,51.1L263.5,51.1z M264.3,51.2c0,0.4,0.1,0.9,0.3,1.3
	c0.2,0.3,0.6,0.5,0.9,0.5c0.5,0,0.9-0.3,1.1-0.7v-2.2c-0.2-0.4-0.6-0.7-1.1-0.7c-0.4,0-0.7,0.2-0.9,0.5
	C264.3,50.3,264.2,50.8,264.3,51.2z"/>
<path class="st11" d="M270.7,53.6c-0.6,0-1.2-0.2-1.6-0.6c-0.4-0.5-0.6-1.1-0.6-1.7v-0.2c0-0.4,0.1-0.9,0.3-1.3
	c0.2-0.4,0.4-0.7,0.8-0.9c0.3-0.2,0.6-0.3,1-0.3c0.5,0,1.1,0.2,1.4,0.6c0.4,0.5,0.6,1.1,0.5,1.8v0.3h-3.2c0,0.4,0.1,0.8,0.4,1.1
	s0.6,0.5,1,0.4c0.3,0,0.5-0.1,0.7-0.2c0.2-0.1,0.4-0.3,0.5-0.5l0.5,0.4C272.1,53.3,271.4,53.7,270.7,53.6z M270.6,49.4
	c-0.3,0-0.6,0.1-0.8,0.4c-0.2,0.3-0.4,0.6-0.4,1h2.4v-0.1c0-0.4-0.1-0.7-0.3-1C271.2,49.5,270.9,49.4,270.6,49.4z"/>
<path class="st11" d="M274.6,47.7v1.2h0.9v0.6h-0.9v3c0,0.2,0,0.3,0.1,0.4c0.1,0.1,0.3,0.2,0.4,0.1c0.1,0,0.3,0,0.4,0v0.7
	c-0.2,0.1-0.4,0.1-0.6,0.1c-0.3,0-0.6-0.1-0.8-0.3c-0.2-0.3-0.3-0.6-0.3-0.9v-3h-0.9V49h0.9v-1.2L274.6,47.7L274.6,47.7z"/>
<path class="st11" d="M278.4,53.6c-0.6,0-1.2-0.2-1.6-0.6c-0.4-0.5-0.6-1.1-0.6-1.7v-0.2c0-0.4,0.1-0.9,0.3-1.3
	c0.2-0.4,0.4-0.7,0.8-0.9c0.3-0.2,0.7-0.3,1-0.3c0.5,0,1.1,0.2,1.4,0.6c0.4,0.5,0.6,1.1,0.5,1.8v0.3H277c0,0.4,0.1,0.8,0.4,1.1
	s0.6,0.4,1,0.4c0.3,0,0.5-0.1,0.7-0.2c0.2-0.1,0.4-0.3,0.5-0.5l0.5,0.4C279.8,53.3,279.1,53.7,278.4,53.6z M278.3,49.4
	c-0.3,0-0.6,0.1-0.8,0.4c-0.2,0.3-0.4,0.6-0.4,1h2.4v-0.1c0-0.4-0.1-0.7-0.3-1C278.9,49.5,278.6,49.4,278.3,49.4z"/>
<path class="st11" d="M282,48.8v0.6c0.3-0.4,0.9-0.7,1.4-0.7c1,0,1.5,0.6,1.5,1.7v3.1h-0.8v-3.1c0-0.3-0.1-0.5-0.2-0.8
	c-0.2-0.2-0.5-0.3-0.7-0.2c-0.2,0-0.5,0.1-0.7,0.2c-0.2,0.1-0.4,0.3-0.5,0.6v3.4h-0.8v-4.8H282z"/>
<path class="st11" d="M288.1,53.6c-0.6,0-1.2-0.2-1.6-0.6c-0.4-0.5-0.6-1.1-0.6-1.7v-0.2c0-0.4,0.1-0.9,0.3-1.3
	c0.2-0.4,0.4-0.7,0.8-0.9c0.3-0.2,0.6-0.3,1-0.3c0.5,0,1.1,0.2,1.4,0.6c0.4,0.5,0.6,1.1,0.5,1.8v0.3h-3.2c0,0.4,0.1,0.8,0.4,1.1
	s0.6,0.5,1,0.4c0.3,0,0.5-0.1,0.7-0.2c0.2-0.1,0.4-0.3,0.5-0.5l0.5,0.4C289.5,53.3,288.8,53.7,288.1,53.6z M288,49.4
	c-0.3,0-0.6,0.1-0.8,0.4c-0.2,0.3-0.4,0.6-0.4,1h2.4v-0.1c0-0.4-0.1-0.7-0.3-1C288.6,49.5,288.3,49.4,288,49.4L288,49.4z"/>
<path class="st11" d="M293.2,49.5c-0.1,0-0.3,0-0.4,0c-0.5,0-0.9,0.2-1.1,0.7v3.4h-0.8v-4.8h0.8v0.5c0.2-0.4,0.7-0.7,1.1-0.6
	c0.1,0,0.2,0,0.4,0.1V49.5z"/>
<path class="st11" d="M298.2,53.6c-0.6,0-1.2-0.2-1.6-0.7s-0.6-1.1-0.6-1.7V51c0-0.4,0.1-0.9,0.3-1.3c0.2-0.4,0.4-0.7,0.7-0.9
	c0.3-0.2,0.7-0.3,1-0.3c0.6,0,1.1,0.2,1.5,0.6c0.4,0.5,0.6,1.1,0.5,1.8v0.3h-3.2c0,0.4,0.1,0.8,0.4,1.1s0.6,0.4,1,0.4
	c0.3,0,0.5-0.1,0.7-0.2c0.2-0.1,0.4-0.3,0.5-0.5l0.5,0.4C299.6,53.3,298.9,53.7,298.2,53.6z M298.1,49.4c-0.3,0-0.6,0.1-0.8,0.4
	c-0.2,0.3-0.4,0.6-0.4,1h2.4v-0.1c0-0.4-0.1-0.7-0.3-1C298.7,49.5,298.4,49.4,298.1,49.4z"/>
<path class="st11" d="M301.9,53.6H301v-6.8h0.8L301.9,53.6z"/>
<path class="st11" d="M308.1,52.3c0-0.2-0.1-0.4-0.2-0.5c-0.3-0.2-0.6-0.3-0.9-0.3c-0.3-0.1-0.7-0.2-1-0.3c-0.2-0.1-0.4-0.3-0.5-0.4
	c-0.1-0.2-0.2-0.4-0.2-0.6c0-0.4,0.2-0.8,0.5-1c0.8-0.5,1.8-0.5,2.6,0c0.3,0.3,0.5,0.7,0.5,1.1h-0.8c0-0.2-0.1-0.4-0.3-0.6
	c-0.2-0.2-0.5-0.2-0.7-0.2s-0.5,0.1-0.7,0.2c-0.2,0.1-0.3,0.3-0.2,0.5c0,0.2,0.1,0.3,0.2,0.4c0.3,0.1,0.6,0.2,0.9,0.3s0.7,0.2,1,0.3
	c0.2,0.1,0.4,0.3,0.6,0.5c0.1,0.2,0.2,0.4,0.2,0.6c0,0.4-0.2,0.8-0.5,1c-0.4,0.3-0.9,0.4-1.3,0.4c-0.3,0-0.7-0.1-1-0.2
	c-0.3-0.1-0.5-0.3-0.7-0.6c-0.2-0.2-0.2-0.5-0.2-0.8h0.8c0,0.3,0.1,0.5,0.3,0.7c0.5,0.3,1.1,0.3,1.5,0
	C308,52.6,308.1,52.5,308.1,52.3z"/>
<path class="st11" d="M313,53.6c-0.1-0.2-0.1-0.3-0.1-0.5c-0.3,0.4-0.8,0.6-1.4,0.6c-0.4,0-0.8-0.1-1.1-0.4c-0.3-0.2-0.5-0.6-0.5-1
	c0-0.5,0.2-0.9,0.6-1.2c0.5-0.3,1-0.4,1.6-0.4h0.8v-0.4c0-0.3-0.1-0.5-0.2-0.7c-0.2-0.2-0.5-0.3-0.8-0.2c-0.3,0-0.5,0.1-0.7,0.2
	c-0.2,0.1-0.3,0.3-0.3,0.5H310c0-0.3,0.1-0.5,0.3-0.7c0.2-0.2,0.4-0.4,0.7-0.5c0.3-0.1,0.6-0.2,1-0.2c0.5,0,0.9,0.1,1.3,0.4
	c0.3,0.3,0.5,0.7,0.5,1.1v2.2c0,0.3,0,0.7,0.2,1v0.1L313,53.6z M311.6,52.9c0.3,0,0.5-0.1,0.7-0.2c0.2-0.1,0.4-0.3,0.5-0.5v-1h-0.6
	c-1,0-1.5,0.3-1.5,0.9c0,0.2,0.1,0.5,0.3,0.6C311.2,52.8,311.4,52.9,311.6,52.9L311.6,52.9z"/>
<path class="st11" d="M315.7,48.8v0.6c0.3-0.4,0.9-0.7,1.4-0.7c1,0,1.5,0.6,1.5,1.7v3.1h-0.8v-3.1c0-0.3-0.1-0.5-0.2-0.8
	c-0.2-0.2-0.5-0.3-0.7-0.2c-0.2,0-0.5,0.1-0.7,0.2c-0.2,0.1-0.4,0.3-0.5,0.6v3.4h-0.8v-4.8H315.7z"/>
<path class="st11" d="M319.7,51.1c0-0.6,0.1-1.3,0.5-1.8c0.3-0.4,0.8-0.7,1.4-0.7c0.5,0,1,0.2,1.4,0.6v-0.5h0.7v4.6
	c0,0.5-0.2,1.1-0.5,1.5c-0.4,0.4-0.9,0.6-1.5,0.5c-0.3,0-0.7-0.1-1-0.2c-0.3-0.1-0.6-0.3-0.8-0.6l0.4-0.5c0.3,0.4,0.8,0.6,1.3,0.6
	c0.3,0,0.7-0.1,0.9-0.3c0.2-0.3,0.4-0.6,0.3-0.9V53c-0.3,0.4-0.8,0.6-1.3,0.6s-1-0.2-1.4-0.7C319.8,52.4,319.6,51.8,319.7,51.1z
	 M320.5,51.2c0,0.4,0.1,0.9,0.3,1.3c0.2,0.3,0.6,0.5,0.9,0.5c0.5,0,0.9-0.3,1.1-0.7v-2.2c-0.2-0.4-0.6-0.7-1.1-0.7
	c-0.4,0-0.7,0.2-0.9,0.5C320.6,50.3,320.5,50.8,320.5,51.2z"/>
<path class="st11" d="M327.2,49.5c-0.1,0-0.3,0-0.4,0c-0.5,0-0.9,0.2-1.1,0.7v3.4h-0.8v-4.8h0.8v0.5c0.2-0.4,0.7-0.7,1.1-0.6
	c0.1,0,0.2,0,0.4,0.1V49.5z"/>
<path class="st11" d="M330.7,53.6c-0.1-0.2-0.1-0.3-0.1-0.5c-0.3,0.4-0.8,0.6-1.4,0.6c-0.4,0-0.8-0.1-1.1-0.4
	c-0.3-0.2-0.5-0.6-0.5-1c0-0.5,0.2-0.9,0.6-1.2c0.5-0.3,1-0.4,1.6-0.4h0.8v-0.4c0-0.3-0.1-0.5-0.2-0.7c-0.2-0.2-0.5-0.3-0.8-0.2
	c-0.3,0-0.5,0.1-0.7,0.2c-0.2,0.1-0.3,0.3-0.3,0.5h-0.8c0-0.3,0.1-0.5,0.3-0.7c0.2-0.2,0.4-0.4,0.7-0.5c0.3-0.1,0.6-0.2,1-0.2
	c0.5,0,0.9,0.1,1.3,0.4c0.3,0.3,0.5,0.7,0.5,1.1v2.2c0,0.3,0,0.7,0.2,1v0.1L330.7,53.6z M329.4,52.9c0.3,0,0.5-0.1,0.7-0.2
	c0.2-0.1,0.4-0.3,0.5-0.5v-1H330c-1,0-1.5,0.3-1.5,0.9c0,0.2,0.1,0.4,0.2,0.6C328.9,52.9,329.2,52.9,329.4,52.9L329.4,52.9z"/>
<path class="st11" d="M332.5,51.1c0-0.6,0.2-1.3,0.5-1.8c0.6-0.8,1.7-0.9,2.5-0.3c0.1,0.1,0.1,0.1,0.2,0.2v-2.5h0.8v6.8h-0.7V53
	c-0.3,0.4-0.8,0.6-1.4,0.6s-1.1-0.2-1.4-0.7C332.6,52.5,332.5,51.9,332.5,51.1L332.5,51.1z M333.3,51.2c0,0.4,0.1,0.9,0.3,1.3
	c0.2,0.3,0.6,0.5,0.9,0.5c0.5,0,0.9-0.3,1.1-0.7v-2.2c-0.2-0.4-0.6-0.7-1.1-0.7c-0.4,0-0.7,0.2-0.9,0.5
	C333.4,50.3,333.3,50.8,333.3,51.2z"/>
<path class="st11" d="M337.6,51.1c0-0.4,0.1-0.9,0.3-1.3c0.2-0.4,0.4-0.6,0.8-0.9c0.3-0.2,0.7-0.3,1.1-0.3c0.6,0,1.2,0.2,1.6,0.7
	s0.6,1.1,0.6,1.8v0.1c0,0.4-0.1,0.9-0.3,1.2c-0.2,0.4-0.4,0.7-0.8,0.9c-0.3,0.2-0.7,0.3-1.1,0.3c-0.6,0-1.2-0.2-1.6-0.7
	C337.7,52.5,337.5,51.8,337.6,51.1L337.6,51.1z M338.4,51.2c0,0.5,0.1,0.9,0.4,1.3c0.2,0.3,0.6,0.5,1,0.5s0.8-0.2,1-0.5
	c0.3-0.4,0.4-0.9,0.4-1.4s-0.1-0.9-0.4-1.3c-0.4-0.5-1.2-0.6-1.7-0.2c-0.1,0.1-0.2,0.1-0.2,0.2C338.5,50.3,338.4,50.8,338.4,51.2z"
	/>
<polygon class="st11" points="127.8,26.4 128.8,26.4 127.6,27.7 126.9,27.7 "/>
</svg>
