<svg id="Layer_1" data-name="Layer 1" xmlns="http://www.w3.org/2000/svg" xmlns:xlink="http://www.w3.org/1999/xlink" viewBox="0 0 376.73 243.56"><defs><style>.cls-1{fill:url(#linear-gradient);}.cls-2{fill:#f297a2;}.cls-3{fill:#ea5964;}.cls-4{fill:#88bae2;}.cls-5{fill:#d51f26;}.cls-6{fill:#a71f23;}.cls-7{fill:#ffde17;}.cls-8{fill:#004987;}.cls-9{fill:#fff;}.cls-10,.cls-11{fill:none;stroke-miterlimit:10;stroke-width:0.5px;}.cls-10{stroke:#231f20;}.cls-11{stroke:#000;}.cls-12{fill:#636363;}</style><linearGradient id="linear-gradient" x1="-527.31" y1="2756.54" x2="-527.31" y2="2662.93" gradientTransform="matrix(1, 0, 0, -1, 727.7, 2815.08)" gradientUnits="userSpaceOnUse"><stop offset="0" stop-color="#e5b5b3"/><stop offset="0.17" stop-color="#e5b5b3"/><stop offset="0.3" stop-color="#e3b0ae"/><stop offset="0.45" stop-color="#dca2a0"/><stop offset="0.62" stop-color="#d18a89"/><stop offset="0.79" stop-color="#c26968"/><stop offset="0.97" stop-color="#ae3f3f"/><stop offset="1" stop-color="#aa3636"/></linearGradient></defs><polygon class="cls-1" points="59.98 103.67 91.62 103.67 123.36 108.09 141.35 105.48 201.23 107.38 235.63 103.67 254.97 107.2 296.8 103.67 340.8 103.67 340.8 197.28 59.98 197.28 59.98 103.67"/><polygon class="cls-2" points="78.84 102.42 122.66 108.36 141.35 105.92 200.39 109.77 235.99 106.09 255.5 109.13 310.31 103.67 292.34 92.31 254.97 96.74 236.17 94.54 200.39 98.96 141.99 94.54 120.56 97.45 86.11 91.23 78.84 102.42"/><rect class="cls-3" x="59.97" y="190.07" width="280.82" height="14.41"/><path class="cls-4" d="M180.11,142.07a4.47,4.47,0,0,1,.82.08,3.52,3.52,0,0,1,.78.24,4.14,4.14,0,0,1,.72.38,4.59,4.59,0,0,1,.63.52,4.35,4.35,0,0,1,.52.63,5,5,0,0,1,.39.72,4.45,4.45,0,0,1,.23.79,3.65,3.65,0,0,1,.08.81,3.71,3.71,0,0,1-.08.81,4.45,4.45,0,0,1-.23.79,5,5,0,0,1-.39.72,4.35,4.35,0,0,1-.52.63,4.59,4.59,0,0,1-.63.52,4.14,4.14,0,0,1-.72.38,3.52,3.52,0,0,1-.78.24,4.19,4.19,0,0,1-1.63,0,3.52,3.52,0,0,1-.78-.24,4.14,4.14,0,0,1-.72-.38,4.59,4.59,0,0,1-.63-.52,4.35,4.35,0,0,1-.52-.63,5,5,0,0,1-.39-.72,4.45,4.45,0,0,1-.23-.79,3.71,3.71,0,0,1-.08-.81,3.65,3.65,0,0,1,.08-.81,4.45,4.45,0,0,1,.23-.79,5,5,0,0,1,.39-.72,4.35,4.35,0,0,1,.52-.63,4.59,4.59,0,0,1,.63-.52,4.14,4.14,0,0,1,.72-.38,3.52,3.52,0,0,1,.78-.24A4.45,4.45,0,0,1,180.11,142.07Z"/><path class="cls-4" d="M301,118.65a3.71,3.71,0,0,1,.81.08,3.9,3.9,0,0,1,1.5.62,4.29,4.29,0,0,1,1.15,1.15,4.19,4.19,0,0,1,.39.72,5,5,0,0,1,.24.78,4.19,4.19,0,0,1,0,1.63,5,5,0,0,1-.24.78,4.19,4.19,0,0,1-.39.72,4.29,4.29,0,0,1-1.15,1.15,4.13,4.13,0,0,1-.72.39,5,5,0,0,1-.78.24,4.19,4.19,0,0,1-1.63,0,4.14,4.14,0,0,1-1.5-.63,4.29,4.29,0,0,1-1.15-1.15,5,5,0,0,1-.39-.72,4.12,4.12,0,0,1-.23-.78,4.19,4.19,0,0,1,0-1.63,4.12,4.12,0,0,1,.23-.78,5,5,0,0,1,.39-.72,4.29,4.29,0,0,1,1.15-1.15,5,5,0,0,1,.72-.39,4.12,4.12,0,0,1,.78-.23A3.74,3.74,0,0,1,301,118.65Z"/><path class="cls-4" d="M323,173.44a4.47,4.47,0,0,1,.82.08,3.88,3.88,0,0,1,.78.24,4.14,4.14,0,0,1,.72.38,4,4,0,0,1,.63.52,4.46,4.46,0,0,1,.52.63,4.14,4.14,0,0,1,.38.72,3.78,3.78,0,0,1,.24.79,4.36,4.36,0,0,1,.08.81,4.45,4.45,0,0,1-.08.81,3.52,3.52,0,0,1-.24.78,3.89,3.89,0,0,1-.38.73,5.11,5.11,0,0,1-.52.63,4.59,4.59,0,0,1-.63.52,4.14,4.14,0,0,1-.72.38,3.88,3.88,0,0,1-.78.24,4.19,4.19,0,0,1-1.63,0,4.36,4.36,0,0,1-1.5-.62,5.38,5.38,0,0,1-.64-.52,5,5,0,0,1-.51-.63,3.42,3.42,0,0,1-.39-.73,5,5,0,0,1-.24-.78,4.45,4.45,0,0,1-.08-.81,4.36,4.36,0,0,1,.08-.81,5.53,5.53,0,0,1,.24-.79,3.6,3.6,0,0,1,.39-.72,4.39,4.39,0,0,1,.51-.63,4.55,4.55,0,0,1,.64-.52,4.36,4.36,0,0,1,1.5-.62A4.45,4.45,0,0,1,323,173.44Z"/><path class="cls-5" d="M136.5,147.55a8.26,8.26,0,0,1,.81-1.06,9,9,0,0,1,1-.93,9.91,9.91,0,0,1,1.17-.78,11,11,0,0,1,1.34-.63,13,13,0,0,1,1.49-.48,16.68,16.68,0,0,1,3.38-.46c.6,0,1.22,0,1.85,0s1.28.09,1.94.18,1.33.2,2,.35,1.36.3,2.05.5,1.39.41,2.09.66,1.39.51,2.09.81,1.39.61,2.08.95,1.37.7,2.05,1.08,1.34.78,2,1.2,1.3.86,1.93,1.32,1.24.92,1.84,1.41,1.17,1,1.73,1.49,1.09,1,1.61,1.57,1,1.07,1.46,1.62.91,1.1,1.32,1.65.79,1.12,1.15,1.68.68,1.13,1,1.69.56,1.12.79,1.68.42,1.11.59,1.65.29,1.08.39,1.61a12.28,12.28,0,0,1,.19,1.56,10.41,10.41,0,0,1,0,1.48,9,9,0,0,1-.22,1.39,9.39,9.39,0,0,1-.42,1.3,8.32,8.32,0,0,1-.63,1.18,7.62,7.62,0,0,1-.81,1.06,9.83,9.83,0,0,1-1,.93,11,11,0,0,1-1.18.78,9.68,9.68,0,0,1-1.34.63,11.29,11.29,0,0,1-1.49.48,13.45,13.45,0,0,1-1.63.31,16.06,16.06,0,0,1-1.75.15c-.6,0-1.21,0-1.85,0s-1.28-.09-1.94-.18-1.33-.2-2-.34-1.37-.31-2.06-.51-1.39-.41-2.08-.66-1.4-.51-2.1-.8-1.39-.61-2.08-.95-1.37-.7-2-1.09-1.35-.78-2-1.2-1.3-.86-1.93-1.31-1.24-.93-1.84-1.41-1.17-1-1.73-1.5-1.09-1-1.6-1.56-1-1.08-1.47-1.62-.9-1.1-1.32-1.66-.79-1.12-1.15-1.68-.67-1.13-1-1.69-.55-1.12-.78-1.68a16.37,16.37,0,0,1-.59-1.65,13.26,13.26,0,0,1-.59-3.16,12.26,12.26,0,0,1,0-1.49,9,9,0,0,1,.22-1.39,8.25,8.25,0,0,1,.43-1.3A7.37,7.37,0,0,1,136.5,147.55Z"/><path class="cls-2" d="M157.42,159c-4.53-2.91-7.63-6.59-8.13-9.31,0,.07-.1.11-.14.17-1.51,2.37,1.73,7.16,7.26,10.74s11.24,4.47,12.76,2.13c0-.06.06-.13.1-.21-2.68.67-7.32-.61-11.85-3.52Z"/><path class="cls-6" d="M161.08,153.29c4.54,2.9,7.64,6.59,8.14,9.31l.14-.18c1.52-2.37-1.74-7.16-7.26-10.74s-11.24-4.47-12.76-2.13c0,.06-.07.13-.1.2C151.92,149.1,156.56,150.38,161.08,153.29Z"/><path class="cls-6" d="M151,169c-10.21-6.55-15.83-16.31-13.42-22.74a8.59,8.59,0,0,0-1.09,1.32c-4,6.32,1.63,17.19,12.69,24.29s23.26,7.72,27.35,1.4a7.35,7.35,0,0,0,.76-1.54c-4.87,4.86-16.08,3.82-26.29-2.73Z"/><path class="cls-5" d="M295.11,149.71c.7-.35,1.41-.67,2.12-1s1.44-.59,2.16-.84,1.45-.5,2.18-.71,1.45-.4,2.17-.57,1.43-.3,2.14-.41,1.41-.21,2.1-.27,1.37-.1,2-.11,1.32,0,1.95,0,1.25.1,1.84.19,1.17.21,1.72.35,1.08.31,1.59.5a14.19,14.19,0,0,1,1.42.64,11.17,11.17,0,0,1,1.26.78,9.69,9.69,0,0,1,1.08.92,7.82,7.82,0,0,1,.89,1,8.34,8.34,0,0,1,.69,1.15,6.63,6.63,0,0,1,.48,1.24,8.38,8.38,0,0,1,.28,1.34,10.93,10.93,0,0,1,.06,1.41,12.63,12.63,0,0,1-.15,1.47,12.44,12.44,0,0,1-.37,1.52,14,14,0,0,1-.57,1.56,16.35,16.35,0,0,1-.78,1.57,17.67,17.67,0,0,1-1,1.58c-.35.53-.74,1-1.16,1.57s-.86,1-1.33,1.54-1,1-1.49,1.49-1.07,1-1.65,1.45-1.16.92-1.77,1.37-1.24.87-1.89,1.29-1.31.81-2,1.19-1.37.74-2.07,1.09-1.4.66-2.12,1-1.43.59-2.16.85-1.45.49-2.17.7-1.45.4-2.17.57-1.44.3-2.15.42-1.41.2-2.1.26-1.37.1-2,.12-1.32,0-1.95-.05-1.25-.1-1.84-.19a17.42,17.42,0,0,1-1.72-.35,14.6,14.6,0,0,1-1.58-.5,12.4,12.4,0,0,1-1.43-.64,11.17,11.17,0,0,1-1.26-.78,10.8,10.8,0,0,1-1.08-.91,8.74,8.74,0,0,1-.89-1,8.23,8.23,0,0,1-.69-1.14,9,9,0,0,1-.48-1.25,7.47,7.47,0,0,1-.27-1.33,9.45,9.45,0,0,1-.07-1.42,12.26,12.26,0,0,1,.52-3c.16-.52.35-1,.57-1.56s.49-1,.78-1.57.62-1.05,1-1.58.74-1.05,1.16-1.56.86-1,1.33-1.54,1-1,1.5-1.5,1.07-1,1.64-1.44,1.16-.93,1.77-1.38,1.24-.87,1.89-1.28,1.31-.82,2-1.2S294.41,150.05,295.11,149.71Z"/><path class="cls-2" d="M301.83,163.42c4.84-2.37,9.59-3.11,12.17-2.14a.58.58,0,0,0-.07-.21c-1.24-2.53-7-2.22-12.93.67s-9.66,7.29-8.43,9.84c0,.07.09.12.13.19.8-2.67,4.3-6,9.13-8.35Z"/><path class="cls-6" d="M304.86,169.51c-4.83,2.37-9.58,3.12-12.17,2.14l.07.22c1.25,2.52,7,2.22,12.93-.68s9.66-7.28,8.43-9.84l-.13-.19C313.15,163.84,309.65,167.14,304.86,169.51Z"/><path class="cls-6" d="M296.61,152.77c10.88-5.37,22.14-5.09,26.41.28a7.51,7.51,0,0,0-.57-1.61c-3.31-6.74-15.55-7.51-27.34-1.72s-18.67,15.94-15.37,22.68a8.27,8.27,0,0,0,.9,1.44c-1.61-6.66,5.08-15.73,16-21.07Z"/><path class="cls-5" d="M92.65,120.59c.7-.34,1.4-.66,2.12-1s1.43-.59,2.16-.85,1.45-.49,2.17-.7,1.45-.4,2.17-.57,1.44-.3,2.15-.42,1.41-.2,2.1-.26,1.37-.1,2-.12,1.32,0,2,.05,1.25.1,1.84.19a17.42,17.42,0,0,1,1.72.35,14.6,14.6,0,0,1,1.58.5,12.4,12.4,0,0,1,1.43.64,11.17,11.17,0,0,1,1.26.78,10.8,10.8,0,0,1,1.08.91,8.74,8.74,0,0,1,.89,1,8.23,8.23,0,0,1,.69,1.14,9,9,0,0,1,.48,1.25,7.47,7.47,0,0,1,.27,1.33,9.45,9.45,0,0,1,.07,1.42,12.26,12.26,0,0,1-.52,3c-.16.52-.35,1-.57,1.56s-.49,1-.78,1.57-.62,1-1,1.58-.74,1.05-1.16,1.57-.86,1-1.33,1.53-1,1-1.5,1.5-1.07,1-1.64,1.44-1.16.93-1.77,1.38-1.24.87-1.89,1.28-1.31.82-2,1.2-1.36.74-2.06,1.08-1.41.67-2.12,1-1.44.59-2.16.84-1.45.5-2.18.71-1.45.4-2.17.57-1.43.3-2.14.41-1.41.21-2.1.27-1.37.1-2,.11-1.32,0-2,0-1.25-.1-1.84-.19-1.17-.21-1.72-.35a16.28,16.28,0,0,1-1.58-.5,13.41,13.41,0,0,1-1.43-.64,11.17,11.17,0,0,1-1.26-.78,9.69,9.69,0,0,1-1.08-.92,7.82,7.82,0,0,1-.89-1,8.34,8.34,0,0,1-.69-1.15,6.63,6.63,0,0,1-.48-1.24,8.38,8.38,0,0,1-.28-1.34,10.93,10.93,0,0,1-.06-1.41,12.63,12.63,0,0,1,.15-1.47,12.44,12.44,0,0,1,.37-1.52,14,14,0,0,1,.57-1.56,16.35,16.35,0,0,1,.78-1.57,17.67,17.67,0,0,1,1-1.58c.35-.53.74-1.05,1.16-1.57s.86-1,1.33-1.54,1-1,1.49-1.49,1.07-1,1.65-1.45,1.16-.92,1.77-1.37,1.24-.87,1.89-1.29,1.31-.81,2-1.19S92,120.94,92.65,120.59Z"/><path class="cls-2" d="M99.36,134.3c4.84-2.38,9.6-3.12,12.17-2.14a1.72,1.72,0,0,0-.07-.21c-1.24-2.53-7-2.23-12.92.66s-9.67,7.3-8.43,9.85c0,.07.08.12.12.18.79-2.66,4.3-6,9.13-8.34Z"/><path class="cls-6" d="M102.36,140.39c-4.83,2.37-9.59,3.12-12.17,2.14a.9.9,0,0,0,.08.21c1.23,2.52,7,2.23,12.92-.67s9.67-7.28,8.42-9.84l-.11-.19c-.8,2.68-4.31,6-9.14,8.35Z"/><path class="cls-6" d="M94.14,123.65c10.89-5.37,22.15-5.1,26.42.27a8,8,0,0,0-.58-1.61c-3.3-6.73-15.54-7.5-27.33-1.71S74,136.54,77.28,143.28a8.27,8.27,0,0,0,.9,1.44c-1.62-6.69,5.07-15.73,16-21.07Z"/><path class="cls-5" d="M143.11,64.2c.23-.75.48-1.48.75-2.21s.55-1.45.86-2.15.63-1.4,1-2.07.7-1.33,1.07-2,.76-1.25,1.16-1.85.82-1.16,1.25-1.71.86-1.07,1.31-1.56.9-1,1.36-1.39.93-.84,1.41-1.21a16.24,16.24,0,0,1,1.43-1,13.06,13.06,0,0,1,1.44-.81,11.72,11.72,0,0,1,1.45-.6,9.84,9.84,0,0,1,1.43-.39,9.69,9.69,0,0,1,1.4-.16,7.77,7.77,0,0,1,1.37.06,8.13,8.13,0,0,1,1.3.28,7.84,7.84,0,0,1,1.24.5,8.27,8.27,0,0,1,1.16.72,8.4,8.4,0,0,1,1.07.92,9.63,9.63,0,0,1,1,1.12,11,11,0,0,1,.86,1.31,12.77,12.77,0,0,1,.74,1.48,15.91,15.91,0,0,1,.62,1.64c.18.58.35,1.17.48,1.79s.26,1.26.35,1.92.17,1.33.21,2,.07,1.4.07,2.12,0,1.45-.07,2.18-.12,1.49-.22,2.24-.21,1.5-.35,2.25-.31,1.52-.49,2.27-.4,1.5-.63,2.25-.47,1.48-.74,2.21-.56,1.44-.87,2.15-.63,1.39-1,2.06-.7,1.34-1.08,2-.76,1.26-1.16,1.85-.82,1.17-1.24,1.71-.87,1.07-1.31,1.56-.91,1-1.37,1.39-.93.84-1.4,1.21-.95.71-1.43,1-1,.57-1.45.81a14.81,14.81,0,0,1-1.45.6,10.8,10.8,0,0,1-1.43.38,8.46,8.46,0,0,1-1.4.16,7.66,7.66,0,0,1-1.36-.06,7.27,7.27,0,0,1-1.31-.28,8.13,8.13,0,0,1-2.4-1.21,9.25,9.25,0,0,1-1.07-.93,10.69,10.69,0,0,1-1-1.12,12.2,12.2,0,0,1-.86-1.3,14.77,14.77,0,0,1-.74-1.49c-.23-.52-.43-1.07-.62-1.64s-.34-1.17-.48-1.79-.26-1.26-.35-1.91-.16-1.34-.21-2-.07-1.4-.07-2.11,0-1.45.08-2.19.12-1.48.21-2.23.22-1.5.36-2.26.3-1.51.49-2.26S142.88,64.94,143.11,64.2Z"/><path class="cls-2" d="M157.7,68.68c1.58-5.15,4.3-9.12,6.77-10.34l-.2-.09c-2.69-.82-6.43,3.58-8.36,9.84s-1.31,12,1.38,12.87l.21,0c-1.36-2.37-1.38-7.18.2-12.32Z"/><path class="cls-6" d="M164.19,70.67c-1.59,5.14-4.28,9.12-6.77,10.33l.2.09c2.69.83,6.43-3.58,8.37-9.85s1.3-12-1.39-12.86h-.21C165.75,60.71,165.77,65.56,164.19,70.67Z"/><path class="cls-6" d="M146.36,65.19c3.58-11.63,11.46-19.63,18.29-19.06a8,8,0,0,0-1.56-.68c-7.16-2.2-16.11,6.19-20,18.79S142,88.76,149.12,91a7.44,7.44,0,0,0,1.68.32C144.83,87.87,142.8,76.78,146.36,65.19Z"/><path class="cls-5" d="M203.31,47.72c.67-.39,1.36-.75,2.05-1.1s1.39-.68,2.1-1,1.41-.59,2.12-.85,1.42-.5,2.13-.71,1.41-.4,2.11-.56,1.39-.3,2.08-.41,1.36-.19,2-.25,1.31-.08,1.94-.09a18.41,18.41,0,0,1,1.85.08,15.87,15.87,0,0,1,1.74.23,13.68,13.68,0,0,1,1.62.39,14.73,14.73,0,0,1,1.46.54,10.17,10.17,0,0,1,1.31.7,8.95,8.95,0,0,1,2.1,1.81,8.18,8.18,0,0,1,.76,1.09,8.9,8.9,0,0,1,.57,1.21,9.5,9.5,0,0,1,.36,1.32,9.08,9.08,0,0,1,.16,1.4,10.59,10.59,0,0,1-.06,1.48,12.54,12.54,0,0,1-.26,1.55,14.81,14.81,0,0,1-.46,1.59c-.19.53-.42,1.07-.67,1.62s-.55,1.09-.87,1.64-.67,1.09-1.05,1.64-.78,1.09-1.22,1.62-.9,1.07-1.39,1.6-1,1-1.54,1.55-1.1,1-1.68,1.49-1.18,1-1.8,1.41-1.25.9-1.9,1.32-1.31.84-2,1.22-1.36.76-2.05,1.11-1.39.68-2.1,1-1.41.59-2.12.85-1.42.5-2.13.71-1.41.4-2.11.56-1.39.3-2.08.41-1.36.19-2,.25-1.31.08-1.94.09-1.25,0-1.85-.08-1.18-.13-1.74-.23a13.68,13.68,0,0,1-1.62-.39,12.61,12.61,0,0,1-1.46-.55,9,9,0,0,1-1.31-.69,8.83,8.83,0,0,1-1.14-.84,8,8,0,0,1-1-1,8.18,8.18,0,0,1-.76-1.09,8.49,8.49,0,0,1-.57-1.22,9.36,9.36,0,0,1-.36-1.31,9.08,9.08,0,0,1-.16-1.4,10.53,10.53,0,0,1,.06-1.48,12.54,12.54,0,0,1,.26-1.55c.12-.52.28-1.05.46-1.59s.42-1.08.67-1.62.55-1.09.87-1.64.67-1.09,1-1.64.79-1.09,1.22-1.63.9-1.07,1.39-1.59,1-1,1.55-1.55,1.09-1,1.67-1.49,1.18-1,1.8-1.41,1.25-.9,1.9-1.32S202.63,48.11,203.31,47.72Z"/><path class="cls-2" d="M209.27,58.05c-4.66,2.68-9.35,3.74-12,3a.72.72,0,0,0,.09.2c1.4,2.44,7.15,1.75,12.84-1.53s9.16-7.92,7.75-10.37c0-.06-.09-.11-.13-.17-.66,2.69-3.89,6.22-8.56,8.92Z"/><path class="cls-6" d="M205.87,52.14c4.67-2.68,9.36-3.76,12-3a1,1,0,0,0-.09-.21c-1.4-2.44-7.15-1.79-12.84,1.53s-9.16,7.93-7.75,10.36l.13.18c.63-2.65,3.9-6.23,8.55-8.91Z"/><path class="cls-6" d="M215.21,68.32c-10.51,6.06-21.76,6.57-26.38,1.5a8.37,8.37,0,0,0,.68,1.57c3.75,6.49,16,6.44,27.4-.13S234.46,54.1,230.7,47.6a7.59,7.59,0,0,0-1-1.38C231.78,52.76,225.71,62.25,215.21,68.32Z"/><path class="cls-5" d="M258.84,132.43a7.6,7.6,0,0,1,.87-1,7.43,7.43,0,0,1,1-.88,9.71,9.71,0,0,1,1.21-.73,11.21,11.21,0,0,1,1.37-.56,11.94,11.94,0,0,1,1.51-.41c.53-.1,1.08-.18,1.64-.23a16.92,16.92,0,0,1,1.76-.07c.6,0,1.22,0,1.85.1s1.27.16,1.93.28,1.31.26,2,.44,1.35.37,2,.6,1.37.48,2.05.76,1.37.58,2.05.91,1.36.68,2,1.05,1.34.76,2,1.18,1.3.84,1.94,1.3,1.25.92,1.86,1.4,1.19,1,1.76,1.5,1.13,1,1.66,1.58,1,1.08,1.53,1.64.95,1.12,1.39,1.69.85,1.14,1.23,1.71.74,1.16,1.07,1.74.62,1.16.89,1.73.5,1.15.7,1.72.37,1.12.51,1.68a14,14,0,0,1,.31,1.62,12.24,12.24,0,0,1,.12,1.56,11.88,11.88,0,0,1-.09,1.48,9,9,0,0,1-.29,1.39,9.22,9.22,0,0,1-.48,1.27,9.4,9.4,0,0,1-.68,1.15,8.38,8.38,0,0,1-.87,1,8.79,8.79,0,0,1-1,.88,10.31,10.31,0,0,1-1.22.72,9.72,9.72,0,0,1-1.36.57,14.08,14.08,0,0,1-1.52.4,13.76,13.76,0,0,1-1.64.24,16.77,16.77,0,0,1-1.75.06c-.6,0-1.22,0-1.85-.1s-1.28-.15-1.93-.27-1.32-.27-2-.44-1.35-.38-2-.61-1.36-.48-2.05-.76-1.36-.58-2-.9-1.36-.68-2-1.05-1.34-.77-2-1.18-1.31-.85-1.94-1.3-1.25-.92-1.86-1.41-1.2-1-1.77-1.49-1.12-1-1.65-1.58-1.05-1.09-1.53-1.64-.95-1.12-1.39-1.69-.85-1.14-1.23-1.72-.74-1.16-1.07-1.73-.62-1.16-.89-1.74a17.58,17.58,0,0,1-.7-1.71,14.53,14.53,0,0,1-.51-1.68,14.2,14.2,0,0,1-.32-1.63,11.93,11.93,0,0,1-.11-1.56,9,9,0,0,1,.09-1.48,8.65,8.65,0,0,1,.28-1.38,8.79,8.79,0,0,1,.49-1.27A8.38,8.38,0,0,1,258.84,132.43Z"/><path class="cls-2" d="M279.2,144.87c-4.39-3.11-7.3-6.94-7.67-9.68a.75.75,0,0,0-.15.16c-1.64,2.29,1.38,7.24,6.73,11.05s11,5,12.64,2.75l.11-.2c-2.71.55-7.28-1-11.66-4.08Z"/><path class="cls-6" d="M283.13,139.34c4.39,3.12,7.31,6.95,7.67,9.69,0-.05.11-.1.15-.16,1.63-2.3-1.38-7.24-6.73-11.05s-11-5-12.65-2.75a1.86,1.86,0,0,0-.1.2c2.71-.55,7.28,1,11.66,4.07Z"/><path class="cls-6" d="M272.32,154.54c-9.89-7-15-17.06-12.33-23.38a8.1,8.1,0,0,0-1.14,1.28c-4.36,6.11.79,17.24,11.49,24.87s22.91,8.84,27.26,2.68a7.76,7.76,0,0,0,.83-1.49c-5.08,4.65-16.23,3.08-26.11-4Z"/><path class="cls-5" d="M210.79,130.32c.63-.45,1.28-.88,1.94-1.29s1.32-.8,2-1.17,1.35-.72,2-1,1.37-.63,2.06-.9,1.37-.53,2.05-.75,1.36-.43,2-.6,1.34-.31,2-.43,1.3-.21,1.93-.27,1.25-.09,1.85-.09a16.62,16.62,0,0,1,1.75.07,13.76,13.76,0,0,1,1.64.24,13.31,13.31,0,0,1,1.51.41,13.08,13.08,0,0,1,1.37.57,11.09,11.09,0,0,1,1.21.73,8.94,8.94,0,0,1,1,.88,7,7,0,0,1,.86,1,8.28,8.28,0,0,1,.68,1.15,8.88,8.88,0,0,1,.48,1.28,8.65,8.65,0,0,1,.28,1.38,10.25,10.25,0,0,1,.08,1.48,10.44,10.44,0,0,1-.12,1.56,14.2,14.2,0,0,1-.32,1.63c-.14.55-.31,1.11-.51,1.67s-.45,1.14-.72,1.72-.56,1.15-.89,1.72-.69,1.16-1.07,1.73-.8,1.15-1.24,1.72-.91,1.13-1.4,1.68-1,1.1-1.54,1.64-1.08,1.06-1.66,1.57-1.16,1-1.77,1.49-1.23,1-1.87,1.4-1.28.88-1.94,1.29-1.32.8-2,1.17-1.35.71-2,1-1.37.62-2.06.9-1.37.53-2.05.75-1.36.42-2,.59-1.34.32-2,.44-1.3.2-1.93.26-1.25.09-1.85.1-1.19,0-1.76-.07-1.11-.14-1.64-.25a11.94,11.94,0,0,1-1.51-.41,9.72,9.72,0,0,1-1.36-.57,9,9,0,0,1-1.21-.73,8.06,8.06,0,0,1-1-.88,7.88,7.88,0,0,1-1.54-2.18,8.76,8.76,0,0,1-.48-1.27,9,9,0,0,1-.28-1.39,11.72,11.72,0,0,1-.09-1.47,14.37,14.37,0,0,1,.12-1.57q.12-.79.33-1.62t.51-1.68c.21-.56.45-1.14.71-1.71s.57-1.15.9-1.73.69-1.15,1.07-1.73.8-1.15,1.24-1.71.91-1.13,1.4-1.69,1-1.1,1.53-1.63,1.09-1.06,1.67-1.57,1.16-1,1.77-1.49S210.15,130.77,210.79,130.32Z"/><path class="cls-2" d="M217.66,140c-4.4,3.1-8.95,4.59-11.63,4a1.24,1.24,0,0,0,.1.2c1.62,2.3,7.3,1.09,12.66-2.68s8.4-8.73,6.78-11l-.15-.16C225,133.12,222.06,136.93,217.66,140Z"/><path class="cls-6" d="M213.75,134.46c4.39-3.1,8.95-4.59,11.67-4a1.86,1.86,0,0,0-.1-.2c-1.62-2.3-7.29-1.09-12.65,2.69s-8.41,8.72-6.78,11c0,.06.1.11.15.17.4-2.69,3.31-6.51,7.71-9.65Z"/><path class="cls-6" d="M224.5,149.73c-9.9,7-21.07,8.53-26.13,3.89a7.8,7.8,0,0,0,.82,1.5c4.33,6.13,16.54,5,27.27-2.61s15.93-18.69,11.63-24.83a8,8,0,0,0-1.13-1.27C239.59,132.73,234.42,142.74,224.5,149.73Z"/><path class="cls-5" d="M157.12,26.55a7.29,7.29,0,0,1,.45-1.26,8.79,8.79,0,0,1,.67-1.19,8.16,8.16,0,0,1,.88-1.1,8.77,8.77,0,0,1,1.08-1,12.5,12.5,0,0,1,1.27-.91,16.55,16.55,0,0,1,1.45-.8,17.13,17.13,0,0,1,1.62-.68,17.48,17.48,0,0,1,1.77-.55c.61-.17,1.24-.31,1.9-.43s1.32-.22,2-.29,1.39-.12,2.11-.15,1.45,0,2.19,0,1.48.06,2.24.12,1.51.16,2.27.27,1.52.24,2.28.4,1.52.33,2.27.53,1.5.42,2.24.66,1.46.5,2.18.78,1.42.57,2.11.89,1.35.64,2,1,1.28.71,1.89,1.09,1.2.77,1.76,1.18,1.1.82,1.61,1.24,1,.87,1.44,1.31.88.9,1.27,1.36.74.92,1.07,1.39.61.94.87,1.41a12.78,12.78,0,0,1,.65,1.42,9.65,9.65,0,0,1,.44,1.42,8.37,8.37,0,0,1,.22,1.39,8.82,8.82,0,0,1,0,1.36,8.28,8.28,0,0,1-.23,1.32,9.45,9.45,0,0,1-.45,1.26,8.79,8.79,0,0,1-.67,1.19,9,9,0,0,1-.88,1.1,10.48,10.48,0,0,1-1.08,1,15.21,15.21,0,0,1-1.27.91c-.46.28-.94.55-1.46.8s-1.05.47-1.61.68-1.16.39-1.77.55-1.25.31-1.9.43-1.33.22-2,.29-1.39.12-2.11.15-1.44,0-2.18,0-1.49-.06-2.24-.12-1.51-.16-2.27-.27-1.53-.24-2.29-.4-1.51-.33-2.27-.53-1.5-.42-2.23-.66-1.47-.5-2.19-.78-1.42-.57-2.1-.89-1.36-.64-2-1-1.29-.71-1.9-1.09-1.19-.77-1.76-1.18-1.1-.82-1.61-1.24-1-.87-1.44-1.31-.87-.9-1.26-1.36a16.67,16.67,0,0,1-1.07-1.39,13.45,13.45,0,0,1-.87-1.41,11.28,11.28,0,0,1-.66-1.42,11,11,0,0,1-.44-1.42,9.56,9.56,0,0,1-.22-1.39,8.8,8.8,0,0,1,0-1.36A7.29,7.29,0,0,1,157.12,26.55Z"/><path class="cls-2" d="M180.54,31c-5.19-1.38-9.27-3.93-10.59-6.36a1.19,1.19,0,0,0-.08.2c-.72,2.73,3.85,6.26,10.2,8s12.08.84,12.79-1.88V30.7C190.56,32.17,185.75,32.38,180.54,31Z"/><path class="cls-6" d="M182.28,24.4c5.2,1.38,9.28,3.93,10.59,6.37a1.8,1.8,0,0,0,.08-.21c.72-2.73-3.84-6.26-10.2-8s-12.07-.84-12.79,1.88v.23c2.31-1.43,7.11-1.64,12.32-.31Z"/><path class="cls-6" d="M177.52,42.48c-11.73-3.1-20.08-10.67-19.78-17.52a8.32,8.32,0,0,0-.62,1.59c-1.91,7.26,6.83,15.86,19.53,19.21s24.55.19,26.47-7.07a8,8,0,0,0,.24-1.69C200.24,43.11,189.24,45.57,177.52,42.48Z"/><path class="cls-5" d="M207.57,89.34c0-.77,0-1.55.06-2.33s.12-1.54.2-2.3.2-1.52.33-2.27.28-1.48.45-2.19.37-1.43.58-2.11.44-1.36.69-2,.51-1.28.79-1.88.59-1.18.9-1.73.65-1.07,1-1.56a17.59,17.59,0,0,1,1.08-1.39,16.37,16.37,0,0,1,1.14-1.2,13.47,13.47,0,0,1,1.21-1,10.55,10.55,0,0,1,1.26-.79,9.68,9.68,0,0,1,1.29-.56,8,8,0,0,1,1.32-.34,7.48,7.48,0,0,1,1.33-.12,7.59,7.59,0,0,1,1.34.12,7.69,7.69,0,0,1,1.31.35,9.8,9.8,0,0,1,1.3.56,11.31,11.31,0,0,1,1.25.79,13.62,13.62,0,0,1,1.21,1,16.37,16.37,0,0,1,1.14,1.2c.37.44.72.9,1.07,1.4s.67,1,1,1.56.62,1.13.9,1.74.54,1.22.79,1.87.47,1.32.68,2,.4,1.39.57,2.11.32,1.46.44,2.2.24,1.5.32,2.27.15,1.53.2,2.31.06,1.55.06,2.33,0,1.55-.07,2.33-.11,1.54-.2,2.31-.2,1.51-.33,2.26-.28,1.48-.45,2.2-.36,1.42-.57,2.11-.45,1.35-.69,2-.52,1.27-.8,1.87-.58,1.18-.9,1.73-.65,1.07-1,1.56a15.44,15.44,0,0,1-1.07,1.39,16.46,16.46,0,0,1-1.15,1.2,11.25,11.25,0,0,1-1.21,1,12.89,12.89,0,0,1-1.25.78,9.87,9.87,0,0,1-1.3.57,9.15,9.15,0,0,1-1.32.34,8.52,8.52,0,0,1-1.33.11,7.39,7.39,0,0,1-1.33-.12,8.83,8.83,0,0,1-1.32-.34,10.07,10.07,0,0,1-2.55-1.36,12.23,12.23,0,0,1-1.2-1,14.49,14.49,0,0,1-1.14-1.2c-.37-.44-.73-.9-1.07-1.39s-.68-1-1-1.57-.61-1.13-.89-1.73-.55-1.23-.79-1.88-.48-1.31-.69-2-.39-1.39-.56-2.11-.32-1.46-.45-2.2-.23-1.5-.32-2.27-.15-1.53-.19-2.3S207.56,90.12,207.57,89.34Z"/><path class="cls-2" d="M219.5,89.37c0,5.37-1.44,10-3.46,11.86h.22c2.81,0,5.1-5.32,5.12-11.89s-2.26-11.89-5.08-11.9h-.23c2,2,3.44,6.54,3.43,11.93Z"/><path class="cls-6" d="M212.7,89.36c0-5.37,1.45-10,3.46-11.86a.74.74,0,0,0-.21,0c-2.82,0-5.11,5.31-5.12,11.88s2.26,11.9,5.07,11.9h.23c-2-1.94-3.43-6.54-3.43-11.92Z"/><path class="cls-6" d="M231.37,89.39c0,12.13-5.23,22.12-11.93,23.57a7.36,7.36,0,0,0,1.69.19c7.51,0,13.61-10.62,13.64-23.75s-6.05-23.84-13.56-23.84a7.51,7.51,0,0,0-1.7.19C226.21,67.25,231.38,77.26,231.37,89.39Z"/><path class="cls-5" d="M159.2,99.7a7.42,7.42,0,0,1,.73-1.12,8.75,8.75,0,0,1,.93-1,9.69,9.69,0,0,1,1.11-.87,11.39,11.39,0,0,1,1.29-.73,12.52,12.52,0,0,1,1.45-.58,12.92,12.92,0,0,1,1.6-.44c.56-.12,1.14-.21,1.73-.28s1.22-.11,1.85-.13,1.29,0,2,0,1.34.1,2,.19,1.38.2,2.08.35,1.42.31,2.13.5,1.43.41,2.15.65,1.43.5,2.14.79,1.42.59,2.13.92,1.39.68,2.08,1.05,1.36.76,2,1.17,1.31.83,1.94,1.27,1.24.89,1.84,1.36,1.16,1,1.71,1.44,1.09,1,1.59,1.5,1,1,1.44,1.56.87,1,1.27,1.59.76,1.07,1.09,1.61.64,1.08.91,1.61.51,1.08.72,1.61.37,1,.51,1.57a12.66,12.66,0,0,1,.3,1.54,10.72,10.72,0,0,1,.1,1.48,9.36,9.36,0,0,1-.12,1.41,8.47,8.47,0,0,1-.32,1.32,9.56,9.56,0,0,1-.54,1.23,7.33,7.33,0,0,1-.73,1.11,8,8,0,0,1-.93,1,9.69,9.69,0,0,1-1.11.87A10,10,0,0,1,197,126a12.55,12.55,0,0,1-1.45.59,15.6,15.6,0,0,1-1.6.43c-.56.12-1.14.22-1.73.29s-1.22.1-1.85.12-1.29,0-1.95,0-1.34-.11-2-.2-1.38-.2-2.08-.34-1.42-.31-2.13-.51-1.43-.4-2.15-.64-1.43-.51-2.14-.8-1.43-.59-2.13-.92-1.4-.68-2.08-1.05-1.36-.76-2-1.17-1.31-.83-1.94-1.27-1.24-.89-1.84-1.36-1.16-1-1.72-1.44-1.08-1-1.58-1.5-1-1-1.44-1.56-.87-1-1.27-1.59-.76-1.07-1.09-1.61-.64-1.07-.91-1.61-.51-1.07-.72-1.6-.37-1.06-.51-1.58a12.22,12.22,0,0,1-.4-3,8,8,0,0,1,.12-1.4,8.32,8.32,0,0,1,.32-1.33A7.81,7.81,0,0,1,159.2,99.7Z"/><path class="cls-2" d="M179.32,112.46c4.73,2.56,8.1,6,8.8,8.67a.83.83,0,0,0,.13-.18c1.34-2.47-2.27-7-8.05-10.13s-11.56-3.64-12.9-1.17a.5.5,0,0,1-.08.2C169.86,109,174.59,109.9,179.32,112.46Z"/><path class="cls-6" d="M176.09,118.44c-4.73-2.56-8.1-6-8.81-8.67,0,.06-.09.12-.12.18-1.34,2.48,2.26,7,8.05,10.14s11.54,3.64,12.89,1.17a.6.6,0,0,1,.08-.21c-2.63.88-7.35,0-12.09-2.61Z"/><path class="cls-6" d="M185,102c10.68,5.76,17,15.08,15.11,21.67a7.5,7.5,0,0,0,1-1.4c3.58-6.61-2.92-17-14.47-23.27s-23.82-6-27.38.67a7.51,7.51,0,0,0-.65,1.58c4.47-5.21,15.73-5,26.41.75Z"/><path class="cls-3" d="M125.67,83.26s-13,6-35.79,6H60v14.41H98.9c21.66,0,36.29-6,36.29-6l-9.52-4.16,4.47-4.72-3.37-1.23Z"/><path class="cls-3" d="M258.73,82.76l9,6.66-5.37,3.06L265,96.57s-6.91,1.94-8.52,1.94,18,5.16,37.17,5.16h47.16V89.26H301c-22.06,0-42.24-6.5-42.24-6.5Z"/><path class="cls-7" d="M134.32,118.17a1.46,1.46,0,0,0,1.75,0l1.62-1.3c.47-.39.78-.2.69.41l-.32,2a1.46,1.46,0,0,0,.9,1.51l1.93.75c.57.22.57.58,0,.81l-1.93.75a1.45,1.45,0,0,0-.9,1.51l.32,2c.09.61-.22.79-.69.4l-1.62-1.3a1.46,1.46,0,0,0-1.75,0l-1.62,1.3c-.48.39-.79.21-.7-.4l.32-2a1.45,1.45,0,0,0-.9-1.51l-1.94-.75c-.57-.23-.57-.59,0-.81l1.94-.75a1.46,1.46,0,0,0,.9-1.51l-.32-2c-.09-.61.22-.8.7-.41Z"/><path class="cls-7" d="M244.82,161.73a1.49,1.49,0,0,0,1.79,0l1.62-1.31c.48-.38.8-.2.7.41l-.32,2a1.46,1.46,0,0,0,.89,1.51l1.94.76c.58.22.58.58,0,.8l-1.94.75a1.47,1.47,0,0,0-.89,1.51l.32,2c.1.61-.22.8-.7.41l-1.66-1.32a1.46,1.46,0,0,0-1.79,0l-1.62,1.3c-.48.39-.8.2-.7-.4l.32-2.05a1.47,1.47,0,0,0-.89-1.52l-1.94-.75c-.58-.22-.58-.58,0-.8l1.94-.75a1.47,1.47,0,0,0,.89-1.52l-.32-2c-.1-.62.22-.8.7-.42Z"/><path class="cls-8" d="M180.28,141.18a5.38,5.38,0,0,1,1.14.12,5.09,5.09,0,0,1,1.09.33,4.91,4.91,0,0,1,1,.54,5.53,5.53,0,0,1,.88.72,6.09,6.09,0,0,1,.73.88,6.53,6.53,0,0,1,.54,1,6.85,6.85,0,0,1,.33,1.09,6,6,0,0,1,0,2.28,7.18,7.18,0,0,1-.33,1.09,6.53,6.53,0,0,1-.54,1,6.09,6.09,0,0,1-.73.88,5.53,5.53,0,0,1-.88.72,6.11,6.11,0,0,1-1,.54,5.09,5.09,0,0,1-1.09.33,5.91,5.91,0,0,1-2.27,0,5.09,5.09,0,0,1-1.09-.33,6.11,6.11,0,0,1-1-.54,5.53,5.53,0,0,1-.88-.72,6.09,6.09,0,0,1-.73-.88,6.53,6.53,0,0,1-.54-1,7.18,7.18,0,0,1-.33-1.09,6,6,0,0,1,0-2.28,6.85,6.85,0,0,1,.33-1.09,6.53,6.53,0,0,1,.54-1,6.09,6.09,0,0,1,.73-.88,5.53,5.53,0,0,1,.88-.72,4.91,4.91,0,0,1,1-.54,5.09,5.09,0,0,1,1.09-.33A5.35,5.35,0,0,1,180.28,141.18Z"/><polygon class="cls-9" points="179.81 144.57 179.81 145.42 177.81 145.42 177.81 146.47 179.6 146.47 179.6 147.25 177.81 147.25 177.81 149.15 176.91 149.15 176.91 144.57 179.81 144.57"/><polygon class="cls-9" points="180.03 144.57 181.11 144.57 181.94 146.03 182.84 144.57 183.86 144.57 182.5 146.76 183.98 149.15 182.87 149.15 181.98 147.56 181.03 149.15 179.98 149.15 181.47 146.75 180.03 144.57"/><path class="cls-8" d="M301.1,117.72a5.52,5.52,0,0,1,1.14.12,5.26,5.26,0,0,1,1.09.33,5.18,5.18,0,0,1,1,.54,5.71,5.71,0,0,1,1.6,1.6,5.18,5.18,0,0,1,.54,1,5.26,5.26,0,0,1,.33,1.09,5.47,5.47,0,0,1,0,2.28,5.45,5.45,0,0,1-.33,1.09,5.18,5.18,0,0,1-.54,1,5.71,5.71,0,0,1-1.6,1.6,6.53,6.53,0,0,1-1,.54,5.26,5.26,0,0,1-1.09.33,5.84,5.84,0,0,1-3.37-.33,6.53,6.53,0,0,1-1-.54,5.71,5.71,0,0,1-1.6-1.6,6.53,6.53,0,0,1-.54-1,5.9,5.9,0,0,1-.33-3.37,5.26,5.26,0,0,1,.33-1.09,6.53,6.53,0,0,1,.54-1,5.71,5.71,0,0,1,1.6-1.6,5.18,5.18,0,0,1,1-.54,5.45,5.45,0,0,1,1.09-.33A5.52,5.52,0,0,1,301.1,117.72Z"/><polygon class="cls-9" points="300.76 121.25 300.76 122.09 298.71 122.09 298.71 123.15 300.5 123.15 300.5 123.92 298.71 123.92 298.71 125.82 297.77 125.82 297.77 121.25 300.76 121.25"/><polygon class="cls-9" points="300.98 121.25 302.06 121.25 302.89 122.71 303.79 121.25 304.81 121.25 303.44 123.43 304.93 125.82 303.81 125.82 302.92 124.24 301.97 125.82 300.92 125.82 302.41 123.42 300.98 121.25"/><path class="cls-8" d="M323,171.78a5.52,5.52,0,0,1,1.14.12,5.26,5.26,0,0,1,1.09.33,5.18,5.18,0,0,1,1,.54,5.53,5.53,0,0,1,.88.72,6.82,6.82,0,0,1,.73.88,5.73,5.73,0,0,1,.53,1,5.26,5.26,0,0,1,.33,1.09,5.47,5.47,0,0,1,0,2.28,5.45,5.45,0,0,1-.33,1.09,5.73,5.73,0,0,1-.53,1,6.82,6.82,0,0,1-.73.88,5.53,5.53,0,0,1-.88.72,6.53,6.53,0,0,1-1,.54,5.26,5.26,0,0,1-1.09.33,5.51,5.51,0,0,1-1.14.11,5.88,5.88,0,0,1-2.23-.44,6,6,0,0,1-1-.54,5.61,5.61,0,0,1-.89-.72,6,6,0,0,1-.72-.88,6.53,6.53,0,0,1-.54-1,5.9,5.9,0,0,1-.33-3.37,5.26,5.26,0,0,1,.33-1.09,6.53,6.53,0,0,1,.54-1,6,6,0,0,1,.72-.88,5.61,5.61,0,0,1,.89-.72,4.83,4.83,0,0,1,1-.54,6.16,6.16,0,0,1,2.23-.45Z"/><polygon class="cls-9" points="322.82 175.31 322.82 176.15 320.77 176.15 320.77 177.21 322.56 177.21 322.56 177.99 320.77 177.99 320.77 179.87 319.87 179.87 319.87 175.31 322.82 175.31"/><polygon class="cls-9" points="323.03 175.31 324.11 175.31 324.95 176.77 325.84 175.31 326.86 175.31 325.44 177.49 326.91 179.87 325.81 179.87 324.91 178.3 323.97 179.87 322.92 179.87 324.4 177.48 323.03 175.31"/><line class="cls-10" x1="143.22" y1="61.96" x2="118.09" y2="36.57"/><line class="cls-10" x1="190.35" y1="210.93" x2="246.04" y2="166.9"/><line class="cls-10" x1="299.96" y1="117.84" x2="290.86" y2="58.38"/><polyline class="cls-11" points="52.63 80.4 46.09 80.4 46.09 210.93 52.63 210.93"/><path class="cls-12" d="M80.18,31.1a2.37,2.37,0,0,1-.75,1.57,2.44,2.44,0,0,1-1.67.55,2.25,2.25,0,0,1-1.82-.81,3.25,3.25,0,0,1-.68-2.18v-.61a3.67,3.67,0,0,1,.31-1.57,2.44,2.44,0,0,1,.91-1,2.52,2.52,0,0,1,1.35-.36,2.3,2.3,0,0,1,1.63.57,2.37,2.37,0,0,1,.72,1.57h-.85a1.85,1.85,0,0,0-.47-1.11,1.46,1.46,0,0,0-1-.34,1.53,1.53,0,0,0-1.27.59,2.81,2.81,0,0,0-.46,1.71v.62a2.81,2.81,0,0,0,.44,1.65,1.38,1.38,0,0,0,1.22.62,1.63,1.63,0,0,0,1.07-.32,1.75,1.75,0,0,0,.5-1.11Z"/><path class="cls-12" d="M83.18,33.22a2.1,2.1,0,0,1-1.58-.63,2.38,2.38,0,0,1-.6-1.7v-.15a2.89,2.89,0,0,1,.27-1.27A2.13,2.13,0,0,1,82,28.6a1.93,1.93,0,0,1,1.06-.31,1.78,1.78,0,0,1,1.44.61A2.67,2.67,0,0,1,85,30.65V31H81.81a1.66,1.66,0,0,0,.41,1.13,1.3,1.3,0,0,0,1,.44,1.39,1.39,0,0,0,.73-.18,1.89,1.89,0,0,0,.52-.46l.5.38A2,2,0,0,1,83.18,33.22ZM83.08,29a1.08,1.08,0,0,0-.83.36,1.7,1.7,0,0,0-.41,1h2.38v-.06a1.6,1.6,0,0,0-.33-1A1,1,0,0,0,83.08,29Zm.39-2.58h1l-1.18,1.29h-.66Z"/><path class="cls-12" d="M86.86,33.13H86V26.38h.82Z"/><path class="cls-12" d="M91.09,32.66a1.72,1.72,0,0,1-1.39.56,1.5,1.5,0,0,1-1.16-.44,1.93,1.93,0,0,1-.4-1.31V28.38H89v3.07c0,.72.3,1.08.88,1.08a1.22,1.22,0,0,0,1.24-.69V28.38h.81v4.75h-.77Z"/><path class="cls-12" d="M94,33.13h-.81V26.38H94Z"/><path class="cls-12" d="M98.24,33.13a1.56,1.56,0,0,1-.12-.5,1.81,1.81,0,0,1-1.35.59,1.65,1.65,0,0,1-1.15-.4,1.28,1.28,0,0,1-.45-1,1.33,1.33,0,0,1,.56-1.15,2.71,2.71,0,0,1,1.59-.41h.79v-.37a.91.91,0,0,0-.26-.68,1,1,0,0,0-.75-.26,1.24,1.24,0,0,0-.73.22.68.68,0,0,0-.29.54h-.82a1.17,1.17,0,0,1,.25-.69,1.77,1.77,0,0,1,.69-.53,2.3,2.3,0,0,1,1-.19,1.9,1.9,0,0,1,1.29.41,1.47,1.47,0,0,1,.48,1.13V32a2.68,2.68,0,0,0,.17,1v.07Zm-1.35-.62a1.41,1.41,0,0,0,.72-.19,1.24,1.24,0,0,0,.5-.52v-1h-.64c-1,0-1.49.29-1.49.87a.76.76,0,0,0,.25.6A1,1,0,0,0,96.89,32.51Z"/><path class="cls-12" d="M105.19,31.87a.6.6,0,0,0-.24-.51,2.36,2.36,0,0,0-.87-.31,4.32,4.32,0,0,1-1-.32,1.43,1.43,0,0,1-.54-.44,1.09,1.09,0,0,1-.17-.61,1.24,1.24,0,0,1,.5-1,1.92,1.92,0,0,1,1.26-.4,2,2,0,0,1,1.31.42,1.31,1.31,0,0,1,.5,1.07h-.81a.73.73,0,0,0-.29-.58,1.05,1.05,0,0,0-.71-.24,1.12,1.12,0,0,0-.7.19.63.63,0,0,0-.25.51.49.49,0,0,0,.24.44,2.69,2.69,0,0,0,.84.29,4.69,4.69,0,0,1,1,.32,1.5,1.5,0,0,1,.57.46,1.1,1.1,0,0,1,.18.64,1.23,1.23,0,0,1-.51,1,2.17,2.17,0,0,1-1.32.38,2.51,2.51,0,0,1-1-.2,1.59,1.59,0,0,1-.68-.57,1.32,1.32,0,0,1-.25-.78H103a.88.88,0,0,0,.33.65,1.26,1.26,0,0,0,.81.24,1.37,1.37,0,0,0,.74-.19A.57.57,0,0,0,105.19,31.87Z"/><path class="cls-12" d="M110,33.13a2,2,0,0,1-.11-.5,1.83,1.83,0,0,1-1.36.59,1.66,1.66,0,0,1-1.15-.4,1.28,1.28,0,0,1-.45-1,1.34,1.34,0,0,1,.57-1.15,2.65,2.65,0,0,1,1.58-.41h.8v-.37a.91.91,0,0,0-.26-.68,1,1,0,0,0-.75-.26,1.24,1.24,0,0,0-.73.22.66.66,0,0,0-.3.54H107a1.11,1.11,0,0,1,.25-.69,1.77,1.77,0,0,1,.69-.53,2.24,2.24,0,0,1,1-.19,1.89,1.89,0,0,1,1.28.41,1.47,1.47,0,0,1,.49,1.13V32a2.7,2.7,0,0,0,.16,1v.07Zm-1.35-.62a1.45,1.45,0,0,0,.73-.19,1.31,1.31,0,0,0,.5-.52v-1h-.64q-1.5,0-1.5.87a.76.76,0,0,0,.26.6A1,1,0,0,0,108.65,32.51Z"/><path class="cls-12" d="M112.73,28.38l0,.6a1.71,1.71,0,0,1,1.42-.69c1,0,1.51.57,1.52,1.7v3.14h-.81V30a1,1,0,0,0-.24-.76.91.91,0,0,0-.72-.25,1.17,1.17,0,0,0-.69.21,1.57,1.57,0,0,0-.47.55v3.39H112V28.38Z"/><path class="cls-12" d="M116.73,30.72a2.78,2.78,0,0,1,.52-1.77,1.64,1.64,0,0,1,1.36-.66,1.62,1.62,0,0,1,1.36.62l0-.53h.74V33a1.91,1.91,0,0,1-.55,1.45,2,2,0,0,1-1.47.53,2.38,2.38,0,0,1-1-.22,1.62,1.62,0,0,1-.75-.6l.42-.48a1.58,1.58,0,0,0,1.28.64,1.25,1.25,0,0,0,.92-.33,1.3,1.3,0,0,0,.33-.94v-.41a1.68,1.68,0,0,1-1.33.56,1.62,1.62,0,0,1-1.35-.67A3,3,0,0,1,116.73,30.72Zm.82.09a2.12,2.12,0,0,0,.33,1.26,1.06,1.06,0,0,0,.92.46,1.18,1.18,0,0,0,1.13-.7V29.66a1.21,1.21,0,0,0-1.12-.68,1.06,1.06,0,0,0-.92.46A2.27,2.27,0,0,0,117.55,30.81Z"/><path class="cls-12" d="M124.91,32.66a1.72,1.72,0,0,1-1.39.56,1.5,1.5,0,0,1-1.16-.44,1.93,1.93,0,0,1-.4-1.31V28.38h.81v3.07c0,.72.3,1.08.88,1.08a1.22,1.22,0,0,0,1.24-.69V28.38h.81v4.75h-.77Z"/><path class="cls-12" d="M126.94,27.12a.49.49,0,0,1,.12-.34.56.56,0,0,1,.72,0,.49.49,0,0,1,.13.34.51.51,0,0,1-.85.33A.48.48,0,0,1,126.94,27.12Zm.88,6H127V28.38h.81Z"/><path class="cls-12" d="M129.89,28.38l0,.6a1.73,1.73,0,0,1,1.42-.69c1,0,1.51.57,1.52,1.7v3.14h-.81V30a1,1,0,0,0-.24-.76.91.91,0,0,0-.72-.25,1.17,1.17,0,0,0-.69.21,1.57,1.57,0,0,0-.47.55v3.39h-.81V28.38Z"/><path class="cls-12" d="M136.06,33.22a2.08,2.08,0,0,1-1.57-.63,2.39,2.39,0,0,1-.61-1.7v-.15a2.89,2.89,0,0,1,.27-1.27,2.15,2.15,0,0,1,.76-.87,1.87,1.87,0,0,1,1.05-.31,1.76,1.76,0,0,1,1.44.61,2.61,2.61,0,0,1,.52,1.75V31H134.7a1.61,1.61,0,0,0,.41,1.13,1.28,1.28,0,0,0,1,.44,1.41,1.41,0,0,0,.73-.18,2,2,0,0,0,.52-.46l.49.38A2,2,0,0,1,136.06,33.22ZM136,29a1.06,1.06,0,0,0-.82.36,1.65,1.65,0,0,0-.42,1h2.38v-.06a1.53,1.53,0,0,0-.33-1A1,1,0,0,0,136,29Z"/><path class="cls-12" d="M141.79,33.13a2,2,0,0,1-.11-.5,1.83,1.83,0,0,1-1.36.59,1.66,1.66,0,0,1-1.15-.4,1.28,1.28,0,0,1-.45-1,1.34,1.34,0,0,1,.57-1.15,2.65,2.65,0,0,1,1.58-.41h.8v-.37a.91.91,0,0,0-.26-.68,1,1,0,0,0-.75-.26,1.24,1.24,0,0,0-.73.22.66.66,0,0,0-.3.54h-.81a1.11,1.11,0,0,1,.25-.69,1.77,1.77,0,0,1,.69-.53,2.24,2.24,0,0,1,1-.19,1.89,1.89,0,0,1,1.28.41,1.47,1.47,0,0,1,.49,1.13V32a2.7,2.7,0,0,0,.16,1v.07Zm-1.35-.62a1.45,1.45,0,0,0,.73-.19,1.31,1.31,0,0,0,.5-.52v-1H141q-1.5,0-1.5.87a.76.76,0,0,0,.26.6A1,1,0,0,0,140.44,32.51Z"/><path class="cls-12" d="M167.85,216.55v2.5H167v-6.39h2.36a2.37,2.37,0,0,1,1.65.53,2,2,0,0,1,0,2.86,2.5,2.5,0,0,1-1.67.5Zm0-.69h1.51a1.54,1.54,0,0,0,1-.32,1.16,1.16,0,0,0,.36-.92,1.22,1.22,0,0,0-.36-.92,1.42,1.42,0,0,0-1-.36h-1.56Z"/><path class="cls-12" d="M173.44,219.05h-.82V212.3h.82Z"/><path class="cls-12" d="M177.67,219.05a2,2,0,0,1-.11-.5,1.79,1.79,0,0,1-1.35.59,1.67,1.67,0,0,1-1.16-.4,1.27,1.27,0,0,1-.45-1,1.35,1.35,0,0,1,.57-1.16,2.67,2.67,0,0,1,1.59-.41h.79v-.37a.91.91,0,0,0-.26-.68,1,1,0,0,0-.75-.25,1.17,1.17,0,0,0-.73.22.62.62,0,0,0-.29.53h-.82a1.11,1.11,0,0,1,.25-.69,1.77,1.77,0,0,1,.69-.53,2.44,2.44,0,0,1,1-.19,1.9,1.9,0,0,1,1.29.41,1.48,1.48,0,0,1,.48,1.13v2.19a2.65,2.65,0,0,0,.17,1v.07Zm-1.35-.62a1.45,1.45,0,0,0,.73-.19,1.31,1.31,0,0,0,.5-.52v-1h-.64c-1,0-1.49.29-1.49.87a.74.74,0,0,0,.25.6A1,1,0,0,0,176.32,218.43Z"/><path class="cls-12" d="M179.44,216.64a2.83,2.83,0,0,1,.51-1.78,1.67,1.67,0,0,1,1.38-.65,1.65,1.65,0,0,1,1.33.57l0-.48h.74v6.58h-.81v-2.27a1.68,1.68,0,0,1-1.31.53,1.63,1.63,0,0,1-1.37-.67,2.87,2.87,0,0,1-.51-1.78Zm.81.09a2.11,2.11,0,0,0,.34,1.28,1.1,1.1,0,0,0,.93.47,1.22,1.22,0,0,0,1.11-.64v-2.33a1.22,1.22,0,0,0-1.1-.63,1.08,1.08,0,0,0-.93.47A2.23,2.23,0,0,0,180.25,216.73Z"/><path class="cls-12" d="M187.68,218.58a1.69,1.69,0,0,1-1.39.56,1.5,1.5,0,0,1-1.16-.44,1.92,1.92,0,0,1-.4-1.31V214.3h.81v3.07c0,.72.3,1.08.88,1.08a1.22,1.22,0,0,0,1.24-.69V214.3h.81v4.75h-.77Z"/><path class="cls-12" d="M191.68,219.14a2.08,2.08,0,0,1-1.57-.63,2.39,2.39,0,0,1-.61-1.7v-.15a2.84,2.84,0,0,1,.27-1.26,2,2,0,0,1,.76-.87,1.88,1.88,0,0,1,1.05-.32,1.76,1.76,0,0,1,1.44.61,2.61,2.61,0,0,1,.52,1.75v.34h-3.22a1.66,1.66,0,0,0,.41,1.13,1.28,1.28,0,0,0,1,.44,1.41,1.41,0,0,0,.73-.18,1.89,1.89,0,0,0,.52-.46l.5.38A2,2,0,0,1,191.68,219.14Zm-.1-4.26a1.06,1.06,0,0,0-.82.36,1.74,1.74,0,0,0-.42,1h2.38v-.06a1.53,1.53,0,0,0-.33-1A1,1,0,0,0,191.58,214.88Z"/><path class="cls-12" d="M195.58,213.15v1.15h.89v.63h-.89v2.95a.67.67,0,0,0,.12.43.51.51,0,0,0,.4.14,2.3,2.3,0,0,0,.39,0v.65a2.27,2.27,0,0,1-.62.09,1,1,0,0,1-.82-.33,1.38,1.38,0,0,1-.28-.93v-2.95h-.87v-.63h.87v-1.15Z"/><path class="cls-12" d="M200.35,219.05a2,2,0,0,1-.11-.5,1.79,1.79,0,0,1-1.35.59,1.67,1.67,0,0,1-1.16-.4,1.27,1.27,0,0,1-.45-1,1.35,1.35,0,0,1,.57-1.16,2.67,2.67,0,0,1,1.59-.41h.79v-.37a.91.91,0,0,0-.26-.68,1,1,0,0,0-.75-.25,1.17,1.17,0,0,0-.73.22.62.62,0,0,0-.29.53h-.82a1.11,1.11,0,0,1,.25-.69,1.77,1.77,0,0,1,.69-.53,2.44,2.44,0,0,1,1-.19,1.9,1.9,0,0,1,1.29.41,1.48,1.48,0,0,1,.48,1.13v2.19a2.48,2.48,0,0,0,.17,1v.07Zm-1.35-.62a1.45,1.45,0,0,0,.73-.19,1.31,1.31,0,0,0,.5-.52v-1h-.64q-1.5,0-1.5.87a.75.75,0,0,0,.26.6A1,1,0,0,0,199,218.43Z"/><path class="cls-12" d="M35.59,173.85,30.31,172v-.92l6.4,2.37v.75l-6.4,2.37v-.92Z"/><path class="cls-12" d="M36.71,167.64a2,2,0,0,1-.5.11,1.83,1.83,0,0,1,.59,1.36,1.66,1.66,0,0,1-.4,1.15,1.28,1.28,0,0,1-1,.45,1.34,1.34,0,0,1-1.15-.57,2.65,2.65,0,0,1-.41-1.58v-.8h-.37a.91.91,0,0,0-.68.26,1,1,0,0,0-.26.75,1.24,1.24,0,0,0,.22.73.66.66,0,0,0,.54.3v.81a1.11,1.11,0,0,1-.69-.25,1.77,1.77,0,0,1-.53-.69,2.24,2.24,0,0,1-.19-.95,1.89,1.89,0,0,1,.41-1.28,1.44,1.44,0,0,1,1.13-.49H35.6a2.51,2.51,0,0,0,1-.17h.07ZM36.09,169a1.36,1.36,0,0,0-.2-.73,1.23,1.23,0,0,0-.51-.5h-1v.64q0,1.5.87,1.5a.76.76,0,0,0,.6-.26A1,1,0,0,0,36.09,169Z"/><path class="cls-12" d="M35.45,162.91a.58.58,0,0,0-.51.25,2.23,2.23,0,0,0-.31.86,4.16,4.16,0,0,1-.32,1,1.35,1.35,0,0,1-.44.54,1,1,0,0,1-.61.17,1.23,1.23,0,0,1-1-.49,1.92,1.92,0,0,1-.4-1.26,2,2,0,0,1,.42-1.32,1.33,1.33,0,0,1,1.06-.5V163a.72.72,0,0,0-.57.28,1.08,1.08,0,0,0-.24.72,1.11,1.11,0,0,0,.19.69.61.61,0,0,0,.51.25.5.5,0,0,0,.44-.23,2.91,2.91,0,0,0,.29-.84,4.61,4.61,0,0,1,.32-1,1.46,1.46,0,0,1,.46-.56,1.1,1.1,0,0,1,.64-.18,1.23,1.23,0,0,1,1,.51,2.17,2.17,0,0,1,.38,1.32,2.46,2.46,0,0,1-.2,1,1.77,1.77,0,0,1-.57.69,1.39,1.39,0,0,1-.78.25v-.82a.84.84,0,0,0,.65-.32,1.3,1.3,0,0,0,.24-.81,1.33,1.33,0,0,0-.19-.74A.56.56,0,0,0,35.45,162.91Z"/><path class="cls-12" d="M34.29,161.25A2.91,2.91,0,0,1,33,161a2,2,0,0,1-1.16-1.88,2,2,0,0,1,.67-1.58,2.6,2.6,0,0,1,1.79-.6h.06a2.76,2.76,0,0,1,1.24.27,2,2,0,0,1,.86.76,2.07,2.07,0,0,1,.31,1.14,2,2,0,0,1-.67,1.56,2.57,2.57,0,0,1-1.78.6Zm.1-.81a2.06,2.06,0,0,0,1.27-.37,1.18,1.18,0,0,0,.48-1,1.19,1.19,0,0,0-.49-1,2.24,2.24,0,0,0-1.36-.36,2,2,0,0,0-1.27.37,1.19,1.19,0,0,0-.48,1,1.17,1.17,0,0,0,.48,1A2.23,2.23,0,0,0,34.39,160.44Z"/><path class="cls-12" d="M35.45,150.91a.58.58,0,0,0-.51.25,2.23,2.23,0,0,0-.31.86,4.32,4.32,0,0,1-.32,1,1.43,1.43,0,0,1-.44.54,1.09,1.09,0,0,1-.61.17,1.23,1.23,0,0,1-1-.49,1.93,1.93,0,0,1-.4-1.27,2,2,0,0,1,.42-1.31,1.33,1.33,0,0,1,1.06-.5V151a.72.72,0,0,0-.57.28,1.07,1.07,0,0,0-.24.71,1.12,1.12,0,0,0,.19.7.61.61,0,0,0,.51.25.5.5,0,0,0,.44-.23,2.89,2.89,0,0,0,.29-.85,4.69,4.69,0,0,1,.32-1,1.46,1.46,0,0,1,.46-.56,1.1,1.1,0,0,1,.64-.19,1.26,1.26,0,0,1,1,.51,2.23,2.23,0,0,1,.38,1.33,2.46,2.46,0,0,1-.2,1,1.77,1.77,0,0,1-.57.69,1.38,1.38,0,0,1-.78.24v-.81a.82.82,0,0,0,.65-.33,1.25,1.25,0,0,0,.24-.8,1.33,1.33,0,0,0-.19-.74A.56.56,0,0,0,35.45,150.91Z"/><path class="cls-12" d="M36.71,146.1a1.37,1.37,0,0,1-.5.11,1.83,1.83,0,0,1,.59,1.36,1.65,1.65,0,0,1-.4,1.15,1.28,1.28,0,0,1-1,.45,1.35,1.35,0,0,1-1.15-.56,2.71,2.71,0,0,1-.41-1.59v-.79h-.37a.91.91,0,0,0-.68.25,1,1,0,0,0-.26.75,1.22,1.22,0,0,0,.22.73.66.66,0,0,0,.54.3v.81a1.11,1.11,0,0,1-.69-.25,1.74,1.74,0,0,1-.53-.68,2.3,2.3,0,0,1-.19-.95,1.9,1.9,0,0,1,.41-1.29,1.51,1.51,0,0,1,1.13-.49H35.6a2.7,2.7,0,0,0,1-.16h.07Zm-.62,1.35a1.36,1.36,0,0,0-.2-.73,1.2,1.2,0,0,0-.51-.49h-1v.63q0,1.5.87,1.5a.76.76,0,0,0,.6-.26A1,1,0,0,0,36.09,147.45Z"/><path class="cls-12" d="M32,143.37l.59,0a1.76,1.76,0,0,1-.68-1.43c0-1,.57-1.51,1.7-1.52h3.14v.81H33.57a1.08,1.08,0,0,0-.76.24.91.91,0,0,0-.25.72,1.17,1.17,0,0,0,.21.69,1.47,1.47,0,0,0,.55.47h3.39v.81H32Z"/><path class="cls-12" d="M34.3,139.37a2.74,2.74,0,0,1-1.77-.52,1.77,1.77,0,0,1-.05-2.72l-.52,0v-.74H36.6a1.91,1.91,0,0,1,1.45.55,2,2,0,0,1,.53,1.47,2.35,2.35,0,0,1-.22,1,1.7,1.7,0,0,1-.6.76l-.49-.43a1.55,1.55,0,0,0,.65-1.27,1.26,1.26,0,0,0-.33-.93,1.3,1.3,0,0,0-.94-.33h-.41a1.68,1.68,0,0,1,.56,1.33,1.61,1.61,0,0,1-.67,1.35A2.91,2.91,0,0,1,34.3,139.37Zm.09-.82a2.14,2.14,0,0,0,1.26-.33,1.06,1.06,0,0,0,.46-.92,1.19,1.19,0,0,0-.7-1.13H33.24a1.21,1.21,0,0,0-.68,1.12,1.09,1.09,0,0,0,.46.93A2.35,2.35,0,0,0,34.39,138.55Z"/><path class="cls-12" d="M36.24,131.19a1.74,1.74,0,0,1,.56,1.39,1.49,1.49,0,0,1-.44,1.16,1.88,1.88,0,0,1-1.31.4H32v-.81H35c.72,0,1.08-.29,1.08-.88a1.22,1.22,0,0,0-.69-1.24H32v-.81h4.75v.77Z"/><path class="cls-12" d="M30.7,129.16a.49.49,0,0,1-.34-.12.56.56,0,0,1,0-.72.49.49,0,0,1,.34-.12.48.48,0,0,1,.33.12.56.56,0,0,1,0,.72A.48.48,0,0,1,30.7,129.16Zm6-.88v.81H32v-.81Z"/><path class="cls-12" d="M32,126.21l.59,0a1.73,1.73,0,0,1-.68-1.42c0-1,.57-1.51,1.7-1.52h3.14v.81H33.57a1.08,1.08,0,0,0-.76.24.91.91,0,0,0-.25.72,1.17,1.17,0,0,0,.21.69,1.47,1.47,0,0,0,.55.47h3.39V127H32Z"/><path class="cls-12" d="M36.8,120a2.06,2.06,0,0,1-.63,1.57,2.35,2.35,0,0,1-1.7.61h-.15a2.92,2.92,0,0,1-1.27-.27,2.13,2.13,0,0,1-.87-.75,1.93,1.93,0,0,1-.31-1.06,1.76,1.76,0,0,1,.61-1.44,2.67,2.67,0,0,1,1.75-.51h.34v3.22A1.66,1.66,0,0,0,35.7,121a1.3,1.3,0,0,0,.44-1,1.39,1.39,0,0,0-.18-.73,1.93,1.93,0,0,0-.46-.53l.38-.49A2,2,0,0,1,36.8,120Zm-4.26.1a1.08,1.08,0,0,0,.36.83,1.73,1.73,0,0,0,1,.41V119h-.06a1.53,1.53,0,0,0-1,.33A1,1,0,0,0,32.54,120.14Z"/><path class="cls-12" d="M34.29,117.46a2.91,2.91,0,0,1-1.26-.27,2.14,2.14,0,0,1-.86-.77,2.09,2.09,0,0,1-.3-1.12,2,2,0,0,1,.67-1.57,2.6,2.6,0,0,1,1.79-.6h.06a2.76,2.76,0,0,1,1.24.27,2,2,0,0,1,.86.76,2.06,2.06,0,0,1,.31,1.13,2,2,0,0,1-.67,1.57,2.57,2.57,0,0,1-1.78.6Zm.1-.82a2.06,2.06,0,0,0,1.27-.36,1.19,1.19,0,0,0,.48-1,1.17,1.17,0,0,0-.49-1,2.24,2.24,0,0,0-1.36-.36,2,2,0,0,0-1.27.37,1.16,1.16,0,0,0-.48,1,1.19,1.19,0,0,0,.48,1A2.24,2.24,0,0,0,34.39,116.64Z"/><path class="cls-12" d="M243.32,42.76h-.84l-3.22-4.93v4.93h-.85v-6.4h.85l3.22,5v-5h.84Z"/><path class="cls-12" d="M244.48,40.34a2.7,2.7,0,0,1,.28-1.25,2,2,0,0,1,.76-.87,2.11,2.11,0,0,1,1.12-.3,2,2,0,0,1,1.57.67,2.6,2.6,0,0,1,.6,1.79v.06a2.76,2.76,0,0,1-.27,1.24,1.93,1.93,0,0,1-.76.86,2.06,2.06,0,0,1-1.13.31,2,2,0,0,1-1.57-.67,2.57,2.57,0,0,1-.6-1.78Zm.82.1a2.06,2.06,0,0,0,.36,1.27,1.19,1.19,0,0,0,1,.48,1.15,1.15,0,0,0,1-.49,2.22,2.22,0,0,0,.37-1.36,2,2,0,0,0-.38-1.27,1.23,1.23,0,0,0-2,0A2.17,2.17,0,0,0,245.3,40.44Z"/><path class="cls-12" d="M252.87,38.58a1.73,1.73,0,0,1,1.41-.66c1,0,1.51.57,1.52,1.7v3.14H255V39.62a1.08,1.08,0,0,0-.23-.76.93.93,0,0,0-.72-.25,1.15,1.15,0,0,0-.69.21,1.43,1.43,0,0,0-.47.56v3.38h-.81V36h.81Z"/><path class="cls-12" d="M260,42.76a1.37,1.37,0,0,1-.11-.5,1.8,1.8,0,0,1-1.36.59,1.65,1.65,0,0,1-1.15-.4,1.27,1.27,0,0,1-.45-1,1.37,1.37,0,0,1,.56-1.16,2.71,2.71,0,0,1,1.59-.41h.79v-.37a.91.91,0,0,0-.25-.68,1,1,0,0,0-.75-.25,1.15,1.15,0,0,0-.73.22.63.63,0,0,0-.3.53H257a1.12,1.12,0,0,1,.26-.69,1.74,1.74,0,0,1,.68-.53,2.48,2.48,0,0,1,.95-.19,1.9,1.9,0,0,1,1.29.41,1.53,1.53,0,0,1,.49,1.13v2.19a2.67,2.67,0,0,0,.16,1v.07Zm-1.35-.62a1.45,1.45,0,0,0,.73-.19,1.28,1.28,0,0,0,.49-.52v-1h-.64c-1,0-1.49.29-1.49.87a.75.75,0,0,0,.26.6A1,1,0,0,0,258.6,42.14Z"/><path class="cls-12" d="M263.4,41.57,264.51,38h.87l-1.92,5.49c-.29.79-.76,1.18-1.41,1.18h-.15l-.3-.06V44l.22,0a1,1,0,0,0,.64-.17,1.21,1.21,0,0,0,.38-.61l.18-.48-1.7-4.7h.89Z"/><path class="cls-12" d="M271.1,41.5a.61.61,0,0,0-.25-.51,2.29,2.29,0,0,0-.87-.31,4.5,4.5,0,0,1-1-.32,1.32,1.32,0,0,1-.53-.44,1,1,0,0,1-.18-.61,1.24,1.24,0,0,1,.5-1,2.22,2.22,0,0,1,2.57,0,1.32,1.32,0,0,1,.51,1.07h-.82a.72.72,0,0,0-.28-.58,1.27,1.27,0,0,0-1.41,0,.61.61,0,0,0-.25.51.48.48,0,0,0,.23.44,2.91,2.91,0,0,0,.84.29,4.61,4.61,0,0,1,1,.32,1.46,1.46,0,0,1,.56.46,1.11,1.11,0,0,1,.18.65,1.22,1.22,0,0,1-.51,1,2.17,2.17,0,0,1-1.32.38,2.46,2.46,0,0,1-1-.2,1.62,1.62,0,0,1-.69-.57,1.32,1.32,0,0,1-.25-.78h.81a.88.88,0,0,0,.33.65,1.51,1.51,0,0,0,1.55,0A.56.56,0,0,0,271.1,41.5Z"/><path class="cls-12" d="M275.91,42.29a1.73,1.73,0,0,1-1.4.56,1.51,1.51,0,0,1-1.16-.44,2,2,0,0,1-.4-1.31V38h.81v3.07c0,.72.3,1.08.88,1.08a1.22,1.22,0,0,0,1.24-.69V38h.82v4.75h-.78Z"/><path class="cls-12" d="M278.33,42.76V38.64h-.75V38h.75v-.49a1.63,1.63,0,0,1,.41-1.18,1.54,1.54,0,0,1,1.16-.42,2.09,2.09,0,0,1,.55.08l0,.65a2.06,2.06,0,0,0-.44,0,.81.81,0,0,0-.61.23,1,1,0,0,0-.22.67V38h1v.63h-1v4.12Z"/><path class="cls-12" d="M281.06,36.75a.5.5,0,0,1,.12-.34.56.56,0,0,1,.72,0,.5.5,0,0,1,.12.34.48.48,0,0,1-.12.33.56.56,0,0,1-.72,0A.48.48,0,0,1,281.06,36.75Zm.88,6h-.81V38h.81Z"/><path class="cls-12" d="M285.15,42.19a1.16,1.16,0,0,0,.76-.27,1,1,0,0,0,.36-.66H287a1.51,1.51,0,0,1-.28.78,1.83,1.83,0,0,1-.7.59,1.91,1.91,0,0,1-.91.22,2,2,0,0,1-1.55-.65,2.58,2.58,0,0,1-.57-1.77v-.14a2.85,2.85,0,0,1,.25-1.23,2,2,0,0,1,.74-.84,2,2,0,0,1,1.12-.3,1.89,1.89,0,0,1,1.33.48,1.71,1.71,0,0,1,.57,1.24h-.77a1.13,1.13,0,0,0-.35-.75,1.09,1.09,0,0,0-.78-.3,1.16,1.16,0,0,0-1,.44,2.15,2.15,0,0,0-.34,1.29v.16a2.06,2.06,0,0,0,.34,1.26A1.15,1.15,0,0,0,285.15,42.19Z"/><path class="cls-12" d="M288,36.75a.5.5,0,0,1,.12-.34.45.45,0,0,1,.35-.13.49.49,0,0,1,.37.13.5.5,0,0,1,.12.34.48.48,0,0,1-.12.33.54.54,0,0,1-.37.13.43.43,0,0,1-.47-.46Zm.87,6H288V38h.81Z"/><path class="cls-12" d="M292,42.19a1.14,1.14,0,0,0,.76-.27.88.88,0,0,0,.36-.66h.77a1.43,1.43,0,0,1-.28.78,1.73,1.73,0,0,1-.69.59,2,2,0,0,1-.92.22,1.92,1.92,0,0,1-1.54-.65,2.58,2.58,0,0,1-.58-1.77v-.14a2.85,2.85,0,0,1,.26-1.23,1.93,1.93,0,0,1,.73-.84,2.07,2.07,0,0,1,1.13-.3,1.92,1.92,0,0,1,1.33.48,1.7,1.7,0,0,1,.56,1.24h-.77a1.08,1.08,0,0,0-.35-.75,1.06,1.06,0,0,0-.77-.3,1.15,1.15,0,0,0-1,.44,2.09,2.09,0,0,0-.34,1.29v.16a2,2,0,0,0,.34,1.26A1.12,1.12,0,0,0,292,42.19Z"/><path class="cls-12" d="M294.85,36.75a.5.5,0,0,1,.12-.34.56.56,0,0,1,.72,0,.5.5,0,0,1,.12.34.48.48,0,0,1-.12.33.56.56,0,0,1-.72,0A.48.48,0,0,1,294.85,36.75Zm.88,6h-.81V38h.81Z"/><path class="cls-12" d="M299,42.85a2.08,2.08,0,0,1-1.57-.63,2.39,2.39,0,0,1-.61-1.7v-.15a2.84,2.84,0,0,1,.27-1.26,2,2,0,0,1,.76-.87,1.88,1.88,0,0,1,1-.32,1.76,1.76,0,0,1,1.44.61,2.61,2.61,0,0,1,.52,1.75v.34h-3.22a1.61,1.61,0,0,0,.41,1.13,1.28,1.28,0,0,0,1,.44,1.41,1.41,0,0,0,.73-.18,2,2,0,0,0,.52-.46l.5.38A2,2,0,0,1,299,42.85Zm-.1-4.26a1.06,1.06,0,0,0-.82.36,1.74,1.74,0,0,0-.42,1H300v-.06a1.53,1.53,0,0,0-.33-1A1,1,0,0,0,298.9,38.59Z"/><path class="cls-12" d="M302.57,38l0,.6a1.74,1.74,0,0,1,1.43-.69c1,0,1.51.57,1.52,1.7v3.14h-.82V39.62a1.08,1.08,0,0,0-.23-.76.91.91,0,0,0-.72-.25,1.17,1.17,0,0,0-.69.21,1.43,1.43,0,0,0-.47.56v3.38h-.81V38Z"/><path class="cls-12" d="M307.87,36.86V38h.88v.63h-.88v3A.67.67,0,0,0,308,42a.49.49,0,0,0,.4.14,2.57,2.57,0,0,0,.39,0v.65a2.39,2.39,0,0,1-.63.09,1,1,0,0,1-.82-.33,1.43,1.43,0,0,1-.28-.93v-3h-.86V38h.86V36.86Z"/><path class="cls-12" d="M311.68,42.85a2.1,2.1,0,0,1-1.58-.63,2.38,2.38,0,0,1-.6-1.7v-.15a2.84,2.84,0,0,1,.27-1.26,2,2,0,0,1,.75-.87,1.94,1.94,0,0,1,1.06-.32,1.79,1.79,0,0,1,1.44.61,2.67,2.67,0,0,1,.51,1.75v.34h-3.22a1.66,1.66,0,0,0,.41,1.13,1.3,1.3,0,0,0,1,.44,1.39,1.39,0,0,0,.73-.18,1.89,1.89,0,0,0,.52-.46l.5.38A2,2,0,0,1,311.68,42.85Zm-.1-4.26a1.08,1.08,0,0,0-.83.36,1.73,1.73,0,0,0-.41,1h2.38v-.06a1.6,1.6,0,0,0-.34-1A1,1,0,0,0,311.58,38.59Z"/><path class="cls-12" d="M317.1,42.76V38.64h-.75V38h.75v-.49a1.63,1.63,0,0,1,.41-1.18,1.53,1.53,0,0,1,1.15-.42,2.1,2.1,0,0,1,.56.08l0,.65a2.12,2.12,0,0,0-.44,0,.79.79,0,0,0-.61.23.93.93,0,0,0-.22.67V38h1v.63h-1v4.12Z"/><path class="cls-12" d="M322.76,42.76a1.63,1.63,0,0,1-.11-.5,1.8,1.8,0,0,1-1.36.59,1.65,1.65,0,0,1-1.15-.4,1.27,1.27,0,0,1-.45-1,1.37,1.37,0,0,1,.56-1.16,2.71,2.71,0,0,1,1.59-.41h.79v-.37a.91.91,0,0,0-.25-.68,1,1,0,0,0-.75-.25,1.15,1.15,0,0,0-.73.22.63.63,0,0,0-.3.53h-.81a1.11,1.11,0,0,1,.25-.69,1.74,1.74,0,0,1,.68-.53,2.48,2.48,0,0,1,.95-.19,1.9,1.9,0,0,1,1.29.41,1.53,1.53,0,0,1,.49,1.13v2.19a2.67,2.67,0,0,0,.16,1v.07Zm-1.35-.62a1.45,1.45,0,0,0,.73-.19,1.28,1.28,0,0,0,.49-.52v-1H322q-1.5,0-1.5.87a.75.75,0,0,0,.26.6A1,1,0,0,0,321.41,42.14Z"/><path class="cls-12" d="M326.63,42.19a1.16,1.16,0,0,0,.76-.27,1,1,0,0,0,.36-.66h.77a1.51,1.51,0,0,1-.28.78,1.83,1.83,0,0,1-.7.59,1.91,1.91,0,0,1-.91.22,2,2,0,0,1-1.55-.65,2.58,2.58,0,0,1-.57-1.77v-.14a2.85,2.85,0,0,1,.25-1.23,2,2,0,0,1,.74-.84,2,2,0,0,1,1.12-.3,1.89,1.89,0,0,1,1.33.48,1.75,1.75,0,0,1,.57,1.24h-.77a1.13,1.13,0,0,0-.35-.75,1.09,1.09,0,0,0-.78-.3,1.16,1.16,0,0,0-1,.44,2.15,2.15,0,0,0-.34,1.29v.16a2,2,0,0,0,.34,1.26A1.15,1.15,0,0,0,326.63,42.19Z"/><path class="cls-12" d="M330.53,36.86V38h.89v.63h-.89v3a.67.67,0,0,0,.12.43.53.53,0,0,0,.41.14,2.33,2.33,0,0,0,.38,0v.65a2.27,2.27,0,0,1-.62.09,1,1,0,0,1-.82-.33,1.38,1.38,0,0,1-.28-.93v-3h-.87V38h.87V36.86Z"/><path class="cls-12" d="M332.07,40.34a2.83,2.83,0,0,1,.27-1.25,2.11,2.11,0,0,1,.77-.87,2.09,2.09,0,0,1,1.12-.3,2,2,0,0,1,1.57.67,2.6,2.6,0,0,1,.6,1.79v.06a2.76,2.76,0,0,1-.27,1.24,2,2,0,0,1-.76.86,2.07,2.07,0,0,1-1.14.31,2,2,0,0,1-1.56-.67,2.57,2.57,0,0,1-.6-1.78Zm.82.1a2.06,2.06,0,0,0,.36,1.27,1.18,1.18,0,0,0,1,.48,1.15,1.15,0,0,0,1-.49,2.22,2.22,0,0,0,.36-1.36,2,2,0,0,0-.37-1.27,1.16,1.16,0,0,0-1-.48,1.18,1.18,0,0,0-1,.48A2.24,2.24,0,0,0,332.89,40.44Z"/><path class="cls-12" d="M339.72,38.74a2.63,2.63,0,0,0-.41,0,1.06,1.06,0,0,0-1.08.68v3.37h-.81V38h.79v.55a1.26,1.26,0,0,1,1.13-.64.92.92,0,0,1,.37.06Z"/><path class="cls-12" d="M344.9,38.82l1.54-2.46h1l-2,3.18,2.07,3.22h-1l-1.58-2.49-1.58,2.49h-1l2.08-3.22-2-3.18h1Z"/><path class="cls-12" d="M247.72,51.24a2.8,2.8,0,0,1-.5,1.75,1.58,1.58,0,0,1-1.34.66,1.72,1.72,0,0,1-1.36-.55v2.29h-.81V48.81h.74l0,.53a1.68,1.68,0,0,1,1.38-.62,1.61,1.61,0,0,1,1.35.65,2.82,2.82,0,0,1,.5,1.79Zm-.81-.09a2.08,2.08,0,0,0-.34-1.27,1.12,1.12,0,0,0-.94-.47,1.18,1.18,0,0,0-1.11.66v2.27a1.2,1.2,0,0,0,1.12.65,1.1,1.1,0,0,0,.92-.47A2.25,2.25,0,0,0,246.91,51.15Z"/><path class="cls-12" d="M251.69,53.56a1.37,1.37,0,0,1-.11-.5,1.83,1.83,0,0,1-1.36.59,1.65,1.65,0,0,1-1.15-.4,1.28,1.28,0,0,1-.45-1,1.36,1.36,0,0,1,.56-1.15,2.71,2.71,0,0,1,1.59-.41h.79v-.37a.91.91,0,0,0-.25-.68,1,1,0,0,0-.75-.25,1.21,1.21,0,0,0-.73.21.66.66,0,0,0-.3.54h-.81a1.11,1.11,0,0,1,.25-.69,1.74,1.74,0,0,1,.68-.53,2.3,2.3,0,0,1,.95-.19,1.9,1.9,0,0,1,1.29.41,1.53,1.53,0,0,1,.49,1.13v2.19a2.67,2.67,0,0,0,.16,1v.07Zm-1.35-.62a1.45,1.45,0,0,0,.73-.19,1.28,1.28,0,0,0,.49-.52v-1h-.63q-1.5,0-1.5.87a.75.75,0,0,0,.26.6A1,1,0,0,0,250.34,52.94Z"/><path class="cls-12" d="M256,49.54a2.5,2.5,0,0,0-.4,0,1.07,1.07,0,0,0-1.09.68v3.37h-.81V48.81h.79l0,.55a1.24,1.24,0,0,1,1.13-.64.84.84,0,0,1,.36.06Z"/><path class="cls-12" d="M259.46,53.56a1.56,1.56,0,0,1-.12-.5,1.83,1.83,0,0,1-1.35.59,1.67,1.67,0,0,1-1.16-.4,1.28,1.28,0,0,1-.45-1,1.35,1.35,0,0,1,.57-1.15,2.67,2.67,0,0,1,1.59-.41h.79v-.37a.91.91,0,0,0-.26-.68,1,1,0,0,0-.75-.25,1.23,1.23,0,0,0-.73.21.68.68,0,0,0-.29.54h-.82a1.11,1.11,0,0,1,.25-.69,1.77,1.77,0,0,1,.69-.53,2.27,2.27,0,0,1,.95-.19,1.9,1.9,0,0,1,1.29.41,1.48,1.48,0,0,1,.48,1.13v2.19a2.65,2.65,0,0,0,.17,1v.07Zm-1.35-.62a1.44,1.44,0,0,0,.72-.19,1.31,1.31,0,0,0,.5-.52v-1h-.64c-1,0-1.49.29-1.49.87a.74.74,0,0,0,.25.6A1,1,0,0,0,258.11,52.94Z"/><path class="cls-12" d="M263.45,51.15a2.81,2.81,0,0,1,.51-1.76,1.76,1.76,0,0,1,2.68-.1V46.81h.82v6.75h-.75l0-.51a1.65,1.65,0,0,1-1.36.6A1.58,1.58,0,0,1,264,53a2.79,2.79,0,0,1-.52-1.76Zm.81.09a2.1,2.1,0,0,0,.33,1.26,1.06,1.06,0,0,0,.92.46,1.18,1.18,0,0,0,1.13-.69V50.08a1.18,1.18,0,0,0-1.12-.67,1.08,1.08,0,0,0-.93.46A2.35,2.35,0,0,0,264.26,51.24Z"/><path class="cls-12" d="M270.69,53.65a2.08,2.08,0,0,1-1.57-.63,2.39,2.39,0,0,1-.61-1.7v-.15a2.84,2.84,0,0,1,.27-1.26,2.12,2.12,0,0,1,.76-.88,2,2,0,0,1,1-.31,1.76,1.76,0,0,1,1.44.61,2.61,2.61,0,0,1,.52,1.75v.34h-3.22a1.61,1.61,0,0,0,.41,1.13,1.28,1.28,0,0,0,1,.44,1.41,1.41,0,0,0,.73-.18,2,2,0,0,0,.52-.46l.49.38A2,2,0,0,1,270.69,53.65Zm-.1-4.26a1.1,1.1,0,0,0-.83.36,1.73,1.73,0,0,0-.41,1h2.38v-.06a1.53,1.53,0,0,0-.33-1A1,1,0,0,0,270.59,49.39Z"/><path class="cls-12" d="M274.59,47.66v1.15h.89v.63h-.89v3a.67.67,0,0,0,.12.43.51.51,0,0,0,.4.14,2.3,2.3,0,0,0,.39-.05v.65a2.27,2.27,0,0,1-.62.09,1,1,0,0,1-.83-.33,1.43,1.43,0,0,1-.27-.93v-3h-.87v-.63h.87V47.66Z"/><path class="cls-12" d="M278.4,53.65a2.08,2.08,0,0,1-1.57-.63,2.35,2.35,0,0,1-.61-1.7v-.15a2.84,2.84,0,0,1,.27-1.26,2,2,0,0,1,.76-.88,2,2,0,0,1,1.05-.31,1.76,1.76,0,0,1,1.44.61,2.67,2.67,0,0,1,.52,1.75v.34H277a1.71,1.71,0,0,0,.41,1.13,1.31,1.31,0,0,0,1,.44,1.39,1.39,0,0,0,.73-.18,1.93,1.93,0,0,0,.53-.46l.49.38A2,2,0,0,1,278.4,53.65Zm-.1-4.26a1.1,1.1,0,0,0-.83.36,1.73,1.73,0,0,0-.41,1h2.38v-.06a1.53,1.53,0,0,0-.33-1A1,1,0,0,0,278.3,49.39Z"/><path class="cls-12" d="M282,48.81l0,.6a1.73,1.73,0,0,1,1.42-.69c1,0,1.52.57,1.53,1.7v3.14h-.82V50.42a1.08,1.08,0,0,0-.23-.76.94.94,0,0,0-.72-.25,1.18,1.18,0,0,0-.7.21,1.41,1.41,0,0,0-.46.56v3.38h-.81V48.81Z"/><path class="cls-12" d="M288.13,53.65a2.09,2.09,0,0,1-1.57-.63,2.39,2.39,0,0,1-.61-1.7v-.15a2.84,2.84,0,0,1,.27-1.26A2.12,2.12,0,0,1,287,49a2,2,0,0,1,1-.31,1.76,1.76,0,0,1,1.44.61,2.61,2.61,0,0,1,.52,1.75v.34h-3.22a1.66,1.66,0,0,0,.41,1.13,1.28,1.28,0,0,0,1,.44,1.41,1.41,0,0,0,.73-.18,1.89,1.89,0,0,0,.52-.46l.5.38A2,2,0,0,1,288.13,53.65Zm-.1-4.26a1.06,1.06,0,0,0-.82.36,1.74,1.74,0,0,0-.42,1h2.39v-.06a1.6,1.6,0,0,0-.34-1A1,1,0,0,0,288,49.39Z"/><path class="cls-12" d="M293.23,49.54a2.6,2.6,0,0,0-.4,0,1.06,1.06,0,0,0-1.09.68v3.37h-.81V48.81h.79v.55a1.27,1.27,0,0,1,1.14-.64.9.9,0,0,1,.36.06Z"/><path class="cls-12" d="M298.18,53.65A2.1,2.1,0,0,1,296.6,53a2.38,2.38,0,0,1-.6-1.7v-.15a2.84,2.84,0,0,1,.27-1.26A2.09,2.09,0,0,1,297,49a2,2,0,0,1,1.05-.31,1.8,1.8,0,0,1,1.45.61,2.67,2.67,0,0,1,.51,1.75v.34h-3.22a1.66,1.66,0,0,0,.41,1.13,1.3,1.3,0,0,0,1,.44,1.39,1.39,0,0,0,.73-.18,1.89,1.89,0,0,0,.52-.46l.5.38A2,2,0,0,1,298.18,53.65Zm-.11-4.26a1.08,1.08,0,0,0-.82.36,1.73,1.73,0,0,0-.41,1h2.38v-.06a1.6,1.6,0,0,0-.34-1A1,1,0,0,0,298.07,49.39Z"/><path class="cls-12" d="M301.85,53.56H301V46.81h.81Z"/><path class="cls-12" d="M308.15,52.3a.58.58,0,0,0-.25-.51,2.23,2.23,0,0,0-.86-.31,4.32,4.32,0,0,1-1-.32,1.43,1.43,0,0,1-.54-.44,1.09,1.09,0,0,1-.17-.61,1.23,1.23,0,0,1,.49-1,2.23,2.23,0,0,1,2.58,0,1.34,1.34,0,0,1,.5,1.07h-.82a.72.72,0,0,0-.28-.58,1.07,1.07,0,0,0-.71-.24,1.12,1.12,0,0,0-.7.19.61.61,0,0,0-.25.51.5.5,0,0,0,.23.44,2.89,2.89,0,0,0,.85.29,4.69,4.69,0,0,1,1,.32,1.46,1.46,0,0,1,.56.46,1.1,1.1,0,0,1,.19.64,1.26,1.26,0,0,1-.51,1,2.23,2.23,0,0,1-1.33.38,2.46,2.46,0,0,1-1-.2,1.69,1.69,0,0,1-.69-.57,1.38,1.38,0,0,1-.24-.78H306a.82.82,0,0,0,.33.65,1.49,1.49,0,0,0,1.54,0A.56.56,0,0,0,308.15,52.3Z"/><path class="cls-12" d="M313,53.56a1.56,1.56,0,0,1-.12-.5,1.8,1.8,0,0,1-1.35.59,1.65,1.65,0,0,1-1.15-.4,1.28,1.28,0,0,1-.45-1,1.36,1.36,0,0,1,.56-1.15,2.71,2.71,0,0,1,1.59-.41h.79v-.37a.91.91,0,0,0-.25-.68,1,1,0,0,0-.75-.25,1.21,1.21,0,0,0-.73.21.66.66,0,0,0-.3.54H310a1.12,1.12,0,0,1,.26-.69,1.74,1.74,0,0,1,.68-.53,2.3,2.3,0,0,1,.95-.19,1.9,1.9,0,0,1,1.29.41,1.48,1.48,0,0,1,.48,1.13v2.19a2.65,2.65,0,0,0,.17,1v.07Zm-1.35-.62a1.45,1.45,0,0,0,.73-.19,1.28,1.28,0,0,0,.49-.52v-1h-.64c-1,0-1.49.29-1.49.87a.75.75,0,0,0,.26.6A1,1,0,0,0,311.61,52.94Z"/><path class="cls-12" d="M315.69,48.81l0,.6a1.74,1.74,0,0,1,1.43-.69c1,0,1.51.57,1.52,1.7v3.14h-.82V50.42a1.08,1.08,0,0,0-.23-.76.91.91,0,0,0-.72-.25,1.17,1.17,0,0,0-.69.21,1.43,1.43,0,0,0-.47.56v3.38h-.81V48.81Z"/><path class="cls-12" d="M319.69,51.15a2.76,2.76,0,0,1,.52-1.77,1.63,1.63,0,0,1,1.36-.66,1.65,1.65,0,0,1,1.36.62l0-.53h.74v4.64a1.91,1.91,0,0,1-.55,1.45,2,2,0,0,1-1.47.54,2.59,2.59,0,0,1-1-.22,1.82,1.82,0,0,1-.75-.61l.43-.48a1.56,1.56,0,0,0,1.27.64,1.26,1.26,0,0,0,.93-.33,1.28,1.28,0,0,0,.33-.94v-.41a1.68,1.68,0,0,1-1.33.56,1.61,1.61,0,0,1-1.35-.67A2.91,2.91,0,0,1,319.69,51.15Zm.82.09a2.12,2.12,0,0,0,.33,1.26,1.06,1.06,0,0,0,.92.46,1.19,1.19,0,0,0,1.13-.7V50.09a1.21,1.21,0,0,0-1.12-.68,1.09,1.09,0,0,0-.93.46A2.35,2.35,0,0,0,320.51,51.24Z"/><path class="cls-12" d="M327.23,49.54a2.41,2.41,0,0,0-.4,0,1.06,1.06,0,0,0-1.08.68v3.37h-.82V48.81h.79l0,.55a1.24,1.24,0,0,1,1.13-.64.84.84,0,0,1,.36.06Z"/><path class="cls-12" d="M330.74,53.56a1.56,1.56,0,0,1-.12-.5,1.8,1.8,0,0,1-1.35.59,1.65,1.65,0,0,1-1.15-.4,1.28,1.28,0,0,1-.45-1,1.34,1.34,0,0,1,.56-1.15,2.71,2.71,0,0,1,1.59-.41h.79v-.37a.91.91,0,0,0-.25-.68,1,1,0,0,0-.76-.25,1.18,1.18,0,0,0-.72.21.66.66,0,0,0-.3.54h-.82a1.12,1.12,0,0,1,.26-.69,1.67,1.67,0,0,1,.68-.53,2.3,2.3,0,0,1,.95-.19,1.9,1.9,0,0,1,1.29.41,1.48,1.48,0,0,1,.48,1.13v2.19a2.65,2.65,0,0,0,.17,1v.07Zm-1.35-.62a1.41,1.41,0,0,0,.72-.19,1.24,1.24,0,0,0,.5-.52v-1H330c-1,0-1.49.29-1.49.87a.74.74,0,0,0,.25.6A1,1,0,0,0,329.39,52.94Z"/><path class="cls-12" d="M332.5,51.15a2.75,2.75,0,0,1,.52-1.76,1.76,1.76,0,0,1,2.68-.1V46.81h.81v6.75h-.74l0-.51a1.66,1.66,0,0,1-1.36.6A1.61,1.61,0,0,1,333,53a2.85,2.85,0,0,1-.52-1.76Zm.81.09a2.1,2.1,0,0,0,.34,1.26,1.06,1.06,0,0,0,.92.46,1.19,1.19,0,0,0,1.13-.69V50.08a1.19,1.19,0,0,0-1.12-.67,1.07,1.07,0,0,0-.93.46A2.34,2.34,0,0,0,333.31,51.24Z"/><path class="cls-12" d="M337.56,51.14a2.91,2.91,0,0,1,.27-1.26,2.14,2.14,0,0,1,.77-.86,2.11,2.11,0,0,1,1.12-.3,2,2,0,0,1,1.57.67,2.6,2.6,0,0,1,.6,1.79v.06a2.76,2.76,0,0,1-.27,1.24,2,2,0,0,1-.76.86,2.06,2.06,0,0,1-1.13.31,2,2,0,0,1-1.57-.67,2.57,2.57,0,0,1-.6-1.78Zm.82.1a2.06,2.06,0,0,0,.36,1.27,1.19,1.19,0,0,0,1,.48,1.15,1.15,0,0,0,1-.49,2.24,2.24,0,0,0,.37-1.36,2,2,0,0,0-.38-1.27,1.23,1.23,0,0,0-1.95,0A2.17,2.17,0,0,0,338.38,51.24Z"/></svg>