<svg id="Layer_1" data-name="Layer 1" xmlns="http://www.w3.org/2000/svg" xmlns:xlink="http://www.w3.org/1999/xlink" viewBox="0 0 376.73 243.56"><defs><style>.cls-1{fill:url(#linear-gradient);}.cls-2{fill:#ea5964;}.cls-3{fill:#ffde17;}.cls-4{fill:#88bae2;}.cls-5{fill:#d51f26;}.cls-6{fill:#f297a2;}.cls-7{fill:#a71f23;}.cls-8,.cls-9{fill:none;stroke-miterlimit:10;stroke-width:0.5px;}.cls-8{stroke:#231f20;}.cls-9{stroke:#000;}.cls-10{fill:#636363;}</style><linearGradient id="linear-gradient" x1="-2512.18" y1="2713.76" x2="-2512.18" y2="2617.79" gradientTransform="matrix(-1, 0, 0, 1, -2311.64, -2519.25)" gradientUnits="userSpaceOnUse"><stop offset="0" stop-color="#e5b5b3"/><stop offset="0.17" stop-color="#e5b5b3"/><stop offset="0.3" stop-color="#e3b0ae"/><stop offset="0.45" stop-color="#dca2a0"/><stop offset="0.62" stop-color="#d18a89"/><stop offset="0.79" stop-color="#c26968"/><stop offset="0.97" stop-color="#ae3f3f"/><stop offset="1" stop-color="#aa3636"/></linearGradient></defs><rect class="cls-1" x="56.58" y="98.54" width="287.91" height="95.97"/><rect class="cls-2" x="56.58" y="83.77" width="287.91" height="14.77"/><rect class="cls-2" x="56.58" y="187.13" width="287.91" height="14.77"/><path class="cls-3" d="M298.86,148.3a1.5,1.5,0,0,0,1.8,0l1.65-1.36c.5-.4.82-.21.72.41l-.33,2.1a1.51,1.51,0,0,0,.9,1.56l2,.77c.59.22.59.59,0,.82l-2,.77a1.49,1.49,0,0,0-.9,1.55L303,157c.1.62-.22.8-.72.41l-1.65-1.36a1.53,1.53,0,0,0-1.8,0l-1.66,1.36c-.48.39-.81.21-.71-.41l.33-2.11a1.49,1.49,0,0,0-.9-1.55l-2-.77c-.59-.23-.59-.6,0-.82l2-.77a1.53,1.53,0,0,0,.9-1.56l-.33-2.1c-.1-.62.23-.81.71-.41Z"/><path class="cls-3" d="M290,161.92a1.5,1.5,0,0,0,1.78,0l1.67-1.36c.49-.4.81-.21.71.41l-.32,2.11a1.47,1.47,0,0,0,.89,1.55l2,.76c.59.24.59.61,0,.83l-2,.77a1.5,1.5,0,0,0-.89,1.56l.32,2.1c.1.62-.22.81-.71.41l-1.67-1.36a1.47,1.47,0,0,0-1.78,0l-1.66,1.36c-.49.4-.81.21-.72-.41l.33-2.1a1.52,1.52,0,0,0-.89-1.56l-2-.77c-.59-.22-.59-.59,0-.83l2-.76a1.48,1.48,0,0,0,.89-1.55l-.33-2.11c-.09-.62.23-.81.72-.41Z"/><path class="cls-3" d="M222.46,133.29a1.49,1.49,0,0,0,1.79,0l1.66-1.36c.49-.4.81-.21.72.41l-.34,2.1a1.51,1.51,0,0,0,.92,1.56l2,.77c.6.22.6.6,0,.83l-2,.77a1.51,1.51,0,0,0-.9,1.55l.34,2.11c.09.62-.23.81-.72.41l-1.66-1.36a1.52,1.52,0,0,0-1.79,0l-1.66,1.36c-.5.4-.82.21-.72-.41l.33-2.11a1.5,1.5,0,0,0-.89-1.55l-2-.76c-.59-.24-.59-.61,0-.83l2-.77a1.52,1.52,0,0,0,.89-1.56l-.33-2.1c-.1-.62.22-.81.72-.41Z"/><path class="cls-3" d="M331.71,113.21a1.52,1.52,0,0,0,1.79,0l1.66-1.36c.49-.4.81-.21.72.41l-.34,2.11a1.51,1.51,0,0,0,.9,1.55l2,.76c.59.23.59.6,0,.83l-2,.77a1.51,1.51,0,0,0-.9,1.55l.34,2.1c.09.63-.23.82-.72.42L333.5,121a1.52,1.52,0,0,0-1.79,0l-1.66,1.36c-.49.4-.82.21-.71-.42l.32-2.1a1.49,1.49,0,0,0-.9-1.55l-2-.77c-.59-.23-.59-.6,0-.83l2-.76a1.49,1.49,0,0,0,.9-1.55l-.32-2.11c-.11-.62.22-.81.71-.41Z"/><path class="cls-3" d="M184.69,174.08a1.49,1.49,0,0,0,1.79,0l1.66-1.36c.49-.4.81-.21.72.41l-.33,2.11a1.51,1.51,0,0,0,.89,1.55l2,.76c.59.23.59.6,0,.83l-2,.77a1.48,1.48,0,0,0-.89,1.55l.33,2.1c.09.63-.23.81-.72.42l-1.66-1.36a1.52,1.52,0,0,0-1.79,0L183,183.22c-.5.39-.82.21-.72-.42l.32-2.1a1.47,1.47,0,0,0-.89-1.55l-2-.77c-.59-.23-.59-.6,0-.83l2-.76a1.48,1.48,0,0,0,.89-1.55l-.32-2.11c-.1-.62.22-.81.72-.41Z"/><path class="cls-3" d="M124,106.7a1.52,1.52,0,0,0,1.79,0l1.66-1.36c.49-.39.81-.21.72.41l-.33,2.11a1.48,1.48,0,0,0,.89,1.55l2,.78c.59.23.59.6,0,.83l-2,.77a1.5,1.5,0,0,0-.89,1.55l.32,2.11c.1.62-.22.81-.72.41l-1.66-1.36a1.5,1.5,0,0,0-1.78,0l-1.66,1.36c-.5.4-.82.21-.72-.41l.33-2.11a1.49,1.49,0,0,0-.9-1.55l-2-.77c-.6-.22-.6-.59,0-.82l2-.77a1.49,1.49,0,0,0,.9-1.55l-.33-2.11c-.1-.62.22-.8.72-.41Z"/><path class="cls-3" d="M89.11,167.25a1.52,1.52,0,0,0,1.79,0l1.66-1.36c.49-.39.81-.21.68.42l-.33,2.1a1.49,1.49,0,0,0,.9,1.55l2,.77c.59.23.59.6,0,.83l-2,.76a1.49,1.49,0,0,0-.9,1.55l.33,2.11c.1.62-.23.81-.68.41L90.9,175a1.52,1.52,0,0,0-1.79,0l-1.66,1.36c-.5.4-.82.21-.72-.41l.33-2.11a1.49,1.49,0,0,0-.9-1.55l-2-.76c-.59-.23-.59-.6,0-.83l2-.77a1.49,1.49,0,0,0,.9-1.55l-.33-2.1c-.1-.63.22-.81.72-.42Z"/><path class="cls-3" d="M191.68,59.63a1.49,1.49,0,0,0,1.79,0l1.67-1.36c.48-.4.81-.21.71.42l-.33,2.1a1.49,1.49,0,0,0,.9,1.55l2,.77c.59.22.59.6,0,.83l-2,.76a1.49,1.49,0,0,0-.9,1.55l.33,2.11c.1.62-.23.81-.71.41l-1.67-1.36a1.52,1.52,0,0,0-1.79,0L190,68.77c-.5.4-.82.21-.72-.41l.32-2.11a1.5,1.5,0,0,0-.89-1.55l-2-.7c-.59-.23-.59-.61,0-.83l2-.77a1.48,1.48,0,0,0,.89-1.55l-.32-2.1c-.1-.63.22-.82.72-.42Z"/><path class="cls-4" d="M326.9,166.9a4,4,0,0,1,.84.08,3.86,3.86,0,0,1,.8.24,4.46,4.46,0,0,1,1.39.93,3.67,3.67,0,0,1,.53.65,4.06,4.06,0,0,1,.4.74,4.59,4.59,0,0,1,.24.8,3.92,3.92,0,0,1,.08.84,3.83,3.83,0,0,1-.08.83,4.35,4.35,0,0,1-.24.8,4.06,4.06,0,0,1-.4.74,3.67,3.67,0,0,1-.53.65,4.46,4.46,0,0,1-1.39.93,3.86,3.86,0,0,1-.8.24,4,4,0,0,1-.84.09,3.84,3.84,0,0,1-.83-.09,3.69,3.69,0,0,1-.8-.24,4.06,4.06,0,0,1-.74-.4,3.67,3.67,0,0,1-.65-.53,4.24,4.24,0,0,1-.54-.65,4.73,4.73,0,0,1-.39-.74,3.69,3.69,0,0,1-.24-.8,3.84,3.84,0,0,1-.09-.83,3.93,3.93,0,0,1,.09-.84,3.86,3.86,0,0,1,.24-.8,4.73,4.73,0,0,1,.39-.74,4.24,4.24,0,0,1,.54-.65,3.67,3.67,0,0,1,.65-.53,4.06,4.06,0,0,1,.74-.4,3.69,3.69,0,0,1,.8-.24A3.83,3.83,0,0,1,326.9,166.9Z"/><path class="cls-4" d="M270,114.32a4.58,4.58,0,0,1,.83.08,4.47,4.47,0,0,1,.81.25,3.75,3.75,0,0,1,.74.39,4.1,4.1,0,0,1,.64.53,4.78,4.78,0,0,1,.54.65,5.22,5.22,0,0,1,.39.74,4.63,4.63,0,0,1,.25.8,4.78,4.78,0,0,1,.08.84,4.58,4.58,0,0,1-.08.83,4.47,4.47,0,0,1-.25.81,5.22,5.22,0,0,1-.39.74,4.51,4.51,0,0,1-1.18,1.18,4.36,4.36,0,0,1-.74.39,4.47,4.47,0,0,1-.81.25,4.58,4.58,0,0,1-.83.08,4.78,4.78,0,0,1-.84-.08,4.63,4.63,0,0,1-.8-.25,4,4,0,0,1-.74-.39,5.56,5.56,0,0,1-.65-.53,4.7,4.7,0,0,1-.53-.65,4.42,4.42,0,0,1-.4-.74,5.41,5.41,0,0,1-.24-.81,4.58,4.58,0,0,1-.08-.83,4.78,4.78,0,0,1,.08-.84,5.65,5.65,0,0,1,.24-.8,4.42,4.42,0,0,1,.4-.74,4.14,4.14,0,0,1,1.18-1.18,3.49,3.49,0,0,1,.74-.39,4.63,4.63,0,0,1,.8-.25A4.78,4.78,0,0,1,270,114.32Z"/><path class="cls-4" d="M219.09,165.83a4.58,4.58,0,0,1,.83.08,4.14,4.14,0,0,1,.8.25,3.49,3.49,0,0,1,.74.39,4.18,4.18,0,0,1,.65.53,4.78,4.78,0,0,1,.54.65,5.22,5.22,0,0,1,.39.74,3.86,3.86,0,0,1,.24.8,4,4,0,0,1,.09.84,3.84,3.84,0,0,1-.09.83,3.78,3.78,0,0,1-.24.81,5.22,5.22,0,0,1-.39.74,4.78,4.78,0,0,1-.54.65,4.84,4.84,0,0,1-.65.53,4,4,0,0,1-.74.39,4.14,4.14,0,0,1-.8.25,4.58,4.58,0,0,1-.83.08,4.78,4.78,0,0,1-.84-.08,4.63,4.63,0,0,1-.8-.25,4,4,0,0,1-.74-.39,5.56,5.56,0,0,1-.65-.53,4.07,4.07,0,0,1-.53-.65,4.07,4.07,0,0,1-.64-1.55,3.83,3.83,0,0,1-.08-.83,4,4,0,0,1,.08-.84,4.59,4.59,0,0,1,.24-.8,4.42,4.42,0,0,1,.4-.74,4.07,4.07,0,0,1,.53-.65,4.7,4.7,0,0,1,.65-.53,3.49,3.49,0,0,1,.74-.39,4.63,4.63,0,0,1,.8-.25A4.78,4.78,0,0,1,219.09,165.83Z"/><path class="cls-4" d="M158.54,120.87a4,4,0,0,1,.84.09,3.86,3.86,0,0,1,.8.24,4.46,4.46,0,0,1,1.39.93,4.18,4.18,0,0,1,.53.65,4.06,4.06,0,0,1,.4.74,5.29,5.29,0,0,1,.24.8,4.58,4.58,0,0,1,.08.83,4.69,4.69,0,0,1-.08.84,5.65,5.65,0,0,1-.24.8,4.06,4.06,0,0,1-.4.74,4.18,4.18,0,0,1-.53.65,4.46,4.46,0,0,1-1.39.93,3.86,3.86,0,0,1-.8.24,4,4,0,0,1-.84.08,3.83,3.83,0,0,1-.83-.08,3.78,3.78,0,0,1-.81-.24,4.85,4.85,0,0,1-.74-.4,4,4,0,0,1-.64-.53,4.24,4.24,0,0,1-.54-.65,4.73,4.73,0,0,1-.39-.74,3.86,3.86,0,0,1-.24-.8,3.93,3.93,0,0,1-.09-.84,3.84,3.84,0,0,1,.09-.83,3.69,3.69,0,0,1,.24-.8,4.73,4.73,0,0,1,.39-.74,4.24,4.24,0,0,1,.54-.65,4,4,0,0,1,.64-.53,4.85,4.85,0,0,1,.74-.4,3.78,3.78,0,0,1,.81-.24A3.84,3.84,0,0,1,158.54,120.87Z"/><path class="cls-4" d="M122.91,166.9a4,4,0,0,1,.84.08,3.86,3.86,0,0,1,.8.24,4.06,4.06,0,0,1,.74.4,4.14,4.14,0,0,1,1.18,1.18,4.06,4.06,0,0,1,.4.74,3.86,3.86,0,0,1,.24.8,3.92,3.92,0,0,1,.08.84,3.83,3.83,0,0,1-.08.83,3.69,3.69,0,0,1-.24.8,4.06,4.06,0,0,1-.4.74,4.14,4.14,0,0,1-1.18,1.18,4.06,4.06,0,0,1-.74.4,3.86,3.86,0,0,1-.8.24,4,4,0,0,1-.84.09,3.84,3.84,0,0,1-.83-.09,3.69,3.69,0,0,1-.8-.24,4.06,4.06,0,0,1-.74-.4,4.14,4.14,0,0,1-1.18-1.18,4.06,4.06,0,0,1-.4-.74,3.69,3.69,0,0,1-.24-.8,3.84,3.84,0,0,1-.09-.83,3.93,3.93,0,0,1,.09-.84,3.86,3.86,0,0,1,.24-.8,4.06,4.06,0,0,1,.4-.74,4.14,4.14,0,0,1,1.18-1.18,4.06,4.06,0,0,1,.74-.4,3.69,3.69,0,0,1,.8-.24A3.83,3.83,0,0,1,122.91,166.9Z"/><path class="cls-4" d="M111.06,155.24a4.78,4.78,0,0,1,.84.08,4.63,4.63,0,0,1,.8.25,3.75,3.75,0,0,1,.74.39,4.14,4.14,0,0,1,1.18,1.18,4.36,4.36,0,0,1,.39.74,4.63,4.63,0,0,1,.25.8,4.78,4.78,0,0,1,.08.84,4.58,4.58,0,0,1-.08.83,4.47,4.47,0,0,1-.25.81,4.36,4.36,0,0,1-.39.74,4.7,4.7,0,0,1-.53.65,5.56,5.56,0,0,1-.65.53,4.36,4.36,0,0,1-.74.39,4.63,4.63,0,0,1-.8.25,4.78,4.78,0,0,1-.84.08,4.58,4.58,0,0,1-.83-.08,4.47,4.47,0,0,1-.81-.25,4.36,4.36,0,0,1-.74-.39,4.14,4.14,0,0,1-1.18-1.18,4.36,4.36,0,0,1-.39-.74,4.47,4.47,0,0,1-.25-.81,4.58,4.58,0,0,1-.08-.83,4.78,4.78,0,0,1,.08-.84,4.63,4.63,0,0,1,.25-.8,4.36,4.36,0,0,1,.39-.74,5.56,5.56,0,0,1,.53-.65,4.7,4.7,0,0,1,.65-.53,3.75,3.75,0,0,1,.74-.39,4.47,4.47,0,0,1,.81-.25A4.58,4.58,0,0,1,111.06,155.24Z"/><path class="cls-4" d="M73.74,106.94a4.78,4.78,0,0,1,.84.08,4.63,4.63,0,0,1,.8.25,5.22,5.22,0,0,1,.74.39,4.78,4.78,0,0,1,.65.54,4.1,4.1,0,0,1,.53.64,4.36,4.36,0,0,1,.39.74,4.47,4.47,0,0,1,.25.81,4.58,4.58,0,0,1,.08.83,4.78,4.78,0,0,1-.08.84,4.63,4.63,0,0,1-.25.8,4,4,0,0,1-.39.74,4.14,4.14,0,0,1-1.18,1.18,4.42,4.42,0,0,1-.74.4,5.65,5.65,0,0,1-.8.24,4.78,4.78,0,0,1-.84.08,4.58,4.58,0,0,1-.83-.08,5.41,5.41,0,0,1-.81-.24,4.42,4.42,0,0,1-.74-.4,4.7,4.7,0,0,1-.65-.53,5.56,5.56,0,0,1-.53-.65,4,4,0,0,1-.39-.74,4.63,4.63,0,0,1-.25-.8,4.78,4.78,0,0,1-.08-.84,4.58,4.58,0,0,1,.08-.83,4.47,4.47,0,0,1,.25-.81,4.36,4.36,0,0,1,.39-.74,4.51,4.51,0,0,1,1.18-1.18,5.22,5.22,0,0,1,.74-.39,4.47,4.47,0,0,1,.81-.25A4.58,4.58,0,0,1,73.74,106.94Z"/><path class="cls-4" d="M225.42,106.33a4.58,4.58,0,0,1,.83.08,4.47,4.47,0,0,1,.81.25,4.36,4.36,0,0,1,.74.39,4.51,4.51,0,0,1,1.18,1.18,5.22,5.22,0,0,1,.39.74,4.47,4.47,0,0,1,.25.81,4.58,4.58,0,0,1,.08.83,4.78,4.78,0,0,1-.08.84,4.63,4.63,0,0,1-.25.8,5.22,5.22,0,0,1-.39.74,4.78,4.78,0,0,1-.54.65,4.1,4.1,0,0,1-.64.53,4.36,4.36,0,0,1-.74.39,4.47,4.47,0,0,1-.81.25,4.58,4.58,0,0,1-.83.08,4.78,4.78,0,0,1-.84-.08,4.63,4.63,0,0,1-.8-.25,4,4,0,0,1-.74-.39,4.14,4.14,0,0,1-1.18-1.18,4.42,4.42,0,0,1-.4-.74,5.65,5.65,0,0,1-.24-.8,4.78,4.78,0,0,1-.08-.84,4.58,4.58,0,0,1,.08-.83,5.41,5.41,0,0,1,.24-.81,4.42,4.42,0,0,1,.4-.74,4.7,4.7,0,0,1,.53-.65,5.56,5.56,0,0,1,.65-.53,4,4,0,0,1,.74-.39,4.63,4.63,0,0,1,.8-.25A4.78,4.78,0,0,1,225.42,106.33Z"/><path class="cls-4" d="M154.27,102.67a4.58,4.58,0,0,1,.83.08,4.47,4.47,0,0,1,.81.25,3.75,3.75,0,0,1,.74.39,4.7,4.7,0,0,1,.65.53,5.56,5.56,0,0,1,.53.65,4.36,4.36,0,0,1,.39.74,4.63,4.63,0,0,1,.25.8,4.78,4.78,0,0,1,.08.84,4.58,4.58,0,0,1-.08.83,4.47,4.47,0,0,1-.25.81,4.36,4.36,0,0,1-.39.74,4.14,4.14,0,0,1-1.18,1.18,4.36,4.36,0,0,1-.74.39,4.47,4.47,0,0,1-.81.25,4.58,4.58,0,0,1-.83.08,4.78,4.78,0,0,1-.84-.08,4.63,4.63,0,0,1-.8-.25,4.36,4.36,0,0,1-.74-.39,5.56,5.56,0,0,1-.65-.53,4.7,4.7,0,0,1-.53-.65,4.36,4.36,0,0,1-.39-.74,4.47,4.47,0,0,1-.25-.81A4.58,4.58,0,0,1,150,107a4.78,4.78,0,0,1,.08-.84,4.63,4.63,0,0,1,.25-.8,4.36,4.36,0,0,1,.39-.74,4.14,4.14,0,0,1,1.18-1.18,3.75,3.75,0,0,1,.74-.39,4.63,4.63,0,0,1,.8-.25A4.78,4.78,0,0,1,154.27,102.67Z"/><path class="cls-4" d="M198.84,104.64a4.69,4.69,0,0,1,.84.08,4.63,4.63,0,0,1,.8.25,3.49,3.49,0,0,1,.74.39,4.18,4.18,0,0,1,.65.53,4.07,4.07,0,0,1,.53.65,4.42,4.42,0,0,1,.4.74,3.86,3.86,0,0,1,.24.8,4,4,0,0,1,.08.84,3.83,3.83,0,0,1-.08.83,3.78,3.78,0,0,1-.24.81,4.42,4.42,0,0,1-.4.74,4.07,4.07,0,0,1-.53.65,4.84,4.84,0,0,1-.65.53,4,4,0,0,1-.74.39,4.63,4.63,0,0,1-.8.25,4.4,4.4,0,0,1-1.67,0,4.37,4.37,0,0,1-.8-.25,4,4,0,0,1-.74-.39,4.84,4.84,0,0,1-.65-.53,4.07,4.07,0,0,1-.53-.65,4.42,4.42,0,0,1-.4-.74,3.78,3.78,0,0,1-.24-.81,3.84,3.84,0,0,1-.09-.83,4,4,0,0,1,.09-.84,3.86,3.86,0,0,1,.24-.8,4.42,4.42,0,0,1,.4-.74,4.07,4.07,0,0,1,.53-.65,4.18,4.18,0,0,1,.65-.53,3.49,3.49,0,0,1,.74-.39,4.37,4.37,0,0,1,.8-.25A4.67,4.67,0,0,1,198.84,104.64Z"/><path class="cls-4" d="M233,65.53a3.84,3.84,0,0,1,.83.09,3.69,3.69,0,0,1,.8.24,4.73,4.73,0,0,1,.74.39,4.24,4.24,0,0,1,.65.54,3.67,3.67,0,0,1,.53.65,4.06,4.06,0,0,1,.4.74,3.53,3.53,0,0,1,.24.8,3.84,3.84,0,0,1,.09.83,4,4,0,0,1-.09.84,3.86,3.86,0,0,1-.24.8,4.46,4.46,0,0,1-.93,1.39,3.67,3.67,0,0,1-.65.53,4.06,4.06,0,0,1-.74.4,4.35,4.35,0,0,1-.8.24,4.58,4.58,0,0,1-.83.08,4.69,4.69,0,0,1-.84-.08,4.59,4.59,0,0,1-.8-.24,4.06,4.06,0,0,1-.74-.4,3.67,3.67,0,0,1-.65-.53,4.46,4.46,0,0,1-.93-1.39,3.86,3.86,0,0,1-.24-.8,4,4,0,0,1-.08-.84,3.83,3.83,0,0,1,.08-.83,3.53,3.53,0,0,1,.24-.8,4.06,4.06,0,0,1,.4-.74,3.67,3.67,0,0,1,.53-.65,4.24,4.24,0,0,1,.65-.54,4.73,4.73,0,0,1,.74-.39,3.86,3.86,0,0,1,.8-.24A3.93,3.93,0,0,1,233,65.53Z"/><path class="cls-4" d="M256.88,74.63a4.78,4.78,0,0,1,.84.08,5.65,5.65,0,0,1,.8.24,4.06,4.06,0,0,1,.74.4,4.14,4.14,0,0,1,1.18,1.18,4.06,4.06,0,0,1,.4.74,5.65,5.65,0,0,1,.24.8,4.78,4.78,0,0,1,.08.84,4.58,4.58,0,0,1-.08.83,5.41,5.41,0,0,1-.24.81,4.42,4.42,0,0,1-.4.74,4.1,4.1,0,0,1-.53.64,4,4,0,0,1-1.39.93,4.63,4.63,0,0,1-.8.25,4.78,4.78,0,0,1-.84.08,4.58,4.58,0,0,1-.83-.08,4.47,4.47,0,0,1-.81-.25,5.83,5.83,0,0,1-.74-.39,4.69,4.69,0,0,1-.64-.54,4.16,4.16,0,0,1-.54-.64,5.22,5.22,0,0,1-.39-.74,3.78,3.78,0,0,1-.24-.81,3.84,3.84,0,0,1-.09-.83,4,4,0,0,1,.09-.84,3.86,3.86,0,0,1,.24-.8,4,4,0,0,1,.93-1.39,4.62,4.62,0,0,1,.64-.53,4.85,4.85,0,0,1,.74-.4,5.41,5.41,0,0,1,.81-.24A4.58,4.58,0,0,1,256.88,74.63Z"/><path class="cls-4" d="M158.15,71.64a4.58,4.58,0,0,1,.83.08,4.47,4.47,0,0,1,.81.25,4.36,4.36,0,0,1,.74.39,4.1,4.1,0,0,1,.64.53,4.78,4.78,0,0,1,.54.65,5.22,5.22,0,0,1,.39.74,4.63,4.63,0,0,1,.25.8,4.78,4.78,0,0,1,.08.84,4.58,4.58,0,0,1-.08.83,4.47,4.47,0,0,1-.25.81,5.22,5.22,0,0,1-.39.74,4.51,4.51,0,0,1-1.18,1.18,4.36,4.36,0,0,1-.74.39,4.47,4.47,0,0,1-.81.25,4.58,4.58,0,0,1-.83.08,4.78,4.78,0,0,1-.84-.08,4.63,4.63,0,0,1-.8-.25,4,4,0,0,1-.74-.39,5.56,5.56,0,0,1-.65-.53,4.7,4.7,0,0,1-.53-.65,4.42,4.42,0,0,1-.4-.74,5.41,5.41,0,0,1-.24-.81,4.58,4.58,0,0,1-.08-.83,4.78,4.78,0,0,1,.08-.84,5.65,5.65,0,0,1,.24-.8,4.42,4.42,0,0,1,.4-.74,4.14,4.14,0,0,1,1.18-1.18,4,4,0,0,1,.74-.39,4.63,4.63,0,0,1,.8-.25A4.78,4.78,0,0,1,158.15,71.64Z"/><path class="cls-5" d="M189.22,70.08a7.63,7.63,0,0,1,.46-1.29,8.6,8.6,0,0,1,.68-1.22,10.61,10.61,0,0,1,.9-1.13,11,11,0,0,1,1.11-1,14.61,14.61,0,0,1,1.31-.94,16.07,16.07,0,0,1,1.49-.82,17.76,17.76,0,0,1,1.65-.69c.58-.21,1.19-.4,1.82-.57s1.28-.32,2-.44,1.36-.22,2.06-.29,1.43-.13,2.17-.16,1.48,0,2.24,0,1.52.06,2.29.13,1.55.15,2.33.27,1.56.25,2.34.41,1.56.34,2.33.54,1.54.43,2.3.68,1.5.51,2.23.8,1.46.59,2.16.91,1.39.66,2.06,1,1.32.73,2,1.12,1.22.79,1.8,1.2,1.13.84,1.65,1.28,1,.89,1.48,1.34.9.92,1.3,1.39.76,1,1.1,1.43.62,1,.89,1.44a14.48,14.48,0,0,1,.67,1.46,10.47,10.47,0,0,1,.45,1.45,9,9,0,0,1,.22,1.43,8.18,8.18,0,0,1,0,1.4,8.24,8.24,0,0,1-.7,2.64,8.6,8.6,0,0,1-.68,1.22,10.61,10.61,0,0,1-.9,1.13,11,11,0,0,1-1.11,1,12.78,12.78,0,0,1-1.31.93,12.44,12.44,0,0,1-1.49.82,15.6,15.6,0,0,1-1.66.7c-.58.21-1.18.4-1.81.57s-1.28.31-1.95.44-1.36.22-2.06.29-1.43.13-2.17.16-1.48,0-2.24,0-1.52-.06-2.29-.13-1.55-.16-2.33-.27-1.56-.25-2.34-.41-1.56-.34-2.33-.54-1.54-.43-2.3-.68-1.5-.51-2.23-.8-1.46-.59-2.16-.91-1.4-.67-2.06-1-1.32-.73-2-1.12-1.22-.79-1.8-1.2-1.13-.84-1.65-1.28-1-.89-1.48-1.34-.9-.92-1.3-1.39-.76-1-1.1-1.43-.62-1-.89-1.45a13.39,13.39,0,0,1-.67-1.45,10.47,10.47,0,0,1-.45-1.45,9,9,0,0,1-.22-1.43,8.18,8.18,0,0,1,0-1.4A7.63,7.63,0,0,1,189.22,70.08Z"/><path class="cls-6" d="M213.23,74.66c-5.33-1.42-9.51-4-10.87-6.52a1,1,0,0,0-.08.21c-.74,2.79,3.94,6.44,10.46,8.15s12.38.85,13.12-1.94v-.23c-2.36,1.52-7.3,1.73-12.63.33Z"/><path class="cls-7" d="M215,67.92c5.34,1.41,9.51,4,10.87,6.53,0-.08.06-.15.08-.22.74-2.79-3.94-6.45-10.45-8.15s-12.39-.85-13.12,1.94a.43.43,0,0,1,0,.22C204.74,66.72,209.67,66.52,215,67.92Z"/><path class="cls-7" d="M210.13,86.41c-12-3.17-20.58-10.93-20.28-18a8.08,8.08,0,0,0-.63,1.63c-2,7.48,7,16.27,20,19.7s25.13.19,27.13-7.24a8.5,8.5,0,0,0,.26-1.74c-3.21,6.29-14.48,8.79-26.5,5.61Z"/><path class="cls-4" d="M210.51,77.91a4.69,4.69,0,0,1,.84.08,4.37,4.37,0,0,1,.8.25,3.49,3.49,0,0,1,.74.39,4.18,4.18,0,0,1,.65.53,4.07,4.07,0,0,1,.53.65,4.42,4.42,0,0,1,.4.74,3.86,3.86,0,0,1,.24.8,4,4,0,0,1,.08.84,3.83,3.83,0,0,1-.08.83,3.78,3.78,0,0,1-.24.81,4.42,4.42,0,0,1-.4.74,4.07,4.07,0,0,1-.53.65,4.84,4.84,0,0,1-.65.53,4,4,0,0,1-.74.39,4.37,4.37,0,0,1-.8.25,4.4,4.4,0,0,1-1.67,0,4.37,4.37,0,0,1-.8-.25,4,4,0,0,1-.74-.39,4.84,4.84,0,0,1-.65-.53,4.07,4.07,0,0,1-.53-.65,4.42,4.42,0,0,1-.4-.74,3.78,3.78,0,0,1-.24-.81,3.83,3.83,0,0,1-.08-.83,4,4,0,0,1,.08-.84,3.86,3.86,0,0,1,.24-.8,4.42,4.42,0,0,1,.4-.74,4.07,4.07,0,0,1,.53-.65,4.18,4.18,0,0,1,.65-.53,3.49,3.49,0,0,1,.74-.39,4.37,4.37,0,0,1,.8-.25A4.67,4.67,0,0,1,210.51,77.91Z"/><path class="cls-5" d="M175.55,66.56c.76-.25,1.53-.47,2.3-.68s1.54-.38,2.31-.54,1.54-.29,2.31-.4,1.53-.19,2.29-.26,1.5-.1,2.24-.11,1.45,0,2.16,0,1.41.09,2.08.18,1.34.19,2,.32,1.26.29,1.85.47,1.15.38,1.69.6a15.5,15.5,0,0,1,1.53.74,12.13,12.13,0,0,1,1.36.86,11.23,11.23,0,0,1,1.16,1,9.84,9.84,0,0,1,1,1.09,9.66,9.66,0,0,1,.75,1.17,8.3,8.3,0,0,1,.53,1.27,8.56,8.56,0,0,1,.31,1.33,8.11,8.11,0,0,1,.08,1.4,9,9,0,0,1-.14,1.44,10.21,10.21,0,0,1-.37,1.47,13.16,13.16,0,0,1-.59,1.49,13.77,13.77,0,0,1-.81,1.5,16.87,16.87,0,0,1-1,1.48c-.38.49-.78,1-1.22,1.46s-.91,1-1.4,1.42-1,.93-1.58,1.37-1.13.88-1.74,1.3-1.22.83-1.87,1.23-1.32.77-2,1.13-1.39.71-2.11,1-1.45.63-2.19.92-1.49.55-2.25.8-1.52.47-2.29.67-1.55.39-2.32.54-1.54.3-2.31.41-1.53.19-2.28.25-1.51.1-2.24.12-1.46,0-2.17,0-1.4-.1-2.08-.18-1.33-.19-2-.33-1.25-.28-1.84-.46a17,17,0,0,1-1.7-.61,15.47,15.47,0,0,1-1.53-.73c-.48-.27-.93-.56-1.36-.86a11.11,11.11,0,0,1-1.16-1,8.07,8.07,0,0,1-1-1.08,7.81,7.81,0,0,1-.75-1.18,7.36,7.36,0,0,1-.54-1.26,8.56,8.56,0,0,1-.31-1.33,9.32,9.32,0,0,1-.08-1.4,10.31,10.31,0,0,1,.14-1.44,11.3,11.3,0,0,1,.37-1.47,13.3,13.3,0,0,1,.59-1.5c.24-.49.51-1,.81-1.49s.64-1,1-1.49.78-1,1.21-1.46.91-1,1.41-1.42,1-.92,1.57-1.36,1.13-.89,1.74-1.31,1.23-.83,1.88-1.22,1.31-.77,2-1.14,1.38-.7,2.1-1,1.45-.63,2.19-.92S174.79,66.8,175.55,66.56Z"/><path class="cls-6" d="M179.33,78.17c-5.25,1.71-10.19,1.77-12.66.41a.43.43,0,0,0,0,.22c.89,2.72,6.79,3.28,13.21,1.2s10.87-6,10-8.73c0-.08-.06-.14-.09-.21-1.2,2.56-5.24,5.41-10.48,7.11Z"/><path class="cls-7" d="M177.18,71.55c5.25-1.7,10.18-1.76,12.66-.4a.43.43,0,0,0,0-.22c-.89-2.72-6.8-3.28-13.22-1.21s-10.86,6-10,8.74c0,.07.07.14.09.21,1.21-2.57,5.24-5.41,10.49-7.12Z"/><path class="cls-7" d="M183.06,89.74c-11.83,3.84-23.23,2-26.77-4.12a8.45,8.45,0,0,0,.34,1.72c2.38,7.31,14.7,9.88,27.5,5.72S205.4,79.59,203,72.27a7.6,7.6,0,0,0-.72-1.59c.72,7-7.39,15.22-19.24,19.06Z"/><path class="cls-5" d="M211.72,83.06a10.26,10.26,0,0,1,.27-1.34,8.07,8.07,0,0,1,.51-1.31,9.35,9.35,0,0,1,.72-1.25,11.51,11.51,0,0,1,.95-1.19,13.52,13.52,0,0,1,1.15-1.11,14.67,14.67,0,0,1,1.36-1,15.33,15.33,0,0,1,1.54-.93c.54-.29,1.11-.57,1.71-.83s1.22-.49,1.86-.71,1.32-.42,2-.59,1.4-.34,2.12-.47,1.47-.25,2.22-.34,1.52-.16,2.29-.2,1.56-.07,2.34-.07,1.58,0,2.38.06,1.59.12,2.38.21,1.58.2,2.37.33,1.56.29,2.33.47,1.52.37,2.27.59,1.47.45,2.19.71,1.4.53,2.08.82,1.33.61,2,.93,1.24.67,1.82,1,1.13.72,1.66,1.11,1,.78,1.48,1.19A15.32,15.32,0,0,1,257,80.39a13,13,0,0,1,1.09,1.3,11.85,11.85,0,0,1,.88,1.34,10.71,10.71,0,0,1,.66,1.37,10.12,10.12,0,0,1,.43,1.39,8.18,8.18,0,0,1,.19,1.38,7.75,7.75,0,0,1-.3,2.71,9,9,0,0,1-.5,1.31,9.92,9.92,0,0,1-.73,1.25,10.32,10.32,0,0,1-.95,1.19,13.52,13.52,0,0,1-1.15,1.11,14.67,14.67,0,0,1-1.36,1,15.33,15.33,0,0,1-1.54.93c-.54.29-1.11.57-1.71.83s-1.22.49-1.86.71-1.31.42-2,.59-1.4.34-2.12.47-1.46.25-2.22.34-1.51.16-2.29.2-1.55.07-2.34.07-1.58,0-2.38-.06-1.59-.12-2.38-.21-1.58-.2-2.37-.33-1.56-.29-2.33-.47-1.52-.37-2.27-.59-1.47-.45-2.18-.71-1.41-.53-2.09-.82-1.33-.6-2-.93-1.24-.67-1.82-1-1.13-.72-1.66-1.11-1-.78-1.48-1.18-.89-.83-1.29-1.26a14.44,14.44,0,0,1-1.09-1.3,13.39,13.39,0,0,1-.88-1.34,10.71,10.71,0,0,1-.66-1.37,10.12,10.12,0,0,1-.43-1.39,8.18,8.18,0,0,1-.19-1.38A7.82,7.82,0,0,1,211.72,83.06Z"/><path class="cls-6" d="M235.75,87.49c5.48.62,10,2.61,11.69,4.87a1.6,1.6,0,0,0,.05-.21c.33-2.88-4.83-5.81-11.54-6.56s-12.39,1-12.71,3.82v.22c2.18-1.86,7-2.75,12.51-2.14Z"/><path class="cls-7" d="M235,94.41c-5.48-.62-10-2.6-11.7-4.87,0,.07,0,.14-.05.22-.32,2.86,4.84,5.8,11.55,6.56s12.38-1,12.7-3.83v-.22C245.3,94.1,240.45,95,235,94.41Z"/><path class="cls-7" d="M237.12,75.4c12.35,1.4,21.94,7.84,22.66,14.84a7.3,7.3,0,0,0,.39-1.71C261,80.89,250.89,73.45,237.5,72s-24.93,3.45-25.81,11.1a8.53,8.53,0,0,0,0,1.75C214,78.15,224.76,74,237.12,75.4Z"/><path class="cls-3" d="M227.34,88.45a1.49,1.49,0,0,0,1.79,0l1.65-1.36c.5-.39.82-.21.72.42l-.33,2.1a1.49,1.49,0,0,0,.9,1.55l2,.77c.59.23.59.6,0,.83l-2,.77a1.51,1.51,0,0,0-.9,1.55l.33,2.11c.1.62-.22.81-.72.41l-1.65-1.36a1.49,1.49,0,0,0-1.79,0l-1.66,1.36c-.49.4-.82.21-.72-.41l.33-2.11a1.49,1.49,0,0,0-.9-1.55l-2-.77c-.59-.23-.59-.6,0-.83l2-.77a1.49,1.49,0,0,0,.9-1.55l-.33-2.1c-.1-.63.23-.81.72-.42Z"/><path class="cls-3" d="M175.54,80.45a1.49,1.49,0,0,0,1.79,0L179,79.09c.49-.4.81-.21.71.42l-.32,2.1a1.48,1.48,0,0,0,.89,1.55l2,.77c.59.22.59.6,0,.83l-2,.76a1.5,1.5,0,0,0-.89,1.55l.32,2.11c.1.62-.22.81-.71.41l-1.66-1.35a1.49,1.49,0,0,0-1.79,0l-1.66,1.35c-.5.4-.81.21-.72-.41l.33-2.11a1.5,1.5,0,0,0-.89-1.55l-2-.76c-.59-.23-.59-.61,0-.83l2-.77a1.48,1.48,0,0,0,.89-1.55l-.33-2.1c-.09-.63.22-.82.72-.42Z"/><path class="cls-3" d="M189,107.74a1.47,1.47,0,0,0,1.78,0l1.66-1.35c.5-.41.82-.22.72.41l-.32,2.11a1.46,1.46,0,0,0,.89,1.54l2,.77c.59.23.59.61,0,.83l-2,.77a1.47,1.47,0,0,0-.89,1.55l.32,2.1c.1.63-.22.82-.72.42l-1.66-1.36a1.5,1.5,0,0,0-1.78,0l-1.67,1.36c-.49.4-.81.21-.71-.42l.33-2.1a1.51,1.51,0,0,0-.9-1.55l-2-.77c-.6-.22-.6-.6,0-.83l2-.77a1.5,1.5,0,0,0,.9-1.54l-.33-2.11c-.1-.63.22-.82.71-.41Z"/><path class="cls-5" d="M240.87,84.28q1-.57,2.13-1.08c.72-.34,1.45-.66,2.18-1s1.46-.57,2.2-.82,1.47-.47,2.2-.67,1.46-.37,2.18-.52,1.43-.26,2.14-.36,1.4-.16,2.08-.2,1.34-.05,2,0,1.28.06,1.9.13,1.2.16,1.77.28a13.73,13.73,0,0,1,1.65.45,11.64,11.64,0,0,1,2.81,1.34,10.2,10.2,0,0,1,1.14.89,8.27,8.27,0,0,1,.95,1A7.38,7.38,0,0,1,269,84.9a8.18,8.18,0,0,1,.55,1.25,8.71,8.71,0,0,1,.33,1.36A8.57,8.57,0,0,1,270,89a9.84,9.84,0,0,1-.09,1.52,13.18,13.18,0,0,1-.31,1.57,15.18,15.18,0,0,1-.52,1.62c-.21.54-.46,1.09-.73,1.64s-.59,1.11-.93,1.66-.72,1.11-1.12,1.65-.84,1.1-1.3,1.64-1,1.07-1.47,1.59-1.06,1-1.63,1.55-1.15,1-1.76,1.48-1.23.95-1.88,1.4-1.31.88-2,1.3-1.37.82-2.07,1.2-1.42.74-2.14,1.08-1.44.66-2.17,1-1.47.57-2.2.82-1.47.47-2.2.67-1.46.37-2.18.52-1.44.26-2.14.36-1.4.16-2.08.2-1.35,0-2,0-1.28-.06-1.89-.13-1.21-.16-1.78-.28a13.57,13.57,0,0,1-1.64-.45,11.58,11.58,0,0,1-1.49-.6,10.47,10.47,0,0,1-1.32-.74,10.2,10.2,0,0,1-1.14-.89,9.21,9.21,0,0,1-1-1,8.73,8.73,0,0,1-.75-1.15,8.18,8.18,0,0,1-.55-1.25,8.73,8.73,0,0,1-.34-1.36,10,10,0,0,1,0-3,13.18,13.18,0,0,1,.31-1.57,15.18,15.18,0,0,1,.52-1.62c.21-.55.45-1.09.73-1.65s.59-1.1.93-1.65.71-1.11,1.12-1.65.84-1.1,1.3-1.64.95-1.07,1.47-1.59,1.06-1,1.62-1.55,1.15-1,1.76-1.48,1.24-1,1.89-1.4,1.3-.88,2-1.3S240.17,84.66,240.87,84.28Z"/><path class="cls-6" d="M246.69,95c-4.85,2.63-9.69,3.6-12.37,2.72a2,2,0,0,0,.08.22c1.36,2.53,7.29,2,13.21-1.22s9.6-7.88,8.23-10.42l-.14-.18c-.71,2.72-4.16,6.26-9,8.88Z"/><path class="cls-7" d="M243.37,88.87c4.85-2.63,9.69-3.59,12.38-2.71a.54.54,0,0,0-.08-.21c-1.36-2.54-7.29-2-13.22,1.22s-9.59,7.86-8.22,10.41l.13.18c.72-2.72,4.16-6.25,9-8.89Z"/><path class="cls-7" d="M252.49,105.69c-10.93,5.93-22.47,6.11-27.07.81a7.49,7.49,0,0,0,.68,1.63c3.67,6.76,16.24,7,28.07.62S272.64,91.63,269,84.87a7.56,7.56,0,0,0-1-1.44c1.94,6.76-4.54,16.33-15.47,22.26Z"/><path class="cls-5" d="M139.73,80.93a6.69,6.69,0,0,1,.78-1.13,7.62,7.62,0,0,1,1-1,10.32,10.32,0,0,1,1.16-.87,13.1,13.1,0,0,1,1.34-.72,13.29,13.29,0,0,1,1.5-.56,14.21,14.21,0,0,1,1.65-.41,16.58,16.58,0,0,1,1.78-.25c.62-.06,1.25-.08,1.9-.09s1.32,0,2,.09,1.37.13,2.07.24,1.41.24,2.13.41,1.44.34,2.17.56,1.46.45,2.19.71,1.45.55,2.18.86,1.44.65,2.15,1,1.42.73,2.11,1.13,1.38.81,2.05,1.24,1.32.88,1.95,1.35,1.26.94,1.86,1.43,1.17,1,1.73,1.52,1.08,1,1.59,1.58,1,1.08,1.43,1.63.88,1.1,1.27,1.66.75,1.11,1.08,1.67.63,1.12.9,1.68a16.68,16.68,0,0,1,.69,1.66,15.06,15.06,0,0,1,.49,1.63,12.79,12.79,0,0,1,.28,1.58,9.63,9.63,0,0,1,.06,1.51,8.36,8.36,0,0,1-.15,1.44,9.54,9.54,0,0,1-.36,1.35,7.89,7.89,0,0,1-.58,1.25,7.6,7.6,0,0,1-.78,1.13,8.3,8.3,0,0,1-1,1,10,10,0,0,1-1.16.86,10.09,10.09,0,0,1-1.34.72,14.09,14.09,0,0,1-1.5.57,16.57,16.57,0,0,1-1.65.41c-.58.11-1.17.19-1.78.25s-1.25.08-1.9.08-1.32,0-2-.08-1.37-.14-2.07-.24-1.41-.25-2.13-.41-1.44-.35-2.17-.56-1.46-.46-2.19-.72-1.45-.55-2.18-.86-1.44-.64-2.15-1-1.42-.73-2.11-1.12-1.38-.81-2.05-1.25-1.32-.88-1.95-1.34-1.26-1-1.86-1.44-1.17-1-1.73-1.52-1.08-1-1.59-1.57-1-1.08-1.43-1.63-.88-1.1-1.27-1.66-.75-1.12-1.08-1.68-.63-1.12-.9-1.67a15.39,15.39,0,0,1-.69-1.66,15.77,15.77,0,0,1-.49-1.63,13.13,13.13,0,0,1-.28-1.58,9.81,9.81,0,0,1-.06-1.52,8.57,8.57,0,0,1,.15-1.44,9.54,9.54,0,0,1,.36-1.35A7.79,7.79,0,0,1,139.73,80.93Z"/><path class="cls-6" d="M160.07,94.5c4.79,2.72,8.15,6.34,8.83,9.1a1.33,1.33,0,0,0,.14-.19c1.43-2.51-2.16-7.24-8-10.58s-11.76-4-13.19-1.49c0,.06,0,.14-.09.21C150.45,90.71,155.28,91.77,160.07,94.5Z"/><path class="cls-7" d="M156.62,100.55c-4.79-2.72-8.15-6.34-8.83-9.09l-.14.18c-1.43,2.51,2.16,7.25,8,10.58s11.75,4,13.17,1.5c0-.07.06-.14.1-.21C166.23,104.35,161.42,103.28,156.62,100.55Z"/><path class="cls-7" d="M166.08,83.94c10.8,6.16,17.07,15.86,14.94,22.57a8,8,0,0,0,1-1.42c3.81-6.68-2.58-17.51-14.26-24.18s-24.27-6.65-28.08,0a7.86,7.86,0,0,0-.68,1.61c4.72-5.19,16.26-4.74,27.05,1.42Z"/><path class="cls-5" d="M173.85,86.68c.73-.31,1.48-.6,2.22-.88s1.5-.52,2.26-.74,1.51-.43,2.27-.61,1.5-.33,2.25-.46,1.48-.24,2.22-.31,1.45-.14,2.16-.16,1.41,0,2.09,0,1.34.07,2,.15a18.44,18.44,0,0,1,1.88.3c.6.12,1.18.27,1.74.44a16.43,16.43,0,0,1,1.59.6,13.67,13.67,0,0,1,1.43.73,11.39,11.39,0,0,1,1.24.87,9.12,9.12,0,0,1,1.06,1,8.25,8.25,0,0,1,.86,1.11,7.77,7.77,0,0,1,.64,1.21,8.25,8.25,0,0,1,.43,1.3,7.93,7.93,0,0,1,.21,1.38,8.82,8.82,0,0,1,0,1.45,11.61,11.61,0,0,1-.23,1.5,13.42,13.42,0,0,1-.46,1.54,13.82,13.82,0,0,1-.67,1.56,17.55,17.55,0,0,1-.87,1.57q-.49.78-1.08,1.56c-.4.52-.82,1-1.27,1.54s-.94,1-1.45,1.51-1.05,1-1.61,1.45-1.15.94-1.76,1.39-1.24.89-1.89,1.31-1.32.83-2,1.22-1.38.76-2.09,1.11-1.44.69-2.18,1-1.47.61-2.22.88-1.5.52-2.25.75-1.52.43-2.27.6-1.51.34-2.25.47-1.49.23-2.22.31-1.46.13-2.17.16-1.4,0-2.08,0-1.35-.08-2-.15a18,18,0,0,1-1.88-.3,14.74,14.74,0,0,1-1.74-.45,15.11,15.11,0,0,1-1.6-.59,13.53,13.53,0,0,1-1.42-.74,10.22,10.22,0,0,1-1.25-.86,9.14,9.14,0,0,1-1.06-1,9,9,0,0,1-.85-1.1,8.3,8.3,0,0,1-.65-1.21,8.22,8.22,0,0,1-.42-1.3,7.93,7.93,0,0,1-.21-1.38,8.78,8.78,0,0,1,0-1.45,10.15,10.15,0,0,1,.24-1.5,11.61,11.61,0,0,1,.45-1.54,15,15,0,0,1,.67-1.56,16.38,16.38,0,0,1,.88-1.57c.33-.53.69-1,1.08-1.57s.81-1,1.27-1.54.94-1,1.45-1.5,1-1,1.61-1.46,1.15-.93,1.76-1.38,1.24-.89,1.89-1.31,1.32-.83,2-1.22,1.39-.76,2.1-1.12S173.12,87,173.85,86.68Z"/><path class="cls-6" d="M180,101.07c5.08-2.16,10-2.67,12.58-1.53a1.42,1.42,0,0,0-.07-.22c-1.13-2.66-7.07-2.66-13.26,0s-10.29,6.94-9.16,9.6a2.12,2.12,0,0,0,.12.2C171.17,106.44,174.91,103.25,180,101.07Z"/><path class="cls-7" d="M182.74,107.47c-5.08,2.18-10,2.68-12.57,1.54a.79.79,0,0,0,.06.22c1.14,2.66,7.07,2.66,13.27,0s10.29-7,9.16-9.6a2.12,2.12,0,0,1-.12-.2C191.57,102.11,187.81,105.31,182.74,107.47Z"/><path class="cls-7" d="M175.23,89.89c11.43-4.89,23-4,27,1.7a7.72,7.72,0,0,0-.5-1.68c-3-7.08-15.51-8.52-27.9-3.22s-20,15.32-16.94,22.41a7.83,7.83,0,0,0,.86,1.52c-1.32-6.92,6-15.84,17.46-20.73Z"/><path class="cls-5" d="M184.09,84a7.82,7.82,0,0,1,.72-1.17,8.24,8.24,0,0,1,.92-1,10.16,10.16,0,0,1,1.12-.92,11.18,11.18,0,0,1,1.3-.78,11.44,11.44,0,0,1,1.47-.64,15.52,15.52,0,0,1,1.63-.5c.57-.13,1.16-.25,1.77-.33a18.92,18.92,0,0,1,1.89-.18c.65,0,1.31,0,2,0s1.37.07,2.08.14,1.42.17,2.15.3,1.45.28,2.19.45,1.48.38,2.22.61,1.48.48,2.22.75,1.48.57,2.21.89,1.45.66,2.16,1,1.41.74,2.1,1.14,1.36.81,2,1.25,1.3.88,1.92,1.34,1.23.94,1.81,1.43,1.13,1,1.66,1.5,1,1,1.52,1.55.93,1.06,1.35,1.59.81,1.08,1.16,1.62.69,1.09,1,1.63.55,1.09.78,1.63.41,1.07.57,1.6a13.34,13.34,0,0,1,.35,1.56,11.45,11.45,0,0,1,.14,1.52,9.78,9.78,0,0,1-.08,1.44,7.77,7.77,0,0,1-.3,1.37,7.33,7.33,0,0,1-.51,1.27,7.73,7.73,0,0,1-.72,1.16,8.24,8.24,0,0,1-.92,1,9.14,9.14,0,0,1-1.12.92,11.24,11.24,0,0,1-1.3.79,12.29,12.29,0,0,1-1.47.64,15.51,15.51,0,0,1-1.63.49c-.57.14-1.16.25-1.77.34s-1.24.14-1.89.18-1.31,0-2,0-1.37-.07-2.08-.15-1.42-.17-2.15-.29-1.45-.28-2.19-.46-1.48-.38-2.22-.61-1.48-.47-2.22-.75-1.48-.57-2.2-.89-1.46-.65-2.17-1-1.41-.74-2.1-1.13-1.36-.82-2-1.25-1.3-.88-1.92-1.35-1.23-.93-1.81-1.42-1.13-1-1.66-1.5-1-1-1.52-1.56-.93-1-1.35-1.59S186.37,96.58,186,96s-.69-1.09-1-1.63-.55-1.08-.78-1.62-.41-1.07-.57-1.6a13,13,0,0,1-.35-1.57,11.31,11.31,0,0,1-.14-1.51,9.84,9.84,0,0,1,.08-1.45,7.66,7.66,0,0,1,.3-1.36A7,7,0,0,1,184.09,84Z"/><path class="cls-6" d="M206.64,93.52c-4.93-2.49-8.47-5.92-9.27-8.64a2,2,0,0,0-.12.19c-1.31,2.57,2.5,7.13,8.52,10.19s11.93,3.4,13.24.84c0-.07,0-.14.08-.22-2.67,1-7.5.13-12.45-2.36Z"/><path class="cls-7" d="M209.77,87.31c4.93,2.5,8.47,5.9,9.29,8.61a1.22,1.22,0,0,0,.12-.19c1.31-2.57-2.5-7.12-8.52-10.18s-11.93-3.4-13.24-.84c0,.07,0,.14-.07.21,2.64-.92,7.51-.1,12.42,2.39Z"/><path class="cls-7" d="M201.14,104.37c-11.09-5.61-17.84-15-16.08-21.79a8.36,8.36,0,0,0-1,1.46c-3.47,6.87,3.45,17.37,15.47,23.45s24.58,5.43,28.05-1.43a8.1,8.1,0,0,0,.61-1.64C223.81,109.87,212.27,110,201.14,104.37Z"/><path class="cls-5" d="M162.16,140.74a7.8,7.8,0,0,1,.32-1.33,8,8,0,0,1,.54-1.29,8.88,8.88,0,0,1,.76-1.23,11.59,11.59,0,0,1,1-1.16,15.62,15.62,0,0,1,1.19-1.08,14.87,14.87,0,0,1,1.39-1,15.63,15.63,0,0,1,1.57-.88c.55-.28,1.13-.54,1.73-.78s1.23-.45,1.89-.65,1.32-.38,2-.53,1.4-.29,2.13-.41,1.47-.2,2.22-.27,1.52-.11,2.3-.13,1.56,0,2.34,0,1.58.07,2.37.14,1.59.16,2.38.28,1.58.25,2.36.4,1.55.34,2.31.54,1.51.42,2.25.66,1.46.5,2.17.78,1.39.57,2.05.89,1.31.64,1.93,1,1.22.71,1.79,1.09,1.11.76,1.62,1.16,1,.81,1.45,1.23a16.76,16.76,0,0,1,1.25,1.29,14.47,14.47,0,0,1,1.06,1.34,13.16,13.16,0,0,1,.83,1.37,11.37,11.37,0,0,1,.62,1.39,10.26,10.26,0,0,1,.38,1.39,9.55,9.55,0,0,1,.16,1.39,8,8,0,0,1-.39,2.7,10.35,10.35,0,0,1-.54,1.29,10,10,0,0,1-.77,1.23,10.57,10.57,0,0,1-1,1.16,13.92,13.92,0,0,1-1.19,1.08,14.87,14.87,0,0,1-1.39,1c-.49.31-1,.61-1.56.89s-1.13.53-1.74.77a19.94,19.94,0,0,1-1.89.65q-1,.3-2,.54c-.7.15-1.41.29-2.14.4s-1.47.2-2.22.27-1.52.11-2.3.13-1.55,0-2.34,0-1.58-.07-2.37-.14-1.59-.16-2.38-.28-1.57-.25-2.35-.4-1.56-.34-2.32-.54-1.51-.42-2.25-.66-1.46-.5-2.16-.78-1.4-.57-2.06-.88-1.31-.65-1.93-1-1.22-.71-1.79-1.08-1.11-.77-1.62-1.17-1-.81-1.45-1.23a16.76,16.76,0,0,1-1.25-1.29,12.84,12.84,0,0,1-1-1.34,11.63,11.63,0,0,1-.84-1.36,11.1,11.1,0,0,1-.61-1.39,9.15,9.15,0,0,1-.39-1.4,8.21,8.21,0,0,1-.15-1.39A7.82,7.82,0,0,1,162.16,140.74Z"/><path class="cls-6" d="M186.05,145.91c5.44.79,9.91,2.91,11.55,5.23,0-.07.05-.14.06-.21.41-2.86-4.66-6-11.32-6.92s-12.4.58-12.81,3.43a.88.88,0,0,0,0,.23c2.18-1.77,7.06-2.55,12.52-1.76Z"/><path class="cls-7" d="M185.05,152.8c-5.43-.79-9.91-2.91-11.54-5.23a1.41,1.41,0,0,1-.06.22c-.42,2.86,4.66,6,11.32,6.92s12.4-.58,12.81-3.44a.81.81,0,0,0,0-.22c-2.19,1.76-7.05,2.54-12.53,1.75Z"/><path class="cls-7" d="M187.81,133.88c12.31,1.77,21.7,8.5,22.21,15.52a9,9,0,0,0,.44-1.7c1.1-7.62-8.83-15.35-22.15-17.27s-25,2.71-26.13,10.31a8.52,8.52,0,0,0-.05,1.75c2.44-6.59,13.35-10.39,25.68-8.61Z"/><path class="cls-5" d="M141.4,140a8.09,8.09,0,0,1,.9-1,8.45,8.45,0,0,1,1.08-.88,9.57,9.57,0,0,1,1.25-.74,11.19,11.19,0,0,1,1.41-.56,12.11,12.11,0,0,1,1.55-.4,14.78,14.78,0,0,1,1.68-.23c.59,0,1.19-.06,1.8-.05s1.25.06,1.9.13,1.3.17,2,.3,1.35.28,2,.47,1.37.4,2.07.64,1.39.5,2.09.8,1.4.61,2.1,1,1.39.71,2.07,1.1,1.36.79,2,1.23,1.33.88,2,1.35,1.27,1,1.89,1.46,1.22,1,1.8,1.55,1.14,1.08,1.68,1.63,1.06,1.13,1.55,1.7,1,1.16,1.41,1.75.86,1.18,1.25,1.77.74,1.19,1.07,1.79.63,1.19.9,1.79.5,1.18.7,1.76.37,1.16.51,1.73a14.31,14.31,0,0,1,.3,1.67,12.53,12.53,0,0,1,.11,1.6,12.18,12.18,0,0,1-.11,1.51,9,9,0,0,1-.82,2.72,7.76,7.76,0,0,1-.71,1.17,8.09,8.09,0,0,1-.9,1,9.18,9.18,0,0,1-1.07.89,9.65,9.65,0,0,1-1.26.73,11.67,11.67,0,0,1-1.4.56,11.13,11.13,0,0,1-1.56.4,14.78,14.78,0,0,1-1.68.23c-.59,0-1.18.06-1.8,0s-1.25-.06-1.9-.13-1.3-.17-2-.3-1.35-.28-2-.47-1.37-.4-2.07-.64-1.39-.5-2.09-.8-1.4-.61-2.1-.95-1.38-.71-2.07-1.09-1.36-.8-2-1.23-1.33-.88-2-1.35-1.27-1-1.89-1.46-1.22-1-1.8-1.56-1.14-1.07-1.68-1.63-1.06-1.12-1.55-1.7-1-1.16-1.41-1.74-.86-1.18-1.24-1.78-.75-1.19-1.08-1.79-.63-1.19-.89-1.78-.51-1.18-.71-1.77-.37-1.16-.51-1.72-.23-1.13-.3-1.68a12.5,12.5,0,0,1-.1-1.6,10.64,10.64,0,0,1,.1-1.51,9.43,9.43,0,0,1,.31-1.42,9.74,9.74,0,0,1,.51-1.3A8.68,8.68,0,0,1,141.4,140Z"/><path class="cls-6" d="M162.13,152.91c-4.46-3.24-7.42-7.19-7.77-10l-.15.17c-1.7,2.33,1.36,7.43,6.79,11.4s11.24,5.27,12.91,2.94c0-.06.07-.14.11-.2-2.75.53-7.43-1.05-11.89-4.3Z"/><path class="cls-7" d="M166.22,147.28c4.46,3.25,7.42,7.2,7.77,10,0-.06.11-.11.15-.17,1.7-2.34-1.36-7.47-6.79-11.4s-11.25-5.27-12.91-2.94c0,.06-.07.14-.11.21,2.75-.54,7.43,1,11.89,4.29Z"/><path class="cls-7" d="M155,162.75c-10.06-7.31-15.23-17.66-12.4-24.08A7.6,7.6,0,0,0,141.4,140c-4.53,6.22.64,17.66,11.55,25.61s23.39,9.29,27.91,3.07a7.73,7.73,0,0,0,.87-1.53c-5.27,4.68-16.69,2.95-26.75-4.36Z"/><path class="cls-5" d="M293.69,115.67a8.09,8.09,0,0,1,.9-1,8.52,8.52,0,0,1,1.08-.89,9.52,9.52,0,0,1,1.25-.73,11.19,11.19,0,0,1,1.41-.56,10.65,10.65,0,0,1,1.55-.4,15,15,0,0,1,1.69-.23c.58,0,1.18-.06,1.8,0s1.25.06,1.89.13,1.31.17,2,.3,1.34.28,2,.47,1.38.4,2.07.64,1.4.5,2.1.8,1.39.61,2.09,1,1.39.71,2.07,1.09,1.37.8,2,1.23,1.32.88,2,1.35,1.28,1,1.89,1.46,1.22,1,1.8,1.56,1.14,1.08,1.68,1.63,1.06,1.12,1.55,1.7,1,1.16,1.41,1.74.86,1.18,1.25,1.78.75,1.19,1.07,1.79.63,1.19.9,1.78.5,1.18.7,1.77a17.47,17.47,0,0,1,.51,1.72,14.93,14.93,0,0,1,.31,1.68,14.62,14.62,0,0,1,.1,1.6,10.62,10.62,0,0,1-.11,1.51,9.43,9.43,0,0,1-.31,1.42,7.62,7.62,0,0,1-.51,1.3,7.76,7.76,0,0,1-.71,1.17,7.3,7.3,0,0,1-.89,1,8.45,8.45,0,0,1-1.08.88,9.14,9.14,0,0,1-1.25.74,12.54,12.54,0,0,1-1.41.56,12.27,12.27,0,0,1-1.56.4,14.78,14.78,0,0,1-1.68.23c-.58,0-1.18.06-1.8.05s-1.25-.06-1.9-.13-1.3-.17-2-.3-1.35-.28-2-.47-1.38-.4-2.08-.64-1.39-.5-2.09-.8-1.4-.61-2.09-1-1.39-.71-2.08-1.1-1.36-.79-2-1.23-1.33-.88-2-1.35-1.28-1-1.9-1.46-1.21-1-1.79-1.55-1.15-1.08-1.69-1.63-1.05-1.13-1.55-1.7-1-1.16-1.4-1.75-.86-1.18-1.25-1.77-.75-1.19-1.08-1.79-.63-1.19-.89-1.79-.5-1.18-.71-1.76a16.78,16.78,0,0,1-.5-1.73,14.36,14.36,0,0,1-.31-1.67,12.5,12.5,0,0,1-.1-1.6,10,10,0,0,1,.41-2.93,9.24,9.24,0,0,1,.51-1.3A8.68,8.68,0,0,1,293.69,115.67Z"/><path class="cls-6" d="M314.42,128.6c-4.46-3.24-7.42-7.19-7.77-10a1.22,1.22,0,0,0-.15.17c-1.7,2.33,1.36,7.43,6.79,11.39s11.24,5.28,12.91,2.94c0-.06.07-.13.11-.2-2.76.53-7.4-1.05-11.89-4.3Z"/><path class="cls-7" d="M318.51,123c4.47,3.25,7.41,7.2,7.77,10,.05-.06.11-.11.15-.17,1.7-2.34-1.35-7.44-6.79-11.4s-11.24-5.27-12.9-2.94a1.32,1.32,0,0,0-.12.2c2.78-.54,7.42,1,11.89,4.29Z"/><path class="cls-7" d="M307.27,138.45c-10.06-7.31-15.23-17.66-12.4-24.09a7.66,7.66,0,0,0-1.18,1.3c-4.53,6.22.63,17.66,11.54,25.61s23.4,9.28,27.92,3.06a8.88,8.88,0,0,0,.87-1.53C328.75,147.48,317.33,145.76,307.27,138.45Z"/><path class="cls-5" d="M246.29,140.41c.57-.57,1.15-1.11,1.74-1.64s1.2-1,1.82-1.53,1.24-1,1.88-1.41,1.27-.87,1.92-1.26,1.29-.77,1.94-1.12,1.3-.66,2-.95,1.3-.55,1.94-.78,1.27-.43,1.9-.6,1.25-.31,1.86-.42,1.2-.18,1.78-.23,1.15-.05,1.7,0a11.88,11.88,0,0,1,1.6.16,10.27,10.27,0,0,1,1.48.34,8.8,8.8,0,0,1,1.35.53,8.05,8.05,0,0,1,1.2.71,8.74,8.74,0,0,1,1,.88,8.15,8.15,0,0,1,.88,1,8.48,8.48,0,0,1,.7,1.21,9,9,0,0,1,.53,1.35,11,11,0,0,1,.34,1.48,11.61,11.61,0,0,1,.14,1.6,13.76,13.76,0,0,1,0,1.69,16.24,16.24,0,0,1-.23,1.79,18.9,18.9,0,0,1-.43,1.85c-.17.63-.37,1.26-.6,1.9s-.5,1.29-.79,1.94-.61,1.29-1,1.94-.72,1.3-1.11,2-.83,1.28-1.27,1.91-.92,1.26-1.41,1.88-1,1.22-1.54,1.81-1.08,1.17-1.64,1.74-1.15,1.11-1.74,1.64-1.2,1-1.82,1.53-1.25.95-1.88,1.4-1.28.87-1.92,1.27-1.29.76-1.95,1.11-1.3.66-2,.95-1.29.55-1.93.78-1.28.43-1.91.6-1.24.31-1.85.42a16.66,16.66,0,0,1-3.48.27,13.57,13.57,0,0,1-1.6-.15,11.42,11.42,0,0,1-1.48-.35,8.8,8.8,0,0,1-1.35-.53,8.37,8.37,0,0,1-1.2-.7,8.22,8.22,0,0,1-1-.89,7.42,7.42,0,0,1-.88-1.05,9,9,0,0,1-.71-1.2,9.93,9.93,0,0,1-.52-1.35,10.11,10.11,0,0,1-.34-1.49,13.4,13.4,0,0,1-.15-1.59,14,14,0,0,1,.05-1.7,16.56,16.56,0,0,1,.23-1.79c.11-.6.25-1.22.42-1.85s.38-1.26.61-1.9.49-1.29.79-1.93.61-1.3.95-1.95.72-1.3,1.12-1.94.82-1.29,1.27-1.92.92-1.26,1.41-1.87,1-1.23,1.54-1.82S245.73,141,246.29,140.41Z"/><path class="cls-6" d="M254.91,149c-3.9,3.9-8.27,6.19-11.1,6.12a1.15,1.15,0,0,0,.14.17c2,2,7.55-.14,12.32-4.9s7-10.27,5-12.32A2.31,2.31,0,0,1,261,138c.09,2.79-2.21,7.18-6.12,11.07Z"/><path class="cls-7" d="M250,144.15c3.92-3.9,8.29-6.18,11.12-6.11-.05-.06-.09-.13-.14-.18-2-2-7.56.15-12.33,4.91s-7,10.27-4.94,12.31l.17.14c-.08-2.84,2.22-7.21,6.12-11.07Z"/><path class="cls-7" d="M263.5,157.66c-8.83,8.78-19.82,12.22-25.73,8.45a8.84,8.84,0,0,0,1.08,1.36c5.44,5.43,17.58,2.15,27.11-7.36s12.88-21.62,7.44-27.07A7.15,7.15,0,0,0,272,132c3.77,5.92.27,17-8.54,25.71Z"/><path class="cls-5" d="M82.25,128.12c.66-.45,1.34-.87,2-1.28s1.38-.79,2.08-1.15,1.4-.7,2.11-1,1.42-.61,2.13-.87,1.42-.51,2.12-.72,1.41-.4,2.1-.56,1.38-.29,2-.4,1.33-.17,2-.22,1.29-.06,1.9-.05,1.22.05,1.8.11a16.57,16.57,0,0,1,1.67.29,13.85,13.85,0,0,1,1.54.46,11.7,11.7,0,0,1,1.39.62,9,9,0,0,1,1.22.78,7.68,7.68,0,0,1,1,.92,7.9,7.9,0,0,1,.86,1.07,7.83,7.83,0,0,1,.67,1.2,8.79,8.79,0,0,1,.71,2.75,10.73,10.73,0,0,1,0,1.51,12.57,12.57,0,0,1-.16,1.6,14.59,14.59,0,0,1-.37,1.66q-.24.84-.57,1.71c-.23.57-.48,1.15-.77,1.73s-.61,1.17-1,1.75-.74,1.17-1.15,1.75-.84,1.16-1.31,1.73-1,1.13-1.47,1.69-1.05,1.1-1.61,1.64-1.15,1.05-1.75,1.56-1.22,1-1.85,1.49-1.29.94-2,1.39-1.34.87-2,1.27-1.38.79-2.08,1.15-1.4.71-2.11,1-1.42.61-2.13.87-1.42.51-2.12.72-1.41.4-2.1.56-1.38.29-2,.4-1.33.18-2,.22-1.29.07-1.9.06a17.36,17.36,0,0,1-1.8-.12,14.16,14.16,0,0,1-1.67-.29,12,12,0,0,1-1.54-.46,10.29,10.29,0,0,1-1.39-.62,10.07,10.07,0,0,1-1.22-.77,8.5,8.5,0,0,1-1-.93,7.33,7.33,0,0,1-.86-1.07,7.83,7.83,0,0,1-.67-1.2,8.83,8.83,0,0,1-.71-2.74,10.93,10.93,0,0,1,0-1.52,12.94,12.94,0,0,1,.16-1.6,15.08,15.08,0,0,1,.37-1.66c.16-.56.35-1.13.57-1.7s.48-1.16.77-1.74.61-1.17,1-1.75.74-1.17,1.15-1.75.84-1.15,1.31-1.72.95-1.14,1.47-1.7,1-1.1,1.61-1.63,1.15-1.06,1.75-1.57,1.22-1,1.85-1.49S81.59,128.56,82.25,128.12Z"/><path class="cls-6" d="M91,141.12c4.59-3.07,9.32-4.49,12.07-3.85a1.24,1.24,0,0,0-.1-.2c-1.61-2.4-7.47-1.3-13,2.45s-8.83,8.74-7.22,11.13a1.22,1.22,0,0,0,.15.17C83.27,148,86.38,144.19,91,141.12Z"/><path class="cls-7" d="M94.83,146.87c-4.58,3.07-9.31,4.48-12.07,3.85,0,.06.06.13.1.2,1.61,2.4,7.48,1.3,13-2.45s8.83-8.74,7.21-11.14l-.15-.17c-.45,2.82-3.56,6.67-8.14,9.71Z"/><path class="cls-7" d="M84.18,131c10.33-6.93,21.81-8.22,26.88-3.35a7.7,7.7,0,0,0-.81-1.56c-4.28-6.39-16.82-5.49-28,2s-16.78,18.76-12.49,25.13a8.68,8.68,0,0,0,1.13,1.36c-2.58-6.57,3-16.7,13.3-23.62Z"/><line class="cls-8" x1="191.86" y1="210.67" x2="239.91" y2="168.38"/><line class="cls-8" x1="269.96" y1="118.6" x2="292.61" y2="75.4"/><line class="cls-8" x1="124.99" y1="110.18" x2="103.76" y2="74.49"/><line class="cls-8" x1="161.14" y1="56.87" x2="169.72" y2="69.52"/><polyline class="cls-9" points="54.05 77.55 49.1 77.55 49.1 206.76 54.05 206.76"/><path class="cls-10" d="M257.18,67h-2.69v2.82h-.84v-6.4h4v.69h-3.12v2.2h2.69Z"/><path class="cls-10" d="M261.28,69.81a2,2,0,0,1-.11-.5,1.83,1.83,0,0,1-1.35.59,1.67,1.67,0,0,1-1.16-.4,1.28,1.28,0,0,1-.45-1,1.34,1.34,0,0,1,.57-1.15,2.67,2.67,0,0,1,1.59-.41h.79v-.37a.91.91,0,0,0-.26-.68,1,1,0,0,0-.75-.26,1.24,1.24,0,0,0-.73.22.65.65,0,0,0-.29.54h-.82a1.11,1.11,0,0,1,.25-.69,1.77,1.77,0,0,1,.69-.53,2.27,2.27,0,0,1,.95-.19,1.9,1.9,0,0,1,1.29.41,1.48,1.48,0,0,1,.48,1.13V68.7a2.68,2.68,0,0,0,.17,1v.07Zm-1.35-.62a1.45,1.45,0,0,0,.73-.19,1.31,1.31,0,0,0,.5-.52v-1h-.64c-1,0-1.49.29-1.49.87a.76.76,0,0,0,.25.6A1,1,0,0,0,259.93,69.19Z"/><path class="cls-10" d="M265.15,69.24a1.16,1.16,0,0,0,.76-.27.88.88,0,0,0,.36-.66H267a1.43,1.43,0,0,1-.28.78,1.81,1.81,0,0,1-.69.59,2,2,0,0,1-.92.22,2,2,0,0,1-1.54-.65,2.53,2.53,0,0,1-.58-1.77v-.14a2.85,2.85,0,0,1,.26-1.23,1.93,1.93,0,0,1,.73-.84,2.07,2.07,0,0,1,1.13-.3,1.92,1.92,0,0,1,1.33.48,1.7,1.7,0,0,1,.56,1.24h-.77a1.09,1.09,0,0,0-1.12-1,1.13,1.13,0,0,0-1,.44,2.09,2.09,0,0,0-.34,1.29v.16a2.06,2.06,0,0,0,.33,1.26A1.15,1.15,0,0,0,265.15,69.24Z"/><path class="cls-10" d="M269.06,63.91v1.15H270v.63h-.89v3a.67.67,0,0,0,.12.43.51.51,0,0,0,.4.14,2.57,2.57,0,0,0,.39,0v.65a2.34,2.34,0,0,1-.63.09,1,1,0,0,1-.82-.33,1.44,1.44,0,0,1-.28-.94V65.69h-.86v-.63h.86V63.91Z"/><path class="cls-10" d="M270.59,67.39a2.77,2.77,0,0,1,.28-1.26,2.05,2.05,0,0,1,.76-.86,2.11,2.11,0,0,1,1.12-.3,2,2,0,0,1,1.57.67,2.6,2.6,0,0,1,.6,1.79v.06a2.76,2.76,0,0,1-.27,1.24,1.93,1.93,0,0,1-.76.86,2,2,0,0,1-1.13.31,2,2,0,0,1-1.57-.67,2.57,2.57,0,0,1-.6-1.78Zm.82.1a2,2,0,0,0,.37,1.27,1.16,1.16,0,0,0,1,.48,1.15,1.15,0,0,0,1-.49,2.18,2.18,0,0,0,.37-1.36,2.1,2.1,0,0,0-.37-1.27,1.19,1.19,0,0,0-1-.48,1.16,1.16,0,0,0-1,.48A2.17,2.17,0,0,0,271.41,67.49Z"/><path class="cls-10" d="M278.24,65.79a2.6,2.6,0,0,0-.4,0,1.06,1.06,0,0,0-1.09.68v3.37h-.81V65.06h.79v.55a1.27,1.27,0,0,1,1.14-.64.87.87,0,0,1,.36.06Z"/><path class="cls-10" d="M281,67.4a2.81,2.81,0,0,1,.51-1.76,1.76,1.76,0,0,1,2.68-.1V63.06H285v6.75h-.75l0-.51a1.65,1.65,0,0,1-1.36.6,1.58,1.58,0,0,1-1.34-.68,2.79,2.79,0,0,1-.52-1.76Zm.81.09a2.1,2.1,0,0,0,.33,1.26,1.06,1.06,0,0,0,.92.46,1.18,1.18,0,0,0,1.13-.69V66.33a1.18,1.18,0,0,0-1.12-.67,1.08,1.08,0,0,0-.93.46A2.35,2.35,0,0,0,281.83,67.49Z"/><path class="cls-10" d="M288.26,69.9a2.08,2.08,0,0,1-1.57-.63,2.35,2.35,0,0,1-.61-1.7v-.15a2.92,2.92,0,0,1,.27-1.27,2.08,2.08,0,0,1,.76-.87,1.87,1.87,0,0,1,1.05-.31,1.76,1.76,0,0,1,1.44.61,2.61,2.61,0,0,1,.52,1.75v.34H286.9a1.61,1.61,0,0,0,.41,1.13,1.28,1.28,0,0,0,1,.44,1.35,1.35,0,0,0,.72-.18,1.93,1.93,0,0,0,.53-.46l.49.38A2,2,0,0,1,288.26,69.9Zm-.1-4.26a1.1,1.1,0,0,0-.83.36,1.73,1.73,0,0,0-.41,1h2.38v-.06a1.53,1.53,0,0,0-.33-1A1,1,0,0,0,288.16,65.64Z"/><path class="cls-10" d="M295.19,69.24A1.14,1.14,0,0,0,296,69a.88.88,0,0,0,.36-.66h.77a1.43,1.43,0,0,1-.28.78,1.81,1.81,0,0,1-.69.59,2,2,0,0,1-.92.22,2,2,0,0,1-1.54-.65,2.58,2.58,0,0,1-.58-1.77v-.14a2.85,2.85,0,0,1,.26-1.23,1.93,1.93,0,0,1,.73-.84,2.07,2.07,0,0,1,1.13-.3,1.92,1.92,0,0,1,1.33.48,1.7,1.7,0,0,1,.56,1.24h-.77a1.09,1.09,0,0,0-1.12-1,1.15,1.15,0,0,0-1,.44,2.09,2.09,0,0,0-.34,1.29v.16a2,2,0,0,0,.34,1.26A1.12,1.12,0,0,0,295.19,69.24Z"/><path class="cls-10" d="M297.78,67.39a2.77,2.77,0,0,1,.28-1.26,2.05,2.05,0,0,1,.76-.86,2.11,2.11,0,0,1,1.12-.3,2,2,0,0,1,1.57.67,2.6,2.6,0,0,1,.6,1.79v.06a2.76,2.76,0,0,1-.27,1.24,1.93,1.93,0,0,1-.76.86,2.06,2.06,0,0,1-1.13.31,2,2,0,0,1-1.57-.67,2.57,2.57,0,0,1-.6-1.78Zm.82.1a2.06,2.06,0,0,0,.36,1.27,1.19,1.19,0,0,0,1,.48,1.15,1.15,0,0,0,1-.49,2.24,2.24,0,0,0,.37-1.36,2,2,0,0,0-.38-1.27,1.23,1.23,0,0,0-1.95,0A2.17,2.17,0,0,0,298.6,67.49Z"/><path class="cls-10" d="M306.06,69.81a2,2,0,0,1-.11-.5,1.83,1.83,0,0,1-1.35.59,1.67,1.67,0,0,1-1.16-.4,1.28,1.28,0,0,1-.45-1,1.34,1.34,0,0,1,.57-1.15,2.67,2.67,0,0,1,1.59-.41h.79v-.37a.91.91,0,0,0-.26-.68,1,1,0,0,0-.75-.26,1.24,1.24,0,0,0-.73.22.65.65,0,0,0-.29.54h-.82a1.11,1.11,0,0,1,.25-.69,1.77,1.77,0,0,1,.69-.53,2.27,2.27,0,0,1,1-.19,1.9,1.9,0,0,1,1.29.41,1.48,1.48,0,0,1,.48,1.13V68.7a2.68,2.68,0,0,0,.17,1v.07Zm-1.35-.62a1.45,1.45,0,0,0,.73-.19,1.31,1.31,0,0,0,.5-.52v-1h-.64c-1,0-1.49.29-1.49.87a.76.76,0,0,0,.25.6A1,1,0,0,0,304.71,69.19Z"/><path class="cls-10" d="M307.83,67.4a2.8,2.8,0,0,1,.51-1.77,1.78,1.78,0,0,1,2.73,0l0-.53h.75V69.7a1.94,1.94,0,0,1-.55,1.45,2,2,0,0,1-1.47.53,2.58,2.58,0,0,1-1-.21,1.76,1.76,0,0,1-.75-.61l.42-.48a1.59,1.59,0,0,0,1.28.64,1.26,1.26,0,0,0,.93-.33,1.3,1.3,0,0,0,.33-.94v-.41a1.69,1.69,0,0,1-1.33.56,1.61,1.61,0,0,1-1.35-.67A2.91,2.91,0,0,1,307.83,67.4Zm.82.09a2.12,2.12,0,0,0,.33,1.26,1.05,1.05,0,0,0,.92.46,1.19,1.19,0,0,0,1.13-.7V66.34a1.21,1.21,0,0,0-1.12-.68,1.07,1.07,0,0,0-.93.46A2.35,2.35,0,0,0,308.65,67.49Z"/><path class="cls-10" d="M316,69.34a1.74,1.74,0,0,1-1.39.56,1.49,1.49,0,0,1-1.16-.44,1.88,1.88,0,0,1-.4-1.31V65.06h.81v3.07c0,.72.29,1.08.88,1.08a1.22,1.22,0,0,0,1.24-.69V65.06h.81v4.75H316Z"/><path class="cls-10" d="M318.92,69.81h-.81V63.06h.81Z"/><path class="cls-10" d="M323.15,69.81a2,2,0,0,1-.11-.5,1.83,1.83,0,0,1-1.35.59,1.67,1.67,0,0,1-1.16-.4,1.28,1.28,0,0,1-.45-1,1.34,1.34,0,0,1,.57-1.15,2.67,2.67,0,0,1,1.59-.41H323v-.37a.91.91,0,0,0-.26-.68,1,1,0,0,0-.75-.26,1.24,1.24,0,0,0-.73.22.65.65,0,0,0-.29.54h-.82a1.11,1.11,0,0,1,.25-.69,1.77,1.77,0,0,1,.69-.53,2.27,2.27,0,0,1,.95-.19,1.9,1.9,0,0,1,1.29.41,1.48,1.48,0,0,1,.48,1.13V68.7a2.68,2.68,0,0,0,.17,1v.07Zm-1.35-.62a1.45,1.45,0,0,0,.73-.19,1.31,1.31,0,0,0,.5-.52v-1h-.64c-1,0-1.49.29-1.49.87a.76.76,0,0,0,.25.6A1,1,0,0,0,321.8,69.19Z"/><path class="cls-10" d="M327,69.24a1.14,1.14,0,0,0,.76-.27.88.88,0,0,0,.36-.66h.77a1.43,1.43,0,0,1-.28.78,1.81,1.81,0,0,1-.69.59,2,2,0,0,1-.92.22,2,2,0,0,1-1.54-.65,2.58,2.58,0,0,1-.58-1.77v-.14a2.85,2.85,0,0,1,.26-1.23,1.93,1.93,0,0,1,.73-.84A2.07,2.07,0,0,1,327,65a1.92,1.92,0,0,1,1.33.48,1.7,1.7,0,0,1,.56,1.24h-.77a1.09,1.09,0,0,0-1.12-1,1.15,1.15,0,0,0-1,.44,2.09,2.09,0,0,0-.34,1.29v.16a2,2,0,0,0,.34,1.26A1.12,1.12,0,0,0,327,69.24Z"/><path class="cls-10" d="M329.83,63.8a.49.49,0,0,1,.12-.34.56.56,0,0,1,.72,0,.49.49,0,0,1,.12.34.48.48,0,0,1-.12.33.56.56,0,0,1-.72,0A.48.48,0,0,1,329.83,63.8Zm.88,6h-.81V65.06h.81Z"/><path class="cls-10" d="M331.79,67.39a2.91,2.91,0,0,1,.28-1.26A2,2,0,0,1,334,65a2,2,0,0,1,1.57.67,2.6,2.6,0,0,1,.6,1.79v.06a2.89,2.89,0,0,1-.26,1.24,2,2,0,0,1-.76.86,2.07,2.07,0,0,1-1.14.31,2,2,0,0,1-1.57-.67,2.57,2.57,0,0,1-.6-1.78Zm.82.1a2,2,0,0,0,.37,1.27,1.16,1.16,0,0,0,1,.48,1.18,1.18,0,0,0,1-.49,2.24,2.24,0,0,0,.36-1.36,2,2,0,0,0-.37-1.27,1.19,1.19,0,0,0-1-.48,1.17,1.17,0,0,0-1,.48A2.17,2.17,0,0,0,332.61,67.49Zm1.71-4.43h1l-1.18,1.29h-.66Z"/><path class="cls-10" d="M337.91,65.06l0,.6a1.73,1.73,0,0,1,1.42-.69c1,0,1.51.57,1.52,1.7v3.14h-.81V66.67a1,1,0,0,0-.24-.76.91.91,0,0,0-.72-.25,1.17,1.17,0,0,0-.69.21,1.57,1.57,0,0,0-.47.55v3.39h-.81V65.06Z"/><path class="cls-10" d="M180.49,214.3a4.07,4.07,0,0,1-1.58-.76,1.48,1.48,0,0,1-.49-1.13,1.56,1.56,0,0,1,.6-1.25,2.42,2.42,0,0,1,1.57-.49,2.62,2.62,0,0,1,1.18.25,2,2,0,0,1,.8.71,1.78,1.78,0,0,1,.28,1H182a1.2,1.2,0,0,0-.37-.92,1.54,1.54,0,0,0-1-.33,1.55,1.55,0,0,0-1,.27.94.94,0,0,0-.35.77.82.82,0,0,0,.33.66,3.27,3.27,0,0,0,1.13.5,5.15,5.15,0,0,1,1.25.49,2,2,0,0,1,.67.63,1.65,1.65,0,0,1,.22.85,1.53,1.53,0,0,1-.61,1.25,2.58,2.58,0,0,1-1.62.46,3,3,0,0,1-1.23-.25,2.06,2.06,0,0,1-.88-.69,1.67,1.67,0,0,1-.31-1h.85a1.12,1.12,0,0,0,.42.92,1.85,1.85,0,0,0,1.15.33,1.65,1.65,0,0,0,1-.27.88.88,0,0,0,.36-.74.86.86,0,0,0-.33-.73A3.91,3.91,0,0,0,180.49,214.3Z"/><path class="cls-10" d="M186.76,217.16a1.72,1.72,0,0,1-.12-.51,1.79,1.79,0,0,1-1.35.59,1.71,1.71,0,0,1-1.16-.39,1.31,1.31,0,0,1-.45-1,1.35,1.35,0,0,1,.57-1.16,2.67,2.67,0,0,1,1.59-.41h.79v-.37a.91.91,0,0,0-.26-.68,1,1,0,0,0-.75-.25,1.17,1.17,0,0,0-.73.22.64.64,0,0,0-.29.53h-.82A1.11,1.11,0,0,1,184,213a1.66,1.66,0,0,1,.69-.52,2.28,2.28,0,0,1,.95-.2,1.9,1.9,0,0,1,1.29.41,1.48,1.48,0,0,1,.48,1.13V216a2.65,2.65,0,0,0,.17,1v.08Zm-1.35-.62a1.45,1.45,0,0,0,.72-.2,1.19,1.19,0,0,0,.5-.52v-1H186c-1,0-1.49.29-1.49.87a.73.73,0,0,0,.25.6A1,1,0,0,0,185.41,216.54Z"/><path class="cls-10" d="M189.49,212.4l0,.6a1.73,1.73,0,0,1,1.43-.69c1,0,1.51.57,1.52,1.7v3.15h-.82V214a1.1,1.1,0,0,0-.23-.76.93.93,0,0,0-.72-.25,1.15,1.15,0,0,0-.69.21,1.43,1.43,0,0,0-.47.56v3.39h-.81V212.4Z"/><path class="cls-10" d="M193.49,214.74A2.82,2.82,0,0,1,194,213a1.65,1.65,0,0,1,1.36-.66,1.62,1.62,0,0,1,1.36.62l0-.53h.74V217a2,2,0,0,1-.54,1.46,2.05,2.05,0,0,1-1.47.53,2.55,2.55,0,0,1-1-.22,1.76,1.76,0,0,1-.75-.6l.42-.49a1.59,1.59,0,0,0,1.28.64,1.15,1.15,0,0,0,1.26-1.27v-.41a1.66,1.66,0,0,1-1.33.56,1.64,1.64,0,0,1-1.36-.67A3,3,0,0,1,193.49,214.74Zm.82.09a2.17,2.17,0,0,0,.32,1.26,1.08,1.08,0,0,0,.93.46,1.19,1.19,0,0,0,1.13-.7v-2.17a1.22,1.22,0,0,0-1.12-.68,1.09,1.09,0,0,0-.93.46A2.37,2.37,0,0,0,194.31,214.83Z"/><path class="cls-10" d="M201,213.13a2.5,2.5,0,0,0-.4,0,1.08,1.08,0,0,0-1.09.68v3.38h-.81V212.4h.79l0,.55a1.24,1.24,0,0,1,1.13-.64.84.84,0,0,1,.36.06Z"/><path class="cls-10" d="M203.67,217.24a2.1,2.1,0,0,1-1.58-.63,2.38,2.38,0,0,1-.6-1.7v-.15a2.84,2.84,0,0,1,.27-1.26,2.13,2.13,0,0,1,.75-.87,1.94,1.94,0,0,1,1.06-.32,1.82,1.82,0,0,1,1.44.61,2.67,2.67,0,0,1,.51,1.75V215H202.3a1.7,1.7,0,0,0,.41,1.14,1.29,1.29,0,0,0,1,.43,1.39,1.39,0,0,0,.73-.18,1.74,1.74,0,0,0,.52-.46l.5.38A2,2,0,0,1,203.67,217.24Zm-.1-4.26a1.08,1.08,0,0,0-.83.36,1.73,1.73,0,0,0-.41,1h2.38v-.06a1.6,1.6,0,0,0-.34-1A1,1,0,0,0,203.57,213Z"/><path class="cls-10" d="M147,51.62a2.37,2.37,0,0,1-.75,1.57,2.49,2.49,0,0,1-1.67.55,2.25,2.25,0,0,1-1.82-.81,3.27,3.27,0,0,1-.68-2.18v-.62a3.65,3.65,0,0,1,.31-1.56,2.38,2.38,0,0,1,.91-1,2.53,2.53,0,0,1,1.35-.37,2.3,2.3,0,0,1,1.63.57,2.41,2.41,0,0,1,.72,1.58h-.85a1.85,1.85,0,0,0-.47-1.11,1.46,1.46,0,0,0-1-.35,1.52,1.52,0,0,0-1.27.6,2.79,2.79,0,0,0-.46,1.7v.62a2.82,2.82,0,0,0,.44,1.66,1.4,1.4,0,0,0,1.22.62,1.63,1.63,0,0,0,1.07-.32,1.75,1.75,0,0,0,.5-1.11Z"/><path class="cls-10" d="M147.8,51.23a2.84,2.84,0,0,1,.27-1.26A2,2,0,0,1,150,48.81a2,2,0,0,1,1.57.67,2.58,2.58,0,0,1,.6,1.79v.06a2.79,2.79,0,0,1-.27,1.24,2,2,0,0,1-.76.86,2.06,2.06,0,0,1-1.13.31,2,2,0,0,1-1.57-.67,2.59,2.59,0,0,1-.6-1.78Zm.82.1A2.08,2.08,0,0,0,149,52.6a1.19,1.19,0,0,0,1,.47,1.16,1.16,0,0,0,1-.48,2.24,2.24,0,0,0,.37-1.36,2,2,0,0,0-.38-1.27,1.16,1.16,0,0,0-1-.48,1.18,1.18,0,0,0-1,.47A2.2,2.2,0,0,0,148.62,51.33Z"/><path class="cls-10" d="M156.08,53.65a2,2,0,0,1-.11-.5,1.83,1.83,0,0,1-1.36.59,1.66,1.66,0,0,1-1.15-.4,1.28,1.28,0,0,1-.45-1,1.34,1.34,0,0,1,.57-1.15,2.65,2.65,0,0,1,1.58-.41h.8v-.38a.89.89,0,0,0-.26-.67,1,1,0,0,0-.75-.26,1.24,1.24,0,0,0-.73.22.66.66,0,0,0-.3.53h-.81a1.1,1.1,0,0,1,.25-.68,1.77,1.77,0,0,1,.69-.53,2.24,2.24,0,0,1,.95-.19,1.89,1.89,0,0,1,1.28.41,1.44,1.44,0,0,1,.49,1.13v2.19a2.51,2.51,0,0,0,.17,1v.07ZM154.73,53a1.36,1.36,0,0,0,.73-.2,1.23,1.23,0,0,0,.5-.51v-1h-.64c-1,0-1.5.29-1.5.88a.76.76,0,0,0,.26.6A1,1,0,0,0,154.73,53Z"/><path class="cls-10" d="M157.85,51.23a2.77,2.77,0,0,1,.51-1.76,1.66,1.66,0,0,1,1.37-.66,1.61,1.61,0,0,1,1.35.61l0-.52h.75v4.64a1.94,1.94,0,0,1-.55,1.45,2,2,0,0,1-1.47.53,2.42,2.42,0,0,1-1-.22,1.67,1.67,0,0,1-.75-.6l.42-.49a1.61,1.61,0,0,0,1.28.65,1.26,1.26,0,0,0,.93-.33,1.31,1.31,0,0,0,.33-1v-.4a1.69,1.69,0,0,1-1.33.56,1.63,1.63,0,0,1-1.35-.67A2.92,2.92,0,0,1,157.85,51.23Zm.82.1a2.14,2.14,0,0,0,.33,1.26,1.05,1.05,0,0,0,.92.46,1.19,1.19,0,0,0,1.13-.7V50.18a1.19,1.19,0,0,0-1.12-.68A1.07,1.07,0,0,0,159,50,2.35,2.35,0,0,0,158.67,51.33Z"/><path class="cls-10" d="M166,53.18a1.74,1.74,0,0,1-1.39.56,1.49,1.49,0,0,1-1.16-.44,1.94,1.94,0,0,1-.41-1.31V48.9h.82V52c0,.72.29,1.08.88,1.08a1.22,1.22,0,0,0,1.24-.7V48.9h.81v4.75h-.77Z"/><path class="cls-10" d="M168.94,53.65h-.82V46.9h.82Z"/><path class="cls-10" d="M170,51.23A2.72,2.72,0,0,1,170.3,50a2.06,2.06,0,0,1,.76-.86,2.11,2.11,0,0,1,1.12-.3,2,2,0,0,1,1.57.67,2.58,2.58,0,0,1,.6,1.79v.06a2.93,2.93,0,0,1-.26,1.24,2,2,0,0,1-.77.86,2.19,2.19,0,0,1-2.7-.36,2.59,2.59,0,0,1-.6-1.78Zm.82.1a2,2,0,0,0,.37,1.27,1.25,1.25,0,0,0,2,0,2.18,2.18,0,0,0,.37-1.36,2.1,2.1,0,0,0-.37-1.27,1.19,1.19,0,0,0-1-.48,1.18,1.18,0,0,0-1,.47A2.2,2.2,0,0,0,170.84,51.33Z"/><path class="cls-10" d="M82.69,70.25v2.51h-.84v-6.4h2.36a2.38,2.38,0,0,1,1.64.53,2,2,0,0,1,0,2.86,2.52,2.52,0,0,1-1.67.5Zm0-.69h1.52a1.54,1.54,0,0,0,1-.32,1.16,1.16,0,0,0,.36-.92,1.22,1.22,0,0,0-.36-.92,1.42,1.42,0,0,0-1-.35H82.69Z"/><path class="cls-10" d="M88.28,72.76h-.81V66h.81Z"/><path class="cls-10" d="M92.52,72.76a1.5,1.5,0,0,1-.11-.51,1.8,1.8,0,0,1-1.36.59,1.69,1.69,0,0,1-1.15-.39,1.31,1.31,0,0,1-.45-1A1.37,1.37,0,0,1,90,70.28a2.71,2.71,0,0,1,1.59-.41h.79V69.5a.91.91,0,0,0-.25-.68,1,1,0,0,0-.75-.25,1.15,1.15,0,0,0-.73.22.63.63,0,0,0-.3.53h-.82a1.12,1.12,0,0,1,.26-.69,1.63,1.63,0,0,1,.68-.52,2.31,2.31,0,0,1,1-.2,1.9,1.9,0,0,1,1.29.41,1.48,1.48,0,0,1,.48,1.13v2.19a2.65,2.65,0,0,0,.17,1v.08Zm-1.35-.62a1.46,1.46,0,0,0,.73-.2,1.22,1.22,0,0,0,.49-.52v-1h-.64c-1,0-1.49.29-1.49.87a.74.74,0,0,0,.26.6A1,1,0,0,0,91.17,72.14Z"/><path class="cls-10" d="M94.28,70.34a2.83,2.83,0,0,1,.51-1.78,1.7,1.7,0,0,1,1.38-.65,1.67,1.67,0,0,1,1.34.57l0-.48h.75v6.58h-.81V72.32a1.72,1.72,0,0,1-1.31.52,1.63,1.63,0,0,1-1.38-.67,2.84,2.84,0,0,1-.51-1.77Zm.81.09a2.09,2.09,0,0,0,.35,1.28,1.1,1.1,0,0,0,.93.47,1.22,1.22,0,0,0,1.11-.64V69.21a1.23,1.23,0,0,0-1.1-.63,1.11,1.11,0,0,0-.94.47A2.3,2.3,0,0,0,95.09,70.43Z"/><path class="cls-10" d="M102.53,72.28a1.7,1.7,0,0,1-1.39.56A1.45,1.45,0,0,1,100,72.4a1.87,1.87,0,0,1-.4-1.31V68h.81v3.07c0,.72.29,1.08.88,1.08a1.22,1.22,0,0,0,1.24-.69V68h.81v4.76h-.77Z"/><path class="cls-10" d="M106.53,72.84a2.06,2.06,0,0,1-1.57-.63,2.35,2.35,0,0,1-.61-1.7v-.15a2.84,2.84,0,0,1,.27-1.26,2.13,2.13,0,0,1,.75-.87,1.94,1.94,0,0,1,1.06-.32,1.79,1.79,0,0,1,1.44.61,2.67,2.67,0,0,1,.51,1.75v.34h-3.22a1.7,1.7,0,0,0,.41,1.14,1.29,1.29,0,0,0,1,.43,1.39,1.39,0,0,0,.73-.18,1.63,1.63,0,0,0,.52-.46l.5.38A2,2,0,0,1,106.53,72.84Zm-.1-4.26a1.08,1.08,0,0,0-.83.36,1.73,1.73,0,0,0-.41,1h2.38v-.06a1.53,1.53,0,0,0-.33-1A1,1,0,0,0,106.43,68.58Z"/><path class="cls-10" d="M110.43,66.85V68h.88v.63h-.88v3a.67.67,0,0,0,.12.43.46.46,0,0,0,.4.14,1.71,1.71,0,0,0,.39-.05v.66a2.86,2.86,0,0,1-.63.08,1,1,0,0,1-.82-.33,1.43,1.43,0,0,1-.28-.93v-3h-.86V68h.86V66.85Z"/><path class="cls-10" d="M115.2,72.76a1.72,1.72,0,0,1-.12-.51,1.76,1.76,0,0,1-1.35.59,1.69,1.69,0,0,1-1.15-.39,1.31,1.31,0,0,1-.45-1,1.37,1.37,0,0,1,.56-1.16,2.71,2.71,0,0,1,1.59-.41h.79V69.5a.91.91,0,0,0-.25-.68,1,1,0,0,0-.75-.25,1.15,1.15,0,0,0-.73.22.63.63,0,0,0-.3.53h-.82a1.12,1.12,0,0,1,.26-.69,1.63,1.63,0,0,1,.68-.52,2.31,2.31,0,0,1,1-.2,1.9,1.9,0,0,1,1.29.41,1.48,1.48,0,0,1,.48,1.13v2.19a2.65,2.65,0,0,0,.17,1v.08Zm-1.35-.62a1.39,1.39,0,0,0,.72-.2,1.19,1.19,0,0,0,.5-.52v-1h-.64c-1,0-1.49.29-1.49.87a.74.74,0,0,0,.26.6A1,1,0,0,0,113.85,72.14Z"/><path class="cls-10" d="M38.81,172l-5.28-1.83v-.92l6.4,2.38v.74l-6.4,2.37v-.92Z"/><path class="cls-10" d="M39.93,165.74a1.63,1.63,0,0,1-.5.11,1.83,1.83,0,0,1,.59,1.36,1.65,1.65,0,0,1-.4,1.15,1.28,1.28,0,0,1-1,.45,1.36,1.36,0,0,1-1.15-.56,2.71,2.71,0,0,1-.41-1.59v-.79h-.37a.91.91,0,0,0-.68.25,1,1,0,0,0-.26.75,1.22,1.22,0,0,0,.22.73.66.66,0,0,0,.54.3v.81a1.11,1.11,0,0,1-.69-.25,1.81,1.81,0,0,1-.53-.68,2.32,2.32,0,0,1-.19-1,1.89,1.89,0,0,1,.41-1.28,1.53,1.53,0,0,1,1.13-.49h2.19a2.7,2.7,0,0,0,1-.16h.07Zm-.62,1.35a1.36,1.36,0,0,0-.2-.73,1.14,1.14,0,0,0-.51-.49h-1v.63q0,1.5.87,1.5a.76.76,0,0,0,.6-.26A1,1,0,0,0,39.31,167.09Z"/><path class="cls-10" d="M38.67,161a.58.58,0,0,0-.51.25,2.29,2.29,0,0,0-.31.87,4.5,4.5,0,0,1-.32,1,1.32,1.32,0,0,1-.44.53,1,1,0,0,1-.61.18,1.24,1.24,0,0,1-1-.5,1.92,1.92,0,0,1-.4-1.26,2,2,0,0,1,.42-1.31,1.31,1.31,0,0,1,1.06-.51v.82a.72.72,0,0,0-.57.28,1.08,1.08,0,0,0-.24.72,1.11,1.11,0,0,0,.19.69.61.61,0,0,0,.51.25.5.5,0,0,0,.44-.23,2.91,2.91,0,0,0,.29-.84,4.61,4.61,0,0,1,.32-1,1.46,1.46,0,0,1,.46-.56,1.1,1.1,0,0,1,.64-.18,1.23,1.23,0,0,1,1,.51A2.17,2.17,0,0,1,40,162a2.46,2.46,0,0,1-.2,1,1.77,1.77,0,0,1-.57.69,1.32,1.32,0,0,1-.78.25v-.82a.84.84,0,0,0,.65-.32,1.3,1.3,0,0,0,.24-.81,1.35,1.35,0,0,0-.19-.74A.56.56,0,0,0,38.67,161Z"/><path class="cls-10" d="M37.51,159.35a2.91,2.91,0,0,1-1.26-.27,2,2,0,0,1-1.16-1.88,2,2,0,0,1,.67-1.57,2.6,2.6,0,0,1,1.79-.6h.06a2.75,2.75,0,0,1,1.24.26,2,2,0,0,1,.86.76,2.07,2.07,0,0,1,.31,1.14,2,2,0,0,1-.67,1.56,2.53,2.53,0,0,1-1.78.6Zm.1-.81a2.06,2.06,0,0,0,1.27-.37,1.16,1.16,0,0,0,.48-1,1.18,1.18,0,0,0-.49-1,2.24,2.24,0,0,0-1.36-.36,2,2,0,0,0-1.27.37,1.19,1.19,0,0,0-.48,1,1.17,1.17,0,0,0,.48,1A2.23,2.23,0,0,0,37.61,158.54Z"/><path class="cls-10" d="M38.67,149a.58.58,0,0,0-.51.25,2.23,2.23,0,0,0-.31.86,4.32,4.32,0,0,1-.32,1,1.35,1.35,0,0,1-.44.54,1,1,0,0,1-.61.17,1.23,1.23,0,0,1-1-.49,1.92,1.92,0,0,1-.4-1.26,2,2,0,0,1,.42-1.32,1.33,1.33,0,0,1,1.06-.5v.82a.72.72,0,0,0-.57.28,1.08,1.08,0,0,0-.24.72,1.11,1.11,0,0,0,.19.69.61.61,0,0,0,.51.25.5.5,0,0,0,.44-.23,2.91,2.91,0,0,0,.29-.84,4.61,4.61,0,0,1,.32-1,1.46,1.46,0,0,1,.46-.56,1.1,1.1,0,0,1,.64-.18,1.23,1.23,0,0,1,1,.51A2.17,2.17,0,0,1,40,150a2.46,2.46,0,0,1-.2,1,1.77,1.77,0,0,1-.57.69,1.39,1.39,0,0,1-.78.25v-.82a.84.84,0,0,0,.65-.32,1.3,1.3,0,0,0,.24-.81,1.33,1.33,0,0,0-.19-.74A.56.56,0,0,0,38.67,149Z"/><path class="cls-10" d="M39.93,144.2a1.56,1.56,0,0,1-.5.12,1.81,1.81,0,0,1,.59,1.35,1.65,1.65,0,0,1-.4,1.15,1.28,1.28,0,0,1-1,.45,1.34,1.34,0,0,1-1.15-.56,2.71,2.71,0,0,1-.41-1.59v-.79h-.37a.91.91,0,0,0-.68.25,1,1,0,0,0-.26.76,1.24,1.24,0,0,0,.22.73.68.68,0,0,0,.54.29v.82a1.12,1.12,0,0,1-.69-.26,1.67,1.67,0,0,1-.53-.68,2.3,2.3,0,0,1-.19-1A1.9,1.9,0,0,1,35.5,144a1.48,1.48,0,0,1,1.13-.48h2.19a2.68,2.68,0,0,0,1-.17h.07Zm-.62,1.35a1.33,1.33,0,0,0-.2-.72,1.17,1.17,0,0,0-.51-.5h-1V145c0,1,.29,1.49.87,1.49a.76.76,0,0,0,.6-.25A1,1,0,0,0,39.31,145.55Z"/><path class="cls-10" d="M35.18,141.47l.6,0a1.74,1.74,0,0,1-.69-1.43c0-1,.57-1.51,1.7-1.52h3.14v.82H36.79a1.08,1.08,0,0,0-.76.23.91.91,0,0,0-.25.72A1.17,1.17,0,0,0,36,141a1.47,1.47,0,0,0,.55.47h3.39v.81H35.18Z"/><path class="cls-10" d="M37.52,137.47a2.8,2.8,0,0,1-1.77-.51,1.66,1.66,0,0,1-.66-1.37,1.61,1.61,0,0,1,.61-1.35l-.52,0v-.75h4.64a1.94,1.94,0,0,1,1.45.55,2,2,0,0,1,.53,1.47,2.42,2.42,0,0,1-.22,1,1.67,1.67,0,0,1-.6.75l-.49-.42a1.58,1.58,0,0,0,.65-1.28,1.26,1.26,0,0,0-.33-.93,1.3,1.3,0,0,0-.94-.33h-.41A1.69,1.69,0,0,1,40,135.6a1.61,1.61,0,0,1-.67,1.35A2.91,2.91,0,0,1,37.52,137.47Zm.09-.82a2.12,2.12,0,0,0,1.26-.33,1.05,1.05,0,0,0,.46-.92,1.19,1.19,0,0,0-.7-1.13H36.46a1.21,1.21,0,0,0-.68,1.12,1.07,1.07,0,0,0,.46.93A2.35,2.35,0,0,0,37.61,136.65Z"/><path class="cls-10" d="M39.46,129.29a1.74,1.74,0,0,1,.56,1.39,1.49,1.49,0,0,1-.44,1.16,1.88,1.88,0,0,1-1.31.4H35.18v-.81h3.07c.72,0,1.08-.29,1.08-.88a1.22,1.22,0,0,0-.69-1.24H35.18v-.81h4.75v.77Z"/><path class="cls-10" d="M33.92,127.26a.49.49,0,0,1-.34-.12.56.56,0,0,1,0-.72.49.49,0,0,1,.34-.12.48.48,0,0,1,.33.12.56.56,0,0,1,0,.72A.48.48,0,0,1,33.92,127.26Zm6-.88v.82H35.18v-.82Z"/><path class="cls-10" d="M35.18,124.31l.6,0a1.74,1.74,0,0,1-.69-1.43c0-1,.57-1.51,1.7-1.52h3.14v.81H36.79a1.13,1.13,0,0,0-.76.24.91.91,0,0,0-.25.72,1.17,1.17,0,0,0,.21.69,1.47,1.47,0,0,0,.55.47h3.39v.81H35.18Z"/><path class="cls-10" d="M40,118.14a2.1,2.1,0,0,1-.63,1.58,2.38,2.38,0,0,1-1.7.6h-.15a2.92,2.92,0,0,1-1.27-.27,2.13,2.13,0,0,1-.87-.75,2,2,0,0,1-.31-1.06,1.79,1.79,0,0,1,.61-1.44,2.67,2.67,0,0,1,1.75-.51h.34v3.22a1.66,1.66,0,0,0,1.13-.41,1.3,1.3,0,0,0,.44-1,1.39,1.39,0,0,0-.18-.73,1.89,1.89,0,0,0-.46-.52l.38-.5A2,2,0,0,1,40,118.14Zm-4.26.1a1.08,1.08,0,0,0,.36.83,1.73,1.73,0,0,0,1,.41V117.1h-.06a1.54,1.54,0,0,0-1,.34A1,1,0,0,0,35.76,118.24Z"/><path class="cls-10" d="M37.51,115.56a2.91,2.91,0,0,1-1.26-.27,2,2,0,0,1-1.16-1.88,2,2,0,0,1,.67-1.58,2.6,2.6,0,0,1,1.79-.6h.06a2.76,2.76,0,0,1,1.24.27,2,2,0,0,1,.86.76A2.07,2.07,0,0,1,40,113.4a2,2,0,0,1-.67,1.56,2.57,2.57,0,0,1-1.78.6Zm.1-.81a2.06,2.06,0,0,0,1.27-.37,1.24,1.24,0,0,0,0-2,2.24,2.24,0,0,0-1.36-.36,2,2,0,0,0-1.27.37,1.24,1.24,0,0,0,0,2A2.23,2.23,0,0,0,37.61,114.75Z"/></svg>