<?xml version="1.0" encoding="utf-8"?>
<!-- Generator: Adobe Illustrator 25.0.0, SVG Export Plug-In . SVG Version: 6.00 Build 0)  -->
<svg version="1.1" id="Layer_1" xmlns="http://www.w3.org/2000/svg" xmlns:xlink="http://www.w3.org/1999/xlink" x="0px" y="0px"
	 viewBox="0 0 376.7 243.6" style="enable-background:new 0 0 376.7 243.6;" xml:space="preserve">
<style type="text/css">
	.st0{fill:url(#SVGID_1_);}
	.st1{fill:#EA5964;}
	.st2{fill:#FFDE17;}
	.st3{fill:#88BAE2;}
	.st4{fill:#D51F26;}
	.st5{fill:#F297A2;}
	.st6{fill:#A71F23;}
	.st7{fill:none;stroke:#231F20;stroke-width:0.5;stroke-miterlimit:10;}
	.st8{fill:none;stroke:#000000;stroke-width:0.5;stroke-miterlimit:10;}
	.st9{fill:#636363;}
</style>
<linearGradient id="SVGID_1_" gradientUnits="userSpaceOnUse" x1="-2730.1748" y1="-2469.8704" x2="-2730.1748" y2="-2373.9001" gradientTransform="matrix(-1 0 0 -1 -2529.6399 -2275.3604)">
	<stop  offset="0" style="stop-color:#E5B5B3"/>
	<stop  offset="0.17" style="stop-color:#E5B5B3"/>
	<stop  offset="0.3" style="stop-color:#E3B0AE"/>
	<stop  offset="0.45" style="stop-color:#DCA2A0"/>
	<stop  offset="0.62" style="stop-color:#D18A89"/>
	<stop  offset="0.79" style="stop-color:#C26968"/>
	<stop  offset="0.97" style="stop-color:#AE3F3F"/>
	<stop  offset="1" style="stop-color:#AA3636"/>
</linearGradient>
<rect x="56.6" y="98.5" class="st0" width="287.9" height="96"/>
<rect x="56.6" y="83.8" class="st1" width="287.9" height="14.8"/>
<rect x="56.6" y="187.1" class="st1" width="287.9" height="14.8"/>
<path class="st2" d="M298.9,148.3c0.5,0.4,1.3,0.4,1.8,0l1.6-1.4c0.5-0.4,0.8-0.2,0.7,0.4l-0.3,2.1c-0.1,0.7,0.3,1.3,0.9,1.6l2,0.8
	c0.6,0.2,0.6,0.6,0,0.8l-2,0.8c-0.6,0.3-1,0.9-0.9,1.6l0.3,2.1c0.1,0.6-0.2,0.8-0.7,0.4l-1.6-1.4c-0.5-0.4-1.3-0.4-1.8,0l-1.7,1.4
	c-0.5,0.4-0.8,0.2-0.7-0.4l0.3-2.1c0.1-0.7-0.3-1.3-0.9-1.6l-2-0.8c-0.6-0.2-0.6-0.6,0-0.8l2-0.8c0.6-0.3,1-0.9,0.9-1.6l-0.3-2.1
	c-0.1-0.6,0.2-0.8,0.7-0.4L298.9,148.3z"/>
<path class="st2" d="M290,161.9c0.5,0.4,1.3,0.4,1.8,0l1.7-1.4c0.5-0.4,0.8-0.2,0.7,0.4l-0.3,2.1c-0.1,0.7,0.3,1.3,0.9,1.6l2,0.8
	c0.6,0.2,0.6,0.6,0,0.8l-2,0.8c-0.6,0.3-1,0.9-0.9,1.6l0.3,2.1c0.1,0.6-0.2,0.8-0.7,0.4l-1.7-1.4c-0.5-0.4-1.3-0.4-1.8,0l-1.7,1.4
	c-0.5,0.4-0.8,0.2-0.7-0.4l0.3-2.1c0.1-0.7-0.3-1.3-0.9-1.6l-2-0.8c-0.6-0.2-0.6-0.6,0-0.8l2-0.8c0.6-0.3,1-0.9,0.9-1.6l-0.3-2.1
	c-0.1-0.6,0.2-0.8,0.7-0.4L290,161.9z"/>
<path class="st2" d="M222.5,133.3c0.5,0.4,1.3,0.4,1.8,0l1.7-1.4c0.5-0.4,0.8-0.2,0.7,0.4l-0.3,2.1c-0.1,0.7,0.3,1.3,0.9,1.6l2,0.8
	c0.6,0.2,0.6,0.6,0,0.8l-2,0.8c-0.6,0.3-1,0.9-0.9,1.6l0.3,2.1c0.1,0.6-0.2,0.8-0.7,0.4l-1.7-1.4c-0.5-0.4-1.3-0.4-1.8,0l-1.7,1.4
	c-0.5,0.4-0.8,0.2-0.7-0.4l0.3-2.1c0.1-0.7-0.3-1.3-0.9-1.6l-2-0.8c-0.6-0.2-0.6-0.6,0-0.8l2-0.8c0.6-0.3,1-0.9,0.9-1.6l-0.3-2.1
	c-0.1-0.6,0.2-0.8,0.7-0.4L222.5,133.3z"/>
<path class="st2" d="M331.7,113.2c0.5,0.4,1.3,0.4,1.8,0l1.7-1.4c0.5-0.4,0.8-0.2,0.7,0.4l-0.3,2.1c-0.1,0.7,0.3,1.3,0.9,1.6l2,0.8
	c0.6,0.2,0.6,0.6,0,0.8l-2,0.8c-0.6,0.3-1,0.9-0.9,1.6l0.3,2.1c0.1,0.6-0.2,0.8-0.7,0.4l-1.7-1.4c-0.5-0.4-1.3-0.4-1.8,0l-1.7,1.4
	c-0.5,0.4-0.8,0.2-0.7-0.4l0.3-2.1c0.1-0.7-0.3-1.3-0.9-1.6l-2-0.8c-0.6-0.2-0.6-0.6,0-0.8l2-0.8c0.6-0.3,1-0.9,0.9-1.6l-0.3-2.1
	c-0.1-0.6,0.2-0.8,0.7-0.4L331.7,113.2z"/>
<path class="st2" d="M184.7,174.1c0.5,0.4,1.3,0.4,1.8,0l1.7-1.4c0.5-0.4,0.8-0.2,0.7,0.4l-0.3,2.1c-0.1,0.7,0.3,1.3,0.9,1.6l2,0.8
	c0.6,0.2,0.6,0.6,0,0.8l-2,0.8c-0.6,0.3-1,0.9-0.9,1.6l0.3,2.1c0.1,0.6-0.2,0.8-0.7,0.4l-1.7-1.4c-0.5-0.4-1.3-0.4-1.8,0l-1.7,1.4
	c-0.5,0.4-0.8,0.2-0.7-0.4l0.3-2.1c0.1-0.7-0.3-1.3-0.9-1.6l-2-0.8c-0.6-0.2-0.6-0.6,0-0.8l2-0.8c0.6-0.3,1-0.9,0.9-1.6l-0.3-2.1
	c-0.1-0.6,0.2-0.8,0.7-0.4L184.7,174.1z"/>
<path class="st2" d="M124,106.7c0.5,0.4,1.3,0.4,1.8,0l1.7-1.4c0.5-0.4,0.8-0.2,0.7,0.4l-0.3,2.1c-0.1,0.7,0.3,1.3,0.9,1.6l2,0.8
	c0.6,0.2,0.6,0.6,0,0.8l-2,0.8c-0.6,0.3-1,0.9-0.9,1.6l0.3,2.1c0.1,0.6-0.2,0.8-0.7,0.4l-1.7-1.4c-0.5-0.4-1.3-0.4-1.8,0l-1.7,1.4
	c-0.5,0.4-0.8,0.2-0.7-0.4l0.3-2.1c0.1-0.7-0.3-1.3-0.9-1.6l-2-0.8c-0.6-0.2-0.6-0.6,0-0.8l2-0.8c0.6-0.3,1-0.9,0.9-1.6l-0.3-2.1
	c-0.1-0.6,0.2-0.8,0.7-0.4L124,106.7z"/>
<path class="st2" d="M89.1,167.2c0.5,0.4,1.3,0.4,1.8,0l1.7-1.4c0.5-0.4,0.8-0.2,0.7,0.4l-0.3,2.1c-0.1,0.7,0.3,1.3,0.9,1.6l2,0.8
	c0.6,0.2,0.6,0.6,0,0.8l-2,0.8c-0.6,0.3-1,0.9-0.9,1.6l0.3,2.1c0.1,0.6-0.2,0.8-0.7,0.4l-1.7-1.4c-0.5-0.4-1.3-0.4-1.8,0l-1.7,1.4
	c-0.5,0.4-0.8,0.2-0.7-0.4l0.3-2.1c0.1-0.7-0.3-1.3-0.9-1.6l-2-0.8c-0.6-0.2-0.6-0.6,0-0.8l2-0.8c0.6-0.3,1-0.9,0.9-1.6l-0.3-2.1
	c-0.1-0.6,0.2-0.8,0.7-0.4L89.1,167.2z"/>
<path class="st2" d="M191.7,59.6c0.5,0.4,1.3,0.4,1.8,0l1.7-1.4c0.5-0.4,0.8-0.2,0.7,0.4l-0.3,2.1c-0.1,0.7,0.3,1.3,0.9,1.5l2,0.8
	c0.6,0.2,0.6,0.6,0,0.8l-2,0.8c-0.6,0.3-1,0.9-0.9,1.6l0.3,2.1c0.1,0.6-0.2,0.8-0.7,0.4l-1.7-1.4c-0.5-0.4-1.3-0.4-1.8,0l-1.7,1.4
	c-0.5,0.4-0.8,0.2-0.7-0.4l0.3-2.1c0.1-0.7-0.3-1.3-0.9-1.6l-2-0.7c-0.6-0.2-0.6-0.6,0-0.8l2-0.8c0.6-0.3,1-0.9,0.9-1.5l-0.3-2.1
	c-0.1-0.6,0.2-0.8,0.7-0.4L191.7,59.6z"/>
<path class="st3" d="M326.9,166.9c0.3,0,0.6,0,0.8,0.1c0.3,0.1,0.5,0.1,0.8,0.2c0.5,0.2,1,0.5,1.4,0.9c0.2,0.2,0.4,0.4,0.5,0.6
	c0.2,0.2,0.3,0.5,0.4,0.7c0.1,0.3,0.2,0.5,0.2,0.8c0.1,0.3,0.1,0.6,0.1,0.8c0,0.3,0,0.6-0.1,0.8c-0.1,0.3-0.1,0.5-0.2,0.8
	c-0.1,0.3-0.2,0.5-0.4,0.7c-0.2,0.2-0.3,0.5-0.5,0.6c-0.4,0.4-0.9,0.7-1.4,0.9c-0.3,0.1-0.5,0.2-0.8,0.2c-0.3,0.1-0.6,0.1-0.8,0.1
	c-0.3,0-0.6,0-0.8-0.1c-0.3,0-0.5-0.1-0.8-0.2c-0.3-0.1-0.5-0.2-0.7-0.4c-0.2-0.2-0.5-0.3-0.6-0.5c-0.2-0.2-0.4-0.4-0.5-0.6
	c-0.2-0.2-0.3-0.5-0.4-0.7c-0.1-0.3-0.2-0.5-0.2-0.8c-0.1-0.3-0.1-0.6-0.1-0.8c0-0.3,0-0.6,0.1-0.8c0.1-0.3,0.1-0.5,0.2-0.8
	c0.1-0.3,0.2-0.5,0.4-0.7c0.2-0.2,0.3-0.5,0.5-0.6c0.2-0.2,0.4-0.4,0.6-0.5c0.2-0.2,0.5-0.3,0.7-0.4c0.3-0.1,0.5-0.2,0.8-0.2
	C326.3,166.9,326.6,166.9,326.9,166.9z"/>
<path class="st3" d="M270,114.3c0.3,0,0.6,0,0.8,0.1c0.3,0.1,0.5,0.1,0.8,0.2c0.3,0.1,0.5,0.2,0.7,0.4c0.2,0.2,0.4,0.3,0.6,0.5
	c0.2,0.2,0.4,0.4,0.5,0.7c0.1,0.2,0.3,0.5,0.4,0.7c0.1,0.3,0.2,0.5,0.2,0.8c0.1,0.3,0.1,0.6,0.1,0.8c0,0.3,0,0.6-0.1,0.8
	c-0.1,0.3-0.1,0.5-0.2,0.8c-0.1,0.3-0.2,0.5-0.4,0.7c-0.3,0.5-0.7,0.9-1.2,1.2c-0.2,0.2-0.5,0.3-0.7,0.4c-0.3,0.1-0.5,0.2-0.8,0.2
	c-0.3,0.1-0.6,0.1-0.8,0.1c-0.3,0-0.6,0-0.8-0.1c-0.3-0.1-0.5-0.1-0.8-0.2c-0.3-0.1-0.5-0.2-0.7-0.4c-0.2-0.2-0.4-0.3-0.6-0.5
	c-0.2-0.2-0.4-0.4-0.5-0.7c-0.2-0.2-0.3-0.5-0.4-0.7c-0.1-0.3-0.2-0.5-0.2-0.8c-0.1-0.3-0.1-0.6-0.1-0.8c0-0.3,0-0.6,0.1-0.8
	c0.1-0.3,0.1-0.5,0.2-0.8c0.1-0.3,0.2-0.5,0.4-0.7c0.3-0.5,0.7-0.9,1.2-1.2c0.2-0.2,0.5-0.3,0.7-0.4c0.3-0.1,0.5-0.2,0.8-0.2
	C269.4,114.3,269.7,114.3,270,114.3z"/>
<path class="st3" d="M219.1,165.8c0.3,0,0.6,0,0.8,0.1c0.3,0.1,0.5,0.1,0.8,0.2c0.3,0.1,0.5,0.2,0.7,0.4c0.2,0.2,0.5,0.3,0.6,0.5
	c0.2,0.2,0.4,0.4,0.5,0.6c0.1,0.2,0.3,0.5,0.4,0.7c0.1,0.3,0.2,0.5,0.2,0.8c0.1,0.3,0.1,0.6,0.1,0.8c0,0.3,0,0.6-0.1,0.8
	c0,0.3-0.1,0.5-0.2,0.8c-0.1,0.3-0.2,0.5-0.4,0.7c-0.2,0.2-0.3,0.4-0.5,0.6c-0.2,0.2-0.4,0.4-0.6,0.5c-0.2,0.2-0.5,0.3-0.7,0.4
	c-0.3,0.1-0.5,0.2-0.8,0.2c-0.3,0.1-0.6,0.1-0.8,0.1c-0.3,0-0.6,0-0.8-0.1c-0.3-0.1-0.5-0.1-0.8-0.2c-0.3-0.1-0.5-0.2-0.7-0.4
	c-0.2-0.2-0.4-0.3-0.6-0.5c-0.2-0.2-0.4-0.4-0.5-0.6c-0.3-0.5-0.5-1-0.6-1.6c-0.1-0.3-0.1-0.6-0.1-0.8c0-0.3,0-0.6,0.1-0.8
	c0.1-0.3,0.1-0.5,0.2-0.8c0.1-0.3,0.2-0.5,0.4-0.7c0.2-0.2,0.3-0.5,0.5-0.6c0.2-0.2,0.4-0.4,0.6-0.5c0.2-0.2,0.5-0.3,0.7-0.4
	c0.3-0.1,0.5-0.2,0.8-0.2C218.5,165.9,218.8,165.8,219.1,165.8z"/>
<path class="st3" d="M158.5,120.9c0.3,0,0.6,0,0.8,0.1c0.3,0.1,0.5,0.1,0.8,0.2c0.5,0.2,1,0.5,1.4,0.9c0.2,0.2,0.4,0.4,0.5,0.7
	c0.2,0.2,0.3,0.5,0.4,0.7c0.1,0.3,0.2,0.5,0.2,0.8c0.1,0.3,0.1,0.6,0.1,0.8c0,0.3,0,0.6-0.1,0.8c-0.1,0.3-0.1,0.5-0.2,0.8
	c-0.1,0.3-0.2,0.5-0.4,0.7c-0.2,0.2-0.3,0.5-0.5,0.7c-0.4,0.4-0.9,0.7-1.4,0.9c-0.3,0.1-0.5,0.2-0.8,0.2c-0.3,0.1-0.6,0.1-0.8,0.1
	c-0.3,0-0.6,0-0.8-0.1c-0.3,0-0.5-0.1-0.8-0.2c-0.3-0.1-0.5-0.2-0.7-0.4c-0.2-0.2-0.4-0.3-0.6-0.5c-0.2-0.2-0.4-0.4-0.5-0.7
	c-0.2-0.2-0.3-0.5-0.4-0.7c-0.1-0.3-0.2-0.5-0.2-0.8c-0.1-0.3-0.1-0.6-0.1-0.8c0-0.3,0-0.6,0.1-0.8c0-0.3,0.1-0.5,0.2-0.8
	c0.1-0.3,0.2-0.5,0.4-0.7c0.2-0.2,0.3-0.5,0.5-0.7c0.2-0.2,0.4-0.4,0.6-0.5c0.2-0.2,0.5-0.3,0.7-0.4c0.3-0.1,0.5-0.2,0.8-0.2
	C158,120.9,158.3,120.9,158.5,120.9z"/>
<path class="st3" d="M122.9,166.9c0.3,0,0.6,0,0.8,0.1c0.3,0.1,0.5,0.1,0.8,0.2c0.3,0.1,0.5,0.2,0.7,0.4c0.5,0.3,0.9,0.7,1.2,1.2
	c0.2,0.2,0.3,0.5,0.4,0.7c0.1,0.3,0.2,0.5,0.2,0.8c0.1,0.3,0.1,0.6,0.1,0.8c0,0.3,0,0.6-0.1,0.8c0,0.3-0.1,0.5-0.2,0.8
	c-0.1,0.3-0.2,0.5-0.4,0.7c-0.3,0.5-0.7,0.9-1.2,1.2c-0.2,0.2-0.5,0.3-0.7,0.4c-0.3,0.1-0.5,0.2-0.8,0.2c-0.3,0.1-0.6,0.1-0.8,0.1
	c-0.3,0-0.6,0-0.8-0.1c-0.3,0-0.5-0.1-0.8-0.2c-0.3-0.1-0.5-0.2-0.7-0.4c-0.5-0.3-0.9-0.7-1.2-1.2c-0.2-0.2-0.3-0.5-0.4-0.7
	c-0.1-0.3-0.2-0.5-0.2-0.8c-0.1-0.3-0.1-0.6-0.1-0.8c0-0.3,0-0.6,0.1-0.8c0.1-0.3,0.1-0.5,0.2-0.8c0.1-0.3,0.2-0.5,0.4-0.7
	c0.3-0.5,0.7-0.9,1.2-1.2c0.2-0.2,0.5-0.3,0.7-0.4c0.3-0.1,0.5-0.2,0.8-0.2C122.4,166.9,122.6,166.9,122.9,166.9z"/>
<path class="st3" d="M111.1,155.2c0.3,0,0.6,0,0.8,0.1c0.3,0.1,0.5,0.1,0.8,0.2c0.3,0.1,0.5,0.2,0.7,0.4c0.5,0.3,0.9,0.7,1.2,1.2
	c0.2,0.2,0.3,0.5,0.4,0.7c0.1,0.3,0.2,0.5,0.2,0.8c0.1,0.3,0.1,0.6,0.1,0.8c0,0.3,0,0.6-0.1,0.8c-0.1,0.3-0.1,0.5-0.2,0.8
	c-0.1,0.3-0.2,0.5-0.4,0.7c-0.2,0.2-0.3,0.4-0.5,0.6c-0.2,0.2-0.4,0.4-0.7,0.5c-0.2,0.2-0.5,0.3-0.7,0.4c-0.3,0.1-0.5,0.2-0.8,0.2
	c-0.3,0.1-0.6,0.1-0.8,0.1c-0.3,0-0.6,0-0.8-0.1c-0.3-0.1-0.5-0.1-0.8-0.2c-0.3-0.1-0.5-0.2-0.7-0.4c-0.5-0.3-0.9-0.7-1.2-1.2
	c-0.2-0.2-0.3-0.5-0.4-0.7c-0.1-0.3-0.2-0.5-0.2-0.8c-0.1-0.3-0.1-0.6-0.1-0.8c0-0.3,0-0.6,0.1-0.8c0.1-0.3,0.1-0.5,0.2-0.8
	c0.1-0.3,0.2-0.5,0.4-0.7c0.2-0.2,0.3-0.4,0.5-0.6c0.2-0.2,0.4-0.4,0.7-0.5c0.2-0.2,0.5-0.3,0.7-0.4c0.3-0.1,0.5-0.2,0.8-0.2
	C110.5,155.3,110.8,155.2,111.1,155.2z"/>
<path class="st3" d="M73.7,106.9c0.3,0,0.6,0,0.8,0.1c0.3,0.1,0.5,0.1,0.8,0.2c0.3,0.1,0.5,0.2,0.7,0.4c0.2,0.2,0.4,0.3,0.7,0.5
	c0.2,0.2,0.4,0.4,0.5,0.6c0.2,0.2,0.3,0.5,0.4,0.7c0.1,0.3,0.2,0.5,0.2,0.8c0.1,0.3,0.1,0.6,0.1,0.8c0,0.3,0,0.6-0.1,0.8
	c-0.1,0.3-0.1,0.5-0.2,0.8c-0.1,0.3-0.2,0.5-0.4,0.7c-0.3,0.5-0.7,0.9-1.2,1.2c-0.2,0.2-0.5,0.3-0.7,0.4c-0.3,0.1-0.5,0.2-0.8,0.2
	c-0.3,0.1-0.6,0.1-0.8,0.1c-0.3,0-0.6,0-0.8-0.1c-0.3-0.1-0.5-0.1-0.8-0.2c-0.3-0.1-0.5-0.2-0.7-0.4c-0.2-0.2-0.4-0.3-0.7-0.5
	c-0.2-0.2-0.4-0.4-0.5-0.7c-0.2-0.2-0.3-0.5-0.4-0.7c-0.1-0.3-0.2-0.5-0.2-0.8c-0.1-0.3-0.1-0.6-0.1-0.8c0-0.3,0-0.6,0.1-0.8
	c0.1-0.3,0.1-0.5,0.2-0.8c0.1-0.3,0.2-0.5,0.4-0.7c0.3-0.5,0.7-0.9,1.2-1.2c0.2-0.1,0.5-0.3,0.7-0.4c0.3-0.1,0.5-0.2,0.8-0.2
	C73.2,107,73.5,106.9,73.7,106.9z"/>
<path class="st3" d="M225.4,106.3c0.3,0,0.6,0,0.8,0.1c0.3,0.1,0.5,0.1,0.8,0.2c0.3,0.1,0.5,0.2,0.7,0.4c0.5,0.3,0.9,0.7,1.2,1.2
	c0.1,0.2,0.3,0.5,0.4,0.7c0.1,0.3,0.2,0.5,0.2,0.8c0.1,0.3,0.1,0.6,0.1,0.8c0,0.3,0,0.6-0.1,0.8c-0.1,0.3-0.1,0.5-0.2,0.8
	c-0.1,0.3-0.2,0.5-0.4,0.7c-0.2,0.2-0.3,0.4-0.5,0.7c-0.2,0.2-0.4,0.4-0.6,0.5c-0.2,0.2-0.5,0.3-0.7,0.4c-0.3,0.1-0.5,0.2-0.8,0.2
	c-0.3,0.1-0.6,0.1-0.8,0.1c-0.3,0-0.6,0-0.8-0.1c-0.3-0.1-0.5-0.1-0.8-0.2c-0.3-0.1-0.5-0.2-0.7-0.4c-0.5-0.3-0.9-0.7-1.2-1.2
	c-0.2-0.2-0.3-0.5-0.4-0.7c-0.1-0.3-0.2-0.5-0.2-0.8c-0.1-0.3-0.1-0.6-0.1-0.8c0-0.3,0-0.6,0.1-0.8c0.1-0.3,0.1-0.5,0.2-0.8
	c0.1-0.3,0.2-0.5,0.4-0.7c0.2-0.2,0.3-0.4,0.5-0.7c0.2-0.2,0.4-0.4,0.6-0.5c0.2-0.2,0.5-0.3,0.7-0.4c0.3-0.1,0.5-0.2,0.8-0.2
	C224.9,106.4,225.1,106.3,225.4,106.3z"/>
<path class="st3" d="M154.3,102.7c0.3,0,0.6,0,0.8,0.1c0.3,0.1,0.5,0.1,0.8,0.2c0.3,0.1,0.5,0.2,0.7,0.4c0.2,0.2,0.4,0.3,0.6,0.5
	c0.2,0.2,0.4,0.4,0.5,0.7c0.2,0.2,0.3,0.5,0.4,0.7c0.1,0.3,0.2,0.5,0.2,0.8c0.1,0.3,0.1,0.6,0.1,0.8c0,0.3,0,0.6-0.1,0.8
	c-0.1,0.3-0.1,0.5-0.2,0.8c-0.1,0.3-0.2,0.5-0.4,0.7c-0.3,0.5-0.7,0.9-1.2,1.2c-0.2,0.2-0.5,0.3-0.7,0.4c-0.3,0.1-0.5,0.2-0.8,0.2
	c-0.3,0.1-0.6,0.1-0.8,0.1c-0.3,0-0.6,0-0.8-0.1c-0.3-0.1-0.5-0.1-0.8-0.2c-0.3-0.1-0.5-0.2-0.7-0.4c-0.2-0.2-0.4-0.3-0.6-0.5
	c-0.2-0.2-0.4-0.4-0.5-0.7c-0.2-0.2-0.3-0.5-0.4-0.7c-0.1-0.3-0.2-0.5-0.2-0.8c0-0.3-0.1-0.5-0.1-0.8c0-0.3,0-0.6,0.1-0.8
	c0.1-0.3,0.1-0.5,0.2-0.8c0.1-0.3,0.2-0.5,0.4-0.7c0.3-0.5,0.7-0.9,1.2-1.2c0.2-0.2,0.5-0.3,0.7-0.4c0.3-0.1,0.5-0.2,0.8-0.2
	C153.7,102.7,154,102.7,154.3,102.7z"/>
<path class="st3" d="M198.8,104.6c0.3,0,0.6,0,0.8,0.1c0.3,0.1,0.5,0.1,0.8,0.2c0.3,0.1,0.5,0.2,0.7,0.4c0.2,0.2,0.5,0.3,0.6,0.5
	c0.2,0.2,0.4,0.4,0.5,0.7c0.2,0.2,0.3,0.5,0.4,0.7c0.1,0.3,0.2,0.5,0.2,0.8c0.1,0.3,0.1,0.6,0.1,0.8c0,0.3,0,0.6-0.1,0.8
	c0,0.3-0.1,0.5-0.2,0.8c-0.1,0.3-0.2,0.5-0.4,0.7c-0.2,0.2-0.3,0.5-0.5,0.7c-0.2,0.2-0.4,0.4-0.6,0.5c-0.2,0.2-0.5,0.3-0.7,0.4
	c-0.3,0.1-0.5,0.2-0.8,0.2c-0.6,0.1-1.1,0.1-1.7,0c-0.3-0.1-0.5-0.1-0.8-0.2c-0.3-0.1-0.5-0.2-0.7-0.4c-0.2-0.2-0.4-0.3-0.6-0.5
	c-0.2-0.2-0.4-0.4-0.5-0.7c-0.2-0.2-0.3-0.5-0.4-0.7c-0.1-0.3-0.2-0.5-0.2-0.8c-0.1-0.3-0.1-0.6-0.1-0.8c0-0.3,0-0.6,0.1-0.8
	c0.1-0.3,0.1-0.5,0.2-0.8c0.1-0.3,0.2-0.5,0.4-0.7c0.2-0.2,0.3-0.5,0.5-0.7c0.2-0.2,0.4-0.4,0.6-0.5c0.2-0.2,0.5-0.3,0.7-0.4
	c0.3-0.1,0.5-0.2,0.8-0.2C198.3,104.7,198.6,104.6,198.8,104.6z"/>
<path class="st3" d="M233,65.5c0.3,0,0.6,0,0.8,0.1c0.3,0,0.5,0.1,0.8,0.2c0.3,0.1,0.5,0.2,0.7,0.4c0.2,0.2,0.5,0.3,0.6,0.5
	c0.2,0.2,0.4,0.4,0.5,0.7c0.2,0.2,0.3,0.5,0.4,0.7c0.1,0.3,0.2,0.5,0.2,0.8c0.1,0.3,0.1,0.6,0.1,0.8c0,0.3,0,0.6-0.1,0.8
	c-0.1,0.3-0.1,0.5-0.2,0.8c-0.2,0.5-0.5,1-0.9,1.4c-0.2,0.2-0.4,0.4-0.6,0.5c-0.2,0.2-0.5,0.3-0.7,0.4c-0.3,0.1-0.5,0.2-0.8,0.2
	c-0.3,0.1-0.6,0.1-0.8,0.1c-0.3,0-0.6,0-0.8-0.1c-0.3-0.1-0.5-0.1-0.8-0.2c-0.3-0.1-0.5-0.2-0.7-0.4c-0.2-0.2-0.5-0.3-0.6-0.5
	c-0.4-0.4-0.7-0.9-0.9-1.4c-0.1-0.3-0.2-0.5-0.2-0.8c-0.1-0.3-0.1-0.6-0.1-0.8c0-0.3,0-0.6,0.1-0.8c0-0.3,0.1-0.5,0.2-0.8
	c0.1-0.3,0.2-0.5,0.4-0.7c0.2-0.2,0.3-0.5,0.5-0.7c0.2-0.2,0.4-0.4,0.6-0.5c0.2-0.2,0.5-0.3,0.7-0.4c0.3-0.1,0.5-0.2,0.8-0.2
	C232.4,65.6,232.7,65.5,233,65.5z"/>
<path class="st3" d="M256.9,74.6c0.3,0,0.6,0,0.8,0.1c0.3,0.1,0.5,0.1,0.8,0.2c0.3,0.1,0.5,0.2,0.7,0.4c0.5,0.3,0.9,0.7,1.2,1.2
	c0.2,0.2,0.3,0.5,0.4,0.7c0.1,0.3,0.2,0.5,0.2,0.8c0.1,0.3,0.1,0.6,0.1,0.8c0,0.3,0,0.6-0.1,0.8c-0.1,0.3-0.1,0.5-0.2,0.8
	c-0.1,0.3-0.2,0.5-0.4,0.7c-0.2,0.2-0.3,0.4-0.5,0.6c-0.4,0.4-0.9,0.7-1.4,0.9c-0.3,0.1-0.5,0.2-0.8,0.2c-0.3,0.1-0.6,0.1-0.8,0.1
	c-0.3,0-0.6,0-0.8-0.1c-0.3-0.1-0.5-0.1-0.8-0.2c-0.3-0.1-0.5-0.2-0.7-0.4c-0.2-0.2-0.4-0.3-0.6-0.5c-0.2-0.2-0.4-0.4-0.5-0.6
	c-0.1-0.2-0.3-0.5-0.4-0.7c-0.1-0.3-0.2-0.5-0.2-0.8c-0.1-0.3-0.1-0.6-0.1-0.8c0-0.3,0-0.6,0.1-0.8c0.1-0.3,0.1-0.5,0.2-0.8
	c0.2-0.5,0.5-1,0.9-1.4c0.2-0.2,0.4-0.4,0.6-0.5c0.2-0.2,0.5-0.3,0.7-0.4c0.3-0.1,0.5-0.2,0.8-0.2C256.3,74.7,256.6,74.6,256.9,74.6
	z"/>
<path class="st3" d="M158.1,71.6c0.3,0,0.6,0,0.8,0.1c0.3,0.1,0.5,0.1,0.8,0.2c0.3,0.1,0.5,0.2,0.7,0.4c0.2,0.2,0.4,0.3,0.6,0.5
	c0.2,0.2,0.4,0.4,0.5,0.7c0.1,0.2,0.3,0.5,0.4,0.7c0.1,0.3,0.2,0.5,0.2,0.8c0.1,0.3,0.1,0.6,0.1,0.8c0,0.3,0,0.6-0.1,0.8
	c-0.1,0.3-0.1,0.5-0.2,0.8c-0.1,0.3-0.2,0.5-0.4,0.7c-0.3,0.5-0.7,0.9-1.2,1.2c-0.2,0.2-0.5,0.3-0.7,0.4c-0.3,0.1-0.5,0.2-0.8,0.2
	c-0.3,0.1-0.6,0.1-0.8,0.1c-0.3,0-0.6,0-0.8-0.1c-0.3-0.1-0.5-0.1-0.8-0.2c-0.3-0.1-0.5-0.2-0.7-0.4c-0.2-0.2-0.4-0.3-0.6-0.5
	c-0.2-0.2-0.4-0.4-0.5-0.7c-0.2-0.2-0.3-0.5-0.4-0.7c-0.1-0.3-0.2-0.5-0.2-0.8c-0.1-0.3-0.1-0.6-0.1-0.8c0-0.3,0-0.6,0.1-0.8
	c0.1-0.3,0.1-0.5,0.2-0.8c0.1-0.3,0.2-0.5,0.4-0.7c0.3-0.5,0.7-0.9,1.2-1.2c0.2-0.2,0.5-0.3,0.7-0.4c0.3-0.1,0.5-0.2,0.8-0.2
	C157.6,71.7,157.9,71.6,158.1,71.6z"/>
<path class="st4" d="M189.2,70.1c0.1-0.4,0.3-0.9,0.5-1.3c0.2-0.4,0.4-0.8,0.7-1.2c0.3-0.4,0.6-0.8,0.9-1.1c0.3-0.4,0.7-0.7,1.1-1
	c0.4-0.3,0.9-0.7,1.3-0.9c0.5-0.3,1-0.6,1.5-0.8c0.5-0.3,1.1-0.5,1.6-0.7c0.6-0.2,1.2-0.4,1.8-0.6s1.3-0.3,2-0.4s1.4-0.2,2.1-0.3
	s1.4-0.1,2.2-0.2s1.5,0,2.2,0s1.5,0.1,2.3,0.1s1.6,0.2,2.3,0.3s1.6,0.2,2.3,0.4s1.6,0.3,2.3,0.5s1.5,0.4,2.3,0.7s1.5,0.5,2.2,0.8
	s1.5,0.6,2.2,0.9s1.4,0.7,2.1,1s1.3,0.7,2,1.1s1.2,0.8,1.8,1.2s1.1,0.8,1.6,1.3s1,0.9,1.5,1.3s0.9,0.9,1.3,1.4s0.8,1,1.1,1.4
	s0.6,1,0.9,1.4c0.3,0.5,0.5,1,0.7,1.5c0.2,0.5,0.3,1,0.4,1.4c0.1,0.5,0.2,0.9,0.2,1.4c0,0.5,0,0.9,0,1.4c-0.1,0.9-0.3,1.8-0.7,2.6
	c-0.2,0.4-0.4,0.8-0.7,1.2c-0.3,0.4-0.6,0.8-0.9,1.1c-0.3,0.4-0.7,0.7-1.1,1c-0.4,0.3-0.9,0.6-1.3,0.9c-0.5,0.3-1,0.6-1.5,0.8
	c-0.5,0.3-1.1,0.5-1.7,0.7c-0.6,0.2-1.2,0.4-1.8,0.6s-1.3,0.3-1.9,0.4s-1.4,0.2-2.1,0.3s-1.4,0.1-2.2,0.2s-1.5,0-2.2,0
	s-1.5-0.1-2.3-0.1s-1.6-0.2-2.3-0.3s-1.6-0.2-2.3-0.4s-1.6-0.3-2.3-0.5s-1.5-0.4-2.3-0.7s-1.5-0.5-2.2-0.8s-1.5-0.6-2.2-0.9
	s-1.4-0.7-2.1-1s-1.3-0.7-2-1.1s-1.2-0.8-1.8-1.2s-1.1-0.8-1.6-1.3s-1-0.9-1.5-1.3s-0.9-0.9-1.3-1.4s-0.8-1-1.1-1.4s-0.6-1-0.9-1.4
	c-0.3-0.5-0.5-1-0.7-1.4c-0.2-0.5-0.3-1-0.4-1.4c-0.1-0.5-0.2-0.9-0.2-1.4c0-0.5,0-0.9,0-1.4C189.1,71,189.1,70.5,189.2,70.1z"/>
<path class="st5" d="M213.2,74.7c-5.3-1.4-9.5-4-10.9-6.5c0,0.1-0.1,0.1-0.1,0.2c-0.7,2.8,3.9,6.4,10.5,8.2s12.4,0.8,13.1-1.9v-0.2
	C223.5,75.8,218.6,76.1,213.2,74.7z"/>
<path class="st6" d="M215,67.9c5.3,1.4,9.5,4,10.9,6.5c0-0.1,0.1-0.2,0.1-0.2c0.7-2.8-3.9-6.4-10.4-8.2s-12.4-0.8-13.1,1.9
	c0,0.1,0,0.1,0,0.2C204.7,66.7,209.7,66.5,215,67.9z"/>
<path class="st6" d="M210.1,86.4c-12-3.2-20.6-10.9-20.3-18c-0.3,0.5-0.5,1.1-0.6,1.6c-2,7.5,7,16.3,20,19.7s25.1,0.2,27.1-7.2
	c0.1-0.6,0.2-1.2,0.3-1.7C233.4,87.1,222.1,89.6,210.1,86.4L210.1,86.4z"/>
<path class="st3" d="M210.5,77.9c0.3,0,0.6,0,0.8,0.1c0.3,0.1,0.5,0.1,0.8,0.2c0.3,0.1,0.5,0.2,0.7,0.4c0.2,0.2,0.5,0.3,0.6,0.5
	c0.2,0.2,0.4,0.4,0.5,0.7c0.2,0.2,0.3,0.5,0.4,0.7c0.1,0.3,0.2,0.5,0.2,0.8c0.1,0.3,0.1,0.6,0.1,0.8c0,0.3,0,0.6-0.1,0.8
	c0,0.3-0.1,0.5-0.2,0.8c-0.1,0.3-0.2,0.5-0.4,0.7c-0.2,0.2-0.3,0.5-0.5,0.7c-0.2,0.2-0.4,0.4-0.6,0.5c-0.2,0.2-0.5,0.3-0.7,0.4
	c-0.3,0.1-0.5,0.2-0.8,0.2c-0.6,0.1-1.1,0.1-1.7,0c-0.3-0.1-0.5-0.1-0.8-0.2c-0.3-0.1-0.5-0.2-0.7-0.4c-0.2-0.2-0.4-0.3-0.6-0.5
	c-0.2-0.2-0.4-0.4-0.5-0.7c-0.2-0.2-0.3-0.5-0.4-0.7c-0.1-0.3-0.2-0.5-0.2-0.8c-0.1-0.3-0.1-0.6-0.1-0.8c0-0.3,0-0.6,0.1-0.8
	c0.1-0.3,0.1-0.5,0.2-0.8c0.1-0.3,0.2-0.5,0.4-0.7c0.2-0.2,0.3-0.5,0.5-0.7c0.2-0.2,0.4-0.4,0.6-0.5c0.2-0.2,0.5-0.3,0.7-0.4
	c0.3-0.1,0.5-0.2,0.8-0.2C210,77.9,210.2,77.9,210.5,77.9z"/>
<path class="st4" d="M175.6,66.6c0.8-0.2,1.5-0.5,2.3-0.7s1.5-0.4,2.3-0.5s1.5-0.3,2.3-0.4s1.5-0.2,2.3-0.3s1.5-0.1,2.2-0.1
	s1.4,0,2.2,0s1.4,0.1,2.1,0.2s1.3,0.2,2,0.3s1.3,0.3,1.9,0.5s1.1,0.4,1.7,0.6c0.5,0.2,1,0.5,1.5,0.7c0.5,0.3,0.9,0.5,1.4,0.9
	c0.4,0.3,0.8,0.6,1.2,1c0.4,0.3,0.7,0.7,1,1.1c0.3,0.4,0.5,0.8,0.8,1.2c0.2,0.4,0.4,0.8,0.5,1.3c0.1,0.4,0.2,0.9,0.3,1.3
	c0.1,0.5,0.1,0.9,0.1,1.4c0,0.5-0.1,1-0.1,1.4c-0.1,0.5-0.2,1-0.4,1.5c-0.2,0.5-0.4,1-0.6,1.5c-0.2,0.5-0.5,1-0.8,1.5
	c-0.3,0.5-0.6,1-1,1.5c-0.4,0.5-0.8,1-1.2,1.5s-0.9,1-1.4,1.4s-1,0.9-1.6,1.4s-1.1,0.9-1.7,1.3s-1.2,0.8-1.9,1.2s-1.3,0.8-2,1.1
	s-1.4,0.7-2.1,1s-1.4,0.6-2.2,0.9s-1.5,0.6-2.2,0.8s-1.5,0.5-2.3,0.7s-1.6,0.4-2.3,0.5s-1.5,0.3-2.3,0.4s-1.5,0.2-2.3,0.2
	s-1.5,0.1-2.2,0.1s-1.5,0-2.2,0s-1.4-0.1-2.1-0.2s-1.3-0.2-2-0.3s-1.2-0.3-1.8-0.5c-0.6-0.2-1.1-0.4-1.7-0.6c-0.5-0.2-1-0.5-1.5-0.7
	c-0.5-0.3-0.9-0.6-1.4-0.9c-0.4-0.3-0.8-0.6-1.2-1c-0.4-0.3-0.7-0.7-1-1.1c-0.3-0.4-0.5-0.8-0.8-1.2c-0.2-0.4-0.4-0.8-0.5-1.3
	c-0.1-0.4-0.2-0.9-0.3-1.3c-0.1-0.5-0.1-0.9-0.1-1.4c0-0.5,0.1-1,0.1-1.4c0.1-0.5,0.2-1,0.4-1.5c0.2-0.5,0.4-1,0.6-1.5
	c0.2-0.5,0.5-1,0.8-1.5s0.6-1,1-1.5s0.8-1,1.2-1.5s0.9-1,1.4-1.4s1-0.9,1.6-1.4s1.1-0.9,1.7-1.3s1.2-0.8,1.9-1.2s1.3-0.8,2-1.1
	s1.4-0.7,2.1-1s1.4-0.6,2.2-0.9S174.8,66.8,175.6,66.6z"/>
<path class="st5" d="M179.3,78.2c-5.2,1.7-10.2,1.8-12.7,0.4c0,0.1,0,0.1,0,0.2c0.9,2.7,6.8,3.3,13.2,1.2s10.9-6,10-8.7
	c0-0.1-0.1-0.1-0.1-0.2C188.6,73.6,184.6,76.5,179.3,78.2L179.3,78.2z"/>
<path class="st6" d="M177.2,71.5c5.2-1.7,10.2-1.8,12.7-0.4c0-0.1,0-0.1,0-0.2c-0.9-2.7-6.8-3.3-13.2-1.2s-10.9,6-10,8.7
	c0,0.1,0.1,0.1,0.1,0.2C167.9,76.1,171.9,73.3,177.2,71.5L177.2,71.5z"/>
<path class="st6" d="M183.1,89.7c-11.8,3.8-23.2,2-26.8-4.1c0.1,0.6,0.2,1.2,0.3,1.7c2.4,7.3,14.7,9.9,27.5,5.7s21.3-13.5,18.9-20.8
	c-0.2-0.6-0.4-1.1-0.7-1.6C203,77.7,194.9,85.9,183.1,89.7L183.1,89.7z"/>
<path class="st4" d="M211.7,83.1c0.1-0.5,0.2-0.9,0.3-1.3c0.1-0.5,0.3-0.9,0.5-1.3c0.2-0.4,0.4-0.9,0.7-1.2c0.3-0.4,0.6-0.8,0.9-1.2
	c0.4-0.4,0.7-0.8,1.1-1.1c0.4-0.4,0.9-0.7,1.4-1c0.5-0.3,1-0.7,1.5-0.9c0.5-0.3,1.1-0.6,1.7-0.8s1.2-0.5,1.9-0.7s1.3-0.4,2-0.6
	s1.4-0.3,2.1-0.5s1.5-0.2,2.2-0.3s1.5-0.2,2.3-0.2s1.6-0.1,2.3-0.1s1.6,0,2.4,0.1s1.6,0.1,2.4,0.2s1.6,0.2,2.4,0.3s1.6,0.3,2.3,0.5
	s1.5,0.4,2.3,0.6s1.5,0.4,2.2,0.7s1.4,0.5,2.1,0.8s1.3,0.6,2,0.9s1.2,0.7,1.8,1s1.1,0.7,1.7,1.1s1,0.8,1.5,1.2
	c0.5,0.4,0.9,0.8,1.3,1.2c0.4,0.4,0.8,0.8,1.1,1.3c0.3,0.4,0.6,0.9,0.9,1.3c0.3,0.4,0.5,0.9,0.7,1.4c0.2,0.5,0.3,0.9,0.4,1.4
	c0.1,0.5,0.2,0.9,0.2,1.4c0.1,0.9,0,1.8-0.3,2.7c-0.1,0.4-0.3,0.9-0.5,1.3c-0.2,0.4-0.5,0.9-0.7,1.2c-0.3,0.4-0.6,0.8-1,1.2
	c-0.4,0.4-0.7,0.8-1.1,1.1c-0.4,0.4-0.9,0.7-1.4,1c-0.5,0.3-1,0.7-1.5,0.9c-0.5,0.3-1.1,0.6-1.7,0.8s-1.2,0.5-1.9,0.7
	s-1.3,0.4-2,0.6s-1.4,0.3-2.1,0.5s-1.5,0.2-2.2,0.3s-1.5,0.2-2.3,0.2s-1.6,0.1-2.3,0.1s-1.6,0-2.4-0.1s-1.6-0.1-2.4-0.2
	s-1.6-0.2-2.4-0.3s-1.6-0.3-2.3-0.5s-1.5-0.4-2.3-0.6s-1.5-0.4-2.2-0.7s-1.4-0.5-2.1-0.8s-1.3-0.6-2-0.9s-1.2-0.7-1.8-1
	s-1.1-0.7-1.7-1.1s-1-0.8-1.5-1.2s-0.9-0.8-1.3-1.3c-0.4-0.4-0.8-0.8-1.1-1.3c-0.3-0.4-0.6-0.9-0.9-1.3c-0.3-0.4-0.5-0.9-0.7-1.4
	c-0.2-0.5-0.3-0.9-0.4-1.4c-0.1-0.5-0.2-0.9-0.2-1.4C211.7,84,211.7,83.5,211.7,83.1z"/>
<path class="st5" d="M235.8,87.5c5.5,0.6,10,2.6,11.7,4.9c0-0.1,0-0.1,0.1-0.2c0.3-2.9-4.8-5.8-11.5-6.6s-12.4,1-12.7,3.8v0.2
	C225.4,87.8,230.2,86.9,235.8,87.5z"/>
<path class="st6" d="M235,94.4c-5.5-0.6-10-2.6-11.7-4.9c0,0.1,0,0.1-0.1,0.2c-0.3,2.9,4.8,5.8,11.6,6.6s12.4-1,12.7-3.8v-0.2
	C245.3,94.1,240.4,95,235,94.4z"/>
<path class="st6" d="M237.1,75.4c12.4,1.4,21.9,7.8,22.7,14.8c0.2-0.6,0.3-1.1,0.4-1.7c0.8-7.6-9.3-15.1-22.7-16.5
	s-24.9,3.4-25.8,11.1c-0.1,0.6-0.1,1.2,0,1.8C214,78.1,224.8,74,237.1,75.4z"/>
<path class="st2" d="M227.3,88.4c0.5,0.4,1.3,0.4,1.8,0l1.6-1.4c0.5-0.4,0.8-0.2,0.7,0.4l-0.3,2.1c-0.1,0.7,0.3,1.3,0.9,1.6l2,0.8
	c0.6,0.2,0.6,0.6,0,0.8l-2,0.8c-0.6,0.3-1,0.9-0.9,1.6l0.3,2.1c0.1,0.6-0.2,0.8-0.7,0.4l-1.6-1.4c-0.5-0.4-1.3-0.4-1.8,0l-1.7,1.4
	c-0.5,0.4-0.8,0.2-0.7-0.4l0.3-2.1c0.1-0.7-0.3-1.3-0.9-1.6l-2-0.8c-0.6-0.2-0.6-0.6,0-0.8l2-0.8c0.6-0.3,1-0.9,0.9-1.6l-0.3-2.1
	c-0.1-0.6,0.2-0.8,0.7-0.4L227.3,88.4z"/>
<path class="st2" d="M175.5,80.4c0.5,0.4,1.3,0.4,1.8,0l1.7-1.4c0.5-0.4,0.8-0.2,0.7,0.4l-0.3,2.1c-0.1,0.7,0.3,1.3,0.9,1.6l2,0.8
	c0.6,0.2,0.6,0.6,0,0.8l-2,0.8c-0.6,0.3-1,0.9-0.9,1.6l0.3,2.1c0.1,0.6-0.2,0.8-0.7,0.4l-1.7-1.3c-0.5-0.4-1.3-0.4-1.8,0l-1.7,1.3
	c-0.5,0.4-0.8,0.2-0.7-0.4l0.3-2.1c0.1-0.7-0.3-1.3-0.9-1.6l-2-0.8c-0.6-0.2-0.6-0.6,0-0.8l2-0.8c0.6-0.3,1-0.9,0.9-1.6l-0.3-2.1
	c-0.1-0.6,0.2-0.8,0.7-0.4L175.5,80.4z"/>
<path class="st2" d="M189,107.7c0.5,0.4,1.3,0.4,1.8,0l1.7-1.3c0.5-0.4,0.8-0.2,0.7,0.4l-0.3,2.1c-0.1,0.7,0.3,1.3,0.9,1.5l2,0.8
	c0.6,0.2,0.6,0.6,0,0.8l-2,0.8c-0.6,0.3-1,0.9-0.9,1.6l0.3,2.1c0.1,0.6-0.2,0.8-0.7,0.4l-1.7-1.4c-0.5-0.4-1.3-0.4-1.8,0l-1.7,1.4
	c-0.5,0.4-0.8,0.2-0.7-0.4l0.3-2.1c0.1-0.7-0.3-1.3-0.9-1.6l-2-0.8c-0.6-0.2-0.6-0.6,0-0.8l2-0.8c0.6-0.3,1-0.9,0.9-1.5l-0.3-2.1
	c-0.1-0.6,0.2-0.8,0.7-0.4L189,107.7z"/>
<path class="st4" d="M240.9,84.3c0.7-0.4,1.4-0.7,2.1-1.1c0.7-0.3,1.4-0.7,2.2-1s1.5-0.6,2.2-0.8s1.5-0.5,2.2-0.7s1.5-0.4,2.2-0.5
	s1.4-0.3,2.1-0.4s1.4-0.2,2.1-0.2c0.7,0,1.3-0.1,2,0s1.3,0.1,1.9,0.1s1.2,0.2,1.8,0.3c0.6,0.1,1.1,0.3,1.6,0.4
	c1,0.3,1.9,0.8,2.8,1.3c0.4,0.3,0.8,0.6,1.1,0.9c0.3,0.3,0.7,0.6,1,1c0.3,0.4,0.6,0.8,0.8,1.2c0.2,0.4,0.4,0.8,0.5,1.2
	c0.1,0.4,0.3,0.9,0.3,1.4c0.1,0.5,0.1,1,0.1,1.5c0,0.5,0,1-0.1,1.5c-0.1,0.5-0.2,1.1-0.3,1.6c-0.1,0.5-0.3,1.1-0.5,1.6
	c-0.2,0.5-0.5,1.1-0.7,1.6s-0.6,1.1-0.9,1.7s-0.7,1.1-1.1,1.7s-0.8,1.1-1.3,1.6s-1,1.1-1.5,1.6s-1.1,1-1.6,1.6s-1.1,1-1.8,1.5
	s-1.2,0.9-1.9,1.4s-1.3,0.9-2,1.3s-1.4,0.8-2.1,1.2s-1.4,0.7-2.1,1.1s-1.4,0.7-2.2,1s-1.5,0.6-2.2,0.8s-1.5,0.5-2.2,0.7
	s-1.5,0.4-2.2,0.5s-1.4,0.3-2.1,0.4s-1.4,0.2-2.1,0.2s-1.4,0-2,0s-1.3-0.1-1.9-0.1s-1.2-0.2-1.8-0.3c-0.6-0.1-1.1-0.3-1.6-0.4
	c-0.5-0.2-1-0.4-1.5-0.6c-0.5-0.2-0.9-0.5-1.3-0.7c-0.4-0.3-0.8-0.6-1.1-0.9c-0.4-0.3-0.7-0.6-1-1c-0.3-0.4-0.5-0.7-0.8-1.2
	c-0.2-0.4-0.4-0.8-0.6-1.2c-0.1-0.4-0.3-0.9-0.3-1.4c-0.2-1-0.2-2,0-3c0.1-0.5,0.2-1.1,0.3-1.6c0.1-0.5,0.3-1.1,0.5-1.6
	c0.2-0.6,0.4-1.1,0.7-1.7s0.6-1.1,0.9-1.7s0.7-1.1,1.1-1.7s0.8-1.1,1.3-1.6s0.9-1.1,1.5-1.6s1.1-1,1.6-1.6s1.1-1,1.8-1.5
	s1.2-1,1.9-1.4s1.3-0.9,2-1.3S240.2,84.7,240.9,84.3z"/>
<path class="st5" d="M246.7,95c-4.9,2.6-9.7,3.6-12.4,2.7c0,0.1,0,0.1,0.1,0.2c1.4,2.5,7.3,2,13.2-1.2s9.6-7.9,8.2-10.4l-0.1-0.2
	C255,88.8,251.5,92.4,246.7,95L246.7,95z"/>
<path class="st6" d="M243.4,88.9c4.9-2.6,9.7-3.6,12.4-2.7c0-0.1,0-0.1-0.1-0.2c-1.4-2.5-7.3-2-13.2,1.2s-9.6,7.9-8.2,10.4l0.1,0.2
	C235.1,95,238.5,91.5,243.4,88.9L243.4,88.9z"/>
<path class="st6" d="M252.5,105.7c-10.9,5.9-22.5,6.1-27.1,0.8c0.2,0.6,0.4,1.1,0.7,1.6c3.7,6.8,16.2,7,28.1,0.6
	c11.8-6.4,18.5-17.1,14.8-23.9c-0.3-0.5-0.6-1-1-1.4C269.9,90.2,263.5,99.8,252.5,105.7L252.5,105.7z"/>
<path class="st4" d="M139.7,80.9c0.2-0.4,0.5-0.8,0.8-1.1c0.3-0.4,0.6-0.7,1-1c0.4-0.3,0.8-0.6,1.2-0.9c0.4-0.3,0.9-0.5,1.3-0.7
	c0.5-0.2,1-0.4,1.5-0.6c0.5-0.2,1.1-0.3,1.6-0.4c0.6-0.1,1.2-0.2,1.8-0.2c0.6-0.1,1.2-0.1,1.9-0.1s1.3,0,2,0.1s1.4,0.1,2.1,0.2
	s1.4,0.2,2.1,0.4s1.4,0.3,2.2,0.6s1.5,0.4,2.2,0.7s1.4,0.6,2.2,0.9s1.4,0.7,2.1,1s1.4,0.7,2.1,1.1s1.4,0.8,2.1,1.2s1.3,0.9,1.9,1.3
	s1.3,0.9,1.9,1.4s1.2,1,1.7,1.5s1.1,1,1.6,1.6s1,1.1,1.4,1.6s0.9,1.1,1.3,1.7s0.8,1.1,1.1,1.7s0.6,1.1,0.9,1.7
	c0.3,0.5,0.5,1.1,0.7,1.7c0.2,0.5,0.4,1.1,0.5,1.6c0.1,0.5,0.2,1,0.3,1.6c0.1,0.5,0.1,1,0.1,1.5c0,0.5-0.1,1-0.1,1.4
	c-0.1,0.5-0.2,0.9-0.4,1.3c-0.2,0.4-0.4,0.9-0.6,1.2c-0.2,0.4-0.5,0.8-0.8,1.1c-0.3,0.4-0.6,0.7-1,1c-0.4,0.3-0.8,0.6-1.2,0.9
	c-0.4,0.3-0.9,0.5-1.3,0.7c-0.5,0.2-1,0.4-1.5,0.6c-0.5,0.2-1.1,0.3-1.6,0.4c-0.6,0.1-1.2,0.2-1.8,0.2s-1.2,0.1-1.9,0.1
	s-1.3,0-2-0.1s-1.4-0.1-2.1-0.2s-1.4-0.2-2.1-0.4s-1.4-0.3-2.2-0.6s-1.5-0.5-2.2-0.7s-1.4-0.6-2.2-0.9s-1.4-0.6-2.1-1
	s-1.4-0.7-2.1-1.1s-1.4-0.8-2.1-1.2s-1.3-0.9-1.9-1.3s-1.3-1-1.9-1.4s-1.2-1-1.7-1.5s-1.1-1-1.6-1.6s-1-1.1-1.4-1.6
	s-0.9-1.1-1.3-1.7s-0.8-1.1-1.1-1.7s-0.6-1.1-0.9-1.7c-0.3-0.5-0.5-1.1-0.7-1.7c-0.2-0.5-0.4-1.1-0.5-1.6c-0.1-0.5-0.2-1-0.3-1.6
	c-0.1-0.5-0.1-1-0.1-1.5c0-0.5,0.1-1,0.1-1.4c0.1-0.5,0.2-0.9,0.4-1.3C139.3,81.7,139.5,81.3,139.7,80.9z"/>
<path class="st5" d="M160.1,94.5c4.8,2.7,8.1,6.3,8.8,9.1c0.1-0.1,0.1-0.1,0.1-0.2c1.4-2.5-2.2-7.2-8-10.6s-11.8-4-13.2-1.5
	c0,0.1,0,0.1-0.1,0.2C150.4,90.7,155.3,91.8,160.1,94.5z"/>
<path class="st6" d="M156.6,100.5c-4.8-2.7-8.1-6.3-8.8-9.1l-0.1,0.2c-1.4,2.5,2.2,7.2,8,10.6s11.8,4,13.2,1.5
	c0-0.1,0.1-0.1,0.1-0.2C166.2,104.3,161.4,103.3,156.6,100.5z"/>
<path class="st6" d="M166.1,83.9c10.8,6.2,17.1,15.9,14.9,22.6c0.4-0.4,0.7-0.9,1-1.4c3.8-6.7-2.6-17.5-14.3-24.2s-24.3-6.7-28.1,0
	c-0.3,0.5-0.5,1-0.7,1.6C143.7,77.3,155.3,77.8,166.1,83.9L166.1,83.9z"/>
<path class="st4" d="M173.9,86.7c0.7-0.3,1.5-0.6,2.2-0.9s1.5-0.5,2.3-0.7s1.5-0.4,2.3-0.6s1.5-0.3,2.2-0.5s1.5-0.2,2.2-0.3
	s1.4-0.1,2.2-0.2s1.4,0,2.1,0s1.3,0.1,2,0.2c0.6,0.1,1.3,0.2,1.9,0.3c0.6,0.1,1.2,0.3,1.7,0.4c0.5,0.2,1.1,0.4,1.6,0.6
	c0.5,0.2,1,0.5,1.4,0.7c0.4,0.3,0.8,0.6,1.2,0.9c0.4,0.3,0.7,0.6,1.1,1c0.3,0.3,0.6,0.7,0.9,1.1c0.2,0.4,0.5,0.8,0.6,1.2
	c0.2,0.4,0.3,0.9,0.4,1.3c0.1,0.5,0.2,0.9,0.2,1.4c0,0.5,0,1,0,1.4c0,0.5-0.1,1-0.2,1.5c-0.1,0.5-0.3,1-0.5,1.5
	c-0.2,0.5-0.4,1.1-0.7,1.6c-0.3,0.5-0.6,1.1-0.9,1.6c-0.3,0.5-0.7,1-1.1,1.6c-0.4,0.5-0.8,1-1.3,1.5s-0.9,1-1.4,1.5s-1.1,1-1.6,1.4
	s-1.1,0.9-1.8,1.4s-1.2,0.9-1.9,1.3s-1.3,0.8-2,1.2s-1.4,0.8-2.1,1.1s-1.4,0.7-2.2,1s-1.5,0.6-2.2,0.9s-1.5,0.5-2.2,0.8
	s-1.5,0.4-2.3,0.6s-1.5,0.3-2.2,0.5s-1.5,0.2-2.2,0.3s-1.5,0.1-2.2,0.2s-1.4,0-2.1,0s-1.4-0.1-2-0.2c-0.6-0.1-1.3-0.2-1.9-0.3
	c-0.6-0.1-1.2-0.3-1.7-0.4c-0.5-0.2-1.1-0.4-1.6-0.6c-0.5-0.2-1-0.5-1.4-0.7c-0.4-0.3-0.9-0.5-1.2-0.9c-0.4-0.3-0.7-0.6-1.1-1
	c-0.3-0.3-0.6-0.7-0.9-1.1c-0.2-0.4-0.5-0.8-0.6-1.2c-0.2-0.4-0.3-0.9-0.4-1.3c-0.1-0.5-0.2-0.9-0.2-1.4c0-0.5,0-1,0-1.4
	c0-0.5,0.1-1,0.2-1.5c0.1-0.5,0.3-1,0.4-1.5c0.2-0.5,0.4-1.1,0.7-1.6c0.3-0.5,0.6-1.1,0.9-1.6c0.3-0.5,0.7-1,1.1-1.6s0.8-1,1.3-1.5
	s0.9-1,1.4-1.5s1-1,1.6-1.5s1.1-0.9,1.8-1.4s1.2-0.9,1.9-1.3s1.3-0.8,2-1.2s1.4-0.8,2.1-1.1S173.1,87,173.9,86.7z"/>
<path class="st5" d="M180,101.1c5.1-2.2,10-2.7,12.6-1.5c0-0.1,0-0.1-0.1-0.2c-1.1-2.7-7.1-2.7-13.3,0s-10.3,6.9-9.2,9.6
	c0,0.1,0.1,0.1,0.1,0.2C171.2,106.4,174.9,103.2,180,101.1z"/>
<path class="st6" d="M182.7,107.5c-5.1,2.2-10,2.7-12.6,1.5c0,0.1,0,0.1,0.1,0.2c1.1,2.7,7.1,2.7,13.3,0s10.3-7,9.2-9.6
	c0-0.1-0.1-0.1-0.1-0.2C191.6,102.1,187.8,105.3,182.7,107.5z"/>
<path class="st6" d="M175.2,89.9c11.4-4.9,23-4,27,1.7c-0.1-0.6-0.3-1.1-0.5-1.7c-3-7.1-15.5-8.5-27.9-3.2s-20,15.3-16.9,22.4
	c0.2,0.5,0.5,1,0.9,1.5C156.4,103.7,163.8,94.8,175.2,89.9L175.2,89.9z"/>
<path class="st4" d="M184.1,84c0.2-0.4,0.4-0.8,0.7-1.2c0.3-0.4,0.6-0.7,0.9-1c0.4-0.3,0.7-0.6,1.1-0.9c0.4-0.3,0.8-0.5,1.3-0.8
	c0.5-0.2,1-0.5,1.5-0.6c0.5-0.2,1.1-0.4,1.6-0.5c0.6-0.1,1.2-0.2,1.8-0.3c0.6-0.1,1.3-0.2,1.9-0.2c0.6,0,1.3,0,2,0s1.4,0.1,2.1,0.1
	s1.4,0.2,2.1,0.3s1.4,0.3,2.2,0.4s1.5,0.4,2.2,0.6s1.5,0.5,2.2,0.8s1.5,0.6,2.2,0.9s1.4,0.7,2.2,1s1.4,0.7,2.1,1.1s1.4,0.8,2,1.2
	s1.3,0.9,1.9,1.3s1.2,0.9,1.8,1.4s1.1,1,1.7,1.5s1,1,1.5,1.6s0.9,1.1,1.4,1.6s0.8,1.1,1.2,1.6s0.7,1.1,1,1.6s0.6,1.1,0.8,1.6
	s0.4,1.1,0.6,1.6c0.1,0.5,0.3,1,0.4,1.6c0.1,0.5,0.1,1,0.1,1.5c0,0.5,0,1-0.1,1.4c-0.1,0.5-0.2,0.9-0.3,1.4
	c-0.1,0.4-0.3,0.9-0.5,1.3c-0.2,0.4-0.4,0.8-0.7,1.2c-0.3,0.4-0.6,0.7-0.9,1c-0.3,0.3-0.7,0.6-1.1,0.9c-0.4,0.3-0.8,0.6-1.3,0.8
	c-0.5,0.2-1,0.5-1.5,0.6c-0.5,0.2-1.1,0.4-1.6,0.5c-0.6,0.1-1.2,0.2-1.8,0.3s-1.2,0.1-1.9,0.2s-1.3,0-2,0s-1.4-0.1-2.1-0.2
	s-1.4-0.2-2.1-0.3s-1.4-0.3-2.2-0.5s-1.5-0.4-2.2-0.6s-1.5-0.5-2.2-0.8s-1.5-0.6-2.2-0.9s-1.5-0.7-2.2-1s-1.4-0.7-2.1-1.1
	s-1.4-0.8-2-1.2s-1.3-0.9-1.9-1.3s-1.2-0.9-1.8-1.4s-1.1-1-1.7-1.5s-1-1-1.5-1.6s-0.9-1-1.4-1.6s-0.8-1-1.2-1.6s-0.7-1.1-1-1.6
	s-0.6-1.1-0.8-1.6s-0.4-1.1-0.6-1.6c-0.1-0.5-0.3-1-0.4-1.6c-0.1-0.5-0.1-1-0.1-1.5c0-0.5,0-1,0.1-1.4c0.1-0.5,0.2-0.9,0.3-1.4
	C183.7,84.8,183.9,84.4,184.1,84z"/>
<path class="st5" d="M206.6,93.5c-4.9-2.5-8.5-5.9-9.3-8.6c0,0.1-0.1,0.1-0.1,0.2c-1.3,2.6,2.5,7.1,8.5,10.2s11.9,3.4,13.2,0.8
	c0-0.1,0-0.1,0.1-0.2C216.4,96.9,211.6,96,206.6,93.5L206.6,93.5z"/>
<path class="st6" d="M209.8,87.3c4.9,2.5,8.5,5.9,9.3,8.6c0-0.1,0.1-0.1,0.1-0.2c1.3-2.6-2.5-7.1-8.5-10.2s-11.9-3.4-13.2-0.8
	c0,0.1,0,0.1-0.1,0.2C200,84,204.9,84.8,209.8,87.3L209.8,87.3z"/>
<path class="st6" d="M201.1,104.4c-11.1-5.6-17.8-15-16.1-21.8c-0.4,0.4-0.7,0.9-1,1.5c-3.5,6.9,3.4,17.4,15.5,23.5
	s24.6,5.4,28.1-1.4c0.3-0.5,0.5-1.1,0.6-1.6C223.8,109.9,212.3,110,201.1,104.4z"/>
<path class="st4" d="M162.2,140.7c0.1-0.5,0.2-0.9,0.3-1.3c0.1-0.4,0.3-0.9,0.5-1.3c0.2-0.4,0.5-0.8,0.8-1.2c0.3-0.4,0.6-0.8,1-1.2
	c0.4-0.4,0.8-0.7,1.2-1.1c0.4-0.4,0.9-0.7,1.4-1c0.5-0.3,1-0.6,1.6-0.9c0.6-0.3,1.1-0.5,1.7-0.8s1.2-0.4,1.9-0.6s1.3-0.4,2-0.5
	s1.4-0.3,2.1-0.4s1.5-0.2,2.2-0.3s1.5-0.1,2.3-0.1s1.6,0,2.3,0s1.6,0.1,2.4,0.1s1.6,0.2,2.4,0.3s1.6,0.2,2.4,0.4s1.6,0.3,2.3,0.5
	s1.5,0.4,2.2,0.7s1.5,0.5,2.2,0.8s1.4,0.6,2.1,0.9s1.3,0.6,1.9,1s1.2,0.7,1.8,1.1s1.1,0.8,1.6,1.2s1,0.8,1.4,1.2
	c0.4,0.4,0.9,0.8,1.2,1.3c0.4,0.4,0.7,0.9,1.1,1.3c0.3,0.4,0.6,0.9,0.8,1.4c0.2,0.4,0.4,0.9,0.6,1.4c0.2,0.5,0.3,0.9,0.4,1.4
	c0.1,0.5,0.1,0.9,0.2,1.4c0,0.9-0.1,1.8-0.4,2.7c-0.2,0.4-0.3,0.9-0.5,1.3c-0.2,0.4-0.5,0.8-0.8,1.2c-0.3,0.4-0.6,0.8-1,1.2
	c-0.4,0.4-0.8,0.7-1.2,1.1c-0.4,0.4-0.9,0.7-1.4,1c-0.5,0.3-1,0.6-1.6,0.9s-1.1,0.5-1.7,0.8c-0.6,0.2-1.2,0.5-1.9,0.6
	c-0.7,0.2-1.3,0.4-2,0.5c-0.7,0.1-1.4,0.3-2.1,0.4s-1.5,0.2-2.2,0.3s-1.5,0.1-2.3,0.1s-1.6,0-2.3,0s-1.6-0.1-2.4-0.1
	s-1.6-0.2-2.4-0.3s-1.6-0.2-2.4-0.4s-1.6-0.3-2.3-0.5s-1.5-0.4-2.2-0.7s-1.5-0.5-2.2-0.8s-1.4-0.6-2.1-0.9s-1.3-0.6-1.9-1
	s-1.2-0.7-1.8-1.1s-1.1-0.8-1.6-1.2s-1-0.8-1.4-1.2c-0.4-0.4-0.9-0.8-1.2-1.3c-0.4-0.4-0.7-0.9-1-1.3c-0.3-0.4-0.6-0.9-0.8-1.4
	c-0.2-0.4-0.4-0.9-0.6-1.4c-0.2-0.5-0.3-0.9-0.4-1.4c-0.1-0.5-0.1-0.9-0.1-1.4C162.1,141.7,162.1,141.2,162.2,140.7z"/>
<path class="st5" d="M186.1,145.9c5.4,0.8,9.9,2.9,11.6,5.2c0-0.1,0.1-0.1,0.1-0.2c0.4-2.9-4.7-6-11.3-6.9s-12.4,0.6-12.8,3.4
	c0,0.1,0,0.2,0,0.2C175.7,145.9,180.6,145.1,186.1,145.9L186.1,145.9z"/>
<path class="st6" d="M185.1,152.8c-5.4-0.8-9.9-2.9-11.5-5.2c0,0.1,0,0.1-0.1,0.2c-0.4,2.9,4.7,6,11.3,6.9s12.4-0.6,12.8-3.4
	c0-0.1,0-0.1,0-0.2C195.4,152.8,190.5,153.6,185.1,152.8L185.1,152.8z"/>
<path class="st6" d="M187.8,133.9c12.3,1.8,21.7,8.5,22.2,15.5c0.2-0.6,0.3-1.1,0.4-1.7c1.1-7.6-8.8-15.4-22.1-17.3
	s-25,2.7-26.1,10.3c-0.1,0.6-0.1,1.2-0.1,1.8C164.6,135.9,175.5,132.1,187.8,133.9z"/>
<path class="st4" d="M141.4,140c0.3-0.4,0.6-0.7,0.9-1c0.3-0.3,0.7-0.6,1.1-0.9c0.4-0.3,0.8-0.5,1.2-0.7c0.5-0.2,0.9-0.4,1.4-0.6
	c0.5-0.2,1-0.3,1.6-0.4c0.6-0.1,1.1-0.2,1.7-0.2c0.6,0,1.2-0.1,1.8-0.1s1.2,0.1,1.9,0.1s1.3,0.2,2,0.3s1.4,0.3,2,0.5
	s1.4,0.4,2.1,0.6s1.4,0.5,2.1,0.8s1.4,0.6,2.1,1s1.4,0.7,2.1,1.1s1.4,0.8,2,1.2s1.3,0.9,2,1.4s1.3,1,1.9,1.5s1.2,1,1.8,1.6
	s1.1,1.1,1.7,1.6s1.1,1.1,1.6,1.7s1,1.2,1.4,1.8s0.9,1.2,1.2,1.8s0.7,1.2,1.1,1.8s0.6,1.2,0.9,1.8s0.5,1.2,0.7,1.8s0.4,1.2,0.5,1.7
	c0.1,0.6,0.2,1.1,0.3,1.7c0.1,0.5,0.1,1.1,0.1,1.6c0,0.5,0,1-0.1,1.5c-0.1,0.9-0.4,1.9-0.8,2.7c-0.2,0.4-0.4,0.8-0.7,1.2
	c-0.3,0.4-0.6,0.7-0.9,1c-0.3,0.3-0.7,0.6-1.1,0.9c-0.4,0.3-0.8,0.5-1.3,0.7c-0.5,0.2-0.9,0.4-1.4,0.6c-0.5,0.2-1,0.3-1.6,0.4
	c-0.6,0.1-1.1,0.2-1.7,0.2c-0.6,0-1.2,0.1-1.8,0s-1.2-0.1-1.9-0.1s-1.3-0.2-2-0.3s-1.4-0.3-2-0.5s-1.4-0.4-2.1-0.6s-1.4-0.5-2.1-0.8
	s-1.4-0.6-2.1-0.9s-1.4-0.7-2.1-1.1s-1.4-0.8-2-1.2s-1.3-0.9-2-1.4s-1.3-1-1.9-1.5s-1.2-1-1.8-1.6s-1.1-1.1-1.7-1.6
	s-1.1-1.1-1.6-1.7s-1-1.2-1.4-1.7s-0.9-1.2-1.2-1.8s-0.8-1.2-1.1-1.8s-0.6-1.2-0.9-1.8s-0.5-1.2-0.7-1.8s-0.4-1.2-0.5-1.7
	s-0.2-1.1-0.3-1.7c-0.1-0.5-0.1-1.1-0.1-1.6c0-0.5,0-1,0.1-1.5c0.1-0.5,0.2-1,0.3-1.4c0.1-0.4,0.3-0.9,0.5-1.3
	C140.9,140.8,141.1,140.4,141.4,140z"/>
<path class="st5" d="M162.1,152.9c-4.5-3.2-7.4-7.2-7.8-10l-0.1,0.2c-1.7,2.3,1.4,7.4,6.8,11.4s11.2,5.3,12.9,2.9
	c0-0.1,0.1-0.1,0.1-0.2C171.3,157.8,166.6,156.2,162.1,152.9L162.1,152.9z"/>
<path class="st6" d="M166.2,147.3c4.5,3.2,7.4,7.2,7.8,10c0-0.1,0.1-0.1,0.1-0.2c1.7-2.3-1.4-7.5-6.8-11.4s-11.2-5.3-12.9-2.9
	c0,0.1-0.1,0.1-0.1,0.2C157.1,142.4,161.8,144,166.2,147.3L166.2,147.3z"/>
<path class="st6" d="M155,162.8c-10.1-7.3-15.2-17.7-12.4-24.1c-0.5,0.4-0.9,0.8-1.2,1.3c-4.5,6.2,0.6,17.7,11.6,25.6
	s23.4,9.3,27.9,3.1c0.3-0.5,0.6-1,0.9-1.5C176.5,171.8,165,170.1,155,162.8L155,162.8z"/>
<path class="st4" d="M293.7,115.7c0.3-0.4,0.6-0.7,0.9-1c0.3-0.3,0.7-0.6,1.1-0.9c0.4-0.3,0.8-0.5,1.2-0.7c0.5-0.2,0.9-0.4,1.4-0.6
	c0.5-0.2,1-0.3,1.5-0.4c0.6-0.1,1.1-0.2,1.7-0.2c0.6,0,1.2-0.1,1.8,0s1.2,0.1,1.9,0.1s1.3,0.2,2,0.3s1.3,0.3,2,0.5s1.4,0.4,2.1,0.6
	s1.4,0.5,2.1,0.8s1.4,0.6,2.1,1s1.4,0.7,2.1,1.1s1.4,0.8,2,1.2s1.3,0.9,2,1.3s1.3,1,1.9,1.5s1.2,1,1.8,1.6s1.1,1.1,1.7,1.6
	s1.1,1.1,1.5,1.7s1,1.2,1.4,1.7s0.9,1.2,1.2,1.8s0.8,1.2,1.1,1.8s0.6,1.2,0.9,1.8s0.5,1.2,0.7,1.8c0.2,0.6,0.4,1.1,0.5,1.7
	c0.1,0.6,0.2,1.1,0.3,1.7c0.1,0.5,0.1,1.1,0.1,1.6c0,0.5,0,1-0.1,1.5c-0.1,0.5-0.2,1-0.3,1.4c-0.1,0.4-0.3,0.9-0.5,1.3
	c-0.2,0.4-0.4,0.8-0.7,1.2c-0.3,0.4-0.6,0.7-0.9,1c-0.3,0.3-0.7,0.6-1.1,0.9c-0.4,0.3-0.8,0.5-1.2,0.7c-0.5,0.2-0.9,0.4-1.4,0.6
	c-0.5,0.2-1,0.3-1.6,0.4c-0.6,0.1-1.1,0.2-1.7,0.2c-0.6,0-1.2,0.1-1.8,0.1s-1.2-0.1-1.9-0.1s-1.3-0.2-2-0.3s-1.4-0.3-2-0.5
	s-1.4-0.4-2.1-0.6s-1.4-0.5-2.1-0.8s-1.4-0.6-2.1-1s-1.4-0.7-2.1-1.1s-1.4-0.8-2-1.2s-1.3-0.9-2-1.4s-1.3-1-1.9-1.5s-1.2-1-1.8-1.6
	s-1.1-1.1-1.7-1.6s-1-1.1-1.5-1.7s-1-1.2-1.4-1.8s-0.9-1.2-1.2-1.8s-0.8-1.2-1.1-1.8s-0.6-1.2-0.9-1.8c-0.3-0.6-0.5-1.2-0.7-1.8
	c-0.2-0.6-0.4-1.1-0.5-1.7c-0.1-0.6-0.2-1.1-0.3-1.7c-0.1-0.5-0.1-1.1-0.1-1.6c0-1,0.1-2,0.4-2.9c0.1-0.4,0.3-0.9,0.5-1.3
	C293.2,116.5,293.4,116.1,293.7,115.7z"/>
<path class="st5" d="M314.4,128.6c-4.5-3.2-7.4-7.2-7.8-10c-0.1,0.1-0.1,0.1-0.1,0.2c-1.7,2.3,1.4,7.4,6.8,11.4
	c5.4,4,11.2,5.3,12.9,2.9c0-0.1,0.1-0.1,0.1-0.2C323.6,133.4,318.9,131.9,314.4,128.6z"/>
<path class="st6" d="M318.5,123c4.5,3.2,7.4,7.2,7.8,10c0-0.1,0.1-0.1,0.1-0.2c1.7-2.3-1.4-7.4-6.8-11.4s-11.2-5.3-12.9-2.9
	c0,0.1-0.1,0.1-0.1,0.2C309.4,118.1,314,119.7,318.5,123L318.5,123z"/>
<path class="st6" d="M307.3,138.4c-10.1-7.3-15.2-17.7-12.4-24.1c-0.4,0.4-0.8,0.8-1.2,1.3c-4.5,6.2,0.6,17.7,11.5,25.6
	s23.4,9.3,27.9,3.1c0.3-0.5,0.6-1,0.9-1.5C328.8,147.5,317.3,145.8,307.3,138.4z"/>
<path class="st4" d="M246.3,140.4c0.6-0.6,1.1-1.1,1.7-1.6s1.2-1,1.8-1.5s1.2-1,1.9-1.4s1.3-0.9,1.9-1.3s1.3-0.8,1.9-1.1
	s1.3-0.7,2-0.9s1.3-0.6,1.9-0.8s1.3-0.4,1.9-0.6s1.2-0.3,1.9-0.4s1.2-0.2,1.8-0.2s1.1-0.1,1.7,0c0.5,0,1.1,0.1,1.6,0.2
	c0.5,0.1,1,0.2,1.5,0.3c0.5,0.1,0.9,0.3,1.4,0.5c0.4,0.2,0.8,0.4,1.2,0.7c0.4,0.3,0.7,0.6,1,0.9c0.3,0.3,0.6,0.6,0.9,1
	c0.3,0.4,0.5,0.8,0.7,1.2c0.2,0.4,0.4,0.9,0.5,1.4c0.1,0.5,0.3,1,0.3,1.5c0.1,0.5,0.1,1.1,0.1,1.6c0,0.6,0,1.1,0,1.7
	c0,0.6-0.1,1.2-0.2,1.8c-0.1,0.6-0.3,1.2-0.4,1.9c-0.2,0.6-0.4,1.3-0.6,1.9s-0.5,1.3-0.8,1.9s-0.6,1.3-1,1.9s-0.7,1.3-1.1,2
	s-0.8,1.3-1.3,1.9s-0.9,1.3-1.4,1.9s-1,1.2-1.5,1.8s-1.1,1.2-1.6,1.7s-1.1,1.1-1.7,1.6s-1.2,1-1.8,1.5s-1.2,0.9-1.9,1.4
	s-1.3,0.9-1.9,1.3s-1.3,0.8-2,1.1s-1.3,0.7-2,0.9s-1.3,0.6-1.9,0.8s-1.3,0.4-1.9,0.6s-1.2,0.3-1.9,0.4c-1.1,0.2-2.3,0.3-3.5,0.3
	c-0.5,0-1.1-0.1-1.6-0.1c-0.5-0.1-1-0.2-1.5-0.4c-0.5-0.1-0.9-0.3-1.4-0.5c-0.4-0.2-0.8-0.4-1.2-0.7c-0.4-0.3-0.7-0.6-1-0.9
	c-0.3-0.3-0.6-0.7-0.9-1.1c-0.3-0.4-0.5-0.8-0.7-1.2c-0.2-0.4-0.4-0.9-0.5-1.4c-0.2-0.5-0.3-1-0.3-1.5c-0.1-0.5-0.1-1.1-0.1-1.6
	c0-0.6,0-1.1,0.1-1.7c0-0.6,0.1-1.2,0.2-1.8c0.1-0.6,0.2-1.2,0.4-1.9s0.4-1.3,0.6-1.9s0.5-1.3,0.8-1.9s0.6-1.3,0.9-1.9
	s0.7-1.3,1.1-1.9s0.8-1.3,1.3-1.9s0.9-1.3,1.4-1.9s1-1.2,1.5-1.8S245.7,141,246.3,140.4z"/>
<path class="st5" d="M254.9,149c-3.9,3.9-8.3,6.2-11.1,6.1c0,0.1,0.1,0.1,0.1,0.2c2,2,7.6-0.1,12.3-4.9s7-10.3,5-12.3
	c-0.1,0-0.2,0-0.3-0.1C261.1,140.8,258.8,145.2,254.9,149L254.9,149z"/>
<path class="st6" d="M250,144.1c3.9-3.9,8.3-6.2,11.1-6.1c0-0.1-0.1-0.1-0.1-0.2c-2-2-7.6,0.1-12.3,4.9s-7,10.3-4.9,12.3l0.2,0.1
	C243.8,152.4,246.1,148,250,144.1L250,144.1z"/>
<path class="st6" d="M263.5,157.7c-8.8,8.8-19.8,12.2-25.7,8.4c0.3,0.5,0.7,0.9,1.1,1.4c5.4,5.4,17.6,2.1,27.1-7.4
	s12.9-21.6,7.4-27.1c-0.4-0.4-0.9-0.8-1.4-1C275.8,137.9,272.3,149,263.5,157.7L263.5,157.7z"/>
<path class="st4" d="M82.2,128.1c0.7-0.5,1.3-0.9,2-1.3s1.4-0.8,2.1-1.2s1.4-0.7,2.1-1s1.4-0.6,2.1-0.9s1.4-0.5,2.1-0.7
	s1.4-0.4,2.1-0.6s1.4-0.3,2-0.4s1.3-0.2,2-0.2s1.3-0.1,1.9-0.1s1.2,0.1,1.8,0.1c0.6,0.1,1.1,0.2,1.7,0.3c0.5,0.1,1,0.3,1.5,0.5
	c0.5,0.2,0.9,0.4,1.4,0.6c0.4,0.2,0.8,0.5,1.2,0.8c0.4,0.3,0.7,0.6,1,0.9c0.3,0.3,0.6,0.7,0.9,1.1c0.3,0.4,0.5,0.8,0.7,1.2
	c0.4,0.9,0.6,1.8,0.7,2.8c0,0.5,0,1,0,1.5c0,0.5-0.1,1.1-0.2,1.6c-0.1,0.6-0.2,1.1-0.4,1.7c-0.2,0.6-0.3,1.1-0.6,1.7
	c-0.2,0.6-0.5,1.1-0.8,1.7s-0.6,1.2-1,1.8s-0.7,1.2-1.2,1.8s-0.8,1.2-1.3,1.7s-1,1.1-1.5,1.7s-1.1,1.1-1.6,1.6s-1.2,1.1-1.8,1.6
	s-1.2,1-1.8,1.5s-1.3,0.9-2,1.4s-1.3,0.9-2,1.3s-1.4,0.8-2.1,1.1s-1.4,0.7-2.1,1s-1.4,0.6-2.1,0.9s-1.4,0.5-2.1,0.7
	s-1.4,0.4-2.1,0.6s-1.4,0.3-2,0.4s-1.3,0.2-2,0.2s-1.3,0.1-1.9,0.1c-0.6,0-1.2,0-1.8-0.1c-0.6-0.1-1.1-0.2-1.7-0.3
	c-0.5-0.1-1-0.3-1.5-0.5c-0.5-0.2-0.9-0.4-1.4-0.6c-0.4-0.2-0.8-0.5-1.2-0.8c-0.4-0.3-0.7-0.6-1-0.9c-0.3-0.3-0.6-0.7-0.9-1.1
	c-0.3-0.4-0.5-0.8-0.7-1.2c-0.4-0.9-0.6-1.8-0.7-2.7c0-0.5,0-1,0-1.5c0-0.5,0.1-1.1,0.2-1.6c0.1-0.6,0.2-1.1,0.4-1.7
	c0.2-0.6,0.3-1.1,0.6-1.7s0.5-1.2,0.8-1.7s0.6-1.2,1-1.8s0.7-1.2,1.2-1.8s0.8-1.1,1.3-1.7s0.9-1.1,1.5-1.7s1-1.1,1.6-1.6
	s1.2-1.1,1.8-1.6s1.2-1,1.8-1.5S81.6,128.6,82.2,128.1z"/>
<path class="st5" d="M91,141.1c4.6-3.1,9.3-4.5,12.1-3.9c0-0.1-0.1-0.1-0.1-0.2c-1.6-2.4-7.5-1.3-13,2.4s-8.8,8.7-7.2,11.1
	c0,0.1,0.1,0.1,0.2,0.2C83.3,148,86.4,144.2,91,141.1z"/>
<path class="st6" d="M94.8,146.9c-4.6,3.1-9.3,4.5-12.1,3.9c0,0.1,0.1,0.1,0.1,0.2c1.6,2.4,7.5,1.3,13-2.4s8.8-8.7,7.2-11.1
	l-0.2-0.2C102.5,140,99.4,143.8,94.8,146.9L94.8,146.9z"/>
<path class="st6" d="M84.2,131c10.3-6.9,21.8-8.2,26.9-3.4c-0.2-0.5-0.5-1.1-0.8-1.6c-4.3-6.4-16.8-5.5-28,2
	c-11.2,7.5-16.8,18.8-12.5,25.1c0.3,0.5,0.7,0.9,1.1,1.4C68.3,148,73.9,137.9,84.2,131L84.2,131z"/>
<line class="st7" x1="191.9" y1="210.7" x2="239.9" y2="168.4"/>
<line class="st7" x1="270" y1="118.6" x2="292.6" y2="75.4"/>
<line class="st7" x1="125" y1="110.2" x2="103.8" y2="74.5"/>
<line class="st7" x1="161.1" y1="56.9" x2="169.7" y2="69.5"/>
<polyline class="st8" points="54,77.5 49.1,77.5 49.1,206.8 54,206.8 "/>
<path class="st9" d="M257.2,67h-2.7v2.8h-0.8v-6.4h4v0.7h-3.1v2.2h2.7L257.2,67z"/>
<path class="st9" d="M261.3,69.8c-0.1-0.2-0.1-0.3-0.1-0.5c-0.3,0.4-0.8,0.6-1.4,0.6c-0.4,0-0.8-0.1-1.2-0.4c-0.3-0.2-0.5-0.6-0.5-1
	c0-0.5,0.2-0.9,0.6-1.2c0.5-0.3,1-0.4,1.6-0.4h0.8v-0.4c0-0.3-0.1-0.5-0.3-0.7c-0.2-0.2-0.5-0.3-0.8-0.3c-0.3,0-0.5,0.1-0.7,0.2
	c-0.2,0.1-0.3,0.3-0.3,0.5h-0.8c0-0.3,0.1-0.5,0.2-0.7c0.2-0.2,0.4-0.4,0.7-0.5c0.3-0.1,0.6-0.2,1-0.2c0.5,0,0.9,0.1,1.3,0.4
	c0.3,0.3,0.5,0.7,0.5,1.1v2.2c0,0.3,0.1,0.7,0.2,1v0.1L261.3,69.8z M259.9,69.2c0.3,0,0.5-0.1,0.7-0.2c0.2-0.1,0.4-0.3,0.5-0.5v-1
	h-0.6c-1,0-1.5,0.3-1.5,0.9c0,0.2,0.1,0.4,0.2,0.6C259.5,69.1,259.7,69.2,259.9,69.2z"/>
<path class="st9" d="M265.1,69.2c0.3,0,0.5-0.1,0.8-0.3c0.2-0.2,0.3-0.4,0.4-0.7h0.7c0,0.3-0.1,0.6-0.3,0.8
	c-0.2,0.3-0.4,0.5-0.7,0.6c-0.3,0.1-0.6,0.2-0.9,0.2c-0.6,0-1.1-0.2-1.5-0.7c-0.4-0.5-0.6-1.1-0.6-1.8v-0.1c0-0.4,0.1-0.8,0.3-1.2
	c0.2-0.3,0.4-0.6,0.7-0.8c0.3-0.2,0.7-0.3,1.1-0.3c0.5,0,1,0.2,1.3,0.5c0.4,0.3,0.6,0.8,0.6,1.2h-0.8c0-0.6-0.5-1-1.1-1
	c-0.4,0-0.8,0.1-1,0.4c-0.3,0.4-0.4,0.8-0.3,1.3v0.2c0,0.4,0.1,0.9,0.3,1.3C264.4,69.1,264.8,69.3,265.1,69.2z"/>
<path class="st9" d="M269.1,63.9v1.1h0.9v0.6h-0.9v3c0,0.2,0,0.3,0.1,0.4c0.1,0.1,0.3,0.2,0.4,0.1c0.1,0,0.3,0,0.4,0v0.7
	c-0.2,0.1-0.4,0.1-0.6,0.1c-0.3,0-0.6-0.1-0.8-0.3c-0.2-0.3-0.3-0.6-0.3-0.9v-3h-0.9v-0.6h0.9v-1.2H269.1z"/>
<path class="st9" d="M270.6,67.4c0-0.4,0.1-0.9,0.3-1.3c0.2-0.4,0.4-0.7,0.8-0.9c0.3-0.2,0.7-0.3,1.1-0.3c0.6,0,1.2,0.2,1.6,0.7
	c0.4,0.5,0.6,1.1,0.6,1.8v0.1c0,0.4-0.1,0.9-0.3,1.2c-0.2,0.4-0.4,0.7-0.8,0.9c-0.3,0.2-0.7,0.3-1.1,0.3c-0.6,0-1.2-0.2-1.6-0.7
	C270.8,68.7,270.6,68.1,270.6,67.4L270.6,67.4z M271.4,67.5c0,0.5,0.1,0.9,0.4,1.3c0.2,0.3,0.6,0.5,1,0.5c0.4,0,0.8-0.2,1-0.5
	c0.3-0.4,0.4-0.9,0.4-1.4c0-0.5-0.1-0.9-0.4-1.3c-0.2-0.3-0.6-0.5-1-0.5c-0.4,0-0.8,0.2-1,0.5C271.5,66.5,271.4,67,271.4,67.5z"/>
<path class="st9" d="M278.2,65.8c-0.1,0-0.3,0-0.4,0c-0.5,0-0.9,0.2-1.1,0.7v3.4h-0.8v-4.8h0.8v0.6c0.2-0.4,0.7-0.7,1.1-0.6
	c0.1,0,0.2,0,0.4,0.1L278.2,65.8z"/>
<path class="st9" d="M281,67.4c0-0.6,0.1-1.2,0.5-1.8c0.6-0.8,1.7-0.9,2.5-0.3c0.1,0.1,0.1,0.1,0.2,0.2v-2.5h0.8v6.7h-0.8v-0.5
	c-0.3,0.4-0.8,0.6-1.4,0.6c-0.5,0-1-0.2-1.3-0.7C281.2,68.7,281,68.1,281,67.4L281,67.4z M281.8,67.5c0,0.4,0.1,0.9,0.3,1.3
	c0.2,0.3,0.6,0.5,0.9,0.5c0.5,0,0.9-0.3,1.1-0.7v-2.2c-0.2-0.4-0.6-0.7-1.1-0.7c-0.4,0-0.7,0.2-0.9,0.5
	C281.9,66.5,281.8,67,281.8,67.5L281.8,67.5z"/>
<path class="st9" d="M288.3,69.9c-0.6,0-1.2-0.2-1.6-0.6c-0.4-0.5-0.6-1.1-0.6-1.7v-0.2c0-0.4,0.1-0.9,0.3-1.3
	c0.2-0.4,0.4-0.7,0.8-0.9c0.3-0.2,0.7-0.3,1-0.3c0.5,0,1.1,0.2,1.4,0.6c0.4,0.5,0.6,1.1,0.5,1.8v0.3h-3.2c0,0.4,0.1,0.8,0.4,1.1
	c0.3,0.3,0.6,0.5,1,0.4c0.3,0,0.5-0.1,0.7-0.2c0.2-0.1,0.4-0.3,0.5-0.5L290,69C289.7,69.6,289,69.9,288.3,69.9z M288.2,65.6
	c-0.3,0-0.6,0.1-0.8,0.4c-0.2,0.3-0.4,0.6-0.4,1h2.4v-0.1c0-0.4-0.1-0.7-0.3-1C288.8,65.7,288.5,65.6,288.2,65.6z"/>
<path class="st9" d="M295.2,69.2c0.3,0,0.6-0.1,0.8-0.2c0.2-0.2,0.3-0.4,0.4-0.7h0.8c0,0.3-0.1,0.6-0.3,0.8
	c-0.2,0.3-0.4,0.5-0.7,0.6c-0.3,0.1-0.6,0.2-0.9,0.2c-0.6,0-1.1-0.2-1.5-0.7c-0.4-0.5-0.6-1.1-0.6-1.8v-0.1c0-0.4,0.1-0.8,0.3-1.2
	c0.2-0.3,0.4-0.6,0.7-0.8c0.3-0.2,0.7-0.3,1.1-0.3c0.5,0,1,0.2,1.3,0.5c0.4,0.3,0.6,0.8,0.6,1.2h-0.8c0-0.6-0.5-1-1.1-1
	c-0.4,0-0.8,0.1-1,0.4c-0.3,0.4-0.4,0.8-0.3,1.3v0.2c0,0.4,0.1,0.9,0.3,1.3C294.5,69.1,294.8,69.3,295.2,69.2z"/>
<path class="st9" d="M297.8,67.4c0-0.4,0.1-0.9,0.3-1.3c0.2-0.4,0.4-0.7,0.8-0.9c0.3-0.2,0.7-0.3,1.1-0.3c0.6,0,1.2,0.2,1.6,0.7
	c0.4,0.5,0.6,1.1,0.6,1.8v0.1c0,0.4-0.1,0.9-0.3,1.2c-0.2,0.4-0.4,0.7-0.8,0.9c-0.3,0.2-0.7,0.3-1.1,0.3c-0.6,0-1.2-0.2-1.6-0.7
	C298,68.7,297.7,68.1,297.8,67.4L297.8,67.4z M298.6,67.5c0,0.5,0.1,0.9,0.4,1.3c0.2,0.3,0.6,0.5,1,0.5c0.4,0,0.8-0.2,1-0.5
	c0.3-0.4,0.4-0.9,0.4-1.4c0-0.5-0.1-0.9-0.4-1.3c-0.4-0.5-1.2-0.6-1.7-0.2c-0.1,0.1-0.2,0.1-0.2,0.2C298.7,66.5,298.6,67,298.6,67.5
	z"/>
<path class="st9" d="M306.1,69.8c-0.1-0.2-0.1-0.3-0.1-0.5c-0.3,0.4-0.8,0.6-1.4,0.6c-0.4,0-0.8-0.1-1.2-0.4c-0.3-0.2-0.5-0.6-0.5-1
	c0-0.5,0.2-0.9,0.6-1.2c0.5-0.3,1-0.4,1.6-0.4h0.8v-0.4c0-0.3-0.1-0.5-0.3-0.7c-0.2-0.2-0.5-0.3-0.8-0.3c-0.3,0-0.5,0.1-0.7,0.2
	c-0.2,0.1-0.3,0.3-0.3,0.5h-0.8c0-0.3,0.1-0.5,0.2-0.7c0.2-0.2,0.4-0.4,0.7-0.5c0.3-0.1,0.7-0.2,1-0.2c0.5,0,0.9,0.1,1.3,0.4
	c0.3,0.3,0.5,0.7,0.5,1.1v2.2c0,0.3,0.1,0.7,0.2,1v0.1L306.1,69.8z M304.7,69.2c0.3,0,0.5-0.1,0.7-0.2c0.2-0.1,0.4-0.3,0.5-0.5v-1
	h-0.6c-1,0-1.5,0.3-1.5,0.9c0,0.2,0.1,0.4,0.2,0.6C304.2,69.1,304.5,69.2,304.7,69.2z"/>
<path class="st9" d="M307.8,67.4c0-0.6,0.1-1.3,0.5-1.8c0.6-0.8,1.8-0.9,2.5-0.2c0.1,0.1,0.2,0.1,0.2,0.2v-0.5h0.8v4.6
	c0,0.5-0.2,1.1-0.5,1.4c-0.4,0.4-0.9,0.6-1.5,0.5c-0.3,0-0.7-0.1-1-0.2c-0.3-0.1-0.6-0.3-0.8-0.6l0.4-0.5c0.3,0.4,0.8,0.6,1.3,0.6
	c0.3,0,0.7-0.1,0.9-0.3c0.2-0.3,0.3-0.6,0.3-0.9v-0.4c-0.3,0.4-0.8,0.6-1.3,0.6c-0.5,0-1-0.2-1.4-0.7C308,68.7,307.8,68,307.8,67.4z
	 M308.6,67.5c0,0.4,0.1,0.9,0.3,1.3c0.2,0.3,0.6,0.5,0.9,0.5c0.5,0,0.9-0.3,1.1-0.7v-2.2c-0.2-0.4-0.6-0.7-1.1-0.7
	c-0.4,0-0.7,0.2-0.9,0.5C308.7,66.5,308.6,67,308.6,67.5z"/>
<path class="st9" d="M316,69.3c-0.4,0.4-0.9,0.6-1.4,0.6c-0.4,0-0.9-0.1-1.2-0.4c-0.3-0.4-0.4-0.8-0.4-1.3v-3.1h0.8v3.1
	c0,0.7,0.3,1.1,0.9,1.1c0.5,0.1,1-0.2,1.2-0.7v-3.5h0.8v4.8H316V69.3z"/>
<path class="st9" d="M318.9,69.8h-0.8v-6.7h0.8V69.8z"/>
<path class="st9" d="M323.1,69.8c-0.1-0.2-0.1-0.3-0.1-0.5c-0.3,0.4-0.8,0.6-1.4,0.6c-0.4,0-0.8-0.1-1.2-0.4c-0.3-0.2-0.5-0.6-0.5-1
	c0-0.5,0.2-0.9,0.6-1.2c0.5-0.3,1-0.4,1.6-0.4h0.8v-0.4c0-0.3-0.1-0.5-0.3-0.7c-0.2-0.2-0.5-0.3-0.8-0.3c-0.3,0-0.5,0.1-0.7,0.2
	c-0.2,0.1-0.3,0.3-0.3,0.5h-0.8c0-0.3,0.1-0.5,0.2-0.7c0.2-0.2,0.4-0.4,0.7-0.5c0.3-0.1,0.6-0.2,1-0.2c0.5,0,0.9,0.1,1.3,0.4
	c0.3,0.3,0.5,0.7,0.5,1.1v2.2c0,0.3,0.1,0.7,0.2,1v0.1L323.1,69.8z M321.8,69.2c0.3,0,0.5-0.1,0.7-0.2c0.2-0.1,0.4-0.3,0.5-0.5v-1
	h-0.6c-1,0-1.5,0.3-1.5,0.9c0,0.2,0.1,0.4,0.2,0.6C321.3,69.1,321.6,69.2,321.8,69.2z"/>
<path class="st9" d="M327,69.2c0.3,0,0.5-0.1,0.8-0.3c0.2-0.2,0.3-0.4,0.4-0.7h0.8c0,0.3-0.1,0.6-0.3,0.8c-0.2,0.3-0.4,0.5-0.7,0.6
	c-0.3,0.1-0.6,0.2-0.9,0.2c-0.6,0-1.1-0.2-1.5-0.7c-0.4-0.5-0.6-1.1-0.6-1.8v-0.1c0-0.4,0.1-0.8,0.3-1.2c0.2-0.3,0.4-0.6,0.7-0.8
	c0.3-0.2,0.7-0.3,1.1-0.3c0.5,0,1,0.2,1.3,0.5c0.4,0.3,0.6,0.8,0.6,1.2h-0.8c0-0.6-0.5-1-1.1-1c-0.4,0-0.8,0.1-1,0.4
	c-0.3,0.4-0.4,0.8-0.3,1.3v0.2c0,0.4,0.1,0.9,0.3,1.3C326.2,69.2,326.6,69.3,327,69.2z"/>
<path class="st9" d="M329.8,63.8c0-0.1,0-0.2,0.1-0.3c0.2-0.2,0.5-0.2,0.7,0c0.1,0.1,0.1,0.2,0.1,0.3c0,0.1,0,0.2-0.1,0.3
	c-0.2,0.2-0.5,0.2-0.7,0C329.9,64,329.8,63.9,329.8,63.8z M330.7,69.8h-0.8v-4.7h0.8V69.8z"/>
<path class="st9" d="M331.8,67.4c0-0.4,0.1-0.9,0.3-1.3c0.4-0.7,1.1-1.2,1.9-1.1c0.6,0,1.2,0.2,1.6,0.7c0.4,0.5,0.6,1.1,0.6,1.8v0.1
	c0,0.4-0.1,0.9-0.3,1.2c-0.2,0.4-0.4,0.7-0.8,0.9c-0.3,0.2-0.7,0.3-1.1,0.3c-0.6,0-1.2-0.2-1.6-0.7C332,68.8,331.8,68.1,331.8,67.4
	L331.8,67.4z M332.6,67.5c0,0.5,0.1,0.9,0.4,1.3c0.2,0.3,0.6,0.5,1,0.5c0.4,0,0.8-0.2,1-0.5c0.3-0.4,0.4-0.9,0.4-1.4
	c0-0.5-0.1-0.9-0.4-1.3c-0.2-0.3-0.6-0.5-1-0.5c-0.4,0-0.8,0.2-1,0.5C332.7,66.5,332.6,67,332.6,67.5L332.6,67.5z M334.3,63.1h1
	l-1.2,1.3h-0.7L334.3,63.1z"/>
<path class="st9" d="M337.9,65.1v0.6c0.3-0.4,0.9-0.7,1.4-0.7c1,0,1.5,0.6,1.5,1.7v3.1H340v-3.1c0-0.3-0.1-0.6-0.2-0.8
	c-0.2-0.2-0.5-0.3-0.7-0.2c-0.2,0-0.5,0.1-0.7,0.2c-0.2,0.1-0.4,0.3-0.5,0.6v3.4h-0.8v-4.8H337.9z"/>
<path class="st9" d="M180.5,214.3c-0.6-0.1-1.1-0.4-1.6-0.8c-0.3-0.3-0.5-0.7-0.5-1.1c0-0.5,0.2-0.9,0.6-1.2c0.5-0.3,1-0.5,1.6-0.5
	c0.4,0,0.8,0.1,1.2,0.2c0.3,0.2,0.6,0.4,0.8,0.7c0.2,0.3,0.3,0.6,0.3,1H182c0-0.3-0.1-0.7-0.4-0.9c-0.3-0.2-0.6-0.3-1-0.3
	c-0.4,0-0.7,0.1-1,0.3c-0.2,0.2-0.4,0.5-0.4,0.8c0,0.3,0.1,0.5,0.3,0.7c0.3,0.2,0.7,0.4,1.1,0.5c0.4,0.1,0.9,0.3,1.2,0.5
	c0.3,0.2,0.5,0.4,0.7,0.6c0.1,0.3,0.2,0.6,0.2,0.9c0,0.5-0.2,1-0.6,1.2c-0.5,0.3-1,0.5-1.6,0.5c-0.4,0-0.8-0.1-1.2-0.2
	c-0.4-0.1-0.7-0.4-0.9-0.7c-0.2-0.3-0.3-0.6-0.3-1h0.9c0,0.4,0.1,0.7,0.4,0.9c0.3,0.2,0.7,0.4,1.1,0.3c0.4,0,0.7-0.1,1-0.3
	c0.2-0.2,0.4-0.4,0.4-0.7c0-0.3-0.1-0.6-0.3-0.7C181.3,214.6,180.9,214.4,180.5,214.3z"/>
<path class="st9" d="M186.8,217.2c-0.1-0.2-0.1-0.3-0.1-0.5c-0.3,0.4-0.8,0.6-1.4,0.6c-0.4,0-0.8-0.1-1.2-0.4
	c-0.3-0.3-0.5-0.6-0.4-1c0-0.5,0.2-0.9,0.6-1.2c0.5-0.3,1-0.4,1.6-0.4h0.8v-0.4c0-0.3-0.1-0.5-0.3-0.7c-0.2-0.2-0.5-0.3-0.8-0.2
	c-0.3,0-0.5,0.1-0.7,0.2c-0.2,0.1-0.3,0.3-0.3,0.5h-0.8c0-0.3,0.1-0.5,0.2-0.7c0.2-0.2,0.4-0.4,0.7-0.5c0.3-0.1,0.6-0.2,0.9-0.2
	c0.5,0,0.9,0.1,1.3,0.4c0.3,0.3,0.5,0.7,0.5,1.1v2.2c0,0.3,0,0.7,0.2,1v0.1L186.8,217.2z M185.4,216.5c0.3,0,0.5-0.1,0.7-0.2
	c0.2-0.1,0.4-0.3,0.5-0.5v-1H186c-1,0-1.5,0.3-1.5,0.9c0,0.2,0.1,0.5,0.2,0.6C184.9,216.4,185.2,216.5,185.4,216.5L185.4,216.5z"/>
<path class="st9" d="M189.5,212.4v0.6c0.3-0.4,0.9-0.7,1.4-0.7c1,0,1.5,0.6,1.5,1.7v3.1h-0.8V214c0-0.3-0.1-0.5-0.2-0.8
	c-0.2-0.2-0.5-0.3-0.7-0.2c-0.2,0-0.5,0.1-0.7,0.2c-0.2,0.1-0.4,0.3-0.5,0.6v3.4h-0.8v-4.8H189.5z"/>
<path class="st9" d="M193.5,214.7c0-0.6,0.2-1.2,0.5-1.7c0.3-0.4,0.8-0.7,1.4-0.7c0.5,0,1,0.2,1.4,0.6v-0.5h0.7v4.6
	c0,0.5-0.2,1.1-0.5,1.5c-0.4,0.4-0.9,0.6-1.5,0.5c-0.3,0-0.7-0.1-1-0.2c-0.3-0.1-0.6-0.3-0.8-0.6l0.4-0.5c0.3,0.4,0.8,0.6,1.3,0.6
	c0.6,0.1,1.2-0.4,1.3-1c0-0.1,0-0.2,0-0.2v-0.4c-0.3,0.4-0.8,0.6-1.3,0.6c-0.5,0-1-0.2-1.4-0.7C193.6,216,193.5,215.4,193.5,214.7z
	 M194.3,214.8c0,0.4,0.1,0.9,0.3,1.3c0.2,0.3,0.6,0.5,0.9,0.5c0.5,0,0.9-0.3,1.1-0.7v-2.2c-0.2-0.4-0.6-0.7-1.1-0.7
	c-0.4,0-0.7,0.2-0.9,0.5C194.4,213.9,194.3,214.4,194.3,214.8L194.3,214.8z"/>
<path class="st9" d="M201,213.1c-0.1,0-0.3,0-0.4,0c-0.5,0-0.9,0.2-1.1,0.7v3.4h-0.8v-4.8h0.8v0.6c0.2-0.4,0.7-0.7,1.1-0.6
	c0.1,0,0.2,0,0.4,0.1L201,213.1z"/>
<path class="st9" d="M203.7,217.2c-0.6,0-1.2-0.2-1.6-0.6c-0.4-0.5-0.6-1.1-0.6-1.7v-0.1c0-0.4,0.1-0.9,0.3-1.3
	c0.2-0.4,0.4-0.7,0.8-0.9c0.3-0.2,0.7-0.3,1.1-0.3c0.5,0,1.1,0.2,1.4,0.6c0.4,0.5,0.6,1.1,0.5,1.8v0.3h-3.2c0,0.4,0.1,0.8,0.4,1.1
	c0.3,0.3,0.6,0.4,1,0.4c0.3,0,0.5-0.1,0.7-0.2c0.2-0.1,0.4-0.3,0.5-0.5l0.5,0.4C205.1,216.9,204.4,217.3,203.7,217.2z M203.6,213
	c-0.3,0-0.6,0.1-0.8,0.4c-0.2,0.3-0.4,0.6-0.4,1h2.4v-0.1c0-0.4-0.1-0.7-0.3-1C204.2,213.1,203.9,213,203.6,213L203.6,213z"/>
<path class="st9" d="M147,51.6c0,0.6-0.3,1.2-0.8,1.6c-0.5,0.4-1.1,0.6-1.7,0.5c-0.7,0-1.4-0.3-1.8-0.8c-0.5-0.6-0.7-1.4-0.7-2.2
	v-0.6c0-0.5,0.1-1.1,0.3-1.6c0.2-0.4,0.5-0.8,0.9-1c0.4-0.2,0.9-0.4,1.4-0.4c0.6,0,1.2,0.2,1.6,0.6c0.4,0.4,0.7,1,0.7,1.6h-0.9
	c0-0.4-0.2-0.8-0.5-1.1c-0.3-0.2-0.6-0.4-1-0.3c-0.5,0-1,0.2-1.3,0.6c-0.3,0.5-0.5,1.1-0.5,1.7v0.6c0,0.6,0.1,1.2,0.4,1.7
	c0.3,0.4,0.7,0.6,1.2,0.6c0.4,0,0.8-0.1,1.1-0.3c0.3-0.3,0.5-0.7,0.5-1.1L147,51.6z"/>
<path class="st9" d="M147.8,51.2c0-0.4,0.1-0.9,0.3-1.3c0.3-0.7,1.1-1.2,1.9-1.2c0.6,0,1.2,0.2,1.6,0.7c0.4,0.5,0.6,1.1,0.6,1.8v0.1
	c0,0.4-0.1,0.9-0.3,1.2c-0.2,0.4-0.4,0.7-0.8,0.9c-0.3,0.2-0.7,0.3-1.1,0.3c-0.6,0-1.2-0.2-1.6-0.7C148,52.6,147.8,51.9,147.8,51.2
	L147.8,51.2z M148.6,51.3c0,0.5,0.1,0.9,0.4,1.3c0.2,0.3,0.6,0.5,1,0.5c0.4,0,0.8-0.2,1-0.5c0.3-0.4,0.4-0.9,0.4-1.4
	c0-0.5-0.1-0.9-0.4-1.3c-0.2-0.3-0.6-0.5-1-0.5c-0.4,0-0.8,0.2-1,0.5C148.7,50.4,148.6,50.8,148.6,51.3L148.6,51.3z"/>
<path class="st9" d="M156.1,53.6c-0.1-0.2-0.1-0.3-0.1-0.5c-0.3,0.4-0.8,0.6-1.4,0.6c-0.4,0-0.8-0.1-1.1-0.4c-0.3-0.2-0.5-0.6-0.4-1
	c0-0.5,0.2-0.9,0.6-1.2c0.5-0.3,1-0.4,1.6-0.4h0.8v-0.4c0-0.2-0.1-0.5-0.3-0.7c-0.2-0.2-0.5-0.3-0.8-0.3c-0.3,0-0.5,0.1-0.7,0.2
	c-0.2,0.1-0.3,0.3-0.3,0.5h-0.8c0-0.2,0.1-0.5,0.2-0.7c0.2-0.2,0.4-0.4,0.7-0.5c0.3-0.1,0.6-0.2,0.9-0.2c0.5,0,0.9,0.1,1.3,0.4
	c0.3,0.3,0.5,0.7,0.5,1.1v2.2c0,0.3,0,0.7,0.2,1v0.1L156.1,53.6z M154.7,53c0.3,0,0.5-0.1,0.7-0.2c0.2-0.1,0.4-0.3,0.5-0.5v-1h-0.6
	c-1,0-1.5,0.3-1.5,0.9c0,0.2,0.1,0.4,0.3,0.6C154.3,52.9,154.5,53,154.7,53z"/>
<path class="st9" d="M157.9,51.2c0-0.6,0.1-1.2,0.5-1.8c0.3-0.4,0.8-0.7,1.4-0.7c0.5,0,1,0.2,1.4,0.6v-0.5h0.8v4.6
	c0,0.5-0.2,1.1-0.6,1.5c-0.4,0.4-0.9,0.6-1.5,0.5c-0.3,0-0.7-0.1-1-0.2c-0.3-0.1-0.6-0.3-0.8-0.6l0.4-0.5c0.3,0.4,0.8,0.6,1.3,0.7
	c0.3,0,0.7-0.1,0.9-0.3c0.2-0.3,0.4-0.6,0.3-1v-0.4c-0.3,0.4-0.8,0.6-1.3,0.6c-0.5,0-1-0.2-1.4-0.7C158,52.5,157.8,51.9,157.9,51.2z
	 M158.7,51.3c0,0.4,0.1,0.9,0.3,1.3c0.2,0.3,0.6,0.5,0.9,0.5c0.5,0,0.9-0.3,1.1-0.7v-2.2c-0.2-0.4-0.6-0.7-1.1-0.7
	c-0.4,0-0.7,0.2-0.9,0.5C158.8,50.4,158.6,50.9,158.7,51.3L158.7,51.3z"/>
<path class="st9" d="M166,53.2c-0.4,0.4-0.9,0.6-1.4,0.6c-0.4,0-0.9-0.1-1.2-0.4c-0.3-0.4-0.4-0.8-0.4-1.3v-3.1h0.8V52
	c0,0.7,0.3,1.1,0.9,1.1c0.5,0.1,1-0.2,1.2-0.7v-3.5h0.8v4.8H166L166,53.2z"/>
<path class="st9" d="M168.9,53.6h-0.8v-6.8h0.8V53.6z"/>
<path class="st9" d="M170,51.2c0-0.4,0.1-0.8,0.3-1.2c0.2-0.4,0.4-0.7,0.8-0.9c0.3-0.2,0.7-0.3,1.1-0.3c0.6,0,1.2,0.2,1.6,0.7
	c0.4,0.5,0.6,1.1,0.6,1.8v0.1c0,0.4-0.1,0.9-0.3,1.2c-0.2,0.4-0.4,0.7-0.8,0.9c-0.9,0.5-2,0.4-2.7-0.4C170.2,52.6,170,52,170,51.2
	L170,51.2z M170.8,51.3c0,0.5,0.1,0.9,0.4,1.3c0.4,0.6,1.2,0.7,1.8,0.2c0.1-0.1,0.2-0.2,0.2-0.2c0.3-0.4,0.4-0.9,0.4-1.4
	c0-0.5-0.1-0.9-0.4-1.3c-0.2-0.3-0.6-0.5-1-0.5c-0.4,0-0.8,0.2-1,0.5C170.9,50.4,170.8,50.8,170.8,51.3L170.8,51.3z"/>
<path class="st9" d="M82.7,70.2v2.5h-0.8v-6.4h2.4c0.6,0,1.2,0.2,1.6,0.5c0.8,0.8,0.8,2,0,2.8c0,0,0,0,0,0c-0.5,0.4-1.1,0.5-1.7,0.5
	H82.7z M82.7,69.6h1.5c0.4,0,0.7-0.1,1-0.3c0.3-0.2,0.4-0.6,0.4-0.9c0-0.3-0.1-0.7-0.4-0.9c-0.3-0.2-0.6-0.4-1-0.3h-1.5V69.6z"/>
<path class="st9" d="M88.3,72.8h-0.8V66h0.8V72.8z"/>
<path class="st9" d="M92.5,72.8c-0.1-0.2-0.1-0.3-0.1-0.5c-0.3,0.4-0.8,0.6-1.4,0.6c-0.4,0-0.8-0.1-1.2-0.4c-0.3-0.3-0.5-0.6-0.4-1
	c0-0.5,0.2-0.9,0.6-1.2c0.5-0.3,1-0.4,1.6-0.4h0.8v-0.4c0-0.3-0.1-0.5-0.2-0.7c-0.2-0.2-0.5-0.3-0.8-0.2c-0.3,0-0.5,0.1-0.7,0.2
	c-0.2,0.1-0.3,0.3-0.3,0.5h-0.8c0-0.3,0.1-0.5,0.3-0.7c0.2-0.2,0.4-0.4,0.7-0.5c0.3-0.1,0.7-0.2,1-0.2c0.5,0,0.9,0.1,1.3,0.4
	c0.3,0.3,0.5,0.7,0.5,1.1v2.2c0,0.3,0,0.7,0.2,1v0.1L92.5,72.8z M91.2,72.1c0.3,0,0.5-0.1,0.7-0.2c0.2-0.1,0.4-0.3,0.5-0.5v-1h-0.6
	c-1,0-1.5,0.3-1.5,0.9c0,0.2,0.1,0.5,0.3,0.6C90.7,72,90.9,72.1,91.2,72.1z"/>
<path class="st9" d="M94.3,70.3c0-0.6,0.1-1.3,0.5-1.8c0.3-0.4,0.8-0.7,1.4-0.7c0.5,0,1,0.2,1.3,0.6V68h0.8v6.6h-0.8v-2.3
	c-0.3,0.4-0.8,0.5-1.3,0.5c-0.5,0-1.1-0.2-1.4-0.7C94.4,71.7,94.2,71,94.3,70.3L94.3,70.3z M95.1,70.4c0,0.5,0.1,0.9,0.3,1.3
	c0.2,0.3,0.6,0.5,0.9,0.5c0.5,0,0.9-0.2,1.1-0.6v-2.3c-0.2-0.4-0.6-0.6-1.1-0.6c-0.4,0-0.7,0.2-0.9,0.5
	C95.2,69.5,95.1,69.9,95.1,70.4z"/>
<path class="st9" d="M102.5,72.3c-0.4,0.4-0.9,0.6-1.4,0.6c-0.4,0-0.8-0.1-1.1-0.4c-0.3-0.4-0.4-0.8-0.4-1.3V68h0.8v3.1
	c0,0.7,0.3,1.1,0.9,1.1c0.5,0.1,1-0.2,1.2-0.7V68h0.8v4.8h-0.8L102.5,72.3z"/>
<path class="st9" d="M106.5,72.8c-0.6,0-1.2-0.2-1.6-0.6c-0.4-0.5-0.6-1.1-0.6-1.7v-0.2c0-0.4,0.1-0.9,0.3-1.3
	c0.2-0.4,0.4-0.7,0.8-0.9c0.3-0.2,0.7-0.3,1.1-0.3c0.5,0,1.1,0.2,1.4,0.6c0.4,0.5,0.6,1.1,0.5,1.8v0.3h-3.2c0,0.4,0.1,0.8,0.4,1.1
	c0.3,0.3,0.6,0.4,1,0.4c0.3,0,0.5-0.1,0.7-0.2c0.2-0.1,0.4-0.3,0.5-0.5l0.5,0.4C107.9,72.5,107.2,72.9,106.5,72.8z M106.4,68.6
	c-0.3,0-0.6,0.1-0.8,0.4c-0.2,0.3-0.4,0.6-0.4,1h2.4v-0.1c0-0.4-0.1-0.7-0.3-1C107,68.7,106.7,68.6,106.4,68.6z"/>
<path class="st9" d="M110.4,66.8V68h0.9v0.6h-0.9v3c0,0.2,0,0.3,0.1,0.4c0.1,0.1,0.3,0.2,0.4,0.1c0.1,0,0.3,0,0.4-0.1v0.7
	c-0.2,0-0.4,0.1-0.6,0.1c-0.3,0-0.6-0.1-0.8-0.3c-0.2-0.3-0.3-0.6-0.3-0.9v-3h-0.9V68h0.9v-1.2H110.4z"/>
<path class="st9" d="M115.2,72.8c-0.1-0.2-0.1-0.3-0.1-0.5c-0.3,0.4-0.8,0.6-1.3,0.6c-0.4,0-0.8-0.1-1.2-0.4c-0.3-0.3-0.5-0.6-0.4-1
	c0-0.5,0.2-0.9,0.6-1.2c0.5-0.3,1-0.4,1.6-0.4h0.8v-0.4c0-0.3-0.1-0.5-0.2-0.7c-0.2-0.2-0.5-0.3-0.8-0.2c-0.3,0-0.5,0.1-0.7,0.2
	c-0.2,0.1-0.3,0.3-0.3,0.5h-0.8c0-0.3,0.1-0.5,0.3-0.7c0.2-0.2,0.4-0.4,0.7-0.5c0.3-0.1,0.7-0.2,1-0.2c0.5,0,0.9,0.1,1.3,0.4
	c0.3,0.3,0.5,0.7,0.5,1.1v2.2c0,0.3,0,0.7,0.2,1v0.1L115.2,72.8z M113.8,72.1c0.3,0,0.5-0.1,0.7-0.2c0.2-0.1,0.4-0.3,0.5-0.5v-1
	h-0.6c-1,0-1.5,0.3-1.5,0.9c0,0.2,0.1,0.5,0.3,0.6C113.4,72,113.6,72.1,113.8,72.1z"/>
<path class="st9" d="M38.8,172l-5.3-1.8v-0.9l6.4,2.4v0.7l-6.4,2.4v-0.9L38.8,172z"/>
<path class="st9" d="M39.9,165.7c-0.2,0.1-0.3,0.1-0.5,0.1c0.4,0.3,0.6,0.8,0.6,1.4c0,0.4-0.1,0.8-0.4,1.1c-0.2,0.3-0.6,0.5-1,0.4
	c-0.5,0-0.9-0.2-1.2-0.6c-0.3-0.5-0.4-1-0.4-1.6v-0.8h-0.4c-0.3,0-0.5,0.1-0.7,0.2c-0.2,0.2-0.3,0.5-0.3,0.8c0,0.3,0.1,0.5,0.2,0.7
	c0.1,0.2,0.3,0.3,0.5,0.3v0.8c-0.3,0-0.5-0.1-0.7-0.2c-0.2-0.2-0.4-0.4-0.5-0.7c-0.1-0.3-0.2-0.7-0.2-1c0-0.5,0.1-0.9,0.4-1.3
	c0.3-0.3,0.7-0.5,1.1-0.5h2.2c0.3,0,0.7,0,1-0.2h0.1L39.9,165.7z M39.3,167.1c0-0.3-0.1-0.5-0.2-0.7c-0.1-0.2-0.3-0.4-0.5-0.5h-1
	v0.6c0,1,0.3,1.5,0.9,1.5c0.2,0,0.4-0.1,0.6-0.3C39.2,167.6,39.3,167.3,39.3,167.1L39.3,167.1z"/>
<path class="st9" d="M38.7,161c-0.2,0-0.4,0.1-0.5,0.2c-0.2,0.3-0.3,0.6-0.3,0.9c-0.1,0.3-0.2,0.7-0.3,1c-0.1,0.2-0.2,0.4-0.4,0.5
	c-0.2,0.1-0.4,0.2-0.6,0.2c-0.4,0-0.8-0.2-1-0.5c-0.3-0.4-0.4-0.8-0.4-1.3c0-0.5,0.1-0.9,0.4-1.3c0.3-0.3,0.6-0.5,1.1-0.5v0.8
	c-0.2,0-0.4,0.1-0.6,0.3c-0.2,0.2-0.2,0.5-0.2,0.7c0,0.2,0.1,0.5,0.2,0.7c0.1,0.2,0.3,0.3,0.5,0.2c0.2,0,0.3-0.1,0.4-0.2
	c0.1-0.3,0.2-0.5,0.3-0.8c0.1-0.3,0.2-0.7,0.3-1c0.1-0.2,0.3-0.4,0.5-0.6c0.2-0.1,0.4-0.2,0.6-0.2c0.4,0,0.8,0.2,1,0.5
	c0.3,0.4,0.4,0.8,0.4,1.3c0,0.3-0.1,0.7-0.2,1c-0.1,0.3-0.3,0.5-0.6,0.7c-0.2,0.2-0.5,0.3-0.8,0.2v-0.8c0.3,0,0.5-0.1,0.7-0.3
	c0.2-0.2,0.3-0.5,0.2-0.8c0-0.3-0.1-0.5-0.2-0.7C39,161.1,38.9,161,38.7,161z"/>
<path class="st9" d="M37.5,159.4c-0.4,0-0.9-0.1-1.3-0.3c-0.7-0.3-1.2-1.1-1.2-1.9c0-0.6,0.2-1.2,0.7-1.6c0.5-0.4,1.1-0.6,1.8-0.6
	h0.1c0.4,0,0.9,0.1,1.2,0.3c0.4,0.2,0.7,0.4,0.9,0.8c0.2,0.3,0.3,0.7,0.3,1.1c0,0.6-0.2,1.2-0.7,1.6
	C38.9,159.2,38.2,159.4,37.5,159.4L37.5,159.4z M37.6,158.5c0.5,0,0.9-0.1,1.3-0.4c0.3-0.2,0.5-0.6,0.5-1c0-0.4-0.2-0.8-0.5-1
	c-0.4-0.3-0.9-0.4-1.4-0.4c-0.5,0-0.9,0.1-1.3,0.4c-0.3,0.2-0.5,0.6-0.5,1c0,0.4,0.2,0.8,0.5,1C36.6,158.4,37.1,158.6,37.6,158.5
	L37.6,158.5z"/>
<path class="st9" d="M38.7,149c-0.2,0-0.4,0.1-0.5,0.2c-0.2,0.3-0.3,0.6-0.3,0.9c-0.1,0.3-0.2,0.7-0.3,1c-0.1,0.2-0.2,0.4-0.4,0.5
	c-0.2,0.1-0.4,0.2-0.6,0.2c-0.4,0-0.8-0.2-1-0.5c-0.3-0.4-0.4-0.8-0.4-1.3c0-0.5,0.1-0.9,0.4-1.3c0.3-0.3,0.6-0.5,1.1-0.5v0.8
	c-0.2,0-0.4,0.1-0.6,0.3c-0.2,0.2-0.2,0.5-0.2,0.7c0,0.2,0.1,0.5,0.2,0.7c0.1,0.2,0.3,0.3,0.5,0.2c0.2,0,0.3-0.1,0.4-0.2
	c0.1-0.3,0.2-0.5,0.3-0.8c0.1-0.3,0.2-0.7,0.3-1c0.1-0.2,0.3-0.4,0.5-0.6c0.2-0.1,0.4-0.2,0.6-0.2c0.4,0,0.8,0.2,1,0.5
	c0.3,0.4,0.4,0.8,0.4,1.3c0,0.3-0.1,0.7-0.2,1c-0.1,0.3-0.3,0.5-0.6,0.7c-0.2,0.2-0.5,0.2-0.8,0.2v-0.8c0.3,0,0.5-0.1,0.7-0.3
	c0.2-0.2,0.3-0.5,0.2-0.8c0-0.3-0.1-0.5-0.2-0.7C39,149.1,38.9,149,38.7,149z"/>
<path class="st9" d="M39.9,144.2c-0.2,0.1-0.3,0.1-0.5,0.1c0.4,0.3,0.6,0.8,0.6,1.4c0,0.4-0.1,0.8-0.4,1.1c-0.2,0.3-0.6,0.5-1,0.4
	c-0.5,0-0.9-0.2-1.2-0.6c-0.3-0.5-0.4-1-0.4-1.6v-0.8h-0.4c-0.3,0-0.5,0.1-0.7,0.2c-0.2,0.2-0.3,0.5-0.3,0.8c0,0.3,0.1,0.5,0.2,0.7
	c0.1,0.2,0.3,0.3,0.5,0.3v0.8c-0.3,0-0.5-0.1-0.7-0.3c-0.2-0.2-0.4-0.4-0.5-0.7c-0.1-0.3-0.2-0.7-0.2-1c0-0.4,0.1-0.9,0.4-1.2
	c0.3-0.3,0.7-0.5,1.1-0.5h2.2c0.3,0,0.7-0.1,1-0.2h0.1L39.9,144.2z M39.3,145.6c0-0.3-0.1-0.5-0.2-0.7c-0.1-0.2-0.3-0.4-0.5-0.5h-1
	v0.7c0,1,0.3,1.5,0.9,1.5c0.2,0,0.4-0.1,0.6-0.2C39.2,146,39.3,145.8,39.3,145.6z"/>
<path class="st9" d="M35.2,141.5h0.6c-0.4-0.3-0.7-0.9-0.7-1.4c0-1,0.6-1.5,1.7-1.5h3.1v0.8h-3.1c-0.3,0-0.5,0.1-0.8,0.2
	c-0.2,0.2-0.3,0.5-0.2,0.7c0,0.3,0.1,0.5,0.2,0.7c0.1,0.2,0.3,0.4,0.5,0.5h3.4v0.8h-4.8V141.5z"/>
<path class="st9" d="M37.5,137.5c-0.6,0-1.3-0.1-1.8-0.5c-0.4-0.3-0.7-0.8-0.7-1.4c0-0.5,0.2-1,0.6-1.4h-0.5v-0.8h4.6
	c0.5,0,1.1,0.2,1.5,0.6c0.4,0.4,0.6,0.9,0.5,1.5c0,0.3-0.1,0.7-0.2,1c-0.1,0.3-0.3,0.6-0.6,0.8l-0.5-0.4c0.4-0.3,0.7-0.8,0.7-1.3
	c0-0.3-0.1-0.7-0.3-0.9c-0.3-0.2-0.6-0.3-0.9-0.3h-0.4c0.4,0.3,0.6,0.8,0.5,1.3c0,0.5-0.2,1-0.7,1.4
	C38.8,137.3,38.2,137.5,37.5,137.5z M37.6,136.6c0.4,0,0.9-0.1,1.3-0.3c0.3-0.2,0.5-0.6,0.5-0.9c0-0.5-0.3-0.9-0.7-1.1h-2.2
	c-0.4,0.2-0.7,0.6-0.7,1.1c0,0.4,0.2,0.7,0.5,0.9C36.7,136.6,37.1,136.7,37.6,136.6z"/>
<path class="st9" d="M39.5,129.3c0.4,0.4,0.6,0.9,0.6,1.4c0,0.4-0.1,0.9-0.4,1.2c-0.4,0.3-0.8,0.4-1.3,0.4h-3.1v-0.8h3.1
	c0.7,0,1.1-0.3,1.1-0.9c0.1-0.5-0.2-1-0.7-1.2h-3.5v-0.8h4.8v0.8L39.5,129.3z"/>
<path class="st9" d="M39.9,126.4v0.8h-4.7v-0.8H39.9z"/>
<path class="st9" d="M35.2,124.3h0.6c-0.4-0.3-0.7-0.9-0.7-1.4c0-1,0.6-1.5,1.7-1.5h3.1v0.8h-3.1c-0.3,0-0.5,0.1-0.8,0.2
	c-0.2,0.2-0.3,0.5-0.2,0.7c0,0.2,0.1,0.5,0.2,0.7c0.1,0.2,0.3,0.4,0.5,0.5h3.4v0.8h-4.8V124.3z"/>
<path class="st9" d="M40,118.1c0,0.6-0.2,1.2-0.6,1.6c-0.5,0.4-1.1,0.6-1.7,0.6h-0.2c-0.4,0-0.9-0.1-1.3-0.3
	c-0.4-0.2-0.7-0.4-0.9-0.8c-0.2-0.3-0.3-0.7-0.3-1.1c0-0.5,0.2-1.1,0.6-1.4c0.5-0.4,1.1-0.6,1.8-0.5h0.3v3.2c0.4,0,0.8-0.1,1.1-0.4
	c0.3-0.3,0.4-0.6,0.4-1c0-0.3-0.1-0.5-0.2-0.7c-0.1-0.2-0.3-0.4-0.5-0.5l0.4-0.5C39.7,116.7,40,117.4,40,118.1z M35.7,118.2
	c0,0.3,0.1,0.6,0.4,0.8c0.3,0.2,0.6,0.4,1,0.4v-2.4H37c-0.4,0-0.7,0.1-1,0.3C35.8,117.7,35.7,117.9,35.7,118.2L35.7,118.2z"/>
<path class="st9" d="M37.5,115.6c-0.4,0-0.9-0.1-1.3-0.3c-0.7-0.3-1.2-1.1-1.2-1.9c0-0.6,0.2-1.2,0.7-1.6c0.5-0.4,1.1-0.6,1.8-0.6
	h0.1c0.4,0,0.9,0.1,1.2,0.3c0.4,0.2,0.7,0.4,0.9,0.8c0.2,0.3,0.3,0.7,0.3,1.1c0,0.6-0.2,1.2-0.7,1.6
	C38.8,115.4,38.2,115.6,37.5,115.6L37.5,115.6z M37.6,114.7c0.5,0,0.9-0.1,1.3-0.4c0.6-0.4,0.7-1.2,0.3-1.7
	c-0.1-0.1-0.2-0.2-0.3-0.3c-0.4-0.3-0.9-0.4-1.4-0.4c-0.5,0-0.9,0.1-1.3,0.4c-0.6,0.4-0.7,1.2-0.3,1.7c0.1,0.1,0.2,0.2,0.3,0.3
	C36.7,114.7,37.1,114.8,37.6,114.7z"/>
<g>
	<path class="st9" d="M156.4,46.1l-1.5,1.7h-0.8l1.1-1.7H156.4z"/>
</g>
<g>
	<path class="st9" d="M32.6,125l1.7,1.5v0.8l-1.7-1.1V125z"/>
</g>
</svg>
