<svg xmlns="http://www.w3.org/2000/svg" width="128" height="128" viewBox="0 0 128 128"><circle cx="64" cy="64" r="64" fill="#004987"/><circle cx="64" cy="64" r="53.25" fill="#fff"/><path d="M39.38,40.19V31.43a2.19,2.19,0,1,1,4.38,0v8.76a2.19,2.19,0,1,1-4.38,0" fill="#00aeef"/><path d="M76.65,42.39a2.19,2.19,0,0,0,2.19-2.2V31.43a2.2,2.2,0,1,0-4.39,0v8.76a2.19,2.19,0,0,0,2.2,2.2" fill="#00aeef"/><path d="M83.22,64.31a17.54,17.54,0,1,0,17.54,17.54A17.54,17.54,0,0,0,83.22,64.31Zm0,30.69A13.16,13.16,0,1,1,96.38,81.85,13.17,13.17,0,0,1,83.22,95Z" fill="#821518"/><rect x="39.38" y="55.54" width="8.77" height="8.77" fill="#00aeef"/><rect x="39.38" y="68.69" width="8.77" height="8.77" fill="#00aeef"/><rect x="52.53" y="55.54" width="8.77" height="8.77" fill="#00aeef"/><rect x="52.53" y="68.69" width="8.77" height="8.77" fill="#00aeef"/><path d="M35,81.41V51.16H83.22v8.76h4.39V42.82A4.79,4.79,0,0,0,82.86,38H81v2.19a4.39,4.39,0,1,1-8.77,0V38H46v2.19a4.39,4.39,0,1,1-8.77,0V38H35.36a4.79,4.79,0,0,0-4.75,4.82V81.41a4.79,4.79,0,0,0,4.75,4.82H61.3V81.85H35.36a.42.42,0,0,1-.37-.44" fill="#00aeef"/><rect x="65.68" y="55.54" width="8.77" height="8.77" fill="#00aeef"/><path d="M89.8,81.85H83.22V75.27a2.19,2.19,0,0,0-4.38,0V84A2.19,2.19,0,0,0,81,86.23H89.8a2.19,2.19,0,0,0,0-4.38" fill="#821518"/></svg>